<svg width="40" height="40" viewBox="0 0 40 40" fill="none" xmlns="http://www.w3.org/2000/svg">
<path d="M0 8C0 3.58172 3.58172 0 8 0H32C36.4183 0 40 3.58172 40 8V32C40 36.4183 36.4183 40 32 40H8C3.58172 40 0 36.4183 0 32V8Z" fill="#616BE8"/>
<path d="M7 25L10.5996 15H12.0148L15.6144 25H14.504L11.0858 15.5694H11.5068L8.11036 25H7ZM8.60386 22.5764V21.6181H14.0033V22.5764H8.60386Z" fill="white"/>
<path d="M16.9249 25V15H20.9599C21.0615 15 21.1752 15.0046 21.301 15.0139C21.4317 15.0185 21.5623 15.0324 21.6929 15.0556C22.2396 15.1343 22.7017 15.3171 23.0791 15.6042C23.4613 15.8866 23.7492 16.2431 23.9427 16.6736C24.1411 17.1042 24.2402 17.581 24.2402 18.1042C24.2402 18.6227 24.1411 19.0972 23.9427 19.5278C23.7443 19.9583 23.454 20.3171 23.0718 20.6042C22.6944 20.8866 22.2348 21.0671 21.6929 21.1458C21.5623 21.1644 21.4317 21.1782 21.301 21.1875C21.1752 21.1968 21.0615 21.2014 20.9599 21.2014H17.9917V25H16.9249ZM17.9917 20.2292H20.9309C21.018 20.2292 21.1196 20.2245 21.2357 20.2153C21.3518 20.206 21.4655 20.1898 21.5768 20.1667C21.9348 20.0926 22.2275 19.9514 22.4549 19.7431C22.6872 19.5347 22.8589 19.287 22.9702 19C23.0863 18.713 23.1444 18.4144 23.1444 18.1042C23.1444 17.794 23.0863 17.4954 22.9702 17.2083C22.8589 16.9167 22.6872 16.6667 22.4549 16.4583C22.2275 16.25 21.9348 16.1088 21.5768 16.0347C21.4655 16.0116 21.3518 15.9977 21.2357 15.9931C21.1196 15.9838 21.018 15.9792 20.9309 15.9792H17.9917V20.2292Z" fill="white"/>
<path d="M25.6847 25V15H29.7197C29.8213 15 29.935 15.0046 30.0608 15.0139C30.1914 15.0185 30.3221 15.0324 30.4527 15.0556C30.9994 15.1343 31.4615 15.3171 31.8388 15.6042C32.2211 15.8866 32.5089 16.2431 32.7024 16.6736C32.9008 17.1042 33 17.581 33 18.1042C33 18.6227 32.9008 19.0972 32.7024 19.5278C32.5041 19.9583 32.2138 20.3171 31.8316 20.6042C31.4542 20.8866 30.9946 21.0671 30.4527 21.1458C30.3221 21.1644 30.1914 21.1782 30.0608 21.1875C29.935 21.1968 29.8213 21.2014 29.7197 21.2014H26.7515V25H25.6847ZM26.7515 20.2292H29.6907C29.7778 20.2292 29.8794 20.2245 29.9955 20.2153C30.1116 20.206 30.2253 20.1898 30.3366 20.1667C30.6946 20.0926 30.9873 19.9514 31.2147 19.7431C31.4469 19.5347 31.6187 19.287 31.73 19C31.8461 18.713 31.9042 18.4144 31.9042 18.1042C31.9042 17.794 31.8461 17.4954 31.73 17.2083C31.6187 16.9167 31.4469 16.6667 31.2147 16.4583C30.9873 16.25 30.6946 16.1088 30.3366 16.0347C30.2253 16.0116 30.1116 15.9977 29.9955 15.9931C29.8794 15.9838 29.7778 15.9792 29.6907 15.9792H26.7515V20.2292Z" fill="white"/>
</svg>
