<svg width="40" height="40" viewBox="0 0 40 40" fill="none" xmlns="http://www.w3.org/2000/svg">
<path d="M0 8C0 3.58172 3.58172 0 8 0H32C36.4183 0 40 3.58172 40 8V32C40 36.4183 36.4183 40 32 40H8C3.58172 40 0 36.4183 0 32V8Z" fill="#616BE8"/>
<path d="M20.0001 23.7787C17.7772 23.7787 15.9679 22.0832 15.9679 20.0001C15.9679 17.9171 17.7772 16.2216 20.0001 16.2216C22.223 16.2216 24.0323 17.9171 24.0323 20.0001C24.0323 22.0832 22.223 23.7787 20.0001 23.7787ZM20.0001 17.4405C18.4939 17.4405 17.2686 18.5887 17.2686 20.0001C17.2686 21.4116 18.4939 22.5598 20.0001 22.5598C21.5063 22.5598 22.7316 21.4116 22.7316 20.0001C22.7316 18.5887 21.5063 17.4405 20.0001 17.4405Z" fill="white"/>
<path d="M20.5633 32H19.4356C17.6211 32 16.1448 30.6166 16.1448 28.9174V28.2738C16.1448 27.8375 15.9041 27.445 15.5022 27.2256C15.0977 27.0038 14.6151 27.0025 14.2106 27.2171L13.6123 27.534C12.8487 27.9387 11.9604 28.0386 11.1136 27.818C10.2642 27.5961 9.55922 27.0818 9.12868 26.3675L8.57458 25.446C7.68098 23.9663 8.24029 22.0819 9.81937 21.2445C10.2408 21.0214 10.4866 20.618 10.4775 20.1658C10.4684 19.7123 10.207 19.3174 9.77644 19.109C8.16615 18.3289 7.534 16.464 8.36776 14.9538L8.88545 14.0152C9.28867 13.2863 9.97155 12.7464 10.8118 12.4965C11.6534 12.2491 12.5444 12.3173 13.3209 12.694L14.2548 13.1474C14.658 13.3436 15.1328 13.329 15.523 13.1059C15.9132 12.8841 16.1461 12.4965 16.1461 12.0687V11.0838C16.1461 9.38344 17.6224 8 19.4369 8H20.5646C22.3804 8 23.8554 9.38344 23.8554 11.0838V11.7286C23.8554 12.165 24.0961 12.5574 24.498 12.7768C24.8986 12.995 25.3812 13.0011 25.7883 12.7842L26.3867 12.4672C27.1476 12.0638 28.0373 11.9626 28.8853 12.1832C29.7347 12.4039 30.4397 12.9195 30.8702 13.6349L31.4256 14.554C32.3192 16.0337 31.7612 17.9181 30.1809 18.7555C29.7607 18.9786 29.5136 19.382 29.5227 19.8342C29.5318 20.2864 29.7932 20.6814 30.2225 20.8898C31.0016 21.2676 31.5765 21.9088 31.8432 22.695C32.1098 23.4812 32.0344 24.3161 31.6325 25.0462L31.1148 25.9848C30.7116 26.7149 30.0274 27.2536 29.1884 27.5035C28.3507 27.7522 27.4598 27.6839 26.6793 27.306L25.7467 26.8538C25.3409 26.6588 24.8661 26.6722 24.4772 26.8941C24.087 27.1159 23.8542 27.5035 23.8542 27.9313V28.9174C23.8542 30.6178 22.3791 32 20.5633 32ZM14.8506 25.8373C15.3006 25.8373 15.7507 25.9494 16.1591 26.1713C16.9655 26.6125 17.4468 27.3987 17.4468 28.2738V28.9174C17.4468 29.9449 18.3391 30.7811 19.4369 30.7811H20.5646C21.6624 30.7811 22.5547 29.9437 22.5547 28.9174V27.9313C22.5547 27.0757 23.0204 26.298 23.8008 25.8531C24.5826 25.4094 25.5334 25.3778 26.3437 25.7715L27.2776 26.2237C27.7485 26.4528 28.287 26.4943 28.7943 26.3431C29.3029 26.192 29.7165 25.8653 29.9597 25.4265L30.4774 24.4867C30.722 24.0467 30.7662 23.5421 30.6049 23.0655C30.4436 22.5889 30.095 22.2013 29.6268 21.9734C28.7657 21.5553 28.2415 20.7642 28.2233 19.8574C28.2051 18.9505 28.698 18.1412 29.5422 17.6951C30.4969 17.1892 30.8351 16.0483 30.294 15.1549L29.7373 14.2346C29.4785 13.8031 29.0518 13.4923 28.5367 13.3583C28.0256 13.2242 27.4858 13.2839 27.0266 13.5289L26.4283 13.8458C25.6153 14.2761 24.6476 14.2712 23.8424 13.83C23.036 13.3887 22.5547 12.6038 22.5547 11.7286V11.0838C22.5547 10.0551 21.6611 9.21889 20.5646 9.21889H19.4356C18.3378 9.21889 17.4455 10.0551 17.4455 11.0838V12.0687C17.4455 12.9255 16.9798 13.702 16.1981 14.1481C15.4177 14.593 14.4668 14.6235 13.6552 14.2298L12.7226 13.7763C12.253 13.5496 11.7145 13.507 11.2059 13.6581C10.6987 13.8105 10.2837 14.1359 10.0405 14.5759L9.5228 15.5145C9.01812 16.4274 9.40184 17.5549 10.3761 18.0278C11.2359 18.4447 11.76 19.2358 11.7783 20.1438C11.7965 21.0507 11.3035 21.8588 10.4606 22.3061C9.50589 22.812 9.1677 23.9529 9.7075 24.8463L10.2629 25.7666C10.5231 26.1981 10.9497 26.5089 11.4635 26.643C11.976 26.7758 12.5145 26.7161 12.9749 26.4711L13.5732 26.1542C13.9739 25.9433 14.4122 25.8373 14.8506 25.8373Z" fill="white"/>
</svg>
