<svg width="40" height="40" viewBox="0 0 40 40" fill="none" xmlns="http://www.w3.org/2000/svg">
<path d="M0 8C0 3.58172 3.58172 0 8 0H32C36.4183 0 40 3.58172 40 8V32C40 36.4183 36.4183 40 32 40H8C3.58172 40 0 36.4183 0 32V8Z" fill="#616BE8"/>
<path fill-rule="evenodd" clip-rule="evenodd" d="M16.6667 11C17.0493 11 17.389 11.2134 17.5099 11.5298L23.3333 26.7575L25.8234 20.2462C25.9444 19.9298 26.2841 19.7164 26.6667 19.7164H31.1111C31.602 19.7164 32 20.0633 32 20.4912C32 20.9191 31.602 21.266 31.1111 21.266H27.3073L24.1766 29.4526C24.0556 29.7689 23.7159 29.9823 23.3333 29.9823C22.9507 29.9823 22.611 29.7689 22.4901 29.4526L16.6667 14.2249L14.1766 20.7362C14.0556 21.0526 13.7159 21.266 13.3333 21.266H8.88889C8.39797 21.266 8 20.9191 8 20.4912C8 20.0633 8.39797 19.7164 8.88889 19.7164H12.6927L15.8234 11.5298C15.9444 11.2134 16.2841 11 16.6667 11Z" fill="white"/>
</svg>
