<svg width="436" height="515" viewBox="0 0 436 515" fill="none" xmlns="http://www.w3.org/2000/svg">
<g clip-path="url(#clip0_0_513)">
<rect x="60.5308" y="20.3986" width="353.865" height="453.983" rx="10" fill="#EDEFF9"/>
<path d="M110.531 21.8986L87.5308 142.899L164.031 76.3986L188.531 169.399L269.531 76.3986L288.531 169.399L337.031 117.899L352.031 243.399L432.531 117.899L438.031 249.899L470.031 283.899" stroke="#E7EBF9" stroke-width="5"/>
<path d="M44.5308 226.702C70.3572 226.958 124.772 235.007 135.818 265.15C146.865 295.293 258.558 243.875 313.024 214.399L324.531 494.3C280.038 512.499 192.279 556.124 197.188 585.037C203.325 621.178 181.079 629.637 141.955 629.637C102.832 629.637 108.969 641.94 89.791 650.399" stroke="#E7EBF9" stroke-width="5"/>
<path d="M168.896 167.335C156.972 187.135 169.764 214.056 171.843 218.285C170.613 217.436 167.34 215.43 163.071 215.844C161.764 215.971 160.245 216.118 159.01 217.146C155.085 220.412 158.056 229.213 158.243 229.747C160.906 237.371 167.986 240.958 170.381 242.041C171.43 252.422 173.536 264.908 177.69 278.65C181.034 289.713 185.011 299.291 188.898 307.287C183.861 309.604 178.823 311.92 173.785 314.236C174.632 319.387 176.721 327.617 182.563 335.599C195.069 352.682 218.147 359.547 238.279 355.612C257.689 351.819 274.619 337.821 281.162 319.165C285.002 308.216 284.318 298.358 283.436 292.643C278.021 291.776 272.607 290.908 267.192 290.04C266.352 277.212 266.808 262.498 269.954 246.596C270.54 243.63 271.195 240.755 271.903 237.973C275.522 236.057 277.7 233.757 278.888 232.278C282.389 227.92 285.737 220.196 282.786 216.658C282.288 216.06 281.757 215.759 281.324 215.519C276.49 212.837 270.172 216.897 269.304 217.471C270.88 212.066 277.355 187.845 264.36 169.072C243.835 139.421 185.777 139.306 168.896 167.335Z" fill="#F6BA95"/>
<path d="M180.957 312.314C182.732 308.588 209.744 327.945 237.759 319.334C261.408 312.065 271.217 289.34 274.275 291.44C277.256 293.486 271.04 317.216 252.329 328.386C234.904 338.788 215.522 332.999 209.358 331.157C192.866 326.231 179.688 314.98 180.957 312.314Z" fill="#EAAD8C"/>
<path d="M206.145 214.777C204.554 213.998 202.443 214.215 201.006 215.197C196.651 218.173 197.457 228.872 201.947 231.118C203.327 231.808 205.119 231.733 206.433 231.007C209.3 229.425 209.3 225.078 209.3 223.134C209.299 221.235 209.299 216.321 206.145 214.777Z" fill="white"/>
<path d="M205.808 220.045C204.796 219.328 203.107 219.636 202.131 220.552C200.605 221.986 200.834 224.895 202.385 225.886C203.218 226.418 204.369 226.355 205.174 225.886C207.078 224.777 207.423 221.189 205.808 220.045Z" fill="#643219"/>
<path d="M242.282 212.718C240.691 211.939 238.58 212.156 237.143 213.138C232.788 216.114 233.594 226.813 238.085 229.059C239.464 229.75 241.256 229.674 242.57 228.949C245.437 227.366 245.437 223.02 245.437 221.076C245.437 219.176 245.436 214.262 242.282 212.718Z" fill="white"/>
<path d="M241.945 217.986C240.933 217.27 239.245 217.577 238.269 218.494C236.743 219.927 236.972 222.836 238.522 223.827C239.356 224.36 240.506 224.296 241.311 223.827C243.215 222.719 243.56 219.13 241.945 217.986Z" fill="#643219"/>
<path d="M213.749 232.969C213.951 233.093 212.219 235.013 212.18 237.927C212.139 240.904 213.89 243.099 214.111 243.369C217.519 247.52 223.747 246.436 224.615 246.271C225.308 246.14 230.78 245.029 232.221 241.192C232.916 239.34 232.44 237.473 232.704 237.443C232.989 237.411 233.965 239.549 233.549 241.555C232.648 245.899 225.66 247.481 225.098 247.602C223.361 247.974 217.544 248.885 213.508 245.062C212.838 244.428 210.312 242.035 210.489 238.653C210.669 235.231 213.51 232.823 213.749 232.969Z" fill="#DD9F85"/>
<path d="M216.687 255.717C223.196 256.048 228.433 254.523 230.302 253.908C236.785 251.778 239.453 248.915 240.204 249.699C241.171 250.709 237.895 257.113 232.08 260.511C224.766 264.784 216.947 262.334 215.726 261.927C209.712 259.925 205.103 255.219 205.701 254.087C206.19 253.161 209.782 255.367 216.687 255.717Z" fill="#DD9F85"/>
<path d="M218.188 257.92C224.169 258.384 228.665 256.923 229.636 256.593C234.496 254.942 237.211 252.365 237.409 252.635C237.618 252.921 234.792 256.037 230.583 258.204C228.694 259.176 224.104 261.461 218.506 260.529C213.871 259.756 210.242 257.062 210.434 256.574C210.596 256.163 213.387 257.547 218.188 257.92Z" fill="white"/>
<path d="M272.561 219.157C272.499 219.001 275.665 216.487 279.025 217.518C279.501 217.664 280.729 218.041 281.492 219.107C283.883 222.443 279.031 228.772 278.937 228.727C278.847 228.684 282.918 222.578 280.787 219.725C280.245 218.998 279.455 218.691 278.937 218.489C275.768 217.256 272.621 219.309 272.561 219.157Z" fill="#EAAD8C"/>
<path d="M169.784 220.654C169.846 220.498 166.68 217.984 163.32 219.015C162.845 219.161 161.616 219.538 160.853 220.604C158.463 223.94 163.314 230.269 163.408 230.224C163.498 230.181 159.427 224.075 161.558 221.222C162.1 220.495 162.89 220.188 163.408 219.986C166.578 218.753 169.724 220.806 169.784 220.654Z" fill="#EAAD8C"/>
<path d="M271.954 223.619C272.243 223.435 273.552 222.599 274.546 223.161C274.674 223.234 275.057 223.477 275.352 224.239C275.918 225.699 275.437 227.207 275.137 228.01C273.796 231.597 271.14 234.272 270.846 234.059C270.469 233.785 273.329 228.262 272.556 226.932C272.521 226.872 272.489 226.826 272.489 226.826C271.844 225.871 270.698 226.18 270.458 225.693C270.209 225.186 271.115 224.155 271.954 223.619Z" fill="#EAAD8C"/>
<path d="M168.9 223.84C168.611 223.656 167.302 222.82 166.308 223.382C166.18 223.455 165.797 223.698 165.502 224.46C164.936 225.92 165.417 227.428 165.717 228.23C167.057 231.818 169.714 234.493 170.008 234.28C170.385 234.006 167.525 228.483 168.298 227.153C168.333 227.093 168.365 227.047 168.365 227.047C169.01 226.092 170.156 226.4 170.395 225.914C170.645 225.406 169.739 224.375 168.9 223.84Z" fill="#EAAD8C"/>
<path d="M230.47 178.454C227.414 184.362 224.488 185.904 222.327 186.171C218.792 186.608 217.501 183.612 209.341 181.321C205.699 180.298 204.855 180.585 202.958 179.336C199.456 177.03 199.512 174.193 196.795 172.502C195.107 171.452 192.196 170.748 186.89 172.722C189.446 172.621 191.717 173.853 192.613 175.809C194.078 179.007 191.005 182.266 190.852 182.423C188.279 185.071 185.643 183.378 182.709 185.289C177.782 188.499 178.306 197.717 178.527 201.604C178.837 207.058 180.042 207.228 181.168 214.391C182.036 219.917 181.962 223.907 181.828 231.147C181.769 234.361 181.657 235.864 180.728 250.108C180.153 258.911 179.883 263.371 180.728 266.202C181.456 268.644 183.633 275.947 190.192 278.549C193.898 280.019 198.397 279.748 201.857 278.108C206.174 276.062 206.365 273.077 210.001 272.596C212.999 272.199 213.65 274.126 218.365 274.58C221.72 274.904 224.341 274.212 226.288 273.698C232.553 272.046 232.668 269.697 236.633 269.289C241.124 268.827 241.886 271.747 247.858 272.596C249.48 272.827 255.772 273.721 260.184 270.391C265.967 266.027 265.484 256.697 265.246 252.092C264.842 244.284 262.411 243.511 261.504 234.454C261.206 231.476 261.405 230.916 262.165 218.139C262.863 206.406 263.208 200.445 263.045 195.872C262.703 186.296 262.532 181.508 260.184 177.132C255.021 167.511 245.154 166.116 245.657 162.58C245.958 160.467 249.886 158.132 265.026 156.848C266.965 160.886 269.67 167.329 271.409 175.588C272.863 182.497 272.583 185.646 272.95 207.777C273.266 226.878 273.592 231.569 274.93 237.982C276.607 246.016 277.618 245.944 278.672 252.313C280.84 265.41 278.286 276.112 276.691 282.517C273.361 295.892 270.459 307.549 259.964 316.911C246.797 328.656 230.496 328.924 223.647 329.037C217.139 329.144 201.125 329.171 186.45 317.793C183.131 315.22 173.209 306.89 168.622 292.879C166.291 285.759 166.334 279.093 166.421 265.761C166.482 256.395 167.156 256.016 167.742 240.628C168.21 228.33 168.426 222.056 167.522 215.935C165.956 205.339 163.689 205.157 161.579 194.769C159.853 186.27 157.226 173.335 162.9 160.596C163.82 158.53 170.605 143.794 182.929 140.533C198.296 136.468 220.116 150.82 230.47 178.454Z" fill="#643219"/>
<path d="M235.063 200.04C233.146 199.897 231.394 200.716 230.604 202.149C230.41 202.5 229.769 203.803 230.375 205.16C230.923 206.385 232.274 207.177 233.813 207.159C239.589 206.978 245.366 206.797 251.143 206.616C252.642 206.582 253.895 205.844 254.327 204.744C254.593 204.064 254.47 203.439 254.396 203.167C254.062 201.959 252.83 201.052 251.271 200.815C245.868 200.557 240.465 200.298 235.063 200.04Z" fill="#643219"/>
<path d="M210.334 208.367C212.285 208.344 213.985 207.361 214.659 205.842C214.825 205.469 215.359 204.093 214.627 202.772C213.966 201.58 212.53 200.895 210.975 201.048C205.148 201.737 199.32 202.425 193.492 203.113C191.978 203.278 190.776 204.135 190.436 205.287C190.225 205.999 190.404 206.621 190.504 206.89C190.946 208.084 192.272 208.895 193.87 208.999C199.358 208.788 204.846 208.577 210.334 208.367Z" fill="#643219"/>
<path d="M174.081 313.791C176.31 318.066 189.501 342.425 216.362 347.992C220.226 348.793 230.748 350.84 242.838 346.73C261.903 340.248 273.404 322.34 276.793 306.571C278.187 300.085 278.078 294.568 277.801 291.08C282.042 292.03 288.234 293.437 295.704 295.205C308.895 298.328 318.706 300.834 319.405 301.014C387.857 318.646 424.516 373.307 424.516 373.307C449.16 410.053 452.216 448.187 452.271 467.454C444.059 469.688 430.815 472.186 414.684 470.388C401.744 468.946 391.42 465.239 384.42 462.076C389.254 483.755 392.549 513.181 386.467 546.608C384.998 554.683 383.122 562.221 381.011 569.199C299.045 564.705 217.079 560.211 135.113 555.718C132.422 547.051 129.73 538.385 127.038 529.719C125.19 524.237 123.412 516.191 124.642 506.779C128.198 479.548 153.686 465.649 156.98 463.919C150.93 469.545 141.32 477.006 127.908 482.205C102.068 492.22 78.8488 487.35 69.7641 484.914C68.0234 472.26 63.3279 426.814 91.4965 380.655C119.617 334.574 162.034 318.025 174.081 313.791Z" fill="white"/>
<path d="M375.971 440.549C379.161 446.483 382.551 454.261 384.809 463.727C385.915 468.368 386.58 472.705 386.961 476.622C387.429 479.917 387.896 483.212 388.364 486.506C387.513 481.82 386.094 474.902 383.768 466.669C378.851 449.263 372.606 435.622 373.111 435.405C373.243 435.347 373.839 436.217 375.971 440.549Z" fill="#DCDCDC"/>
<path d="M154.475 438.529C153.843 443.647 153.567 450.153 154.538 457.586C155.014 461.231 155.717 464.541 156.505 467.474C157.065 469.979 157.625 472.485 158.185 474.99C157.518 471.379 156.648 466.005 156.057 459.446C154.808 445.579 155.501 434.094 155.09 434.066C154.982 434.059 154.799 434.842 154.475 438.529Z" fill="#DCDCDC"/>
<path d="M237.792 134.748C242.914 136.877 246.987 139.1 249.913 140.856C256.022 144.524 260.132 147.056 263.212 152.073C263.892 153.181 264.586 154.882 265.975 158.286C268.28 163.938 270.1 168.399 271.329 173.556C272.289 177.585 273.256 183.583 272.816 191.209C270.126 189.445 265.746 186.856 259.951 184.729C251.095 181.478 248.83 182.938 244.434 180.77C231.73 174.503 225.701 150.005 234.565 138.068C235.778 136.434 237.046 135.338 237.792 134.748Z" fill="url(#paint0_linear_0_513)"/>
<path d="M184.121 139.648C190.085 138.02 195.11 137.041 198.703 136.438C211.735 134.251 222.186 134.297 228.349 134.351C232.425 134.387 235.768 134.544 237.964 134.672C239.181 144.402 241.097 155.082 244.053 166.454C245.492 171.99 247.059 177.236 248.7 182.185C237.929 177.005 225.9 170.397 213.286 161.96C202.046 154.442 192.351 146.816 184.121 139.648Z" fill="url(#paint1_linear_0_513)"/>
<path d="M165.413 206.818C162.628 200.423 159.753 191.089 160.122 179.806C160.38 171.96 160.767 160.152 169.491 150.907C174.957 145.115 181.442 142.716 185.213 141.67C183.176 138.962 179.294 134.586 173.065 131.6C171.837 131.011 156.103 123.746 144.828 132.039C139.202 136.177 137.299 142.268 136.512 144.913C131.76 160.881 141.945 176.798 148.329 186.774C151.614 191.908 157.013 199.265 165.413 206.818Z" fill="#DBA606"/>
<path d="M261.916 185.17C254.334 186.735 240.506 188.344 225.465 182.667C213.691 178.223 205.422 170.921 201.588 167.096C196.454 161.974 195.839 159.678 185.083 147.353C178.668 140.003 175.4 136.292 172.423 134.511C168.462 132.142 159.794 128.389 144.54 132.104C148.928 129.927 156.077 127.23 164.571 128.091C173.684 129.014 179.772 133.569 186.845 138.845C208.332 154.874 219.193 162.949 224.503 166.615C232.62 172.218 244.863 179.415 261.916 185.17Z" fill="#F2B705"/>
<path d="M169.036 316.14C180.215 374.502 189.064 417.228 191.723 428.984C192.399 431.969 193.872 438.187 198.789 443.955C200.125 445.523 203.439 449.092 210.202 452.393C224.412 459.332 238.946 457.818 245.801 457.021C247.982 456.767 265.458 454.568 278.682 444.772C283.709 441.048 286.16 437.679 287.649 434.428C289.536 430.309 289.835 426.474 289.823 424.084C291.444 397.51 293.505 370.335 296.059 342.593C297.498 326.971 299.057 311.559 300.727 296.363C306.949 297.921 313.172 299.479 319.395 301.038C318.583 307.258 317.465 316.498 316.454 327.724C313.694 358.389 311.378 384.109 314.824 414.829C319.207 453.905 330.424 478.88 333.846 486.147C344.326 508.398 354.112 518.292 362.379 524.528C372.024 531.802 381.544 535.562 388.195 537.593C388.345 553.484 386.011 565.63 383.847 573.797C381.485 582.711 378.921 588.402 377.054 599.656C375.205 610.797 375.371 619.36 375.423 622.794C375.985 660.202 371.481 660.634 374.408 748.179C374.408 748.179 376.47 809.834 371.065 952.468C371.015 953.79 371.296 957.503 369.095 960.858C366.423 964.93 362.105 965.642 349.876 968.318C332.212 972.183 328.5 973.481 324.632 970.846C321.027 968.391 319.856 964.272 319.334 962.339C302.9 901.407 282.68 841.443 268.899 779.856C264.615 760.711 260.608 744.402 255.583 744.469C251.421 744.525 247.983 755.8 243.083 779.583C235.657 815.633 233.631 837.904 229.795 866.524C229.795 866.524 222.298 922.454 200.642 956.82C198.755 959.814 195.996 963.434 191.436 965.657C186.106 968.256 180.064 967.333 167.978 965.488C164.014 964.883 161.428 964.273 159.354 962.163C156.331 959.087 156.228 954.682 156.179 953.358C153.317 876.234 139.282 799.854 135.104 722.79C133.661 696.174 131.668 669.068 131.668 669.068C128.015 619.395 125.005 597.868 125.689 562.636C125.981 547.627 126.75 535.431 127.32 527.794C131.777 521.622 137.587 512.742 143.081 501.39C153.716 479.418 157.003 460.923 159.657 445.316C161.666 433.51 166.05 407.739 162.375 379.443C161.356 371.599 157.814 348.899 157.483 346.778C156.038 337.513 154.798 329.88 153.951 324.73C155.862 323.538 157.84 322.346 159.886 321.16C163.005 319.35 166.061 317.681 169.036 316.14Z" fill="#F2B705"/>
<path d="M187.97 477.908C190.265 474.692 192.308 472.229 193.785 470.541C195.764 468.279 196.323 467.867 197.292 466.313C199.25 463.174 198.675 462.114 200.561 459.506C202.386 456.982 203.372 457.357 204.39 455.25C204.411 455.207 204.503 455.01 204.614 454.737C205.661 452.162 205.237 450.391 205.465 449.296C206.105 446.225 212.584 445.106 213.187 445.004C219.047 444.015 224.005 446.484 226.421 447.684C235.419 452.153 247.384 458.023 249.883 459.175C259.505 463.611 265.476 461.128 283.108 460.331C319.196 458.702 319.494 467.888 345.589 463.801C357.394 461.952 361.207 459.466 381.572 456.415C392.651 454.755 398.829 453.827 405.879 453.849C415.474 453.879 432.023 455.683 452.31 467.473C452.133 473.564 451.428 482.116 449.043 492.05C447.246 499.541 444.788 506.592 442.996 510.483C433.537 531.021 407.409 539.799 399.064 542.754C362.951 555.542 330.819 542.964 321.938 539.332C306.452 532.998 298.517 525.722 288.457 518.38C268.534 503.84 237.133 486.745 187.97 477.908Z" fill="#F6BA95"/>
<path d="M280.316 511.732C300.147 489.358 315.49 482.206 326.143 480.012C330.822 479.048 345.935 476.705 357.295 464.796C358.681 463.344 359.72 462.053 360.385 461.186C336.571 451.911 310.68 456.726 295.041 473.154C281.072 487.829 280.34 506.458 280.316 511.732Z" fill="#EAAD8C"/>
<path d="M188.816 477.565C188.433 480.334 225.523 497.289 253.458 482.948C265.426 476.804 275.728 465.783 273.761 461.564C272.253 458.329 263.464 458.95 249.726 459.919C247.136 460.102 243.402 460.461 238.828 461.713C236.987 462.217 234.75 462.937 230.617 464.704C217.714 470.22 218.631 471.313 212.852 473.079C211.555 473.474 206.431 474.347 196.184 476.093C189.263 477.272 188.855 477.282 188.816 477.565Z" fill="#EAAD8C"/>
<path d="M69.698 484.521C69.8023 485.187 69.9668 486.169 70.2058 487.347C77.2905 522.275 113.663 551.668 151.131 560.138C186.325 568.094 215.326 556.054 227.495 550.849C243.585 543.968 263.054 535.642 276.897 516.901C282.396 509.455 291.114 496.658 307.482 483.389C307.482 483.389 312.003 479.999 317.617 476.868C332.187 468.745 357.971 461.59 360.385 460.928C345.52 450.867 331.929 447.479 324.047 446.159C303.38 442.698 286.358 447.567 275.468 450.546C266.676 452.951 260.021 455.557 254.556 458.191C233.164 468.501 225.611 473.53 216.887 476.868C205.177 481.35 186.435 482.144 156.065 464.469C139.486 470.795 119.84 476.759 97.4252 480.778C87.7167 482.518 78.446 483.722 69.698 484.521Z" fill="#F6BA95"/>
<path d="M205.143 455.767C205.208 455.397 209.12 455.337 213.155 456.612C218.367 458.258 222.084 461.594 221.87 461.962C221.689 462.274 218.754 460.364 212.452 458.161C207.753 456.518 205.089 456.077 205.143 455.767Z" fill="#EAAD8C"/>
<path d="M198.036 466.678C198.072 466.322 201.051 465.991 204.068 466.678C208.99 467.799 212.458 471.279 212.229 471.654C212.038 471.966 209.36 469.993 203.713 468.277C200.214 467.214 198.004 466.987 198.036 466.678Z" fill="#E0AE90"/>
<path d="M155.57 463.981C158.489 466.05 162.967 468.901 168.845 471.395C176.641 474.704 182.726 476.006 182.626 476.457C182.489 477.073 171.262 473.968 156.393 473.782C149.684 473.698 144.803 474.241 139.183 474.885C121.889 476.869 115.153 479.88 101.898 482.239C94.5198 483.552 83.567 484.94 69.698 484.577C90.6081 482.294 113.858 477.884 138.483 469.972C144.39 468.073 150.086 466.067 155.57 463.981Z" fill="#E0AE90"/>
<path d="M280.094 292.564C280.124 298.301 279.425 308.554 274.141 319.758C271.673 324.991 265.821 337.4 251.994 345.044C234.002 354.989 215.651 349.6 211.51 348.383C191.353 342.463 181.191 327.194 178.646 323.098C181.218 327.55 190.775 342.823 210.319 349.576C214.473 351.011 234.276 357.854 253.423 347.191C267.558 339.318 273.352 326.35 275.57 321.189C280.783 309.06 280.58 298.111 280.094 292.564Z" fill="#DCDCDC"/>
</g>
<g clip-path="url(#clip1_0_513)">
<rect x="313.945" y="325" width="126.01" height="162.26" rx="10" transform="rotate(15 313.945 325)" fill="#161C28"/>
<circle cx="274.042" cy="488.755" r="79" transform="rotate(15 274.042 488.755)" fill="#232937"/>
<circle cx="468.209" cy="371.947" r="79" transform="rotate(15 468.209 371.947)" fill="#232937"/>
<circle opacity="0.5" cx="349.385" cy="359.152" r="14" transform="rotate(15 349.385 359.152)" fill="white"/>
<circle opacity="0.5" cx="333.318" cy="354.847" r="14" transform="rotate(15 333.318 354.847)" fill="white"/>
<path d="M311.739 403.09L310.718 402.816C310.736 402.506 310.7 402.22 310.608 401.957C310.52 401.695 310.388 401.46 310.215 401.252C310.045 401.042 309.841 400.864 309.604 400.718C309.366 400.572 309.108 400.461 308.828 400.386C308.317 400.249 307.82 400.255 307.337 400.401C306.856 400.549 306.426 400.841 306.048 401.278C305.672 401.716 305.386 402.299 305.19 403.029C304.995 403.759 304.95 404.407 305.057 404.974C305.167 405.542 305.393 406.01 305.736 406.378C306.081 406.747 306.509 407 307.019 407.137C307.299 407.212 307.578 407.245 307.857 407.238C308.135 407.23 308.4 407.179 308.652 407.085C308.907 406.988 309.139 406.849 309.346 406.666C309.558 406.482 309.732 406.252 309.871 405.977L310.892 406.251C310.699 406.661 310.456 407.009 310.162 407.295C309.868 407.581 309.538 407.803 309.172 407.961C308.807 408.116 308.42 408.205 308.011 408.227C307.604 408.251 307.188 408.206 306.763 408.092C306.044 407.899 305.452 407.552 304.986 407.051C304.52 406.55 304.214 405.932 304.066 405.199C303.919 404.465 303.964 403.654 304.202 402.764C304.441 401.875 304.807 401.15 305.302 400.588C305.796 400.027 306.37 399.645 307.024 399.444C307.678 399.243 308.365 399.239 309.084 399.431C309.509 399.545 309.892 399.714 310.232 399.937C310.575 400.162 310.865 400.434 311.103 400.753C311.342 401.07 311.517 401.426 311.629 401.821C311.741 402.212 311.778 402.636 311.739 403.09ZM313.524 409.939C313.124 409.831 312.78 409.658 312.494 409.42C312.209 409.179 312.009 408.888 311.894 408.549C311.78 408.206 311.778 407.83 311.888 407.418C311.985 407.056 312.135 406.781 312.338 406.594C312.542 406.405 312.78 406.278 313.054 406.213C313.327 406.148 313.616 406.122 313.921 406.136C314.23 406.148 314.536 406.174 314.84 406.215C315.237 406.268 315.559 406.315 315.804 406.354C316.053 406.391 316.241 406.393 316.367 406.359C316.497 406.326 316.582 406.232 316.624 406.075L316.633 406.042C316.742 405.636 316.715 405.291 316.553 405.006C316.394 404.722 316.091 404.521 315.644 404.401C315.18 404.276 314.789 404.281 314.471 404.413C314.153 404.546 313.91 404.713 313.741 404.914L312.907 404.338C313.175 403.998 313.475 403.758 313.806 403.617C314.142 403.475 314.484 403.405 314.833 403.407C315.186 403.408 315.522 403.45 315.84 403.536C316.043 403.59 316.27 403.677 316.52 403.797C316.774 403.915 317.004 404.081 317.211 404.296C317.421 404.511 317.569 404.79 317.653 405.133C317.738 405.477 317.713 405.899 317.578 406.401L316.462 410.567L315.49 410.307L315.72 409.45L315.67 409.437C315.568 409.557 315.419 409.674 315.223 409.789C315.028 409.905 314.787 409.983 314.503 410.024C314.218 410.066 313.892 410.037 313.524 409.939ZM313.906 409.106C314.291 409.209 314.635 409.22 314.938 409.14C315.245 409.06 315.498 408.919 315.696 408.716C315.897 408.514 316.033 408.281 316.104 408.018L316.342 407.129C316.287 407.167 316.185 407.188 316.034 407.192C315.886 407.194 315.718 407.185 315.529 407.167C315.343 407.147 315.162 407.125 314.986 407.101C314.814 407.075 314.673 407.055 314.565 407.041C314.304 407.006 314.054 406.997 313.814 407.012C313.579 407.025 313.374 407.087 313.2 407.196C313.03 407.303 312.912 407.481 312.846 407.728C312.756 408.065 312.812 408.354 313.016 408.594C313.223 408.831 313.519 409.002 313.906 409.106ZM318.235 411.042L319.929 404.72L320.867 404.971L320.612 405.926L320.677 405.944C320.876 405.662 321.153 405.464 321.507 405.35C321.861 405.236 322.228 405.23 322.606 405.331C322.678 405.35 322.766 405.375 322.873 405.407C322.979 405.438 323.059 405.464 323.112 405.484L322.848 406.472C322.817 406.455 322.745 406.423 322.631 406.374C322.521 406.324 322.401 406.282 322.272 406.248C321.965 406.165 321.673 406.156 321.397 406.22C321.125 406.283 320.888 406.408 320.688 406.595C320.491 406.781 320.355 407.016 320.278 407.301L319.206 411.302L318.235 411.042ZM324.707 412.917C324.18 412.776 323.751 412.519 323.419 412.144C323.088 411.767 322.873 411.304 322.777 410.755C322.68 410.202 322.722 409.591 322.901 408.922C323.079 408.258 323.348 407.712 323.706 407.285C324.065 406.857 324.483 406.565 324.96 406.407C325.438 406.25 325.943 406.243 326.475 406.385C326.887 406.496 327.194 406.651 327.396 406.853C327.601 407.052 327.744 407.255 327.824 407.461C327.907 407.666 327.97 407.833 328.012 407.962L328.094 407.984L328.928 404.872L329.899 405.132L327.64 413.562L326.702 413.311L326.962 412.339L326.847 412.308C326.745 412.405 326.604 412.523 326.425 412.663C326.247 412.801 326.018 412.905 325.737 412.977C325.457 413.046 325.113 413.026 324.707 412.917ZM325.073 412.08C325.462 412.185 325.819 412.171 326.142 412.04C326.466 411.906 326.747 411.677 326.984 411.353C327.222 411.025 327.404 410.623 327.532 410.145C327.659 409.673 327.701 409.242 327.659 408.851C327.617 408.457 327.488 408.126 327.272 407.856C327.057 407.584 326.752 407.395 326.357 407.289C325.945 407.179 325.574 407.192 325.243 407.33C324.915 407.466 324.635 407.695 324.401 408.018C324.171 408.339 323.996 408.721 323.877 409.166C323.757 409.616 323.716 410.043 323.754 410.447C323.797 410.85 323.924 411.196 324.138 411.486C324.355 411.773 324.667 411.971 325.073 412.08Z" fill="#E6E6E6"/>
<circle cx="300.431" cy="421.801" r="2" transform="rotate(15 300.431 421.801)" fill="#D9D9D9"/>
<circle cx="311.056" cy="424.648" r="2" transform="rotate(15 311.056 424.648)" fill="#D9D9D9"/>
<circle cx="321.681" cy="427.495" r="2" transform="rotate(15 321.681 427.495)" fill="#D9D9D9"/>
<circle cx="332.306" cy="430.342" r="2" transform="rotate(15 332.306 430.342)" fill="#D9D9D9"/>
<path d="M349.923 430.168L347.664 438.598L346.643 438.324L348.615 430.965L348.566 430.951L346.142 431.767L346.42 430.729L348.902 429.894L349.923 430.168ZM350.089 439.248L350.287 438.507L353.886 436.206C354.308 435.937 354.66 435.699 354.942 435.492C355.225 435.283 355.448 435.075 355.612 434.869C355.779 434.661 355.898 434.428 355.967 434.17C356.046 433.873 356.044 433.598 355.959 433.343C355.877 433.088 355.73 432.87 355.517 432.686C355.305 432.503 355.046 432.37 354.742 432.289C354.418 432.202 354.117 432.193 353.84 432.263C353.566 432.331 353.331 432.466 353.135 432.67C352.942 432.874 352.803 433.137 352.717 433.458L351.745 433.197C351.877 432.703 352.108 432.3 352.435 431.988C352.763 431.676 353.151 431.468 353.599 431.365C354.05 431.262 354.522 431.277 355.013 431.408C355.507 431.541 355.916 431.762 356.242 432.073C356.567 432.384 356.791 432.745 356.913 433.157C357.035 433.569 357.038 433.992 356.922 434.426C356.839 434.736 356.701 435.024 356.509 435.29C356.321 435.554 356.041 435.831 355.669 436.119C355.301 436.406 354.806 436.744 354.185 437.133L351.748 438.651L351.731 438.717L355.649 439.767L355.407 440.673L350.089 439.248ZM359.924 442.006C359.381 441.861 358.922 441.638 358.546 441.337C358.174 441.037 357.907 440.688 357.746 440.289C357.589 439.888 357.559 439.464 357.655 439.016L358.692 439.294C358.641 439.572 358.672 439.831 358.784 440.073C358.896 440.312 359.071 440.521 359.308 440.699C359.546 440.877 359.827 441.01 360.15 441.097C360.513 441.194 360.851 441.216 361.164 441.165C361.478 441.114 361.745 440.997 361.964 440.815C362.184 440.632 362.333 440.393 362.412 440.097C362.495 439.787 362.492 439.493 362.401 439.216C362.312 438.936 362.137 438.689 361.876 438.475C361.616 438.261 361.272 438.097 360.844 437.982L360.169 437.801L360.411 436.896L361.086 437.077C361.421 437.166 361.731 437.185 362.016 437.132C362.303 437.079 362.548 436.963 362.749 436.781C362.954 436.601 363.095 436.362 363.175 436.066C363.251 435.78 363.255 435.515 363.185 435.27C363.116 435.025 362.981 434.813 362.782 434.633C362.586 434.454 362.333 434.323 362.023 434.24C361.732 434.162 361.443 434.142 361.157 434.18C360.874 434.215 360.624 434.312 360.409 434.469C360.194 434.623 360.042 434.838 359.953 435.114L358.965 434.85C359.1 434.412 359.337 434.061 359.676 433.796C360.015 433.528 360.412 433.355 360.865 433.276C361.321 433.199 361.792 433.225 362.278 433.355C362.799 433.495 363.218 433.72 363.535 434.031C363.852 434.34 364.065 434.693 364.173 435.089C364.282 435.486 364.283 435.883 364.176 436.281C364.049 436.756 363.815 437.127 363.476 437.395C363.139 437.664 362.741 437.805 362.281 437.82L362.264 437.886C362.772 438.117 363.127 438.455 363.329 438.9C363.531 439.342 363.56 439.831 363.417 440.366C363.294 440.824 363.059 441.202 362.711 441.5C362.367 441.796 361.953 441.991 361.469 442.085C360.985 442.179 360.47 442.153 359.924 442.006ZM364.753 441.324L364.978 440.484L370.253 435.615L370.862 435.779L370.513 437.079L370.102 436.969L366.116 440.648L366.098 440.714L371.087 442.051L370.845 442.956L364.753 441.324ZM368.257 444.116L368.789 442.132L368.894 441.741L370.516 435.686L371.488 435.946L369.229 444.376L368.257 444.116Z" fill="#F0F0EF"/>
<path d="M363.507 496.752C362.886 496.585 362.403 496.275 362.057 495.821C361.712 495.364 361.511 494.782 361.453 494.075C361.396 493.366 361.49 492.553 361.736 491.636C361.98 490.725 362.304 489.978 362.707 489.395C363.114 488.81 363.581 488.406 364.109 488.182C364.64 487.957 365.212 487.927 365.827 488.091C366.442 488.256 366.921 488.568 367.266 489.028C367.614 489.486 367.816 490.07 367.873 490.779C367.933 491.486 367.842 492.296 367.597 493.207C367.352 494.123 367.027 494.874 366.623 495.46C366.22 496.043 365.754 496.447 365.227 496.67C364.7 496.891 364.127 496.918 363.507 496.752ZM363.749 495.846C364.364 496.011 364.921 495.842 365.42 495.341C365.919 494.839 366.315 494.04 366.61 492.942C366.805 492.212 366.894 491.57 366.875 491.015C366.858 490.46 366.741 490.01 366.522 489.663C366.306 489.317 365.995 489.089 365.589 488.98C364.98 488.817 364.423 488.99 363.919 489.499C363.416 490.005 363.017 490.806 362.724 491.901C362.528 492.631 362.439 493.272 362.456 493.823C362.473 494.375 362.59 494.822 362.807 495.166C363.026 495.51 363.34 495.737 363.749 495.846ZM373.006 490.015C373.351 490.11 373.679 490.269 373.99 490.49C374.301 490.712 374.559 491.01 374.765 491.386C374.971 491.759 375.091 492.225 375.127 492.784C375.162 493.344 375.076 494.011 374.869 494.784C374.668 495.534 374.418 496.18 374.12 496.723C373.825 497.265 373.491 497.699 373.118 498.026C372.748 498.353 372.346 498.569 371.912 498.673C371.481 498.778 371.028 498.767 370.553 498.64C370.081 498.513 369.685 498.307 369.365 498.021C369.048 497.733 368.816 497.391 368.67 496.993C368.527 496.592 368.482 496.161 368.535 495.699L369.54 495.968C369.527 496.379 369.621 496.747 369.822 497.072C370.027 497.394 370.351 497.615 370.796 497.734C371.446 497.909 372.036 497.762 372.564 497.295C373.095 496.828 373.499 496.076 373.777 495.039L373.711 495.021C373.496 495.211 373.26 495.361 373.004 495.471C372.748 495.582 372.478 495.648 372.196 495.67C371.914 495.691 371.627 495.663 371.337 495.585C370.854 495.456 370.442 495.218 370.103 494.871C369.767 494.522 369.535 494.105 369.406 493.621C369.28 493.134 369.29 492.619 369.436 492.076C369.574 491.56 369.816 491.119 370.161 490.752C370.51 490.384 370.928 490.129 371.416 489.986C371.907 489.844 372.437 489.854 373.006 490.015ZM372.763 490.92C372.417 490.828 372.083 490.831 371.759 490.929C371.439 491.026 371.159 491.198 370.919 491.445C370.683 491.691 370.518 491.989 370.424 492.34C370.33 492.692 370.321 493.032 370.397 493.361C370.477 493.689 370.629 493.973 370.852 494.216C371.079 494.456 371.365 494.622 371.711 494.715C371.972 494.785 372.228 494.799 372.48 494.758C372.733 494.714 372.967 494.625 373.183 494.491C373.401 494.356 373.589 494.187 373.746 493.985C373.904 493.78 374.016 493.553 374.083 493.303C374.171 492.974 374.175 492.644 374.093 492.313C374.013 491.983 373.859 491.692 373.63 491.439C373.403 491.187 373.114 491.014 372.763 490.92ZM380.627 491.757L375.206 501.122L374.316 500.883L379.738 491.519L380.627 491.757ZM379.397 500.886L379.595 500.145L383.194 497.845C383.616 497.575 383.968 497.337 384.25 497.131C384.533 496.921 384.756 496.713 384.92 496.507C385.088 496.299 385.206 496.066 385.275 495.808C385.355 495.512 385.352 495.236 385.267 494.981C385.185 494.727 385.038 494.508 384.826 494.325C384.613 494.141 384.354 494.009 384.05 493.927C383.726 493.84 383.425 493.832 383.148 493.901C382.874 493.969 382.639 494.105 382.443 494.308C382.25 494.512 382.111 494.775 382.025 495.096L381.053 494.836C381.186 494.342 381.416 493.939 381.744 493.627C382.071 493.314 382.459 493.107 382.908 493.003C383.359 492.901 383.83 492.915 384.321 493.047C384.815 493.179 385.225 493.401 385.55 493.711C385.876 494.022 386.099 494.383 386.221 494.796C386.343 495.208 386.346 495.63 386.23 496.064C386.147 496.374 386.009 496.662 385.818 496.928C385.629 497.193 385.349 497.469 384.978 497.758C384.61 498.045 384.115 498.382 383.493 498.772L381.057 500.29L381.039 500.355L384.958 501.405L384.715 502.311L379.397 500.886ZM389.018 503.588C388.536 503.458 388.126 503.246 387.791 502.95C387.455 502.654 387.216 502.308 387.072 501.91C386.929 501.513 386.903 501.097 386.996 500.663L387.984 500.928C387.92 501.32 388.009 501.682 388.249 502.014C388.493 502.344 388.83 502.567 389.261 502.682C389.607 502.775 389.936 502.776 390.248 502.686C390.563 502.597 390.835 502.432 391.065 502.19C391.298 501.947 391.462 501.645 391.559 501.286C391.657 500.918 391.664 500.569 391.579 500.237C391.498 499.904 391.34 499.616 391.105 499.373C390.87 499.131 390.573 498.96 390.214 498.861C389.957 498.789 389.682 498.758 389.388 498.768C389.095 498.774 388.844 498.817 388.634 498.896L387.71 498.525L389.332 494.513L393.712 495.687L393.469 496.592L389.946 495.648L388.983 498.055L389.033 498.068C389.242 497.977 389.49 497.921 389.775 497.901C390.06 497.88 390.343 497.907 390.626 497.983C391.142 498.121 391.569 498.368 391.906 498.723C392.246 499.076 392.475 499.496 392.592 499.983C392.711 500.471 392.697 500.988 392.551 501.534C392.407 502.072 392.157 502.52 391.803 502.878C391.452 503.234 391.033 503.477 390.548 503.609C390.063 503.738 389.554 503.731 389.018 503.588Z" fill="#F8F8FA"/>
<rect opacity="0.2" x="281.833" y="456.075" width="34" height="22" rx="4" transform="rotate(15 281.833 456.075)" fill="white"/>
</g>
<path d="M405.707 111.524C404.66 107.611 406.98 103.59 410.89 102.542L423.376 99.1942C427.286 98.146 431.304 100.468 432.352 104.38L435.697 116.874C436.745 120.786 434.425 124.807 430.515 125.855L418.029 129.203C414.119 130.252 410.101 127.93 409.053 124.018L405.707 111.524Z" fill="#616BE8"/>
<path d="M422.808 117.783C422.472 117.856 422.133 117.942 421.802 118.038C421.49 118.148 421.157 118.237 420.818 118.36C419.983 118.663 417.286 119.75 417.649 121.003C417.979 122.139 420.444 121.973 422.742 121.306C425.039 120.638 427.209 119.456 426.88 118.32C426.517 117.072 423.671 117.593 422.808 117.783ZM421.618 119.029C421.892 118.94 422.193 118.853 422.471 118.781L422.515 118.932C422.547 119.043 422.398 119.226 422.158 119.296C421.918 119.365 421.694 119.291 421.662 119.179L421.618 119.029ZM422.486 120.427C420.111 121.117 418.669 120.924 418.531 120.764C418.547 120.594 419.212 119.956 420.757 119.339L420.784 119.435C420.964 120.051 421.695 120.383 422.413 120.174C423.133 119.965 423.572 119.293 423.393 118.676L423.365 118.58C425 118.274 425.902 118.454 425.999 118.559C425.976 118.799 424.862 119.736 422.486 120.427Z" fill="white"/>
<path d="M427.157 113.974C426.548 113.646 426.169 113.123 426.117 112.542C426.09 112.248 426.035 111.955 425.953 111.672C425.332 109.534 423.291 108.152 420.973 108.06L420.834 107.582C420.527 106.525 419.419 105.915 418.362 106.222C417.306 106.529 416.697 107.638 417.004 108.695L417.139 109.161C415.209 110.478 414.21 112.754 414.834 114.903C414.915 115.18 415.023 115.453 415.155 115.713C415.425 116.243 415.387 116.914 415.049 117.552C414.647 118.314 414.562 119.189 414.812 120.013C415.062 120.841 415.821 121.417 416.699 121.447C416.919 121.457 417.101 121.283 417.109 121.065C417.116 120.846 416.945 120.663 416.727 120.655C416.188 120.636 415.723 120.285 415.571 119.783C415.383 119.16 415.446 118.499 415.751 117.923C416.211 117.053 416.251 116.116 415.863 115.352C415.753 115.137 415.664 114.911 415.597 114.682C414.922 112.354 416.524 109.836 419.17 109.067C421.815 108.298 424.517 109.565 425.193 111.893C425.261 112.129 425.307 112.37 425.329 112.614C425.405 113.452 425.948 114.222 426.781 114.673C427.374 114.993 427.8 115.525 427.981 116.172C428.13 116.702 427.898 117.277 427.417 117.568C427.23 117.682 427.17 117.926 427.284 118.113C427.379 118.27 427.565 118.337 427.733 118.288C427.766 118.278 427.798 118.264 427.828 118.246C428.611 117.769 428.987 116.828 428.743 115.957C428.503 115.101 427.939 114.396 427.157 113.974ZM420.153 108.078C419.754 108.114 419.351 108.188 418.948 108.305C418.559 108.418 418.19 108.565 417.843 108.74L417.765 108.473C417.581 107.837 417.948 107.168 418.584 106.983C419.22 106.798 419.888 107.166 420.073 107.803L420.153 108.078Z" fill="white"/>
<path d="M397.781 214.364C398.825 210.451 402.84 208.131 406.748 209.183L419.273 212.553C423.182 213.605 425.504 217.63 424.46 221.543L421.136 233.999C420.092 237.912 416.077 240.231 412.168 239.18L399.644 235.81C395.735 234.758 393.413 230.733 394.457 226.82L397.781 214.364Z" fill="#E5007E"/>
<path d="M414.475 218.233L408.628 216.657C406.383 216.052 404.071 217.38 403.475 219.618L401.923 225.447C401.327 227.685 402.669 229.998 404.914 230.603L410.761 232.179C413.006 232.784 415.318 231.455 415.914 229.218L417.466 223.39C418.062 221.152 416.72 218.838 414.475 218.233ZM416.586 223.567L414.651 223.046C413.271 222.674 411.85 223.49 411.466 224.931C411.1 226.307 411.924 227.729 413.305 228.101L415.24 228.623L415.137 229.009C414.654 230.82 412.784 231.895 410.967 231.405L405.12 229.829C403.304 229.34 402.217 227.468 402.7 225.657L404.252 219.828C404.734 218.018 406.605 216.943 408.422 217.432L414.269 219.008C416.086 219.498 417.171 221.37 416.689 223.181L416.586 223.567ZM416.361 224.337L415.427 227.843L413.511 227.327C412.559 227.07 411.99 226.089 412.26 225.076C412.513 224.127 413.493 223.564 414.445 223.82L416.361 224.337Z" fill="white"/>
<path d="M411.571 220.624L407.208 219.451C406.994 219.393 406.774 219.519 406.718 219.732C406.661 219.945 406.788 220.164 407.003 220.222L411.365 221.395C411.58 221.453 411.799 221.327 411.856 221.114C411.913 220.901 411.785 220.682 411.571 220.624Z" fill="white"/>
<path d="M413.679 225.356C413.592 225.682 413.787 226.017 414.114 226.106C414.442 226.194 414.777 226.001 414.864 225.675C414.951 225.35 414.756 225.014 414.429 224.926C414.101 224.838 413.766 225.03 413.679 225.356Z" fill="white"/>
<path d="M377.482 31.9248C378.53 28.0127 382.548 25.6911 386.458 26.7394L404.654 31.6183C408.564 32.6665 410.884 36.6876 409.836 40.5997L404.961 58.8079C403.913 62.72 399.895 65.0416 395.985 63.9934L377.788 59.1145C373.879 58.0663 371.559 54.0451 372.606 50.133L377.482 31.9248Z" fill="#F2B705"/>
<path fill-rule="evenodd" clip-rule="evenodd" d="M386.853 40.157C386.984 39.6686 387.381 39.3769 387.768 39.2104C388.164 39.0403 388.655 38.9511 389.185 38.9193C390.251 38.8552 391.618 39.0159 393.043 39.3981C394.468 39.7802 395.732 40.3246 396.623 40.9136C397.066 41.2062 397.447 41.5294 397.705 41.8746C397.957 42.2128 398.155 42.6639 398.024 43.1523L395.942 50.9286C395.811 51.4155 395.418 51.7081 395.03 51.876C394.635 52.0469 394.145 52.1366 393.616 52.1686C392.551 52.2331 391.185 52.0717 389.752 51.6875C388.319 51.3033 387.055 50.7594 386.165 50.1709C385.723 49.8784 385.343 49.5554 385.086 49.2098C384.835 48.8705 384.64 48.4202 384.77 47.9333L385.807 44.064C385.808 44.0578 385.81 44.0514 385.811 44.0451C385.813 44.0407 385.814 44.0362 385.815 44.0318L386.853 40.157ZM386.6 45.8243L385.951 48.2463C385.951 48.2594 385.956 48.3311 386.067 48.481C386.207 48.6692 386.459 48.9005 386.838 49.1512C387.591 49.649 388.725 50.147 390.068 50.507C391.41 50.8669 392.642 51.0031 393.542 50.9486C393.996 50.9212 394.33 50.8473 394.545 50.7542C394.716 50.68 394.757 50.6204 394.763 50.6089L395.411 48.1869C395.174 48.2343 394.921 48.2646 394.657 48.2805C393.592 48.3449 392.226 48.1836 390.793 47.7994C389.36 47.4152 388.096 46.8713 387.206 46.2827C386.986 46.1372 386.781 45.984 386.6 45.8243ZM395.807 46.7107L396.454 44.2959C396.214 44.3437 395.958 44.3742 395.692 44.3901C394.626 44.4542 393.26 44.2935 391.834 43.9113C390.409 43.5292 389.146 42.9848 388.254 42.3958C388.032 42.2489 387.825 42.0944 387.642 41.9332L386.992 44.3588C386.992 44.3735 386.998 44.4452 387.108 44.5929C387.248 44.7811 387.5 45.0124 387.88 45.2631C388.632 45.7609 389.767 46.2589 391.109 46.6188C392.452 46.9788 393.683 47.115 394.583 47.0605C395.037 47.0331 395.371 46.9592 395.586 46.8661C395.758 46.7918 395.798 46.7322 395.804 46.7207C395.805 46.7174 395.806 46.714 395.807 46.7107ZM396.843 42.8357C396.832 42.8533 396.784 42.9086 396.627 42.976C396.411 43.0691 396.074 43.1428 395.619 43.1701C394.716 43.2244 393.484 43.0884 392.151 42.7307C390.817 42.3731 389.682 41.8747 388.927 41.3758C388.547 41.1245 388.292 40.8924 388.151 40.7034C388.049 40.5666 388.035 40.4949 388.034 40.4737C388.046 40.4561 388.093 40.4008 388.25 40.3334C388.467 40.2403 388.803 40.1666 389.258 40.1393C390.161 40.085 391.393 40.221 392.727 40.5787C394.061 40.9363 395.195 41.4347 395.95 41.9336C396.331 42.1849 396.585 42.417 396.726 42.606C396.828 42.7428 396.842 42.8145 396.843 42.8357ZM396.847 42.8298L396.846 42.831L396.847 42.8298ZM394.764 50.6069L394.763 50.6089L394.764 50.6069ZM385.951 48.2441L385.951 48.2463L385.951 48.2441ZM388.034 40.4682L388.034 40.4669L388.034 40.4682Z" fill="#F8F8FA"/>
<path d="M0 415.433C0 410.573 3.93738 406.633 8.79438 406.633H175.155C180.012 406.633 183.949 410.573 183.949 415.433V447.7C183.949 452.56 180.012 456.5 175.155 456.5H8.79438C3.93738 456.5 0 452.56 0 447.7V415.433Z" fill="white"/>
<path d="M72.9406 426.862H70.4781V430.1H69.2117V426.862H62.2642V425.946L68.7896 417.78H70.1967L63.8999 425.735H69.2469V422.884H70.4781V425.735H72.9406V426.862Z" fill="#565981"/>
<path d="M77.2713 422.831C79.0537 422.831 80.3494 423.154 81.1585 423.799C81.9793 424.433 82.3897 425.325 82.3897 426.474C82.3897 427.19 82.2197 427.83 81.8796 428.393C81.5513 428.956 81.0529 429.402 80.3846 429.73C79.7162 430.047 78.8954 430.206 77.9221 430.206C77.0427 430.206 76.2043 430.065 75.407 429.783C74.6213 429.49 73.9881 429.103 73.5074 428.622L74.123 427.618C74.5334 428.041 75.0728 428.387 75.7411 428.657C76.4095 428.915 77.1307 429.044 77.9046 429.044C78.9247 429.044 79.7103 428.815 80.2615 428.358C80.8243 427.9 81.1057 427.29 81.1057 426.527C81.1057 425.682 80.7891 425.043 80.1559 424.609C79.5344 424.175 78.4791 423.958 76.9899 423.958H74.3692L75.0024 417.78H81.7389V418.906H76.1105L75.6884 422.831H77.2713Z" fill="#565981"/>
<path d="M89.0981 422.726C89.9072 422.726 90.6225 422.878 91.244 423.183C91.8772 423.488 92.3696 423.922 92.7214 424.486C93.0732 425.037 93.2491 425.682 93.2491 426.422C93.2491 427.173 93.0673 427.835 92.7038 428.41C92.3403 428.985 91.8361 429.431 91.1912 429.748C90.558 430.053 89.8427 430.206 89.0454 430.206C87.4155 430.206 86.1667 429.672 85.299 428.604C84.4313 427.525 83.9974 426.005 83.9974 424.046C83.9974 422.673 84.2319 421.511 84.701 420.561C85.17 419.61 85.8266 418.895 86.6709 418.414C87.5152 417.921 88.5001 417.674 89.6258 417.674C90.8453 417.674 91.8185 417.897 92.5455 418.343L92.0354 419.364C91.4492 418.977 90.6518 418.783 89.6434 418.783C88.2832 418.783 87.2161 419.217 86.4422 420.086C85.6683 420.942 85.2814 422.192 85.2814 423.834C85.2814 424.128 85.299 424.462 85.3341 424.838C85.639 424.169 86.1256 423.653 86.794 423.289C87.4624 422.913 88.2304 422.726 89.0981 422.726ZM88.9926 429.132C89.8838 429.132 90.6049 428.891 91.156 428.41C91.7189 427.918 92.0003 427.266 92.0003 426.457C92.0003 425.647 91.7189 425.002 91.156 424.521C90.6049 424.04 89.8545 423.799 88.9047 423.799C88.2832 423.799 87.7321 423.917 87.2513 424.151C86.7823 424.386 86.4129 424.709 86.1432 425.119C85.8735 425.53 85.7387 425.987 85.7387 426.492C85.7387 426.961 85.8618 427.395 86.108 427.794C86.366 428.193 86.7412 428.516 87.2337 428.762C87.7262 429.009 88.3125 429.132 88.9926 429.132Z" fill="#565981"/>
<path d="M106.372 423.641C107.146 423.899 107.738 424.286 108.148 424.802C108.571 425.319 108.782 425.941 108.782 426.668C108.782 427.384 108.588 428.011 108.201 428.551C107.814 429.079 107.257 429.49 106.53 429.783C105.815 430.065 104.971 430.206 103.997 430.206C102.52 430.206 101.359 429.889 100.515 429.255C99.6706 428.622 99.2485 427.759 99.2485 426.668C99.2485 425.929 99.4478 425.307 99.8465 424.802C100.257 424.286 100.849 423.899 101.623 423.641C100.99 423.394 100.509 423.042 100.181 422.585C99.8524 422.116 99.6882 421.564 99.6882 420.93C99.6882 419.933 100.075 419.141 100.849 418.554C101.635 417.968 102.684 417.674 103.997 417.674C104.865 417.674 105.621 417.809 106.266 418.079C106.923 418.337 107.433 418.713 107.797 419.206C108.16 419.698 108.342 420.273 108.342 420.93C108.342 421.564 108.172 422.116 107.832 422.585C107.492 423.042 107.005 423.394 106.372 423.641ZM100.955 420.966C100.955 421.646 101.224 422.186 101.764 422.585C102.303 422.984 103.048 423.183 103.997 423.183C104.947 423.183 105.692 422.984 106.231 422.585C106.782 422.186 107.058 421.652 107.058 420.983C107.058 420.291 106.776 419.745 106.214 419.346C105.663 418.947 104.924 418.748 103.997 418.748C103.059 418.748 102.315 418.947 101.764 419.346C101.224 419.745 100.955 420.285 100.955 420.966ZM103.997 429.132C105.088 429.132 105.938 428.909 106.548 428.463C107.169 428.017 107.48 427.413 107.48 426.65C107.48 425.888 107.169 425.289 106.548 424.855C105.938 424.409 105.088 424.186 103.997 424.186C102.919 424.186 102.069 424.409 101.447 424.855C100.837 425.289 100.532 425.888 100.532 426.65C100.532 427.425 100.837 428.035 101.447 428.481C102.057 428.915 102.907 429.132 103.997 429.132Z" fill="#565981"/>
<path d="M115.442 430.206C114.493 430.206 113.642 429.953 112.892 429.449C112.153 428.944 111.573 428.223 111.151 427.284C110.74 426.334 110.535 425.219 110.535 423.94C110.535 422.661 110.74 421.552 111.151 420.614C111.573 419.663 112.153 418.936 112.892 418.431C113.642 417.927 114.493 417.674 115.442 417.674C116.392 417.674 117.236 417.927 117.975 418.431C118.726 418.936 119.312 419.663 119.734 420.614C120.156 421.552 120.367 422.661 120.367 423.94C120.367 425.219 120.156 426.334 119.734 427.284C119.312 428.223 118.726 428.944 117.975 429.449C117.236 429.953 116.392 430.206 115.442 430.206ZM115.442 429.044C116.158 429.044 116.785 428.845 117.324 428.446C117.875 428.047 118.303 427.466 118.608 426.703C118.913 425.941 119.066 425.019 119.066 423.94C119.066 422.861 118.913 421.939 118.608 421.177C118.303 420.414 117.875 419.833 117.324 419.434C116.785 419.035 116.158 418.836 115.442 418.836C114.727 418.836 114.094 419.035 113.543 419.434C113.003 419.833 112.581 420.414 112.276 421.177C111.972 421.939 111.819 422.861 111.819 423.94C111.819 425.019 111.972 425.941 112.276 426.703C112.581 427.466 113.003 428.047 113.543 428.446C114.094 428.845 114.727 429.044 115.442 429.044Z" fill="#565981"/>
<path d="M127.088 430.206C126.138 430.206 125.288 429.953 124.538 429.449C123.799 428.944 123.219 428.223 122.796 427.284C122.386 426.334 122.181 425.219 122.181 423.94C122.181 422.661 122.386 421.552 122.796 420.614C123.219 419.663 123.799 418.936 124.538 418.431C125.288 417.927 126.138 417.674 127.088 417.674C128.038 417.674 128.882 417.927 129.621 418.431C130.371 418.936 130.958 419.663 131.38 420.614C131.802 421.552 132.013 422.661 132.013 423.94C132.013 425.219 131.802 426.334 131.38 427.284C130.958 428.223 130.371 428.944 129.621 429.449C128.882 429.953 128.038 430.206 127.088 430.206ZM127.088 429.044C127.803 429.044 128.431 428.845 128.97 428.446C129.521 428.047 129.949 427.466 130.254 426.703C130.559 425.941 130.711 425.019 130.711 423.94C130.711 422.861 130.559 421.939 130.254 421.177C129.949 420.414 129.521 419.833 128.97 419.434C128.431 419.035 127.803 418.836 127.088 418.836C126.373 418.836 125.74 419.035 125.188 419.434C124.649 419.833 124.227 420.414 123.922 421.177C123.617 421.939 123.465 422.861 123.465 423.94C123.465 425.019 123.617 425.941 123.922 426.703C124.227 427.466 124.649 428.047 125.188 428.446C125.74 428.845 126.373 429.044 127.088 429.044Z" fill="#565981"/>
<path d="M134.587 430.188C134.329 430.188 134.107 430.094 133.919 429.906C133.743 429.719 133.655 429.49 133.655 429.22C133.655 428.95 133.743 428.727 133.919 428.551C134.107 428.363 134.329 428.27 134.587 428.27C134.845 428.27 135.068 428.363 135.256 428.551C135.443 428.727 135.537 428.95 135.537 429.22C135.537 429.49 135.443 429.719 135.256 429.906C135.068 430.094 134.845 430.188 134.587 430.188Z" fill="#565981"/>
<path d="M142.083 430.206C141.133 430.206 140.283 429.953 139.533 429.449C138.794 428.944 138.214 428.223 137.792 427.284C137.381 426.334 137.176 425.219 137.176 423.94C137.176 422.661 137.381 421.552 137.792 420.614C138.214 419.663 138.794 418.936 139.533 418.431C140.283 417.927 141.133 417.674 142.083 417.674C143.033 417.674 143.877 417.927 144.616 418.431C145.366 418.936 145.953 419.663 146.375 420.614C146.797 421.552 147.008 422.661 147.008 423.94C147.008 425.219 146.797 426.334 146.375 427.284C145.953 428.223 145.366 428.944 144.616 429.449C143.877 429.953 143.033 430.206 142.083 430.206ZM142.083 429.044C142.798 429.044 143.426 428.845 143.965 428.446C144.516 428.047 144.944 427.466 145.249 426.703C145.554 425.941 145.706 425.019 145.706 423.94C145.706 422.861 145.554 421.939 145.249 421.177C144.944 420.414 144.516 419.833 143.965 419.434C143.426 419.035 142.798 418.836 142.083 418.836C141.368 418.836 140.735 419.035 140.184 419.434C139.644 419.833 139.222 420.414 138.917 421.177C138.612 421.939 138.46 422.861 138.46 423.94C138.46 425.019 138.612 425.941 138.917 426.703C139.222 427.466 139.644 428.047 140.184 428.446C140.735 428.845 141.368 429.044 142.083 429.044Z" fill="#565981"/>
<path d="M153.729 430.206C152.779 430.206 151.929 429.953 151.178 429.449C150.44 428.944 149.859 428.223 149.437 427.284C149.027 426.334 148.822 425.219 148.822 423.94C148.822 422.661 149.027 421.552 149.437 420.614C149.859 419.663 150.44 418.936 151.178 418.431C151.929 417.927 152.779 417.674 153.729 417.674C154.679 417.674 155.523 417.927 156.262 418.431C157.012 418.936 157.598 419.663 158.02 420.614C158.443 421.552 158.654 422.661 158.654 423.94C158.654 425.219 158.443 426.334 158.02 427.284C157.598 428.223 157.012 428.944 156.262 429.449C155.523 429.953 154.679 430.206 153.729 430.206ZM153.729 429.044C154.444 429.044 155.071 428.845 155.611 428.446C156.162 428.047 156.59 427.466 156.895 426.703C157.2 425.941 157.352 425.019 157.352 423.94C157.352 422.861 157.2 421.939 156.895 421.177C156.59 420.414 156.162 419.833 155.611 419.434C155.071 419.035 154.444 418.836 153.729 418.836C153.014 418.836 152.38 419.035 151.829 419.434C151.29 419.833 150.868 420.414 150.563 421.177C150.258 421.939 150.106 422.861 150.106 423.94C150.106 425.019 150.258 425.941 150.563 426.703C150.868 427.466 151.29 428.047 151.829 428.446C152.38 428.845 153.014 429.044 153.729 429.044Z" fill="#565981"/>
<path d="M167.832 425.964V427.038H171.789V427.812H167.832V430.1H166.53V427.812H164.684V427.038H166.53V417.78H171.139C172.722 417.78 173.953 418.138 174.832 418.854C175.723 419.558 176.169 420.561 176.169 421.863C176.169 423.177 175.723 424.192 174.832 424.908C173.953 425.612 172.722 425.964 171.139 425.964H167.832ZM167.832 418.906V424.855H171.156C172.352 424.855 173.267 424.597 173.9 424.081C174.545 423.565 174.867 422.831 174.867 421.881C174.867 420.93 174.545 420.197 173.9 419.681C173.267 419.165 172.352 418.906 171.156 418.906H167.832Z" fill="#565981"/>
<path d="M62.3814 446.967V438.519H65.6412C66.1142 438.519 66.5265 438.616 66.8783 438.812C67.2301 439.008 67.5037 439.272 67.6991 439.604C67.8945 439.933 67.9922 440.296 67.9922 440.695C67.9922 441.149 67.8711 441.554 67.6287 441.91C67.3864 442.262 67.062 442.506 66.6555 442.643L66.6438 442.355C67.191 442.512 67.6209 442.786 67.9336 443.177C68.2463 443.568 68.4026 444.041 68.4026 444.597C68.4026 445.085 68.2991 445.508 68.0919 445.864C67.8848 446.216 67.5936 446.488 67.2183 446.679C66.8431 446.871 66.4073 446.967 65.9109 446.967H62.3814ZM63.2491 446.139H65.6998C66.0438 446.139 66.3526 446.079 66.6262 445.958C66.8998 445.832 67.1148 445.656 67.2711 445.43C67.4314 445.203 67.5115 444.929 67.5115 444.608C67.5115 444.295 67.4392 444.014 67.2946 443.763C67.1499 443.513 66.9526 443.314 66.7024 443.165C66.4562 443.013 66.1748 442.936 65.8582 442.936H63.2491V446.139ZM63.2491 442.121H65.6353C65.905 442.121 66.1513 442.06 66.3741 441.939C66.5969 441.814 66.7728 441.644 66.9017 441.429C67.0346 441.213 67.1011 440.965 67.1011 440.683C67.1011 440.285 66.9623 439.96 66.6848 439.71C66.4112 439.459 66.0614 439.334 65.6353 439.334H63.2491V442.121Z" fill="#8B8FBB"/>
<path d="M69.5785 446.967L69.5668 440.631H70.4345V443.018H71.5368C71.7205 443.018 71.9002 443.022 72.0761 443.03C72.252 443.038 72.4103 443.054 72.551 443.077C72.8637 443.14 73.1412 443.245 73.3835 443.394C73.6259 443.542 73.8174 443.748 73.9581 444.01C74.0988 444.268 74.1692 444.595 74.1692 444.99C74.1692 445.533 74.0285 445.962 73.7471 446.274C73.4657 446.587 73.1119 446.791 72.6859 446.885C72.5256 446.92 72.3517 446.943 72.1641 446.955C71.9765 446.963 71.7928 446.967 71.613 446.967H69.5785ZM70.4345 446.227H71.5778C71.7068 446.227 71.8533 446.224 72.0175 446.216C72.1817 446.208 72.3263 446.186 72.4514 446.151C72.6624 446.093 72.852 445.975 73.0201 445.799C73.192 445.619 73.278 445.349 73.278 444.99C73.278 444.634 73.1959 444.366 73.0318 444.186C72.8676 444.002 72.6487 443.881 72.3751 443.822C72.2501 443.795 72.1172 443.777 71.9765 443.769C71.8397 443.762 71.7068 443.758 71.5778 443.758H70.4345V446.227ZM74.9255 446.967V440.631H75.7874V446.967H74.9255Z" fill="#8B8FBB"/>
<path d="M76.959 448.375V446.227C77.3186 446.227 77.5766 446.112 77.7329 445.881C77.8893 445.647 78.0163 445.273 78.114 444.761C78.1805 444.428 78.2352 444.07 78.2782 443.687C78.3212 443.304 78.3583 442.866 78.3896 442.373C78.4208 441.876 78.4501 441.296 78.4775 440.631H82.6636V446.227H83.2734V448.375H82.4408V446.967H77.7857V448.375H76.959ZM78.4189 446.227H81.8076V441.37H79.2749C79.2631 441.667 79.2456 441.982 79.2221 442.314C79.2026 442.647 79.1771 442.979 79.1459 443.312C79.1185 443.644 79.0853 443.957 79.0462 444.25C79.011 444.54 78.968 444.794 78.9172 445.013C78.8586 445.295 78.7941 445.535 78.7238 445.735C78.6573 445.934 78.5557 446.098 78.4189 446.227Z" fill="#8B8FBB"/>
<path d="M85.9042 447.143C85.4273 447.143 85.0267 447.057 84.7023 446.885C84.3818 446.712 84.1414 446.484 83.9811 446.198C83.8209 445.913 83.7408 445.602 83.7408 445.265C83.7408 444.921 83.8092 444.628 83.946 444.385C84.0867 444.139 84.2762 443.938 84.5147 443.781C84.757 443.625 85.0365 443.505 85.3531 443.423C85.6736 443.345 86.0273 443.277 86.4142 443.218C86.8051 443.155 87.1862 443.102 87.5575 443.059C87.9327 443.013 88.2611 442.968 88.5425 442.925L88.2376 443.112C88.2493 442.486 88.1282 442.023 87.8741 441.722C87.6201 441.421 87.1784 441.27 86.5491 441.27C86.1153 441.27 85.7478 441.368 85.4469 441.563C85.1498 441.759 84.9407 442.068 84.8195 442.49L83.9811 442.244C84.1258 441.677 84.417 441.237 84.8547 440.924C85.2925 440.611 85.8612 440.455 86.5608 440.455C87.1393 440.455 87.6298 440.564 88.0324 440.783C88.4389 440.998 88.7262 441.311 88.8943 441.722C88.9724 441.906 89.0233 442.111 89.0467 442.338C89.0702 442.565 89.0819 442.795 89.0819 443.03V446.967H88.3138V445.377L88.5366 445.471C88.3217 446.014 87.9875 446.429 87.5341 446.714C87.0807 447 86.5374 447.143 85.9042 447.143ZM86.0038 446.398C86.4064 446.398 86.7582 446.325 87.0592 446.181C87.3601 446.036 87.6025 445.838 87.7862 445.588C87.9699 445.334 88.0891 445.048 88.1438 444.731C88.1907 444.528 88.2161 444.305 88.22 444.063C88.224 443.816 88.2259 443.632 88.2259 443.511L88.5542 443.681C88.2611 443.72 87.9425 443.76 87.5986 443.799C87.2585 443.838 86.9224 443.883 86.5901 443.934C86.2618 443.984 85.9648 444.045 85.699 444.115C85.5192 444.166 85.3453 444.239 85.1772 444.333C85.0091 444.422 84.8704 444.544 84.7609 444.696C84.6554 444.849 84.6026 445.038 84.6026 445.265C84.6026 445.449 84.6475 445.627 84.7374 445.799C84.8312 445.971 84.9798 446.114 85.183 446.227C85.3902 446.341 85.6638 446.398 86.0038 446.398Z" fill="#8B8FBB"/>
<path d="M90.6023 446.967V440.631H91.4642V443.382H95.0347V440.631H95.8965V446.967H95.0347V444.209H91.4642V446.967H90.6023Z" fill="#8B8FBB"/>
<path d="M100.18 447.143C99.5509 447.143 99.0135 447 98.5679 446.714C98.1223 446.429 97.7803 446.034 97.5419 445.529C97.3035 445.025 97.1843 444.446 97.1843 443.793C97.1843 443.128 97.3054 442.545 97.5478 442.045C97.7901 441.544 98.134 441.155 98.5796 440.877C99.0291 440.595 99.5626 440.455 100.18 440.455C100.813 440.455 101.353 440.597 101.798 440.883C102.248 441.165 102.59 441.558 102.824 442.062C103.063 442.563 103.182 443.14 103.182 443.793C103.182 444.458 103.063 445.042 102.824 445.547C102.586 446.048 102.242 446.439 101.792 446.72C101.343 447.002 100.806 447.143 100.18 447.143ZM100.18 446.315C100.884 446.315 101.408 446.083 101.751 445.617C102.095 445.148 102.267 444.54 102.267 443.793C102.267 443.026 102.093 442.416 101.746 441.962C101.402 441.509 100.88 441.282 100.18 441.282C99.7073 441.282 99.3164 441.389 99.0076 441.605C98.7028 441.816 98.4741 442.111 98.3217 442.49C98.1731 442.866 98.0989 443.3 98.0989 443.793C98.0989 444.555 98.2747 445.168 98.6265 445.629C98.9783 446.087 99.4962 446.315 100.18 446.315Z" fill="#8B8FBB"/>
<path d="M45.2924 431.622C45.2924 442.293 36.6475 450.943 25.9835 450.943C15.3195 450.943 6.67464 442.293 6.67464 431.622C6.67464 420.951 15.3195 412.3 25.9835 412.3C36.6475 412.3 45.2924 420.951 45.2924 431.622Z" fill="#F2B705"/>
<path d="M33.9829 430.618C33.4657 430.618 33.052 431.02 33.052 431.521C33.052 432.023 33.4657 432.425 33.9829 432.425C34.5001 432.425 34.9139 432.023 34.9139 431.521C34.9139 431.02 34.5001 430.618 33.9829 430.618Z" fill="white"/>
<path d="M18.6737 430.618C18.1565 430.618 17.7428 431.02 17.7428 431.521C17.7428 432.023 18.1565 432.425 18.6737 432.425C19.1909 432.425 19.6047 432.023 19.6047 431.521C19.7081 431.02 19.2944 430.618 18.6737 430.618Z" fill="white"/>
<path d="M26.3283 420.581C20.0185 420.581 14.9499 425.499 14.9499 431.622C14.9499 437.744 20.0185 442.662 26.3283 442.662C32.6382 442.662 37.7068 437.744 37.7068 431.622C37.7068 425.499 32.6382 420.581 26.3283 420.581ZM26.3283 441.257C20.846 441.257 16.2946 436.941 16.2946 431.521C16.2946 426.202 20.7425 421.785 26.3283 421.785C31.9141 421.785 36.3621 426.101 36.3621 431.521C36.3621 436.941 31.9141 441.257 26.3283 441.257Z" fill="white"/>
<path d="M30.9832 427.406C30.7763 427.105 30.5694 426.904 30.2591 426.704C29.8453 426.402 29.2247 426.202 28.5006 426.101C28.2937 426.101 28.1903 426.101 27.9834 426.101C27.7765 426.101 27.6731 426.101 27.5696 426.101H23.3286C23.0182 426.101 22.7079 426.302 22.7079 426.603V431.02H21.3632C21.2597 431.02 21.1563 431.12 21.1563 431.22V432.324C21.1563 432.425 21.2597 432.525 21.3632 432.525H22.7079V433.729H21.3632C21.2597 433.729 21.1563 433.83 21.1563 433.93V435.034C21.1563 435.135 21.2597 435.235 21.3632 435.235H22.7079V436.841C22.7079 437.042 22.8113 437.142 23.0182 437.142H24.4664C24.6733 437.142 24.7767 437.042 24.7767 436.841V435.235H25.9146C26.018 435.235 26.1214 435.135 26.1214 435.034V433.93C26.1214 433.83 26.018 433.729 25.9146 433.729H24.6733V432.525H27.5696C27.6731 432.525 27.8799 432.525 27.9834 432.525C28.1903 432.525 28.2937 432.525 28.5006 432.525C29.2247 432.425 29.7419 432.224 30.2591 431.923C30.5694 431.722 30.7763 431.521 30.9832 431.22C30.9832 431.22 31.0866 431.02 31.19 430.819C31.6038 429.915 31.6038 428.711 31.19 427.808C31.19 427.607 31.0866 427.406 30.9832 427.406ZM29.4315 429.915C29.3281 430.116 29.2247 430.317 29.0178 430.518C28.8109 430.718 28.604 430.819 28.1903 430.919C28.0868 430.919 27.9834 430.919 27.7765 431.02C27.6731 431.02 27.4662 431.02 27.3627 431.02H24.5698C24.5698 431.02 24.4664 431.02 24.4664 430.919V427.707C24.4664 427.707 24.4664 427.607 24.5698 427.607H27.3627C27.4662 427.607 27.5696 427.607 27.7765 427.607C27.8799 427.607 28.0868 427.607 28.1903 427.707C28.5006 427.808 28.8109 427.908 29.0178 428.109C29.2247 428.31 29.3281 428.51 29.4315 428.711C29.535 428.912 29.535 429.112 29.535 429.313C29.535 429.514 29.535 429.715 29.4315 429.915Z" fill="white"/>
<path d="M87.8335 225.252C87.8285 225.972 88.2513 226.654 88.8855 226.947C89.1221 227.055 89.3726 227.108 89.6261 227.108C90.323 227.108 91.0265 226.715 91.4189 226.04C91.5948 225.738 91.4917 225.35 91.1888 225.176C90.8844 224.999 90.4972 225.102 90.3213 225.406C90.0912 225.799 89.677 225.918 89.4182 225.8C89.2338 225.714 89.1002 225.487 89.1002 225.259C89.1002 225.019 89.2575 224.788 89.496 224.668C89.8899 224.471 90.1421 224.053 90.1537 223.574L90.2537 218.423L90.3467 218.369C90.6967 218.167 90.947 217.841 91.0535 217.45C91.1584 217.057 91.1044 216.648 90.9031 216.299L90.5123 215.623C90.0947 214.901 89.1594 214.653 88.4355 215.068L85.919 216.518C85.8683 216.495 85.8278 216.456 85.7719 216.438C85.3964 216.323 85.0041 216.358 84.6608 216.542L62.981 228.111C62.6106 228.334 62.088 228.739 61.7041 229.416C61.4217 229.913 61.261 230.478 61.2424 231.07L61.2238 233.552C60.2666 233.841 59.5647 234.716 59.5647 235.762V239.799C58.9559 239.983 58.5027 240.524 58.5027 241.191V241.769C58.5027 242.274 58.7733 242.699 59.1622 242.964L59.1487 243.817C59.1352 244.163 59.2349 244.507 59.4277 244.786C59.7744 245.29 60.2953 245.422 60.5626 245.459L61.7312 245.455C61.9781 246.837 63.1823 247.89 64.6367 247.89C66.0962 247.89 67.3055 246.827 67.5439 245.437L68.4656 245.433C68.7024 246.825 69.9116 247.89 71.3728 247.89C72.8408 247.89 74.0534 246.815 74.2818 245.413L82.2661 245.386V245.381H82.2964C82.5214 246.786 83.7356 247.866 85.2069 247.866C86.6784 247.866 87.891 246.786 88.116 245.381H89.743C90.5801 245.381 91.2617 244.701 91.2617 243.865V237.898C91.2617 233.783 87.9063 230.434 83.7797 230.434H81.8009C80.3244 230.434 79.1219 231.632 79.1219 233.107V239.757C79.0476 239.745 78.9816 239.713 78.9039 239.713H74.6673V234.023C74.6673 232.349 73.3008 230.986 71.6231 230.986H71.0921L77.2414 227.722C77.4072 227.636 77.5526 227.518 77.6743 227.369L79.3605 225.309C79.67 224.933 80.0421 224.63 80.4715 224.405L86.7208 221.139C87.196 220.889 87.4868 220.442 87.5899 219.951L88.9767 219.154L88.9261 223.535C88.2563 223.875 87.8353 224.533 87.8335 225.252ZM86.8002 245.385C86.5938 246.083 85.9732 246.604 85.2069 246.604C84.4409 246.604 83.8185 246.083 83.6121 245.385C83.5683 245.235 83.5174 245.084 83.5174 244.921C83.5174 244.626 83.6139 244.362 83.7492 244.119C84.0385 243.601 84.5729 243.235 85.2069 243.235C85.8411 243.235 86.3756 243.601 86.6648 244.119C86.7984 244.361 86.8966 244.626 86.8966 244.921C86.8949 245.084 86.8458 245.233 86.8002 245.385ZM89.9053 237.014L85.4506 236.99C84.8891 236.987 84.4273 236.528 84.424 235.966L84.3935 231.764C87.2313 232.046 89.4993 234.22 89.9053 237.014ZM80.3921 233.108C80.3921 232.332 81.0246 231.701 81.8027 231.701H83.1235L83.1538 235.975C83.1641 237.225 84.1889 238.249 85.4438 238.255L89.9949 238.281V243.868C89.9949 244.006 89.8833 244.119 89.7445 244.119H88.0399C87.6881 242.883 86.5583 241.97 85.2087 241.97C83.8574 241.97 82.7277 242.883 82.3759 244.119H80.3954V233.108H80.3921ZM60.8331 235.764C60.8331 235.182 61.3084 234.709 61.8902 234.709H65.7664V236.643H60.8331L60.8331 235.764ZM60.8331 237.908H65.7664V239.715H60.8331V237.908ZM61.7836 244.204L60.6776 244.209C60.6725 244.207 60.5473 244.182 60.4729 244.072C60.4205 243.995 60.4137 243.91 60.4171 243.853L60.4272 243.247H62.225C62.0221 243.531 61.8749 243.856 61.7836 244.204ZM66.2231 245.442C66.0066 246.122 65.3893 246.626 64.6367 246.626C63.8875 246.626 63.2719 246.128 63.052 245.454C62.9979 245.289 62.9472 245.123 62.9472 244.941C62.9472 244.671 63.025 244.425 63.14 244.199C63.4173 243.647 63.9754 243.257 64.6367 243.257C65.2929 243.257 65.8459 243.642 66.125 244.187C66.2434 244.416 66.3245 244.666 66.3245 244.941C66.3245 245.118 66.2755 245.282 66.2231 245.442ZM68.5282 244.177L67.4813 244.18C67.39 243.841 67.2462 243.524 67.0484 243.244H68.9595C68.7616 243.524 68.6195 243.839 68.5282 244.177ZM72.9626 245.42C72.7529 246.112 72.1322 246.626 71.3712 246.626C70.6135 246.626 69.9945 246.117 69.7814 245.43C69.7323 245.272 69.6816 245.115 69.6816 244.941C69.6816 244.659 69.7679 244.404 69.8913 244.172C70.1738 243.635 70.7217 243.257 71.3694 243.257C72.0138 243.257 72.555 243.63 72.8408 244.16C72.9677 244.396 73.059 244.654 73.059 244.941C73.0607 245.111 73.0099 245.265 72.9626 245.42ZM79.1237 244.136L74.209 244.155C74.1177 243.826 73.9773 243.517 73.7845 243.246H78.9072C78.9851 243.246 79.0509 243.214 79.1254 243.202V244.136H79.1237ZM78.9055 240.98C79.0221 240.98 79.1187 241.074 79.1187 241.191V241.769C79.1187 241.886 79.0221 241.98 78.9055 241.98H59.9824C59.8658 241.98 59.7711 241.886 59.7711 241.769V241.191C59.7711 241.088 59.8505 241.014 59.9469 240.995C66.267 240.99 72.5871 240.985 78.9055 240.98ZM71.6231 232.253C72.6023 232.253 73.3989 233.048 73.3989 234.024V239.715H67.0399V233.442L67.0518 232.639C67.0534 232.594 67.0636 232.523 67.1059 232.454C67.2209 232.268 67.4627 232.267 67.4813 232.267C68.8614 232.261 70.2414 232.258 71.6231 232.253ZM86.1339 220.022L79.8847 223.287C79.3031 223.59 78.7974 224.002 78.3796 224.511L76.651 226.603L68.3489 230.988H67.4593C67.226 230.988 67.0027 231.035 66.7998 231.121C66.6188 231.183 66.4497 231.273 66.3059 231.398C65.8527 231.786 65.7901 232.297 65.7833 232.508C65.785 232.811 65.7867 233.117 65.7884 233.42C64.6908 233.412 63.5915 233.403 62.4939 233.393L62.5108 231.096C62.5227 230.725 62.6258 230.359 62.8085 230.038C63.0554 229.601 63.3937 229.34 63.605 229.211L85.2578 217.656L85.4032 217.701L86.0289 218.784L86.3335 219.386C86.4517 219.619 86.3622 219.904 86.1339 220.022ZM87.3921 218.61L87.1383 218.173L86.785 217.48L89.0682 216.166C89.1899 216.1 89.3421 216.139 89.4114 216.257L89.802 216.933C89.8612 217.036 89.8123 217.215 89.709 217.276L87.3921 218.61Z" fill="#BCAAE9"/>
<path d="M355.296 10.5559C358.209 10.5559 360.57 8.19291 360.57 5.27796C360.57 2.36302 358.209 0 355.296 0C352.383 0 350.021 2.36302 350.021 5.27796C350.021 8.19291 352.383 10.5559 355.296 10.5559Z" fill="#BCAAE9"/>
<path d="M72.4743 291.961C76.5478 291.961 79.8501 288.657 79.8501 284.58C79.8501 280.504 76.5478 277.2 72.4743 277.2C68.4007 277.2 65.0984 280.504 65.0984 284.58C65.0984 288.657 68.4007 291.961 72.4743 291.961Z" fill="#E5007E"/>
<path d="M322.992 42.9693L337.997 36.1042L335.373 30.362L320.369 37.2271L322.992 42.9693Z" fill="#E5007E"/>
<path d="M49.2809 250.196L31.285 239.8L29.921 242.164L47.9169 252.56L49.2809 250.196Z" fill="#62A0E9"/>
<path d="M37.4492 43.6803C37.4492 42.8223 37.4492 42.3934 37.4692 42.031C37.8387 35.3115 43.2008 29.946 49.9159 29.5763C50.2781 29.5563 50.7068 29.5563 51.5642 29.5563H195.735C196.593 29.5563 197.021 29.5563 197.383 29.5763C204.098 29.946 209.461 35.3115 209.83 42.031C209.85 42.3934 209.85 42.8223 209.85 43.6803V97.5476C209.85 98.4056 209.85 98.8345 209.83 99.1969C209.461 105.916 204.098 111.282 197.383 111.652C197.021 111.672 196.593 111.672 195.735 111.672H51.5642C50.7068 111.672 50.2781 111.672 49.9159 111.652C43.2008 111.282 37.8387 105.916 37.4692 99.1969C37.4492 98.8345 37.4492 98.4055 37.4492 97.5476V43.6803Z" fill="white"/>
<path d="M64.4069 84.7756C63.5666 84.7756 62.8571 84.5899 62.2787 84.2183C61.7002 83.8428 61.2624 83.3246 60.9654 82.6636C60.6683 82.0026 60.5198 81.24 60.5198 80.3756C60.5198 79.5113 60.6683 78.7486 60.9654 78.0876C61.2624 77.4266 61.7002 76.9104 62.2787 76.5388C62.8571 76.1634 63.5666 75.9756 64.4069 75.9756C65.388 75.9756 66.1892 76.2279 66.8107 76.7324C67.4322 77.233 67.8582 77.9058 68.0888 78.7506L67.2094 78.9793C67.0296 78.3105 66.7071 77.7806 66.242 77.3895C65.7769 76.9984 65.1652 76.8028 64.4069 76.8028C63.7463 76.8028 63.1972 76.9534 62.7594 77.2546C62.3217 77.5557 61.9914 77.9762 61.7686 78.5159C61.5497 79.0517 61.4364 79.6716 61.4286 80.3756C61.4246 81.0796 61.5321 81.6995 61.751 82.2354C61.9738 82.7712 62.306 83.1916 62.7477 83.4967C63.1933 83.7978 63.7463 83.9484 64.4069 83.9484C65.1652 83.9484 65.7769 83.7529 66.242 83.3617C66.7071 82.9667 67.0296 82.4368 67.2094 81.7719L68.0888 82.0007C67.8582 82.8455 67.4322 83.5202 66.8107 84.0247C66.1892 84.5253 65.388 84.7756 64.4069 84.7756Z" fill="#616BE8"/>
<path d="M69.3766 84.5996V78.2636H74.4128V84.5996H73.5509V79.0908H70.2384V84.5996H69.3766Z" fill="#616BE8"/>
<path d="M78.7377 84.7756C78.1201 84.7756 77.5847 84.6387 77.1313 84.365C76.6818 84.0912 76.332 83.7059 76.0818 83.2092C75.8317 82.7125 75.7066 82.1298 75.7066 81.461C75.7066 80.7687 75.8297 80.1703 76.0759 79.6658C76.3222 79.1612 76.6681 78.7721 77.1137 78.4983C77.5632 78.2245 78.0928 78.0876 78.7025 78.0876C79.3279 78.0876 79.8614 78.2323 80.3031 78.5218C80.7448 78.8073 81.079 79.2179 81.3057 79.7538C81.5324 80.2896 81.636 80.929 81.6164 81.6721H80.737V81.3671C80.7213 80.5458 80.5435 79.9258 80.2034 79.5074C79.8673 79.0889 79.3748 78.8796 78.726 78.8796C78.0459 78.8796 77.5241 79.1006 77.1606 79.5426C76.801 79.9845 76.6212 80.6142 76.6212 81.4316C76.6212 82.2295 76.801 82.8494 77.1606 83.2914C77.5241 83.7294 78.0381 83.9484 78.7025 83.9484C79.1559 83.9484 79.5507 83.8448 79.8868 83.6375C80.2269 83.4263 80.4946 83.1232 80.6901 82.7281L81.4933 83.0391C81.2431 83.5906 80.8738 84.0188 80.3852 84.3239C79.9005 84.625 79.3514 84.7756 78.7377 84.7756ZM76.3163 81.6721V80.9506H81.1532V81.6721H76.3163Z" fill="#616BE8"/>
<path d="M88.3583 85.6967V84.5996H82.9117V78.2636H83.7735V83.7724H87.086V78.2636H87.9479V83.8018H89.2202V85.6967H88.3583Z" fill="#616BE8"/>
<path d="M91.8724 84.5996V79.0615H89.6269V78.2636H94.9797V79.0615H92.7342V84.5996H91.8724Z" fill="#616BE8"/>
<path d="M98.777 84.7756C98.1594 84.7756 97.6239 84.6387 97.1705 84.365C96.721 84.0912 96.3712 83.7059 96.1211 83.2092C95.8709 82.7125 95.7458 82.1298 95.7458 81.461C95.7458 80.7687 95.869 80.1703 96.1152 79.6658C96.3615 79.1612 96.7074 78.7721 97.1529 78.4983C97.6024 78.2245 98.1321 78.0876 98.7418 78.0876C99.3672 78.0876 99.9007 78.2323 100.342 78.5218C100.784 78.8073 101.118 79.2179 101.345 79.7538C101.572 80.2896 101.675 80.929 101.656 81.6721H100.776V81.3671C100.761 80.5458 100.583 79.9258 100.243 79.5074C99.9066 79.0889 99.4141 78.8796 98.7653 78.8796C98.0852 78.8796 97.5634 79.1006 97.1999 79.5426C96.8403 79.9845 96.6605 80.6142 96.6605 81.4316C96.6605 82.2295 96.8403 82.8494 97.1999 83.2914C97.5634 83.7294 98.0773 83.9484 98.7418 83.9484C99.1952 83.9484 99.59 83.8448 99.9261 83.6375C100.266 83.4263 100.534 83.1232 100.729 82.7281L101.533 83.0391C101.282 83.5906 100.913 84.0188 100.424 84.3239C99.9398 84.625 99.3906 84.7756 98.777 84.7756ZM96.3556 81.6721V80.9506H101.192V81.6721H96.3556Z" fill="#616BE8"/>
<path d="M102.024 84.5996L104.498 81.3964L102.077 78.2636H103.109L105.003 80.7335L106.879 78.2636H107.911L105.489 81.3964L107.969 84.5996H106.931L105.003 82.0594L103.062 84.5996H102.024Z" fill="#616BE8"/>
<path d="M112.329 84.7756C111.489 84.7756 110.78 84.5899 110.201 84.2183C109.623 83.8428 109.185 83.3246 108.888 82.6636C108.591 82.0026 108.442 81.24 108.442 80.3756C108.442 79.5113 108.591 78.7486 108.888 78.0876C109.185 77.4266 109.623 76.9104 110.201 76.5388C110.78 76.1634 111.489 75.9756 112.329 75.9756C113.31 75.9756 114.112 76.2279 114.733 76.7324C115.355 77.233 115.781 77.9058 116.011 78.7506L115.132 78.9793C114.952 78.3105 114.63 77.7806 114.164 77.3895C113.699 76.9984 113.088 76.8028 112.329 76.8028C111.669 76.8028 111.12 76.9534 110.682 77.2546C110.244 77.5557 109.914 77.9762 109.691 78.5159C109.472 79.0517 109.359 79.6716 109.351 80.3756C109.347 81.0796 109.455 81.6995 109.673 82.2354C109.896 82.7712 110.229 83.1916 110.67 83.4967C111.116 83.7978 111.669 83.9484 112.329 83.9484C113.088 83.9484 113.699 83.7529 114.164 83.3617C114.63 82.9667 114.952 82.4368 115.132 81.7719L116.011 82.0007C115.781 82.8455 115.355 83.5202 114.733 84.0247C114.112 84.5253 113.31 84.7756 112.329 84.7756Z" fill="#616BE8"/>
<path d="M119.023 84.5996V79.0615H116.777V78.2636H122.13V79.0615H119.885V84.5996H119.023Z" fill="#616BE8"/>
<path d="M126.091 84.7756C125.509 84.7756 125.017 84.629 124.614 84.3356C124.211 84.0384 123.907 83.6375 123.699 83.1329C123.492 82.6245 123.389 82.0554 123.389 81.4258C123.389 80.7843 123.492 80.2133 123.699 79.7127C123.91 79.2082 124.219 78.8112 124.626 78.5218C125.032 78.2323 125.533 78.0876 126.127 78.0876C126.705 78.0876 127.202 78.2343 127.616 78.5276C128.03 78.821 128.347 79.2199 128.566 79.7244C128.788 80.2289 128.9 80.7961 128.9 81.4258C128.9 82.0593 128.788 82.6284 128.566 83.1329C128.343 83.6375 128.022 84.0384 127.604 84.3356C127.186 84.629 126.682 84.7756 126.091 84.7756ZM123.242 87.4156V78.2636H124.016V83.0332H124.11V87.4156H123.242ZM126.004 83.9719C126.445 83.9719 126.813 83.8604 127.106 83.6375C127.399 83.4146 127.618 83.1114 127.762 82.7281C127.911 82.341 127.985 81.9068 127.985 81.4258C127.985 80.9486 127.913 80.5184 127.768 80.1351C127.624 79.7518 127.403 79.4487 127.106 79.2257C126.813 79.0028 126.439 78.8914 125.986 78.8914C125.544 78.8914 125.177 78.9989 124.884 79.214C124.594 79.4291 124.378 79.7283 124.233 80.1116C124.088 80.491 124.016 80.929 124.016 81.4258C124.016 81.9146 124.088 82.3527 124.233 82.7399C124.378 83.1232 124.596 83.4243 124.89 83.6433C125.183 83.8624 125.554 83.9719 126.004 83.9719Z" fill="#616BE8"/>
<path d="M132.831 84.7756C132.202 84.7756 131.665 84.6329 131.219 84.3474C130.774 84.0618 130.432 83.6668 130.193 83.1623C129.955 82.6578 129.836 82.0789 129.836 81.4258C129.836 80.7609 129.957 80.1781 130.199 79.6775C130.441 79.1769 130.785 78.7877 131.231 78.51C131.68 78.2284 132.214 78.0876 132.831 78.0876C133.465 78.0876 134.004 78.2304 134.45 78.5159C134.899 78.7975 135.241 79.1906 135.476 79.6951C135.714 80.1957 135.833 80.7726 135.833 81.4258C135.833 82.0906 135.714 82.6754 135.476 83.1799C135.237 83.6805 134.893 84.0716 134.444 84.3532C133.994 84.6348 133.457 84.7756 132.831 84.7756ZM132.831 83.9484C133.535 83.9484 134.059 83.7157 134.403 83.2503C134.747 82.781 134.919 82.1728 134.919 81.4258C134.919 80.6592 134.745 80.049 134.397 79.5954C134.053 79.1417 133.531 78.9148 132.831 78.9148C132.359 78.9148 131.968 79.0224 131.659 79.2375C131.354 79.4487 131.125 79.744 130.973 80.1234C130.824 80.4988 130.75 80.933 130.75 81.4258C130.75 82.1884 130.926 82.8005 131.278 83.262C131.63 83.7196 132.147 83.9484 132.831 83.9484Z" fill="#616BE8"/>
<path d="M142.157 78.2636V84.5996H141.319V79.6658L137.848 84.5996H137.121V78.2636H137.959V83.1564L141.436 78.2636H142.157Z" fill="#616BE8"/>
<path d="M145.52 84.5996V79.0615H143.275V78.2636H148.628V79.0615H146.382V84.5996H145.52Z" fill="#616BE8"/>
<path d="M152.425 84.7756C151.807 84.7756 151.272 84.6387 150.819 84.365C150.369 84.0912 150.019 83.7059 149.769 83.2092C149.519 82.7125 149.394 82.1298 149.394 81.461C149.394 80.7687 149.517 80.1703 149.763 79.6658C150.009 79.1612 150.355 78.7721 150.801 78.4983C151.25 78.2245 151.78 78.0876 152.39 78.0876C153.015 78.0876 153.549 78.2323 153.99 78.5218C154.432 78.8073 154.766 79.2179 154.993 79.7538C155.22 80.2896 155.323 80.929 155.304 81.6721H154.424V81.3671C154.409 80.5458 154.231 79.9258 153.891 79.5074C153.555 79.0889 153.062 78.8796 152.413 78.8796C151.733 78.8796 151.211 79.1006 150.848 79.5426C150.488 79.9845 150.308 80.6142 150.308 81.4316C150.308 82.2295 150.488 82.8494 150.848 83.2914C151.211 83.7294 151.725 83.9484 152.39 83.9484C152.843 83.9484 153.238 83.8448 153.574 83.6375C153.914 83.4263 154.182 83.1232 154.377 82.7281L155.181 83.0391C154.93 83.5906 154.561 84.0188 154.072 84.3239C153.588 84.625 153.039 84.7756 152.425 84.7756ZM150.004 81.6721V80.9506H154.84V81.6721H150.004Z" fill="#616BE8"/>
<path d="M156.018 84.5996V83.8428C156.253 83.8858 156.431 83.8761 156.552 83.8135C156.677 83.747 156.769 83.6375 156.828 83.485C156.886 83.3285 156.935 83.1349 156.974 82.9042C157.037 82.5209 157.093 82.0985 157.144 81.6369C157.195 81.1754 157.24 80.667 157.279 80.1116C157.322 79.5523 157.365 78.9363 157.408 78.2636H161.711V84.5996H160.855V79.0908H158.205C158.178 79.5054 158.147 79.918 158.112 80.3287C158.076 80.7393 158.039 81.1344 158 81.5137C157.965 81.8892 157.926 82.2354 157.883 82.5522C157.84 82.869 157.795 83.1427 157.748 83.3735C157.678 83.7216 157.584 83.9993 157.467 84.2065C157.353 84.4138 157.183 84.5507 156.957 84.6172C156.73 84.6837 156.417 84.6778 156.018 84.5996Z" fill="#616BE8"/>
<path d="M163.355 84.5996L163.344 78.2636H164.211V80.6514H165.695C165.878 80.6514 166.058 80.6553 166.234 80.6631C166.414 80.6709 166.572 80.6865 166.709 80.71C167.022 80.7687 167.299 80.8723 167.541 81.0209C167.788 81.1696 167.979 81.3749 168.116 81.6369C168.257 81.899 168.327 82.2275 168.327 82.6226C168.327 83.1662 168.186 83.5945 167.905 83.9073C167.627 84.2202 167.276 84.4236 166.85 84.5175C166.689 84.5527 166.515 84.5762 166.328 84.5879C166.14 84.5957 165.954 84.5996 165.771 84.5996H163.355ZM164.211 83.8604H165.736C165.868 83.8604 166.017 83.8565 166.181 83.8487C166.345 83.8409 166.49 83.8194 166.615 83.7842C166.822 83.7255 167.01 83.6081 167.178 83.4321C167.35 83.2522 167.436 82.9824 167.436 82.6226C167.436 82.2666 167.354 81.9987 167.19 81.8188C167.025 81.635 166.807 81.5138 166.533 81.4551C166.412 81.4277 166.281 81.4101 166.14 81.4023C165.999 81.3945 165.865 81.3905 165.736 81.3905H164.211V83.8604Z" fill="#616BE8"/>
<path d="M61.4967 94.5341L60.9324 94.1234L61.7429 93.0762L60.4758 92.6912L60.6913 92.029L61.9379 92.4705L61.9071 91.1409H62.6048L62.574 92.4705L63.8155 92.029L64.031 92.6912L62.769 93.0762L63.5692 94.1234L63.0049 94.5341L62.256 93.4458L61.4967 94.5341Z" fill="#8B8FBB"/>
<path d="M65.9755 94.5341L65.4112 94.1234L66.2217 93.0762L64.9546 92.6912L65.1701 92.029L66.4167 92.4705L66.3859 91.1409H67.0836L67.0528 92.4705L68.2943 92.029L68.5097 92.6912L67.2477 93.0762L68.048 94.1234L67.4837 94.5341L66.7347 93.4458L65.9755 94.5341Z" fill="#8B8FBB"/>
<path d="M70.4543 94.5341L69.89 94.1234L70.7005 93.0762L69.4334 92.6912L69.6488 92.029L70.8954 92.4705L70.8647 91.1409H71.5623L71.5316 92.4705L72.773 92.029L72.9885 92.6912L71.7265 93.0762L72.5268 94.1234L71.9625 94.5341L71.2135 93.4458L70.4543 94.5341Z" fill="#8B8FBB"/>
<path d="M74.933 94.5341L74.3687 94.1234L75.1793 93.0762L73.9122 92.6912L74.1276 92.029L75.3742 92.4705L75.3434 91.1409H76.0411L76.0103 92.4705L77.2518 92.029L77.4673 92.6912L76.2053 93.0762L77.0056 94.1234L76.4413 94.5341L75.6923 93.4458L74.933 94.5341Z" fill="#8B8FBB"/>
<path d="M79.4118 94.5341L78.8475 94.1234L79.6581 93.0762L78.3909 92.6912L78.6064 92.029L79.853 92.4705L79.8222 91.1409H80.5199L80.4891 92.4705L81.7306 92.029L81.9461 92.6912L80.6841 93.0762L81.4844 94.1234L80.92 94.5341L80.1711 93.4458L79.4118 94.5341Z" fill="#8B8FBB"/>
<path d="M83.8906 94.5341L83.3263 94.1234L84.1368 93.0762L82.8697 92.6912L83.0852 92.029L84.3318 92.4705L84.301 91.1409H84.9987L84.9679 92.4705L86.2094 92.029L86.4248 92.6912L85.1628 93.0762L85.9631 94.1234L85.3988 94.5341L84.6498 93.4458L83.8906 94.5341Z" fill="#8B8FBB"/>
<path d="M88.3694 94.5341L87.8051 94.1234L88.6156 93.0762L87.3485 92.6912L87.5639 92.029L88.8105 92.4705L88.7798 91.1409H89.4774L89.4467 92.4705L90.6881 92.029L90.9036 92.6912L89.6416 93.0762L90.4419 94.1234L89.8776 94.5341L89.1286 93.4458L88.3694 94.5341Z" fill="#8B8FBB"/>
<path d="M92.8481 94.5341L92.2838 94.1234L93.0944 93.0762L91.8273 92.6912L92.0427 92.029L93.2893 92.4705L93.2585 91.1409H93.9562L93.9254 92.4705L95.1669 92.029L95.3824 92.6912L94.1204 93.0762L94.9207 94.1234L94.3564 94.5341L93.6074 93.4458L92.8481 94.5341Z" fill="#8B8FBB"/>
<path d="M97.3269 94.5341L96.7626 94.1234L97.5732 93.0762L96.306 92.6912L96.5215 92.029L97.7681 92.4705L97.7373 91.1409H98.435L98.4042 92.4705L99.6457 92.029L99.8612 92.6912L98.5992 93.0762L99.3995 94.1234L98.8351 94.5341L98.0862 93.4458L97.3269 94.5341Z" fill="#8B8FBB"/>
<path d="M101.806 94.5341L101.241 94.1234L102.052 93.0762L100.785 92.6912L101 92.029L102.247 92.4705L102.216 91.1409H102.914L102.883 92.4705L104.124 92.029L104.34 92.6912L103.078 93.0762L103.878 94.1234L103.314 94.5341L102.565 93.4458L101.806 94.5341Z" fill="#8B8FBB"/>
<path d="M106.284 94.5341L105.72 94.1234L106.531 93.0762L105.264 92.6912L105.479 92.029L106.726 92.4705L106.695 91.1409H107.393L107.362 92.4705L108.603 92.029L108.819 92.6912L107.557 93.0762L108.357 94.1234L107.793 94.5341L107.044 93.4458L106.284 94.5341Z" fill="#8B8FBB"/>
<path d="M110.763 94.5341L110.199 94.1234L111.009 93.0762L109.742 92.6912L109.958 92.029L111.204 92.4705L111.174 91.1409H111.871L111.841 92.4705L113.082 92.029L113.297 92.6912L112.035 93.0762L112.836 94.1234L112.271 94.5341L111.522 93.4458L110.763 94.5341Z" fill="#8B8FBB"/>
<path d="M115.242 94.5341L114.678 94.1234L115.488 93.0762L114.221 92.6912L114.437 92.029L115.683 92.4705L115.652 91.1409H116.35L116.319 92.4705L117.561 92.029L117.776 92.6912L116.514 93.0762L117.315 94.1234L116.75 94.5341L116.001 93.4458L115.242 94.5341Z" fill="#8B8FBB"/>
<path d="M119.721 94.5341L119.156 94.1234L119.967 93.0762L118.7 92.6912L118.915 92.029L120.162 92.4705L120.131 91.1409H120.829L120.798 92.4705L122.04 92.029L122.255 92.6912L120.993 93.0762L121.793 94.1234L121.229 94.5341L120.48 93.4458L119.721 94.5341Z" fill="#8B8FBB"/>
<path d="M124.2 94.5341L123.635 94.1234L124.446 93.0762L123.179 92.6912L123.394 92.029L124.641 92.4705L124.61 91.1409H125.308L125.277 92.4705L126.518 92.029L126.734 92.6912L125.472 93.0762L126.272 94.1234L125.708 94.5341L124.959 93.4458L124.2 94.5341Z" fill="#8B8FBB"/>
<path d="M88.7805 55.9996L92.6984 47.314L93.0414 47.908H87.5537L88.2133 47.2612V49.558H86.9469V46.7596H93.912V47.6572L90.1788 55.9996H88.7805Z" fill="#565981"/>
<path d="M98.5835 56.1052C97.8624 56.1052 97.216 55.9204 96.6443 55.5508C96.0815 55.1812 95.633 54.6444 95.2988 53.9404C94.9734 53.2364 94.8107 52.3828 94.8107 51.3796C94.8107 50.3764 94.9734 49.5228 95.2988 48.8188C95.633 48.1148 96.0815 47.578 96.6443 47.2084C97.216 46.8388 97.8624 46.654 98.5835 46.654C99.2958 46.654 99.9378 46.8388 100.509 47.2084C101.081 47.578 101.53 48.1148 101.855 48.8188C102.18 49.5228 102.343 50.3764 102.343 51.3796C102.343 52.3828 102.18 53.2364 101.855 53.9404C101.53 54.6444 101.081 55.1812 100.509 55.5508C99.9378 55.9204 99.2958 56.1052 98.5835 56.1052ZM98.5835 54.9304C99.0672 54.9304 99.4893 54.7984 99.8499 54.5344C100.219 54.2704 100.505 53.8744 100.707 53.3464C100.918 52.8184 101.024 52.1628 101.024 51.3796C101.024 50.5964 100.918 49.9408 100.707 49.4128C100.505 48.8848 100.219 48.4888 99.8499 48.2248C99.4893 47.9608 99.0672 47.8288 98.5835 47.8288C98.0998 47.8288 97.6733 47.9608 97.3039 48.2248C96.9346 48.4888 96.6443 48.8848 96.4333 49.4128C96.231 49.9408 96.1299 50.5964 96.1299 51.3796C96.1299 52.1628 96.231 52.8184 96.4333 53.3464C96.6443 53.8744 96.9346 54.2704 97.3039 54.5344C97.6733 54.7984 98.0998 54.9304 98.5835 54.9304Z" fill="#565981"/>
<path d="M108.709 55.9996V47.2876L109.276 47.908H106.624V46.7596H110.015V55.9996H108.709Z" fill="#565981"/>
<path d="M115.016 56.1052C114.365 56.1052 113.732 56.004 113.116 55.8016C112.509 55.5992 112.012 55.3264 111.626 54.9832L112.232 53.9404C112.54 54.2308 112.94 54.4684 113.433 54.6532C113.925 54.838 114.449 54.9304 115.003 54.9304C115.706 54.9304 116.247 54.7808 116.625 54.4816C117.003 54.1824 117.192 53.782 117.192 53.2804C117.192 52.9372 117.109 52.638 116.942 52.3828C116.775 52.1276 116.484 51.934 116.071 51.802C115.667 51.6612 115.108 51.5908 114.396 51.5908H112.298L112.786 46.7596H117.997V47.908H113.274L113.96 47.2612L113.578 51.076L112.892 50.4424H114.673C115.596 50.4424 116.339 50.5612 116.902 50.7988C117.465 51.0364 117.874 51.3664 118.129 51.7888C118.384 52.2024 118.512 52.682 118.512 53.2276C118.512 53.7556 118.384 54.2396 118.129 54.6796C117.874 55.1108 117.487 55.4584 116.968 55.7224C116.458 55.9776 115.807 56.1052 115.016 56.1052Z" fill="#565981"/>
<path d="M121.166 55.9996V47.2876L121.733 47.908H119.082V46.7596H122.472V55.9996H121.166Z" fill="#565981"/>
<path d="M131.807 56.1052C131.086 56.1052 130.44 55.9204 129.868 55.5508C129.305 55.1812 128.857 54.6444 128.522 53.9404C128.197 53.2364 128.034 52.3828 128.034 51.3796C128.034 50.3764 128.197 49.5228 128.522 48.8188C128.857 48.1148 129.305 47.578 129.868 47.2084C130.44 46.8388 131.086 46.654 131.807 46.654C132.52 46.654 133.162 46.8388 133.733 47.2084C134.305 47.578 134.753 48.1148 135.079 48.8188C135.404 49.5228 135.567 50.3764 135.567 51.3796C135.567 52.3828 135.404 53.2364 135.079 53.9404C134.753 54.6444 134.305 55.1812 133.733 55.5508C133.162 55.9204 132.52 56.1052 131.807 56.1052ZM131.807 54.9304C132.291 54.9304 132.713 54.7984 133.074 54.5344C133.443 54.2704 133.729 53.8744 133.931 53.3464C134.142 52.8184 134.248 52.1628 134.248 51.3796C134.248 50.5964 134.142 49.9408 133.931 49.4128C133.729 48.8848 133.443 48.4888 133.074 48.2248C132.713 47.9608 132.291 47.8288 131.807 47.8288C131.323 47.8288 130.897 47.9608 130.528 48.2248C130.158 48.4888 129.868 48.8848 129.657 49.4128C129.455 49.9408 129.354 50.5964 129.354 51.3796C129.354 52.1628 129.455 52.8184 129.657 53.3464C129.868 53.8744 130.158 54.2704 130.528 54.5344C130.897 54.7984 131.323 54.9304 131.807 54.9304Z" fill="#565981"/>
<path d="M140.606 56.1052C139.885 56.1052 139.238 55.9204 138.667 55.5508C138.104 55.1812 137.655 54.6444 137.321 53.9404C136.996 53.2364 136.833 52.3828 136.833 51.3796C136.833 50.3764 136.996 49.5228 137.321 48.8188C137.655 48.1148 138.104 47.578 138.667 47.2084C139.238 46.8388 139.885 46.654 140.606 46.654C141.318 46.654 141.96 46.8388 142.532 47.2084C143.103 47.578 143.552 48.1148 143.877 48.8188C144.203 49.5228 144.365 50.3764 144.365 51.3796C144.365 52.3828 144.203 53.2364 143.877 53.9404C143.552 54.6444 143.103 55.1812 142.532 55.5508C141.96 55.9204 141.318 56.1052 140.606 56.1052ZM140.606 54.9304C141.09 54.9304 141.512 54.7984 141.872 54.5344C142.242 54.2704 142.527 53.8744 142.73 53.3464C142.941 52.8184 143.046 52.1628 143.046 51.3796C143.046 50.5964 142.941 49.9408 142.73 49.4128C142.527 48.8848 142.242 48.4888 141.872 48.2248C141.512 47.9608 141.09 47.8288 140.606 47.8288C140.122 47.8288 139.696 47.9608 139.326 48.2248C138.957 48.4888 138.667 48.8848 138.456 49.4128C138.253 49.9408 138.152 50.5964 138.152 51.3796C138.152 52.1628 138.253 52.8184 138.456 53.3464C138.667 53.8744 138.957 54.2704 139.326 54.5344C139.696 54.7984 140.122 54.9304 140.606 54.9304Z" fill="#565981"/>
<path d="M149.405 56.1052C148.683 56.1052 148.037 55.9204 147.465 55.5508C146.903 55.1812 146.454 54.6444 146.12 53.9404C145.794 53.2364 145.632 52.3828 145.632 51.3796C145.632 50.3764 145.794 49.5228 146.12 48.8188C146.454 48.1148 146.903 47.578 147.465 47.2084C148.037 46.8388 148.683 46.654 149.405 46.654C150.117 46.654 150.759 46.8388 151.33 47.2084C151.902 47.578 152.351 48.1148 152.676 48.8188C153.001 49.5228 153.164 50.3764 153.164 51.3796C153.164 52.3828 153.001 53.2364 152.676 53.9404C152.351 54.6444 151.902 55.1812 151.33 55.5508C150.759 55.9204 150.117 56.1052 149.405 56.1052ZM149.405 54.9304C149.888 54.9304 150.31 54.7984 150.671 54.5344C151.04 54.2704 151.326 53.8744 151.528 53.3464C151.739 52.8184 151.845 52.1628 151.845 51.3796C151.845 50.5964 151.739 49.9408 151.528 49.4128C151.326 48.8848 151.04 48.4888 150.671 48.2248C150.31 47.9608 149.888 47.8288 149.405 47.8288C148.921 47.8288 148.494 47.9608 148.125 48.2248C147.756 48.4888 147.465 48.8848 147.254 49.4128C147.052 49.9408 146.951 50.5964 146.951 51.3796C146.951 52.1628 147.052 52.8184 147.254 53.3464C147.465 53.8744 147.756 54.2704 148.125 54.5344C148.494 54.7984 148.921 54.9304 149.405 54.9304Z" fill="#565981"/>
<path d="M155.146 56.0788C154.9 56.0788 154.689 55.9952 154.513 55.828C154.337 55.652 154.249 55.432 154.249 55.168C154.249 54.904 154.337 54.6884 154.513 54.5212C154.689 54.354 154.9 54.2704 155.146 54.2704C155.384 54.2704 155.586 54.354 155.753 54.5212C155.929 54.6884 156.017 54.904 156.017 55.168C156.017 55.432 155.929 55.652 155.753 55.828C155.586 55.9952 155.384 56.0788 155.146 56.0788Z" fill="#565981"/>
<path d="M160.988 56.1052C160.17 56.1052 159.471 55.9248 158.891 55.564C158.31 55.2032 157.866 54.684 157.558 54.0064C157.259 53.32 157.11 52.484 157.11 51.4984C157.11 50.4512 157.295 49.5668 157.664 48.8452C158.033 48.1236 158.548 47.578 159.207 47.2084C159.867 46.8388 160.623 46.654 161.476 46.654C161.916 46.654 162.334 46.698 162.73 46.786C163.134 46.874 163.481 47.0104 163.772 47.1952L163.27 48.2248C163.033 48.0576 162.76 47.9432 162.453 47.8816C162.154 47.82 161.837 47.7892 161.503 47.7892C160.562 47.7892 159.814 48.084 159.26 48.6736C158.706 49.2544 158.429 50.1212 158.429 51.274C158.429 51.4588 158.438 51.6788 158.455 51.934C158.473 52.1892 158.517 52.44 158.587 52.6864L158.139 52.2376C158.271 51.8328 158.477 51.494 158.759 51.2212C159.049 50.9396 159.392 50.7328 159.788 50.6008C160.192 50.46 160.628 50.3896 161.094 50.3896C161.709 50.3896 162.255 50.504 162.73 50.7328C163.204 50.9616 163.578 51.2872 163.851 51.7096C164.123 52.1232 164.26 52.616 164.26 53.188C164.26 53.7776 164.115 54.2924 163.824 54.7324C163.534 55.1724 163.143 55.5112 162.65 55.7488C162.158 55.9864 161.604 56.1052 160.988 56.1052ZM160.935 55.036C161.34 55.036 161.692 54.9612 161.991 54.8116C162.299 54.662 162.54 54.4552 162.716 54.1912C162.892 53.9184 162.98 53.6016 162.98 53.2408C162.98 52.6952 162.791 52.264 162.413 51.9472C162.035 51.6216 161.52 51.4588 160.87 51.4588C160.447 51.4588 160.078 51.538 159.761 51.6964C159.445 51.8548 159.194 52.0704 159.01 52.3432C158.834 52.6072 158.746 52.9108 158.746 53.254C158.746 53.5708 158.829 53.8656 158.996 54.1384C159.163 54.4024 159.41 54.618 159.735 54.7852C160.06 54.9524 160.461 55.036 160.935 55.036Z" fill="#565981"/>
<path d="M166.758 55.9996L170.675 47.314L171.018 47.908H165.531L166.19 47.2612V49.558H164.924V46.7596H171.889V47.6572L168.156 55.9996H166.758Z" fill="#565981"/>
<path d="M177.696 55.9996V46.7596H181.324C182.511 46.7596 183.448 47.0236 184.134 47.5516C184.82 48.0708 185.163 48.832 185.163 49.8352C185.163 50.8384 184.82 51.604 184.134 52.132C183.448 52.66 182.511 52.924 181.324 52.924H178.435L179.029 52.3036V55.9996H177.696ZM179.029 52.4356L178.435 51.8284H181.324C182.133 51.8284 182.753 51.6568 183.184 51.3136C183.615 50.9704 183.83 50.482 183.83 49.8484C183.83 49.2236 183.615 48.744 183.184 48.4096C182.753 48.0752 182.133 47.908 181.324 47.908H178.435L179.029 47.248V52.4356ZM176.351 54.4552V53.7028H181.957V54.4552H176.351Z" fill="#565981"/>
<path d="M80.8941 50.9478C80.8941 56.6643 76.2629 61.2985 70.5501 61.2985C64.8372 61.2985 60.206 56.6643 60.206 50.9478C60.206 45.2313 64.8372 40.5971 70.5501 40.5971C76.2629 40.5971 80.8941 45.2313 80.8941 50.9478Z" fill="#5EC05C"/>
<path d="M72.8555 45.4274H68.2446C66.4738 45.4274 65.0332 46.8688 65.0332 48.6407V53.2549C65.0332 55.0267 66.4738 56.4681 68.2446 56.4681H72.8555C74.6263 56.4681 76.0669 55.0261 76.0669 53.2549V48.6413C76.0669 46.8695 74.6263 45.4274 72.8555 45.4274ZM72.8555 55.8557H68.2446C66.812 55.8557 65.646 54.6895 65.646 53.2555V48.6413C65.646 47.2079 66.812 46.0412 68.2446 46.0412H72.8555C74.2887 46.0412 75.4542 47.2079 75.4542 48.6413V48.9473H73.9284C72.8402 48.9473 71.9542 49.8332 71.9542 50.9742C71.9542 52.0636 72.8396 52.9496 73.9284 52.9496H75.4542V53.2555C75.4542 54.6889 74.2887 55.8557 72.8555 55.8557ZM75.4395 49.5604V52.3365H73.9284C73.1778 52.3365 72.5669 51.7252 72.5669 50.9227C72.5669 50.1716 73.1778 49.5604 73.9284 49.5604H75.4395Z" fill="white"/>
<path d="M70.8947 47.8719H67.4486C67.2795 47.8719 67.1422 48.0092 67.1422 48.1785C67.1422 48.3477 67.2795 48.485 67.4486 48.485H70.8947C71.0638 48.485 71.201 48.3477 71.201 48.1785C71.201 48.0092 71.0638 47.8719 70.8947 47.8719Z" fill="white"/>
<path d="M73.3849 50.9478C73.3849 51.2059 73.5938 51.4149 73.8518 51.4149C74.1097 51.4149 74.3187 51.2059 74.3187 50.9478C74.3187 50.6896 74.1097 50.4806 73.8518 50.4806C73.5938 50.4806 73.3849 50.6896 73.3849 50.9478Z" fill="white"/>
<path d="M37.4492 41.2871C37.4492 34.8083 42.6979 29.5563 49.1725 29.5563V111.672C42.6979 111.672 37.4492 106.42 37.4492 99.9408V41.2871Z" fill="#5EC05C"/>
<defs>
<linearGradient id="paint0_linear_0_513" x1="230.359" y1="162.979" x2="272.925" y2="162.979" gradientUnits="userSpaceOnUse">
<stop stop-color="#F2B705"/>
<stop offset="0.5" stop-color="#ECB307"/>
<stop offset="1" stop-color="#E9B005"/>
</linearGradient>
<linearGradient id="paint1_linear_0_513" x1="190.597" y1="128.413" x2="257.476" y2="166.96" gradientUnits="userSpaceOnUse">
<stop stop-color="#E4A827"/>
<stop offset="1" stop-color="#F2B705"/>
</linearGradient>
<clipPath id="clip0_0_513">
<rect x="60.5308" y="20.3986" width="353.865" height="453.983" rx="10" fill="white"/>
</clipPath>
<clipPath id="clip1_0_513">
<rect x="313.945" y="325" width="126.01" height="162.26" rx="10" transform="rotate(15 313.945 325)" fill="white"/>
</clipPath>
</defs>
</svg>
