<svg width="294" height="370" viewBox="0 0 294 370" fill="none" xmlns="http://www.w3.org/2000/svg">
<g clip-path="url(#clip0_0_140)">
<rect x="6" width="287.996" height="369.478" rx="10" fill="#EDEFF9"/>
<path d="M56 1.5L33 122.5L109.5 56L134 149L215 56L234 149L282.5 97.5L297.5 223L378 97.5L383.5 229.5L415.5 263.5" stroke="#E7EBF9" stroke-width="5"/>
<path d="M-10 206.303C15.8265 206.56 70.2411 214.608 81.2877 244.751C92.3342 274.895 204.027 223.477 258.493 194L270 473.901C225.507 492.1 137.748 535.726 142.658 564.638C148.795 600.78 126.548 609.238 87.4247 609.238C48.3014 609.238 54.4384 621.541 35.2603 630" stroke="#E7EBF9" stroke-width="5"/>
<path d="M114.365 146.937C102.441 166.736 115.233 193.657 117.312 197.886C116.082 197.037 112.809 195.032 108.54 195.446C107.233 195.572 105.715 195.72 104.48 196.747C100.554 200.013 103.526 208.815 103.712 209.348C106.376 216.973 113.455 220.559 115.85 221.642C116.9 232.024 119.005 244.51 123.16 258.252C126.504 269.314 130.481 278.892 134.368 286.889C129.33 289.205 124.292 291.521 119.254 293.837C120.102 298.989 122.19 307.219 128.033 315.2C140.538 332.283 163.616 339.149 183.748 335.214C203.158 331.42 220.089 317.422 226.631 298.767C230.471 287.817 229.787 277.959 228.905 272.245C223.491 271.377 218.076 270.509 212.662 269.641C211.822 256.814 212.277 242.1 215.423 226.198C216.01 223.232 216.664 220.357 217.372 217.574C220.991 215.659 223.169 213.358 224.357 211.879C227.858 207.522 231.206 199.798 228.255 196.259C227.757 195.661 227.227 195.36 226.793 195.12C221.959 192.438 215.641 196.499 214.773 197.073C216.35 191.667 222.824 167.446 209.83 148.673C189.305 119.022 131.246 118.908 114.365 146.937Z" fill="#F6BA95"/>
<path d="M126.426 291.916C128.201 288.189 155.214 307.547 183.229 298.936C206.878 291.667 216.686 268.941 219.744 271.041C222.725 273.088 216.509 296.818 197.798 307.988C180.374 318.389 160.992 312.6 154.827 310.759C138.335 305.833 125.157 294.582 126.426 291.916Z" fill="#EAAD8C"/>
<path d="M151.614 194.378C150.023 193.599 147.912 193.816 146.475 194.798C142.12 197.774 142.926 208.473 147.417 210.72C148.796 211.41 150.588 211.334 151.903 210.609C154.769 209.026 154.769 204.68 154.769 202.736C154.769 200.837 154.768 195.922 151.614 194.378Z" fill="white"/>
<path d="M151.277 199.646C150.265 198.93 148.577 199.237 147.6 200.154C146.074 201.587 146.303 204.497 147.854 205.487C148.688 206.02 149.838 205.956 150.643 205.487C152.547 204.379 152.892 200.79 151.277 199.646Z" fill="#643219"/>
<path d="M187.751 192.32C186.16 191.541 184.05 191.758 182.612 192.74C178.257 195.715 179.063 206.415 183.554 208.661C184.934 209.351 186.725 209.275 188.04 208.55C190.907 206.967 190.906 202.621 190.906 200.677C190.906 198.778 190.905 193.864 187.751 192.32Z" fill="white"/>
<path d="M187.414 197.587C186.403 196.871 184.714 197.178 183.738 198.095C182.212 199.529 182.441 202.438 183.991 203.429C184.825 203.961 185.975 203.897 186.78 203.429C188.684 202.32 189.03 198.731 187.414 197.587Z" fill="#643219"/>
<path d="M159.218 212.57C159.421 212.694 157.689 214.614 157.649 217.528C157.608 220.506 159.359 222.7 159.581 222.97C162.988 227.121 169.217 226.037 170.084 225.873C170.777 225.741 176.249 224.63 177.69 220.794C178.386 218.942 177.909 217.074 178.173 217.045C178.458 217.012 179.434 219.151 179.018 221.156C178.117 225.5 171.129 227.083 170.567 227.203C168.83 227.575 163.013 228.487 158.977 224.664C158.307 224.029 155.781 221.636 155.959 218.254C156.138 214.832 158.98 212.424 159.218 212.57Z" fill="#DD9F85"/>
<path d="M162.156 235.319C168.665 235.65 173.903 234.124 175.771 233.51C182.254 231.379 184.923 228.517 185.673 229.301C186.64 230.311 183.365 236.715 177.55 240.112C170.235 244.385 162.416 241.935 161.195 241.529C155.181 239.526 150.572 234.82 151.17 233.689C151.659 232.762 155.251 234.968 162.156 235.319Z" fill="#DD9F85"/>
<path d="M163.657 237.521C169.638 237.986 174.134 236.524 175.106 236.194C179.965 234.543 182.68 231.966 182.878 232.237C183.087 232.522 180.261 235.638 176.052 237.805C174.163 238.778 169.573 241.063 163.975 240.13C159.341 239.358 155.711 236.663 155.903 236.176C156.065 235.765 158.856 237.148 163.657 237.521Z" fill="white"/>
<path d="M218.03 198.758C217.968 198.602 221.134 196.088 224.494 197.12C224.97 197.266 226.198 197.643 226.962 198.708C229.352 202.044 224.5 208.373 224.406 208.328C224.316 208.285 228.388 202.18 226.257 199.326C225.714 198.599 224.925 198.292 224.406 198.091C221.237 196.857 218.091 198.91 218.03 198.758Z" fill="#EAAD8C"/>
<path d="M115.253 200.255C115.315 200.099 112.149 197.585 108.789 198.617C108.314 198.763 107.086 199.14 106.322 200.205C103.932 203.541 108.784 209.87 108.877 209.825C108.968 209.782 104.896 203.677 107.027 200.823C107.57 200.097 108.359 199.789 108.877 199.588C112.047 198.354 115.193 200.408 115.253 200.255Z" fill="#EAAD8C"/>
<path d="M217.423 203.221C217.712 203.036 219.021 202.201 220.015 202.763C220.143 202.835 220.527 203.079 220.821 203.84C221.387 205.301 220.906 206.809 220.606 207.611C219.266 211.198 216.609 213.874 216.315 213.661C215.938 213.386 218.798 207.863 218.025 206.534C217.99 206.474 217.959 206.427 217.959 206.427C217.313 205.473 216.167 205.781 215.928 205.295C215.678 204.787 216.585 203.756 217.423 203.221Z" fill="#EAAD8C"/>
<path d="M114.369 203.442C114.08 203.257 112.771 202.422 111.778 202.984C111.649 203.056 111.266 203.3 110.971 204.061C110.406 205.522 110.886 207.029 111.186 207.832C112.527 211.419 115.184 214.095 115.477 213.881C115.854 213.607 112.994 208.084 113.767 206.754C113.802 206.694 113.834 206.648 113.834 206.648C114.479 205.694 115.625 206.002 115.865 205.515C116.115 205.008 115.208 203.977 114.369 203.442Z" fill="#EAAD8C"/>
<path d="M175.939 158.056C172.883 163.963 169.957 165.505 167.796 165.772C164.261 166.21 162.97 163.214 154.81 160.922C151.168 159.9 150.324 160.187 148.427 158.938C144.925 156.632 144.982 153.794 142.264 152.103C140.576 151.053 137.665 150.35 132.36 152.324C134.915 152.222 137.187 153.455 138.082 155.41C139.547 158.609 136.474 161.867 136.322 162.024C133.748 164.672 131.112 162.979 128.178 164.891C123.251 168.1 123.775 177.319 123.996 181.205C124.306 186.66 125.511 186.829 126.637 193.993C127.506 199.518 127.432 203.508 127.297 210.749C127.238 213.962 127.126 215.465 126.197 229.709C125.622 238.513 125.353 242.972 126.197 245.804C126.925 248.246 129.102 255.548 135.661 258.15C139.368 259.621 143.866 259.349 147.326 257.709C151.643 255.664 151.834 252.679 155.47 252.198C158.469 251.801 159.119 253.728 163.834 254.182C167.189 254.505 169.81 253.814 171.758 253.3C178.022 251.647 178.137 249.298 182.102 248.89C186.593 248.428 187.355 251.348 193.327 252.198C194.95 252.428 201.241 253.323 205.653 249.993C211.436 245.628 210.953 236.298 210.715 231.694C210.312 223.885 207.88 223.112 206.974 214.056C206.675 211.078 206.874 210.517 207.634 197.741C208.332 186.007 208.678 180.047 208.514 175.473C208.172 165.897 208.001 161.109 205.653 156.733C200.49 147.112 190.623 145.718 191.126 142.182C191.427 140.069 195.355 137.733 210.495 136.45C212.434 140.488 215.139 146.93 216.878 155.19C218.333 162.098 218.052 165.247 218.419 187.379C218.735 206.479 219.061 211.171 220.4 217.583C222.077 225.618 223.087 225.545 224.141 231.914C226.309 245.012 223.755 255.714 222.16 262.119C218.83 275.494 215.928 287.151 205.433 296.512C192.266 308.257 175.965 308.526 169.116 308.638C162.608 308.746 146.594 308.772 131.92 297.394C128.601 294.821 118.678 286.491 114.091 272.481C111.76 265.36 111.804 258.694 111.89 245.363C111.951 235.996 112.625 235.618 113.211 220.229C113.679 207.931 113.895 201.657 112.991 195.536C111.426 184.941 109.158 184.758 107.048 174.371C105.322 165.872 102.695 152.936 108.369 140.198C109.289 138.131 116.075 123.395 128.398 120.135C143.765 116.069 165.585 130.421 175.939 158.056Z" fill="#643219"/>
<path d="M180.532 179.641C178.615 179.499 176.864 180.318 176.073 181.75C175.879 182.101 175.238 183.405 175.845 184.762C176.392 185.986 177.744 186.779 179.282 186.76C185.059 186.579 190.835 186.398 196.612 186.217C198.112 186.183 199.364 185.446 199.796 184.345C200.062 183.665 199.94 183.04 199.865 182.768C199.532 181.56 198.299 180.653 196.74 180.416C191.338 180.158 185.935 179.9 180.532 179.641Z" fill="#643219"/>
<path d="M155.803 187.968C157.754 187.945 159.454 186.963 160.129 185.443C160.294 185.071 160.829 183.694 160.096 182.373C159.435 181.181 157.999 180.496 156.444 180.65C150.617 181.338 144.789 182.026 138.962 182.715C137.448 182.88 136.245 183.736 135.905 184.888C135.695 185.6 135.873 186.223 135.973 186.491C136.416 187.686 137.742 188.496 139.339 188.6C144.827 188.39 150.315 188.179 155.803 187.968Z" fill="#643219"/>
<path d="M119.551 293.392C121.779 297.668 134.971 322.026 161.832 327.594C165.695 328.395 176.217 330.441 188.307 326.331C207.372 319.849 218.873 301.941 222.262 286.172C223.656 279.686 223.547 274.169 223.271 270.681C227.512 271.632 233.704 273.039 241.173 274.807C254.364 277.929 264.175 280.436 264.874 280.616C333.326 298.247 369.985 352.909 369.985 352.909C394.629 389.654 397.685 427.789 397.74 447.056C389.528 449.29 376.284 451.787 360.154 449.99C347.214 448.548 336.889 444.84 329.889 441.677C334.724 463.356 338.018 492.783 331.936 526.21C330.467 534.284 328.591 541.822 326.48 548.801C244.514 544.307 162.548 539.813 80.5824 535.319C77.8908 526.653 75.1992 517.987 72.5076 509.32C70.6589 503.838 68.8815 495.793 70.111 486.38C73.6677 459.15 99.1552 445.25 102.45 443.521C96.3996 449.147 86.7892 456.608 73.3775 461.806C47.537 471.822 24.318 466.951 15.2333 464.515C13.4926 451.862 8.79711 406.416 36.9657 360.256C65.0864 314.175 107.504 297.627 119.551 293.392Z" fill="white"/>
<path d="M183.261 114.349C188.384 116.479 192.457 118.701 195.382 120.457C201.491 124.125 205.602 126.658 208.682 131.675C209.362 132.782 210.056 134.484 211.444 137.887C213.75 143.539 215.569 148.001 216.798 153.157C217.758 157.187 218.725 163.185 218.285 170.811C215.596 169.046 211.215 166.457 205.421 164.33C196.565 161.08 194.299 162.54 189.903 160.371C177.199 154.104 171.17 129.606 180.034 117.67C181.248 116.035 182.516 114.939 183.261 114.349Z" fill="url(#paint0_linear_0_140)"/>
<path d="M129.59 119.25C135.554 117.622 140.579 116.642 144.173 116.039C157.204 113.853 167.655 113.898 173.818 113.952C177.894 113.988 181.237 114.145 183.433 114.273C184.651 124.003 186.567 134.684 189.522 146.056C190.961 151.591 192.529 156.838 194.17 161.787C183.399 156.606 171.369 149.998 158.755 141.561C147.515 134.044 137.82 126.417 129.59 119.25Z" fill="url(#paint1_linear_0_140)"/>
<path d="M110.882 186.419C108.097 180.024 105.222 170.69 105.592 159.407C105.849 151.562 106.236 139.754 114.96 130.509C120.426 124.716 126.912 122.317 130.682 121.271C128.645 118.564 124.763 114.188 118.534 111.201C117.306 110.612 101.572 103.347 90.2973 111.64C84.671 115.779 82.7687 121.869 81.9813 124.515C77.2291 140.482 87.4145 156.399 93.7982 166.376C97.0836 171.51 102.483 178.867 110.882 186.419Z" fill="#DBA606"/>
<path d="M207.385 164.771C199.803 166.336 185.975 167.945 170.934 162.268C159.16 157.824 150.891 150.523 147.057 146.698C141.923 141.576 141.309 139.279 130.552 126.954C124.137 119.605 120.869 115.893 117.892 114.113C113.931 111.743 105.263 107.991 90.0095 111.705C94.3971 109.528 101.546 106.831 110.04 107.692C119.153 108.616 125.242 113.171 132.315 118.447C153.801 134.475 164.662 142.55 169.972 146.216C178.089 151.82 190.332 159.016 207.385 164.771Z" fill="#F2B705"/>
<path d="M114.505 295.742C125.685 354.103 134.533 396.83 137.193 408.585C137.868 411.571 139.341 417.788 144.258 423.556C145.595 425.125 148.909 428.693 155.671 431.995C169.881 438.933 184.416 437.419 191.27 436.622C193.451 436.369 210.927 434.169 224.151 424.373C229.178 420.649 231.63 417.28 233.119 414.029C235.005 409.91 235.304 406.075 235.293 403.686C236.914 377.112 238.974 349.937 241.529 322.194C242.967 306.572 244.527 291.161 246.196 275.964C252.419 277.522 258.641 279.081 264.864 280.639C264.052 286.859 262.934 296.1 261.924 307.325C259.163 337.991 256.847 363.711 260.293 394.431C264.676 433.507 275.893 458.482 279.315 465.748C289.796 488 299.581 497.894 307.849 504.129C317.493 511.403 327.013 515.163 333.664 517.195C333.814 533.086 331.481 545.232 329.316 553.398C326.954 562.313 324.39 568.004 322.523 579.258C320.674 590.399 320.841 598.961 320.892 602.395C321.454 639.803 316.95 640.235 319.877 727.78C319.877 727.78 321.939 789.435 316.535 932.07C316.485 933.392 316.765 937.104 314.564 940.459C311.893 944.531 307.574 945.243 295.345 947.919C277.681 951.784 273.97 953.083 270.101 950.448C266.496 947.993 265.325 943.873 264.804 941.94C248.369 881.009 228.149 821.045 214.368 759.457C210.084 740.312 206.077 724.003 201.053 724.07C196.89 724.126 193.452 735.402 188.552 759.185C181.126 795.234 179.1 817.506 175.264 846.125C175.264 846.125 167.767 902.055 146.111 936.421C144.224 939.416 141.465 943.036 136.905 945.259C131.576 947.857 125.533 946.935 113.447 945.089C109.483 944.484 106.897 943.875 104.823 941.765C101.8 938.688 101.697 934.283 101.648 932.959C98.7864 855.835 84.7511 779.455 80.5729 702.392C79.1299 675.776 77.1369 648.67 77.1369 648.67C73.4845 598.996 70.474 577.47 71.1585 542.238C71.45 527.229 72.2193 515.032 72.7889 507.396C77.2459 501.223 83.0559 492.343 88.5502 480.992C99.1848 459.02 102.472 440.524 105.127 424.918C107.135 413.112 111.519 387.341 107.844 359.044C106.825 351.201 103.284 328.5 102.953 326.379C101.507 317.115 100.267 309.481 99.42 304.331C101.331 303.14 103.309 301.948 105.355 300.761C108.474 298.952 111.53 297.282 114.505 295.742Z" fill="#F2B705"/>
<path d="M225.564 272.165C225.594 277.903 224.894 288.155 219.61 299.359C217.142 304.592 211.29 317.002 197.463 324.645C179.471 334.591 161.121 329.201 156.979 327.985C136.822 322.065 126.66 306.795 124.115 302.699C126.687 307.152 136.245 322.425 155.788 329.178C159.942 330.613 179.745 337.456 198.892 326.792C213.027 318.919 218.821 305.951 221.039 300.791C226.253 288.661 226.049 277.712 225.564 272.165Z" fill="#DCDCDC"/>
</g>
<path d="M267.091 102.535C266.401 99.9552 267.929 97.3038 270.503 96.6126L278.723 94.4052C281.297 93.714 283.942 95.2448 284.632 97.8243L286.834 106.063C287.524 108.642 285.997 111.293 283.423 111.985L275.203 114.192C272.629 114.883 269.983 113.353 269.294 110.773L267.091 102.535Z" fill="#616BE8"/>
<path d="M278.349 106.662C278.127 106.71 277.905 106.767 277.687 106.83C277.481 106.903 277.262 106.961 277.039 107.043C276.489 107.242 274.713 107.959 274.953 108.785C275.17 109.534 276.793 109.425 278.305 108.985C279.818 108.544 281.246 107.765 281.029 107.016C280.791 106.193 278.917 106.537 278.349 106.662ZM277.566 107.483C277.746 107.425 277.944 107.367 278.127 107.32L278.156 107.419C278.177 107.493 278.079 107.613 277.921 107.659C277.763 107.705 277.616 107.656 277.595 107.583L277.566 107.483ZM278.137 108.405C276.573 108.86 275.624 108.733 275.533 108.627C275.544 108.516 275.982 108.095 276.998 107.688L277.017 107.751C277.135 108.158 277.616 108.377 278.089 108.239C278.563 108.101 278.852 107.658 278.734 107.251L278.716 107.188C279.792 106.986 280.386 107.104 280.449 107.174C280.435 107.332 279.701 107.95 278.137 108.405Z" fill="white"/>
<path d="M281.212 104.15C280.811 103.934 280.562 103.59 280.527 103.206C280.51 103.012 280.473 102.819 280.419 102.632C280.011 101.223 278.667 100.311 277.141 100.251L277.049 99.9355C276.847 99.2389 276.118 98.8364 275.422 99.0389C274.727 99.2414 274.326 99.9728 274.528 100.669L274.617 100.977C273.346 101.845 272.689 103.346 273.099 104.763C273.152 104.946 273.224 105.126 273.311 105.297C273.489 105.646 273.463 106.089 273.241 106.51C272.976 107.012 272.92 107.589 273.085 108.132C273.249 108.678 273.749 109.058 274.327 109.078C274.472 109.085 274.591 108.97 274.597 108.826C274.602 108.681 274.489 108.561 274.345 108.556C273.991 108.543 273.685 108.312 273.585 107.98C273.461 107.57 273.502 107.134 273.703 106.754C274.006 106.18 274.032 105.563 273.777 105.059C273.704 104.917 273.646 104.769 273.602 104.617C273.157 103.083 274.212 101.422 275.954 100.915C277.695 100.408 279.474 101.244 279.919 102.778C279.964 102.934 279.994 103.093 280.008 103.253C280.058 103.806 280.416 104.314 280.965 104.611C281.355 104.822 281.635 105.173 281.754 105.599C281.852 105.949 281.7 106.328 281.383 106.521C281.26 106.595 281.221 106.756 281.296 106.879C281.358 106.983 281.481 107.027 281.591 106.995C281.613 106.989 281.634 106.979 281.654 106.967C282.169 106.653 282.417 106.032 282.256 105.458C282.098 104.894 281.727 104.429 281.212 104.15ZM276.601 100.263C276.338 100.287 276.073 100.335 275.808 100.412C275.552 100.487 275.308 100.584 275.08 100.699L275.029 100.524C274.907 100.104 275.149 99.663 275.568 99.541C275.987 99.4191 276.427 99.6614 276.549 100.081L276.601 100.263Z" fill="white"/>
<path d="M261.872 170.344C262.56 167.764 265.203 166.234 267.776 166.928L276.022 169.15C278.595 169.844 280.124 172.497 279.436 175.077L277.248 183.291C276.561 185.871 273.918 187.4 271.344 186.707L263.099 184.484C260.526 183.791 258.997 181.137 259.684 178.557L261.872 170.344Z" fill="#E5007E"/>
<path d="M272.863 172.895L269.014 171.856C267.536 171.457 266.014 172.333 265.621 173.809L264.599 177.652C264.207 179.127 265.09 180.652 266.569 181.051L270.418 182.091C271.896 182.49 273.418 181.613 273.81 180.138L274.832 176.296C275.224 174.82 274.341 173.294 272.863 172.895ZM274.253 176.412L272.979 176.069C272.071 175.823 271.135 176.361 270.882 177.312C270.641 178.219 271.184 179.157 272.093 179.402L273.366 179.746L273.299 180.001C272.981 181.194 271.75 181.903 270.553 181.58L266.704 180.541C265.508 180.218 264.793 178.984 265.111 177.79L266.133 173.947C266.45 172.753 267.682 172.044 268.878 172.367L272.727 173.406C273.923 173.729 274.638 174.964 274.32 176.158L274.253 176.412ZM274.105 176.92L273.49 179.232L272.228 178.891C271.602 178.722 271.227 178.075 271.405 177.407C271.571 176.781 272.217 176.41 272.843 176.579L274.105 176.92Z" fill="white"/>
<path d="M270.951 174.472L268.079 173.698C267.938 173.66 267.793 173.743 267.756 173.884C267.719 174.024 267.803 174.169 267.944 174.206L270.816 174.98C270.957 175.018 271.102 174.935 271.139 174.795C271.176 174.654 271.092 174.51 270.951 174.472Z" fill="white"/>
<path d="M272.339 177.592C272.282 177.807 272.41 178.028 272.626 178.086C272.841 178.144 273.062 178.017 273.119 177.802C273.176 177.588 273.048 177.366 272.832 177.308C272.617 177.25 272.396 177.377 272.339 177.592Z" fill="white"/>
<path d="M248.509 50.0501C249.199 47.4706 251.844 45.9398 254.418 46.631L266.398 49.848C268.971 50.5391 270.499 53.1905 269.809 55.77L266.599 67.7759C265.91 70.3554 263.264 71.8862 260.69 71.195L248.711 67.978C246.137 67.2869 244.61 64.6355 245.299 62.056L248.509 50.0501Z" fill="#F2B705"/>
<path fill-rule="evenodd" clip-rule="evenodd" d="M254.678 55.4781C254.765 55.1561 255.026 54.9638 255.281 54.8539C255.541 54.7418 255.865 54.683 256.214 54.662C256.916 54.6198 257.815 54.7257 258.754 54.9777C259.692 55.2297 260.524 55.5886 261.111 55.977C261.402 56.1699 261.653 56.383 261.823 56.6106C261.989 56.8336 262.119 57.1311 262.033 57.4531L260.662 62.5805C260.576 62.9016 260.317 63.0945 260.062 63.2052C259.802 63.3179 259.479 63.377 259.131 63.3982C258.43 63.4407 257.53 63.3343 256.587 63.0809C255.643 62.8276 254.811 62.469 254.225 62.0809C253.934 61.8881 253.684 61.6751 253.515 61.4472C253.35 61.2235 253.222 60.9266 253.307 60.6055L253.99 58.0543C253.991 58.0501 253.992 58.046 253.993 58.0418C253.994 58.0389 253.994 58.0359 253.995 58.033L254.678 55.4781ZM254.512 59.215L254.085 60.8119C254.084 60.8205 254.088 60.8678 254.161 60.9667C254.253 61.0908 254.419 61.2433 254.669 61.4086C255.164 61.7368 255.911 62.0652 256.795 62.3025C257.679 62.5398 258.489 62.6297 259.082 62.5937C259.381 62.5756 259.601 62.5269 259.742 62.4655C259.855 62.4166 259.882 62.3773 259.886 62.3697L260.313 60.7727C260.157 60.804 259.99 60.8239 259.816 60.8345C259.115 60.877 258.216 60.7706 257.272 60.5172C256.329 60.2639 255.497 59.9053 254.911 59.5172C254.766 59.4212 254.631 59.3203 254.512 59.215ZM260.573 59.7994L260.999 58.2072C260.841 58.2387 260.673 58.2588 260.498 58.2693C259.796 58.3115 258.896 58.2056 257.958 57.9536C257.02 57.7016 256.188 57.3427 255.601 56.9543C255.454 56.8575 255.318 56.7556 255.198 56.6493L254.77 58.2486C254.77 58.2583 254.774 58.3056 254.846 58.403C254.938 58.5271 255.105 58.6796 255.354 58.8449C255.85 59.1731 256.597 59.5015 257.48 59.7388C258.364 59.9761 259.175 60.066 259.768 60.03C260.066 60.0119 260.286 59.9632 260.428 59.9018C260.541 59.8529 260.567 59.8135 260.571 59.806C260.572 59.8038 260.572 59.8016 260.573 59.7994ZM261.255 57.2443C261.248 57.256 261.216 57.2924 261.113 57.3369C260.97 57.3983 260.749 57.4468 260.449 57.4649C259.855 57.5006 259.044 57.4109 258.166 57.1751C257.288 56.9393 256.541 56.6107 256.044 56.2818C255.794 56.1161 255.626 55.963 255.533 55.8384C255.466 55.7482 255.457 55.7009 255.456 55.6869C255.464 55.6753 255.495 55.6389 255.598 55.5944C255.741 55.533 255.962 55.4844 256.262 55.4664C256.857 55.4307 257.667 55.5203 258.545 55.7561C259.423 55.9919 260.17 56.3206 260.667 56.6495C260.918 56.8152 261.085 56.9682 261.178 57.0929C261.246 57.1831 261.255 57.2304 261.255 57.2443ZM261.258 57.2404L261.257 57.2412L261.258 57.2404ZM259.886 62.3684L259.886 62.3697L259.886 62.3684ZM254.085 60.8104L254.085 60.8119L254.085 60.8104ZM255.456 55.6833L255.456 55.6825L255.456 55.6833Z" fill="#F8F8FA"/>
<path d="M0 302.922C0 299.717 2.59211 297.12 5.78964 297.12H115.31C118.508 297.12 121.1 299.717 121.1 302.922V324.198C121.1 327.402 118.508 330 115.31 330H5.78964C2.59211 330 0 327.402 0 324.198V302.922Z" fill="white"/>
<path d="M48.0192 310.457H46.3981V312.593H45.5644V310.457H40.9906V309.854L45.2865 304.469H46.2129L42.0675 309.715H45.5876V307.835H46.3981V309.715H48.0192V310.457Z" fill="#565981"/>
<path d="M50.8703 307.8C52.0437 307.8 52.8967 308.013 53.4294 308.438C53.9697 308.856 54.2399 309.444 54.2399 310.202C54.2399 310.674 54.128 311.096 53.9041 311.467C53.688 311.838 53.3599 312.132 52.9199 312.349C52.4799 312.558 51.9395 312.662 51.2988 312.662C50.7198 312.662 50.1679 312.57 49.643 312.384C49.1257 312.19 48.7089 311.935 48.3924 311.618L48.7977 310.957C49.0679 311.235 49.4229 311.463 49.863 311.641C50.303 311.811 50.7777 311.896 51.2872 311.896C51.9588 311.896 52.476 311.746 52.8388 311.444C53.2094 311.142 53.3946 310.74 53.3946 310.237C53.3946 309.68 53.1862 309.258 52.7693 308.972C52.3602 308.686 51.6655 308.543 50.6851 308.543H48.9598L49.3766 304.469H53.8115V305.212H50.1061L49.8282 307.8H50.8703Z" fill="#565981"/>
<path d="M58.6563 307.73C59.189 307.73 59.6599 307.831 60.069 308.032C60.4859 308.233 60.8101 308.52 61.0417 308.891C61.2732 309.254 61.389 309.68 61.389 310.167C61.389 310.663 61.2694 311.1 61.0301 311.479C60.7908 311.858 60.4588 312.152 60.0343 312.361C59.6174 312.562 59.1465 312.662 58.6216 312.662C57.5486 312.662 56.7265 312.31 56.1552 311.606C55.584 310.895 55.2983 309.893 55.2983 308.601C55.2983 307.696 55.4527 306.93 55.7615 306.303C56.0703 305.676 56.5026 305.204 57.0584 304.887C57.6142 304.562 58.2626 304.4 59.0037 304.4C59.8065 304.4 60.4473 304.547 60.9259 304.841L60.5901 305.514C60.2041 305.259 59.6792 305.131 59.0153 305.131C58.1198 305.131 57.4173 305.417 56.9079 305.99C56.3984 306.554 56.1436 307.378 56.1436 308.461C56.1436 308.655 56.1552 308.875 56.1784 309.123C56.3791 308.682 56.6994 308.342 57.1394 308.102C57.5794 307.854 58.0851 307.73 58.6563 307.73ZM58.5868 311.954C59.1735 311.954 59.6483 311.796 60.0111 311.479C60.3816 311.154 60.5669 310.724 60.5669 310.191C60.5669 309.657 60.3816 309.231 60.0111 308.914C59.6483 308.597 59.1542 308.438 58.529 308.438C58.1198 308.438 57.757 308.516 57.4405 308.67C57.1317 308.825 56.8886 309.038 56.711 309.309C56.5335 309.579 56.4447 309.881 56.4447 310.214C56.4447 310.523 56.5257 310.81 56.6878 311.073C56.8577 311.336 57.1047 311.548 57.4289 311.711C57.7531 311.873 58.1391 311.954 58.5868 311.954Z" fill="#565981"/>
<path d="M70.0283 308.334C70.5377 308.504 70.9276 308.759 71.1978 309.1C71.4757 309.44 71.6146 309.85 71.6146 310.33C71.6146 310.802 71.4872 311.216 71.2325 311.572C70.9778 311.92 70.6111 312.19 70.1325 312.384C69.6616 312.57 69.1058 312.662 68.4651 312.662C67.4924 312.662 66.7282 312.454 66.1723 312.036C65.6165 311.618 65.3387 311.049 65.3387 310.33C65.3387 309.842 65.4699 309.432 65.7324 309.1C66.0025 308.759 66.3924 308.504 66.9018 308.334C66.485 308.171 66.1685 307.939 65.9524 307.638C65.7362 307.328 65.6281 306.964 65.6281 306.547C65.6281 305.889 65.8829 305.367 66.3924 304.98C66.9096 304.593 67.6005 304.4 68.4651 304.4C69.0363 304.4 69.5342 304.489 69.9588 304.667C70.3911 304.837 70.7269 305.084 70.9662 305.409C71.2055 305.734 71.3251 306.113 71.3251 306.547C71.3251 306.964 71.2132 307.328 70.9893 307.638C70.7655 307.939 70.4451 308.171 70.0283 308.334ZM66.4618 306.57C66.4618 307.019 66.6394 307.375 66.9945 307.638C67.3496 307.901 67.8398 308.032 68.4651 308.032C69.0903 308.032 69.5805 307.901 69.9356 307.638C70.2984 307.375 70.4799 307.022 70.4799 306.581C70.4799 306.125 70.2946 305.765 69.924 305.502C69.5612 305.239 69.0749 305.108 68.4651 305.108C67.8475 305.108 67.3573 305.239 66.9945 305.502C66.6394 305.765 66.4618 306.121 66.4618 306.57ZM68.4651 311.954C69.183 311.954 69.7426 311.808 70.144 311.514C70.5532 311.22 70.7577 310.821 70.7577 310.318C70.7577 309.815 70.5532 309.421 70.144 309.135C69.7426 308.841 69.183 308.694 68.4651 308.694C67.7549 308.694 67.1952 308.841 66.7861 309.135C66.3847 309.421 66.1839 309.815 66.1839 310.318C66.1839 310.829 66.3847 311.231 66.7861 311.525C67.1875 311.811 67.7472 311.954 68.4651 311.954Z" fill="#565981"/>
<path d="M75.9996 312.662C75.3744 312.662 74.8147 312.496 74.3206 312.163C73.8343 311.831 73.4522 311.355 73.1743 310.736C72.9041 310.109 72.769 309.374 72.769 308.531C72.769 307.688 72.9041 306.957 73.1743 306.338C73.4522 305.711 73.8343 305.231 74.3206 304.899C74.8147 304.566 75.3744 304.4 75.9996 304.4C76.6249 304.4 77.1807 304.566 77.667 304.899C78.1611 305.231 78.5471 305.711 78.825 306.338C79.1029 306.957 79.2418 307.688 79.2418 308.531C79.2418 309.374 79.1029 310.109 78.825 310.736C78.5471 311.355 78.1611 311.831 77.667 312.163C77.1807 312.496 76.6249 312.662 75.9996 312.662ZM75.9996 311.896C76.4705 311.896 76.8835 311.765 77.2386 311.502C77.6014 311.239 77.8832 310.856 78.0839 310.353C78.2846 309.85 78.385 309.243 78.385 308.531C78.385 307.819 78.2846 307.212 78.0839 306.709C77.8832 306.206 77.6014 305.823 77.2386 305.56C76.8835 305.297 76.4705 305.166 75.9996 305.166C75.5287 305.166 75.1119 305.297 74.7491 305.56C74.394 305.823 74.1161 306.206 73.9154 306.709C73.7147 307.212 73.6143 307.819 73.6143 308.531C73.6143 309.243 73.7147 309.85 73.9154 310.353C74.1161 310.856 74.394 311.239 74.7491 311.502C75.1119 311.765 75.5287 311.896 75.9996 311.896Z" fill="#565981"/>
<path d="M83.6664 312.662C83.0411 312.662 82.4814 312.496 81.9874 312.163C81.5011 311.831 81.1189 311.355 80.841 310.736C80.5709 310.109 80.4358 309.374 80.4358 308.531C80.4358 307.688 80.5709 306.957 80.841 306.338C81.1189 305.711 81.5011 305.231 81.9874 304.899C82.4814 304.566 83.0411 304.4 83.6664 304.4C84.2916 304.4 84.8475 304.566 85.3338 304.899C85.8278 305.231 86.2138 305.711 86.4917 306.338C86.7696 306.957 86.9086 307.688 86.9086 308.531C86.9086 309.374 86.7696 310.109 86.4917 310.736C86.2138 311.355 85.8278 311.831 85.3338 312.163C84.8475 312.496 84.2916 312.662 83.6664 312.662ZM83.6664 311.896C84.1373 311.896 84.5503 311.765 84.9054 311.502C85.2682 311.239 85.5499 310.856 85.7506 310.353C85.9513 309.85 86.0517 309.243 86.0517 308.531C86.0517 307.819 85.9513 307.212 85.7506 306.709C85.5499 306.206 85.2682 305.823 84.9054 305.56C84.5503 305.297 84.1373 305.166 83.6664 305.166C83.1955 305.166 82.7786 305.297 82.4158 305.56C82.0607 305.823 81.7828 306.206 81.5821 306.709C81.3814 307.212 81.281 307.819 81.281 308.531C81.281 309.243 81.3814 309.85 81.5821 310.353C81.7828 310.856 82.0607 311.239 82.4158 311.502C82.7786 311.765 83.1955 311.896 83.6664 311.896Z" fill="#565981"/>
<path d="M88.6034 312.651C88.4336 312.651 88.2869 312.589 88.1634 312.465C88.0476 312.341 87.9897 312.19 87.9897 312.013C87.9897 311.835 88.0476 311.688 88.1634 311.572C88.2869 311.448 88.4336 311.386 88.6034 311.386C88.7732 311.386 88.9199 311.448 89.0434 311.572C89.1669 311.688 89.2287 311.835 89.2287 312.013C89.2287 312.19 89.1669 312.341 89.0434 312.465C88.9199 312.589 88.7732 312.651 88.6034 312.651Z" fill="#565981"/>
<path d="M93.5381 312.662C92.9129 312.662 92.3532 312.496 91.8592 312.163C91.3728 311.831 90.9907 311.355 90.7128 310.736C90.4426 310.109 90.3075 309.374 90.3075 308.531C90.3075 307.688 90.4426 306.957 90.7128 306.338C90.9907 305.711 91.3728 305.231 91.8592 304.899C92.3532 304.566 92.9129 304.4 93.5381 304.4C94.1634 304.4 94.7192 304.566 95.2056 304.899C95.6996 305.231 96.0856 305.711 96.3635 306.338C96.6414 306.957 96.7803 307.688 96.7803 308.531C96.7803 309.374 96.6414 310.109 96.3635 310.736C96.0856 311.355 95.6996 311.831 95.2056 312.163C94.7192 312.496 94.1634 312.662 93.5381 312.662ZM93.5381 311.896C94.009 311.896 94.422 311.765 94.7771 311.502C95.1399 311.239 95.4217 310.856 95.6224 310.353C95.8231 309.85 95.9235 309.243 95.9235 308.531C95.9235 307.819 95.8231 307.212 95.6224 306.709C95.4217 306.206 95.1399 305.823 94.7771 305.56C94.422 305.297 94.009 305.166 93.5381 305.166C93.0673 305.166 92.6504 305.297 92.2876 305.56C91.9325 305.823 91.6546 306.206 91.4539 306.709C91.2532 307.212 91.1528 307.819 91.1528 308.531C91.1528 309.243 91.2532 309.85 91.4539 310.353C91.6546 310.856 91.9325 311.239 92.2876 311.502C92.6504 311.765 93.0673 311.896 93.5381 311.896Z" fill="#565981"/>
<path d="M101.205 312.662C100.58 312.662 100.02 312.496 99.5259 312.163C99.0396 311.831 98.6575 311.355 98.3796 310.736C98.1094 310.109 97.9743 309.374 97.9743 308.531C97.9743 307.688 98.1094 306.957 98.3796 306.338C98.6575 305.711 99.0396 305.231 99.5259 304.899C100.02 304.566 100.58 304.4 101.205 304.4C101.83 304.4 102.386 304.566 102.872 304.899C103.366 305.231 103.752 305.711 104.03 306.338C104.308 306.957 104.447 307.688 104.447 308.531C104.447 309.374 104.308 310.109 104.03 310.736C103.752 311.355 103.366 311.831 102.872 312.163C102.386 312.496 101.83 312.662 101.205 312.662ZM101.205 311.896C101.676 311.896 102.089 311.765 102.444 311.502C102.807 311.239 103.088 310.856 103.289 310.353C103.49 309.85 103.59 309.243 103.59 308.531C103.59 307.819 103.49 307.212 103.289 306.709C103.088 306.206 102.807 305.823 102.444 305.56C102.089 305.297 101.676 305.166 101.205 305.166C100.734 305.166 100.317 305.297 99.9543 305.56C99.5993 305.823 99.3213 306.206 99.1206 306.709C98.9199 307.212 98.8196 307.819 98.8196 308.531C98.8196 309.243 98.9199 309.85 99.1206 310.353C99.3213 310.856 99.5993 311.239 99.9543 311.502C100.317 311.765 100.734 311.896 101.205 311.896Z" fill="#565981"/>
<path d="M110.489 309.866V310.574H113.095V311.084H110.489V312.593H109.633V311.084H108.417V310.574H109.633V304.469H112.666C113.709 304.469 114.519 304.705 115.098 305.177C115.685 305.642 115.978 306.303 115.978 307.162C115.978 308.028 115.685 308.697 115.098 309.169C114.519 309.634 113.709 309.866 112.666 309.866H110.489ZM110.489 305.212V309.135H112.678C113.465 309.135 114.067 308.964 114.484 308.624C114.909 308.284 115.121 307.8 115.121 307.173C115.121 306.547 114.909 306.063 114.484 305.723C114.067 305.382 113.465 305.212 112.678 305.212H110.489Z" fill="#565981"/>
<path d="M41.0678 323.714V318.144H43.2138C43.5252 318.144 43.7967 318.208 44.0282 318.337C44.2598 318.466 44.44 318.64 44.5686 318.859C44.6973 319.076 44.7616 319.316 44.7616 319.579C44.7616 319.878 44.6818 320.145 44.5223 320.38C44.3628 320.612 44.1492 320.773 43.8816 320.863L43.8739 320.674C44.2341 320.777 44.5172 320.957 44.723 321.215C44.9289 321.473 45.0318 321.785 45.0318 322.151C45.0318 322.474 44.9636 322.752 44.8272 322.987C44.6908 323.219 44.4991 323.398 44.2521 323.525C44.0051 323.651 43.7182 323.714 43.3914 323.714H41.0678ZM41.6391 323.169H43.2524C43.4789 323.169 43.6822 323.129 43.8623 323.049C44.0424 322.966 44.1839 322.85 44.2868 322.701C44.3923 322.551 44.4451 322.37 44.4451 322.159C44.4451 321.953 44.3975 321.767 44.3023 321.602C44.2071 321.437 44.0771 321.305 43.9125 321.207C43.7503 321.107 43.5651 321.057 43.3567 321.057H41.6391V323.169ZM41.6391 320.519H43.21C43.3875 320.519 43.5496 320.479 43.6963 320.399C43.843 320.316 43.9588 320.204 44.0437 320.062C44.1312 319.921 44.1749 319.757 44.1749 319.571C44.1749 319.308 44.0836 319.094 43.9009 318.929C43.7208 318.764 43.4904 318.681 43.21 318.681H41.6391V320.519Z" fill="#8B8FBB"/>
<path d="M45.8059 323.714L45.7982 319.536H46.3694V321.111H47.0951C47.216 321.111 47.3344 321.113 47.4502 321.118C47.5659 321.124 47.6702 321.134 47.7628 321.149C47.9687 321.191 48.1513 321.26 48.3109 321.358C48.4704 321.456 48.5965 321.592 48.6891 321.764C48.7818 321.935 48.8281 322.15 48.8281 322.41C48.8281 322.769 48.7355 323.051 48.5502 323.258C48.3649 323.464 48.1321 323.598 47.8516 323.66C47.7461 323.683 47.6316 323.699 47.5081 323.706C47.3845 323.711 47.2636 323.714 47.1452 323.714H45.8059ZM46.3694 323.227H47.1221C47.207 323.227 47.3035 323.224 47.4116 323.219C47.5196 323.214 47.6148 323.2 47.6972 323.176C47.8361 323.138 47.9609 323.06 48.0716 322.944C48.1848 322.826 48.2414 322.648 48.2414 322.41C48.2414 322.176 48.1874 321.999 48.0793 321.881C47.9712 321.759 47.8271 321.679 47.647 321.641C47.5647 321.623 47.4772 321.611 47.3846 321.606C47.2945 321.601 47.207 321.598 47.1221 321.598H46.3694V323.227ZM49.326 323.714V319.536H49.8934V323.714H49.326Z" fill="#8B8FBB"/>
<path d="M50.6647 324.642V323.227C50.9015 323.227 51.0713 323.151 51.1742 322.998C51.2771 322.844 51.3608 322.597 51.4251 322.26C51.4688 322.04 51.5049 321.804 51.5332 321.552C51.5615 321.299 51.5859 321.01 51.6065 320.685C51.6271 320.358 51.6464 319.975 51.6644 319.536H54.4203V323.227H54.8217V324.642H54.2736V323.714H51.209V324.642H50.6647ZM51.6258 323.227H53.8567V320.024H52.1893C52.1816 320.22 52.17 320.427 52.1546 320.647C52.1417 320.866 52.125 321.085 52.1044 321.304C52.0864 321.523 52.0645 321.73 52.0388 321.923C52.0156 322.114 51.9873 322.281 51.9539 322.426C51.9153 322.612 51.8728 322.77 51.8265 322.902C51.7828 323.033 51.7159 323.142 51.6258 323.227Z" fill="#8B8FBB"/>
<path d="M56.5536 323.83C56.2397 323.83 55.976 323.773 55.7624 323.66C55.5514 323.546 55.3931 323.396 55.2876 323.207C55.1821 323.019 55.1294 322.814 55.1294 322.592C55.1294 322.365 55.1744 322.172 55.2645 322.012C55.3571 321.85 55.4819 321.717 55.6389 321.614C55.7984 321.51 55.9824 321.432 56.1908 321.378C56.4018 321.326 56.6347 321.281 56.8894 321.242C57.1467 321.201 57.3976 321.166 57.6421 321.138C57.8891 321.107 58.1053 321.077 58.2905 321.049L58.0898 321.173C58.0975 320.76 58.0178 320.454 57.8505 320.256C57.6833 320.057 57.3925 319.958 56.9782 319.958C56.6926 319.958 56.4507 320.022 56.2526 320.151C56.057 320.28 55.9193 320.484 55.8396 320.763L55.2876 320.6C55.3828 320.226 55.5745 319.936 55.8627 319.73C56.1509 319.523 56.5253 319.42 56.9859 319.42C57.3668 319.42 57.6897 319.492 57.9547 319.637C58.2223 319.779 58.4115 319.985 58.5221 320.256C58.5736 320.377 58.607 320.512 58.6225 320.662C58.6379 320.812 58.6456 320.964 58.6456 321.118V323.714H58.14V322.666L58.2867 322.728C58.1451 323.086 57.9251 323.359 57.6266 323.548C57.3282 323.736 56.9705 323.83 56.5536 323.83ZM56.6192 323.339C56.8843 323.339 57.1159 323.291 57.314 323.196C57.5121 323.1 57.6717 322.97 57.7926 322.805C57.9135 322.637 57.992 322.449 58.0281 322.24C58.0589 322.106 58.0757 321.959 58.0782 321.799C58.0808 321.637 58.0821 321.516 58.0821 321.436L58.2982 321.548C58.1053 321.574 57.8955 321.599 57.6691 321.625C57.4452 321.651 57.2239 321.681 57.0052 321.714C56.7891 321.748 56.5935 321.788 56.4185 321.834C56.3002 321.868 56.1857 321.915 56.075 321.977C55.9644 322.037 55.873 322.116 55.801 322.217C55.7315 322.318 55.6968 322.443 55.6968 322.592C55.6968 322.713 55.7263 322.831 55.7855 322.944C55.8473 323.058 55.9451 323.152 56.0789 323.227C56.2153 323.301 56.3954 323.339 56.6192 323.339Z" fill="#8B8FBB"/>
<path d="M59.6466 323.714V319.536H60.214V321.351H62.5645V319.536H63.1319V323.714H62.5645V321.896H60.214V323.714H59.6466Z" fill="#8B8FBB"/>
<path d="M65.952 323.83C65.5377 323.83 65.1839 323.736 64.8906 323.548C64.5973 323.359 64.3721 323.099 64.2151 322.766C64.0582 322.434 63.9797 322.052 63.9797 321.621C63.9797 321.183 64.0595 320.799 64.219 320.469C64.3785 320.138 64.605 319.882 64.8983 319.699C65.1942 319.513 65.5455 319.42 65.952 319.42C66.3689 319.42 66.724 319.514 67.0173 319.703C67.3132 319.888 67.5384 320.148 67.6928 320.48C67.8497 320.81 67.9282 321.191 67.9282 321.621C67.9282 322.06 67.8497 322.445 67.6928 322.778C67.5358 323.108 67.3094 323.366 67.0135 323.552C66.7175 323.737 66.3637 323.83 65.952 323.83ZM65.952 323.285C66.4152 323.285 66.76 323.131 66.9864 322.824C67.2129 322.515 67.3261 322.114 67.3261 321.621C67.3261 321.116 67.2116 320.714 66.9826 320.414C66.7561 320.115 66.4126 319.966 65.952 319.966C65.6407 319.966 65.3834 320.037 65.1801 320.178C64.9794 320.318 64.8288 320.512 64.7285 320.763C64.6307 321.01 64.5818 321.296 64.5818 321.621C64.5818 322.124 64.6976 322.528 64.9292 322.832C65.1608 323.134 65.5017 323.285 65.952 323.285Z" fill="#8B8FBB"/>
<path d="M29.8175 313.596C29.8175 320.632 24.1263 326.336 17.1058 326.336C10.0854 326.336 4.39414 320.632 4.39414 313.596C4.39414 306.56 10.0854 300.856 17.1058 300.856C24.1263 300.856 29.8175 306.56 29.8175 313.596Z" fill="#F2B705"/>
<path d="M22.3721 312.934C22.0316 312.934 21.7592 313.199 21.7592 313.53C21.7592 313.861 22.0316 314.126 22.3721 314.126C22.7126 314.126 22.985 313.861 22.985 313.53C22.985 313.199 22.7126 312.934 22.3721 312.934Z" fill="white"/>
<path d="M12.2936 312.934C11.9531 312.934 11.6807 313.199 11.6807 313.53C11.6807 313.861 11.9531 314.126 12.2936 314.126C12.634 314.126 12.9064 313.861 12.9064 313.53C12.9745 313.199 12.7021 312.934 12.2936 312.934Z" fill="white"/>
<path d="M17.3328 306.316C13.1788 306.316 9.84201 309.559 9.84201 313.596C9.84201 317.633 13.1788 320.876 17.3328 320.876C21.4868 320.876 24.8237 317.633 24.8237 313.596C24.8237 309.559 21.4868 306.316 17.3328 306.316ZM17.3328 319.949C13.7236 319.949 10.7273 317.104 10.7273 313.53C10.7273 310.022 13.6555 307.11 17.3328 307.11C21.0101 307.11 23.9384 309.956 23.9384 313.53C23.9384 317.104 21.0101 319.949 17.3328 319.949Z" fill="white"/>
<path d="M20.3973 310.817C20.2611 310.618 20.1249 310.486 19.9206 310.353C19.6482 310.155 19.2396 310.022 18.7629 309.956C18.6267 309.956 18.5586 309.956 18.4224 309.956C18.2862 309.956 18.2181 309.956 18.15 309.956H15.358C15.1537 309.956 14.9494 310.089 14.9494 310.287V313.199H14.0641C13.996 313.199 13.9279 313.265 13.9279 313.331V314.059C13.9279 314.126 13.996 314.192 14.0641 314.192H14.9494V314.986H14.0641C13.996 314.986 13.9279 315.052 13.9279 315.118V315.846C13.9279 315.912 13.996 315.979 14.0641 315.979H14.9494V317.038C14.9494 317.17 15.0175 317.236 15.1537 317.236H16.1071C16.2433 317.236 16.3114 317.17 16.3114 317.038V315.979H17.0604C17.1285 315.979 17.1966 315.912 17.1966 315.846V315.118C17.1966 315.052 17.1285 314.986 17.0604 314.986H16.2433V314.192H18.15C18.2181 314.192 18.3543 314.192 18.4224 314.192C18.5586 314.192 18.6267 314.192 18.7629 314.192C19.2396 314.126 19.5801 313.993 19.9206 313.795C20.1249 313.662 20.2611 313.53 20.3973 313.331C20.3973 313.331 20.4654 313.199 20.5335 313.067C20.8059 312.471 20.8059 311.677 20.5335 311.081C20.5335 310.949 20.4654 310.817 20.3973 310.817ZM19.3758 312.471C19.3077 312.603 19.2396 312.736 19.1034 312.868C18.9672 313.001 18.831 313.067 18.5586 313.133C18.4905 313.133 18.4224 313.133 18.2862 313.199C18.2181 313.199 18.0819 313.199 18.0138 313.199H16.1752C16.1752 313.199 16.1071 313.199 16.1071 313.133V311.015C16.1071 311.015 16.1071 310.949 16.1752 310.949H18.0138C18.0819 310.949 18.15 310.949 18.2862 310.949C18.3543 310.949 18.4905 310.949 18.5586 311.015C18.7629 311.081 18.9672 311.147 19.1034 311.28C19.2396 311.412 19.3077 311.545 19.3758 311.677C19.4439 311.809 19.4439 311.942 19.4439 312.074C19.4439 312.206 19.4439 312.339 19.3758 312.471Z" fill="white"/>
<path d="M57.8238 177.523C57.8205 177.998 58.0988 178.448 58.5163 178.641C58.6721 178.712 58.837 178.747 59.0039 178.747C59.4627 178.747 59.9259 178.488 60.1842 178.043C60.2999 177.844 60.2321 177.588 60.0327 177.473C59.8323 177.356 59.5774 177.424 59.4616 177.624C59.3101 177.884 59.0374 177.963 58.867 177.885C58.7456 177.828 58.6577 177.678 58.6577 177.528C58.6577 177.37 58.7612 177.217 58.9183 177.138C59.1776 177.008 59.3436 176.732 59.3513 176.416L59.4171 173.021L59.4783 172.985C59.7087 172.851 59.8735 172.637 59.9436 172.379C60.0126 172.12 59.9771 171.85 59.8446 171.62L59.5873 171.174C59.3124 170.698 58.6967 170.534 58.2201 170.808L56.5634 171.765C56.53 171.749 56.5033 171.724 56.4665 171.711C56.2194 171.636 55.9611 171.659 55.7351 171.78L41.4625 179.409C41.2187 179.555 40.8747 179.822 40.6219 180.269C40.436 180.597 40.3302 180.969 40.318 181.36L40.3057 182.996C39.6755 183.186 39.2135 183.764 39.2135 184.453V187.115C38.8127 187.236 38.5143 187.593 38.5143 188.033V188.414C38.5143 188.747 38.6924 189.027 38.9485 189.202L38.9396 189.765C38.9307 189.993 38.9964 190.22 39.1233 190.403C39.3515 190.736 39.6945 190.822 39.8704 190.847L40.6397 190.845C40.8023 191.756 41.595 192.45 42.5525 192.45C43.5134 192.45 44.3095 191.749 44.4664 190.832L45.0732 190.83C45.2291 191.748 46.0252 192.45 46.9872 192.45C47.9536 192.45 48.7519 191.741 48.9022 190.817L54.1585 190.799V190.796H54.1785C54.3266 191.722 55.126 192.434 56.0946 192.434C57.0634 192.434 57.8616 191.722 58.0097 190.796H59.0808C59.6319 190.796 60.0806 190.347 60.0806 189.796V185.861C60.0806 183.148 57.8717 180.94 55.155 180.94H53.8523C52.8803 180.94 52.0886 181.73 52.0886 182.702V187.087C52.0397 187.079 51.9963 187.058 51.9451 187.058H49.156V183.306C49.156 182.203 48.2564 181.304 47.1519 181.304H46.8023L50.8506 179.152C50.9598 179.095 51.0555 179.017 51.1356 178.919L52.2457 177.561C52.4494 177.313 52.6944 177.113 52.9771 176.965L57.0912 174.811C57.4041 174.647 57.5955 174.352 57.6634 174.028L58.5764 173.502L58.543 176.391C58.1021 176.616 57.8249 177.049 57.8238 177.523ZM57.1435 190.798C57.0076 191.258 56.5991 191.602 56.0946 191.602C55.5903 191.602 55.1806 191.258 55.0447 190.798C55.0158 190.699 54.9823 190.6 54.9823 190.492C54.9823 190.297 55.0459 190.124 55.1349 189.964C55.3254 189.622 55.6772 189.381 56.0946 189.381C56.5121 189.381 56.864 189.622 57.0544 189.964C57.1423 190.123 57.207 190.297 57.207 190.492C57.2059 190.6 57.1735 190.698 57.1435 190.798ZM59.1877 185.278L56.255 185.263C55.8854 185.261 55.5814 184.958 55.5792 184.588L55.5591 181.817C57.4273 182.003 58.9204 183.436 59.1877 185.278ZM52.9249 182.703C52.9249 182.192 53.3412 181.776 53.8535 181.776H54.723L54.743 184.593C54.7497 185.418 55.4244 186.093 56.2505 186.097L59.2467 186.114V189.798C59.2467 189.889 59.1732 189.964 59.0819 189.964H57.9596C57.7281 189.148 56.9843 188.547 56.0958 188.547C55.2061 188.547 54.4625 189.148 54.2309 189.964H52.927V182.703H52.9249ZM40.0485 184.454C40.0485 184.071 40.3614 183.759 40.7444 183.759H43.2963V185.034H40.0485L40.0485 184.454ZM40.0485 185.868H43.2963V187.059H40.0485V185.868ZM40.6742 190.019L39.9461 190.023C39.9428 190.022 39.8604 190.005 39.8114 189.933C39.7769 189.881 39.7724 189.826 39.7746 189.788L39.7813 189.389H40.9648C40.8312 189.575 40.7344 189.79 40.6742 190.019ZM43.5969 190.836C43.4544 191.284 43.048 191.617 42.5525 191.617C42.0593 191.617 41.654 191.288 41.5093 190.844C41.4737 190.735 41.4403 190.625 41.4403 190.505C41.4403 190.327 41.4915 190.165 41.5672 190.016C41.7498 189.652 42.1172 189.395 42.5525 189.395C42.9845 189.395 43.3486 189.649 43.5323 190.008C43.6102 190.16 43.6637 190.324 43.6637 190.505C43.6637 190.622 43.6314 190.73 43.5969 190.836ZM45.1144 190.002L44.4253 190.004C44.3651 189.78 44.2705 189.571 44.1402 189.386H45.3983C45.2681 189.571 45.1746 189.779 45.1144 190.002ZM48.0337 190.821C47.8957 191.277 47.4871 191.617 46.986 191.617C46.4873 191.617 46.0797 191.281 45.9395 190.828C45.9072 190.723 45.8738 190.62 45.8738 190.505C45.8738 190.32 45.9306 190.152 46.0118 189.998C46.1978 189.644 46.5585 189.395 46.9849 189.395C47.4091 189.395 47.7654 189.641 47.9536 189.99C48.0371 190.146 48.0972 190.316 48.0972 190.505C48.0983 190.618 48.0649 190.719 48.0337 190.821ZM52.0898 189.975L48.8543 189.987C48.7942 189.77 48.7018 189.567 48.5748 189.388H51.9473C51.9986 189.388 52.0419 189.366 52.091 189.359V189.975H52.0898ZM51.9461 187.894C52.023 187.894 52.0865 187.956 52.0865 188.033V188.414C52.0865 188.491 52.023 188.553 51.9461 188.553H39.4885C39.4117 188.553 39.3493 188.491 39.3493 188.414V188.033C39.3493 187.965 39.4016 187.916 39.4651 187.904C43.6258 187.9 47.7866 187.897 51.9461 187.894ZM47.1519 182.139C47.7966 182.139 48.321 182.663 48.321 183.307V187.059H44.1347V182.924L44.1424 182.394C44.1436 182.364 44.1502 182.317 44.1781 182.272C44.2538 182.149 44.413 182.148 44.4253 182.148C45.3338 182.145 46.2423 182.143 47.1519 182.139ZM56.7049 174.075L52.5908 176.227C52.2079 176.428 51.875 176.699 51.5999 177.035L50.462 178.414L44.9964 181.305H44.4108C44.2571 181.305 44.1102 181.336 43.9765 181.393C43.8574 181.434 43.7461 181.493 43.6514 181.576C43.3531 181.831 43.3119 182.168 43.3074 182.307C43.3085 182.508 43.3096 182.709 43.3107 182.909C42.5882 182.904 41.8645 182.898 41.1419 182.891L41.153 181.376C41.1608 181.132 41.2287 180.89 41.349 180.679C41.5115 180.391 41.7342 180.218 41.8734 180.134L56.1281 172.514L56.2238 172.544L56.6357 173.259L56.8362 173.656C56.9141 173.809 56.8552 173.997 56.7049 174.075ZM57.5332 173.144L57.3661 172.856L57.1335 172.399L58.6366 171.532C58.7167 171.489 58.8169 171.514 58.8626 171.592L59.1197 172.038C59.1587 172.106 59.1265 172.224 59.0585 172.264L57.5332 173.144Z" fill="#BCAAE9"/>
<path d="M233.903 35.9602C235.821 35.9602 237.376 34.4021 237.376 32.4801C237.376 30.5581 235.821 29 233.903 29C231.986 29 230.431 30.5581 230.431 32.4801C230.431 34.4021 231.986 35.9602 233.903 35.9602Z" fill="#BCAAE9"/>
<path d="M47.7123 221.509C50.394 221.509 52.568 219.33 52.568 216.642C52.568 213.955 50.394 211.776 47.7123 211.776C45.0305 211.776 42.8565 213.955 42.8565 216.642C42.8565 219.33 45.0305 221.509 47.7123 221.509Z" fill="#E5007E"/>
<path d="M212.637 57.3324L222.515 52.8059L220.787 49.0197L210.909 53.5462L212.637 57.3324Z" fill="#E5007E"/>
<path d="M32.4433 193.971L20.596 187.116L19.698 188.674L31.5453 195.529L32.4433 193.971Z" fill="#62A0E9"/>
<path d="M24.6541 57.8013C24.6541 57.2355 24.6541 56.9527 24.6672 56.7137C24.9105 52.2832 28.4405 48.7454 32.8613 48.5015C33.0998 48.4884 33.382 48.4884 33.9465 48.4884H128.859C129.424 48.4884 129.706 48.4884 129.944 48.5015C134.365 48.7454 137.895 52.2832 138.138 56.7137C138.151 56.9527 138.151 57.2355 138.151 57.8013V93.3194C138.151 93.8852 138.151 94.168 138.138 94.407C137.895 98.8375 134.365 102.375 129.944 102.619C129.706 102.632 129.424 102.632 128.859 102.632H33.9464C33.382 102.632 33.0998 102.632 32.8613 102.619C28.4405 102.375 24.9105 98.8375 24.6672 94.407C24.6541 94.168 24.6541 93.8851 24.6541 93.3194V57.8013Z" fill="white"/>
<path d="M42.4012 84.8981C41.848 84.8981 41.381 84.7756 41.0002 84.5306C40.6193 84.283 40.3311 83.9413 40.1356 83.5055C39.94 83.0697 39.8422 82.5668 39.8422 81.9968C39.8422 81.4269 39.94 80.924 40.1356 80.4882C40.3311 80.0524 40.6193 79.712 41.0002 79.467C41.381 79.2194 41.848 79.0956 42.4012 79.0956C43.0471 79.0956 43.5746 79.262 43.9838 79.5947C44.3929 79.9247 44.6734 80.3683 44.8252 80.9253L44.2462 81.0762C44.1279 80.6352 43.9156 80.2858 43.6094 80.0279C43.3032 79.77 42.9004 79.6411 42.4012 79.6411C41.9664 79.6411 41.6049 79.7404 41.3167 79.9389C41.0285 80.1375 40.811 80.4147 40.6644 80.7706C40.5203 81.1239 40.4456 81.5327 40.4405 81.9968C40.4379 82.461 40.5087 82.8698 40.6528 83.2231C40.7995 83.5764 41.0182 83.8536 41.3089 84.0548C41.6023 84.2533 41.9664 84.3526 42.4012 84.3526C42.9004 84.3526 43.3032 84.2237 43.6094 83.9658C43.9156 83.7053 44.1279 83.3559 44.2462 82.9175L44.8252 83.0684C44.6734 83.6254 44.3929 84.0702 43.9838 84.4029C43.5746 84.733 43.0471 84.8981 42.4012 84.8981Z" fill="#616BE8"/>
<path d="M45.6729 84.782V80.6043H48.9885V84.782H48.4211V81.1497H46.2403V84.782H45.6729Z" fill="#616BE8"/>
<path d="M51.8357 84.8981C51.4291 84.8981 51.0766 84.8078 50.7781 84.6273C50.4822 84.4468 50.2519 84.1927 50.0872 83.8652C49.9226 83.5377 49.8402 83.1535 49.8402 82.7125C49.8402 82.256 49.9213 81.8615 50.0834 81.5288C50.2455 81.1961 50.4732 80.9395 50.7666 80.759C51.0625 80.5785 51.4111 80.4882 51.8125 80.4882C52.2243 80.4882 52.5755 80.5836 52.8663 80.7745C53.157 80.9627 53.377 81.2335 53.5263 81.5868C53.6755 81.9401 53.7437 82.3618 53.7309 82.8517H53.1519V82.6506C53.1416 82.109 53.0245 81.7003 52.8006 81.4243C52.5793 81.1484 52.2551 81.0104 51.828 81.0104C51.3803 81.0104 51.0367 81.1562 50.7974 81.4476C50.5607 81.739 50.4423 82.1542 50.4423 82.6931C50.4423 83.2192 50.5607 83.628 50.7974 83.9194C51.0367 84.2082 51.3751 84.3526 51.8125 84.3526C52.111 84.3526 52.3709 84.2843 52.5922 84.1476C52.8161 84.0084 52.9923 83.8085 53.121 83.548L53.6498 83.7531C53.4851 84.1167 53.2419 84.399 52.9203 84.6002C52.6012 84.7988 52.2397 84.8981 51.8357 84.8981ZM50.2416 82.8517V82.3759H53.4259V82.8517H50.2416Z" fill="#616BE8"/>
<path d="M58.1693 85.5054V84.782H54.5835V80.6043H55.1509V84.2366H57.3317V80.6043H57.8991V84.2559H58.7367V85.5054H58.1693Z" fill="#616BE8"/>
<path d="M60.4827 84.782V81.1304H59.0044V80.6043H62.5284V81.1304H61.0501V84.782H60.4827Z" fill="#616BE8"/>
<path d="M65.0282 84.8981C64.6217 84.8981 64.2691 84.8078 63.9707 84.6273C63.6747 84.4468 63.4444 84.1927 63.2798 83.8652C63.1151 83.5377 63.0327 83.1535 63.0327 82.7125C63.0327 82.256 63.1138 81.8615 63.2759 81.5288C63.438 81.1961 63.6657 80.9395 63.9591 80.759C64.255 80.5785 64.6037 80.4882 65.0051 80.4882C65.4168 80.4882 65.768 80.5836 66.0588 80.7745C66.3496 80.9627 66.5696 81.2335 66.7188 81.5868C66.868 81.9401 66.9362 82.3618 66.9234 82.8517H66.3444V82.6506C66.3341 82.109 66.217 81.7003 65.9932 81.4243C65.7719 81.1484 65.4477 81.0104 65.0205 81.0104C64.5728 81.0104 64.2293 81.1562 63.99 81.4476C63.7532 81.739 63.6349 82.1542 63.6349 82.6931C63.6349 83.2192 63.7532 83.628 63.99 83.9194C64.2293 84.2082 64.5676 84.3526 65.0051 84.3526C65.3036 84.3526 65.5635 84.2843 65.7847 84.1476C66.0086 84.0084 66.1849 83.8085 66.3135 83.548L66.8423 83.7531C66.6776 84.1167 66.4345 84.399 66.1128 84.6002C65.7937 84.7988 65.4322 84.8981 65.0282 84.8981ZM63.4342 82.8517V82.3759H66.6184V82.8517H63.4342Z" fill="#616BE8"/>
<path d="M67.166 84.782L68.7948 82.6699L67.2007 80.6043H67.8801L69.1267 82.2328L70.3619 80.6043H71.0412L69.4471 82.6699L71.0798 84.782H70.3966L69.1267 83.1071L67.8492 84.782H67.166Z" fill="#616BE8"/>
<path d="M73.9502 84.8981C73.397 84.8981 72.93 84.7756 72.5491 84.5306C72.1683 84.283 71.8801 83.9413 71.6846 83.5055C71.489 83.0697 71.3912 82.5668 71.3912 81.9968C71.3912 81.4269 71.489 80.924 71.6846 80.4882C71.8801 80.0524 72.1683 79.712 72.5491 79.467C72.93 79.2194 73.397 79.0956 73.9502 79.0956C74.5961 79.0956 75.1236 79.262 75.5327 79.5947C75.9419 79.9247 76.2224 80.3683 76.3742 80.9253L75.7952 81.0762C75.6768 80.6352 75.4646 80.2858 75.1583 80.0279C74.8521 79.77 74.4494 79.6411 73.9502 79.6411C73.5154 79.6411 73.1538 79.7404 72.8657 79.9389C72.5775 80.1375 72.36 80.4147 72.2133 80.7706C72.0693 81.1239 71.9946 81.5327 71.9895 81.9968C71.9869 82.461 72.0577 82.8698 72.2018 83.2231C72.3484 83.5764 72.5672 83.8536 72.8579 84.0548C73.1513 84.2533 73.5154 84.3526 73.9502 84.3526C74.4494 84.3526 74.8521 84.2237 75.1583 83.9658C75.4646 83.7053 75.6768 83.3559 75.7952 82.9175L76.3742 83.0684C76.2224 83.6254 75.9419 84.0702 75.5327 84.4029C75.1236 84.733 74.5961 84.8981 73.9502 84.8981Z" fill="#616BE8"/>
<path d="M78.3567 84.782V81.1304H76.8784V80.6043H80.4024V81.1304H78.9241V84.782H78.3567Z" fill="#616BE8"/>
<path d="M83.0103 84.8981C82.6269 84.8981 82.3027 84.8013 82.0376 84.6079C81.7726 84.4119 81.5719 84.1476 81.4355 83.8149C81.2991 83.4797 81.2309 83.1045 81.2309 82.6893C81.2309 82.2663 81.2991 81.8898 81.4355 81.5597C81.5745 81.2271 81.7777 80.9653 82.0454 80.7745C82.313 80.5836 82.6423 80.4882 83.0335 80.4882C83.4143 80.4882 83.7411 80.5849 84.0138 80.7783C84.2866 80.9718 84.495 81.2348 84.6391 81.5675C84.7858 81.9001 84.8591 82.2741 84.8591 82.6893C84.8591 83.107 84.7858 83.4823 84.6391 83.8149C84.4924 84.1476 84.2814 84.4119 84.0061 84.6079C83.7308 84.8013 83.3988 84.8981 83.0103 84.8981ZM81.1345 86.6388V80.6043H81.6439V83.7492H81.7057V86.6388H81.1345ZM82.9524 84.3681C83.2432 84.3681 83.485 84.2946 83.678 84.1476C83.871 84.0006 84.0151 83.8008 84.1103 83.548C84.2081 83.2927 84.257 83.0065 84.257 82.6893C84.257 82.3747 84.2094 82.091 84.1142 81.8383C84.019 81.5855 83.8736 81.3857 83.678 81.2387C83.485 81.0917 83.2393 81.0182 82.9408 81.0182C82.65 81.0182 82.4082 81.0891 82.2152 81.2309C82.0248 81.3728 81.882 81.57 81.7868 81.8228C81.6915 82.0729 81.6439 82.3618 81.6439 82.6893C81.6439 83.0116 81.6915 83.3005 81.7868 83.5558C81.882 83.8085 82.0261 84.0071 82.219 84.1515C82.412 84.2959 82.6565 84.3681 82.9524 84.3681Z" fill="#616BE8"/>
<path d="M87.4474 84.8981C87.0332 84.8981 86.6794 84.8039 86.386 84.6157C86.0927 84.4274 85.8675 84.167 85.7106 83.8343C85.5536 83.5016 85.4751 83.1199 85.4751 82.6893C85.4751 82.2509 85.5549 81.8666 85.7144 81.5365C85.874 81.2064 86.1004 80.9498 86.3937 80.7667C86.6896 80.5811 87.0409 80.4882 87.4474 80.4882C87.8643 80.4882 88.2194 80.5824 88.5127 80.7706C88.8087 80.9563 89.0338 81.2155 89.1882 81.5481C89.3452 81.8782 89.4236 82.2586 89.4236 82.6893C89.4236 83.1277 89.3452 83.5132 89.1882 83.8459C89.0312 84.176 88.8048 84.4339 88.5089 84.6195C88.213 84.8052 87.8592 84.8981 87.4474 84.8981ZM87.4474 84.3526C87.9106 84.3526 88.2554 84.1992 88.4819 83.8923C88.7083 83.5828 88.8215 83.1818 88.8215 82.6893C88.8215 82.1838 88.707 81.7815 88.478 81.4824C88.2516 81.1832 87.908 81.0336 87.4474 81.0336C87.1361 81.0336 86.8788 81.1046 86.6755 81.2464C86.4748 81.3857 86.3243 81.5804 86.2239 81.8305C86.1261 82.0781 86.0772 82.3643 86.0772 82.6893C86.0772 83.1921 86.193 83.5957 86.4246 83.9C86.6562 84.2018 86.9971 84.3526 87.4474 84.3526Z" fill="#616BE8"/>
<path d="M93.5868 80.6043V84.782H93.0348V81.5288L90.7498 84.782H90.2712V80.6043H90.8232V83.8304L93.112 80.6043H93.5868Z" fill="#616BE8"/>
<path d="M95.801 84.782V81.1304H94.3227V80.6043H97.8467V81.1304H96.3684V84.782H95.801Z" fill="#616BE8"/>
<path d="M100.347 84.8981C99.94 84.8981 99.5874 84.8078 99.2889 84.6273C98.993 84.4468 98.7627 84.1927 98.598 83.8652C98.4334 83.5377 98.351 83.1535 98.351 82.7125C98.351 82.256 98.4321 81.8615 98.5942 81.5288C98.7563 81.1961 98.984 80.9395 99.2774 80.759C99.5733 80.5785 99.9219 80.4882 100.323 80.4882C100.735 80.4882 101.086 80.5836 101.377 80.7745C101.668 80.9627 101.888 81.2335 102.037 81.5868C102.186 81.9401 102.255 82.3618 102.242 82.8517H101.663V82.6506C101.652 82.109 101.535 81.7003 101.311 81.4243C101.09 81.1484 100.766 81.0104 100.339 81.0104C99.8911 81.0104 99.5475 81.1562 99.3082 81.4476C99.0715 81.739 98.9531 82.1542 98.9531 82.6931C98.9531 83.2192 99.0715 83.628 99.3082 83.9194C99.5475 84.2082 99.8859 84.3526 100.323 84.3526C100.622 84.3526 100.882 84.2843 101.103 84.1476C101.327 84.0084 101.503 83.8085 101.632 83.548L102.161 83.7531C101.996 84.1167 101.753 84.399 101.431 84.6002C101.112 84.7988 100.751 84.8981 100.347 84.8981ZM98.7524 82.8517V82.3759H101.937V82.8517H98.7524Z" fill="#616BE8"/>
<path d="M102.712 84.782V84.283C102.867 84.3114 102.984 84.3049 103.063 84.2637C103.146 84.2198 103.206 84.1476 103.245 84.047C103.283 83.9439 103.316 83.8162 103.341 83.6641C103.383 83.4114 103.42 83.1328 103.453 82.8285C103.487 82.5242 103.516 82.189 103.542 81.8228C103.57 81.454 103.599 81.0478 103.627 80.6043H106.46V84.782H105.897V81.1497H104.152C104.134 81.4231 104.113 81.6951 104.09 81.9659C104.067 82.2367 104.043 82.4971 104.017 82.7473C103.994 82.9949 103.968 83.2231 103.94 83.432C103.911 83.6409 103.882 83.8214 103.851 83.9735C103.805 84.2031 103.743 84.3861 103.666 84.5228C103.591 84.6595 103.479 84.7498 103.33 84.7936C103.181 84.8375 102.975 84.8336 102.712 84.782Z" fill="#616BE8"/>
<path d="M107.542 84.782L107.535 80.6043H108.106V82.1787H109.082C109.203 82.1787 109.322 82.1812 109.437 82.1864C109.556 82.1916 109.66 82.2019 109.75 82.2173C109.956 82.256 110.139 82.3244 110.298 82.4224C110.46 82.5204 110.586 82.6557 110.676 82.8285C110.769 83.0013 110.815 83.2179 110.815 83.4784C110.815 83.8369 110.723 84.1192 110.537 84.3256C110.355 84.5319 110.123 84.666 109.843 84.7279C109.737 84.7511 109.623 84.7665 109.499 84.7743C109.376 84.7794 109.253 84.782 109.133 84.782H107.542ZM108.106 84.2946H109.109C109.197 84.2946 109.295 84.292 109.403 84.2869C109.511 84.2817 109.606 84.2675 109.688 84.2443C109.825 84.2056 109.948 84.1283 110.059 84.0122C110.172 83.8936 110.229 83.7157 110.229 83.4784C110.229 83.2437 110.175 83.0671 110.067 82.9484C109.959 82.8272 109.814 82.7473 109.634 82.7086C109.555 82.6906 109.468 82.679 109.376 82.6738C109.283 82.6686 109.194 82.6661 109.109 82.6661H108.106V84.2946Z" fill="#616BE8"/>
<path d="M40.4854 91.3324L40.1139 91.0617L40.6475 90.3712L39.8133 90.1173L39.9551 89.6807L40.7758 89.9718L40.7556 89.0951H41.2149L41.1946 89.9718L42.0119 89.6807L42.1537 90.1173L41.3229 90.3712L41.8498 91.0617L41.4783 91.3324L40.9852 90.6149L40.4854 91.3324Z" fill="#8B8FBB"/>
<path d="M43.4339 91.3324L43.0624 91.0617L43.596 90.3712L42.7618 90.1173L42.9037 89.6807L43.7243 89.9718L43.7041 89.0951H44.1634L44.1431 89.9718L44.9604 89.6807L45.1023 90.1173L44.2715 90.3712L44.7983 91.0617L44.4268 91.3324L43.9337 90.6149L43.4339 91.3324Z" fill="#8B8FBB"/>
<path d="M46.3824 91.3324L46.0109 91.0617L46.5445 90.3712L45.7103 90.1173L45.8522 89.6807L46.6729 89.9718L46.6526 89.0951H47.1119L47.0917 89.9718L47.909 89.6807L48.0508 90.1173L47.22 90.3712L47.7468 91.0617L47.3754 91.3324L46.8823 90.6149L46.3824 91.3324Z" fill="#8B8FBB"/>
<path d="M49.331 91.3324L48.9595 91.0617L49.4931 90.3712L48.6589 90.1173L48.8007 89.6807L49.6214 89.9718L49.6011 89.0951H50.0604L50.0402 89.9718L50.8575 89.6807L50.9993 90.1173L50.1685 90.3712L50.6954 91.0617L50.3239 91.3324L49.8308 90.6149L49.331 91.3324Z" fill="#8B8FBB"/>
<path d="M52.2795 91.3324L51.908 91.0617L52.4416 90.3712L51.6074 90.1173L51.7492 89.6807L52.5699 89.9718L52.5497 89.0951H53.009L52.9887 89.9718L53.806 89.6807L53.9479 90.1173L53.1171 90.3712L53.6439 91.0617L53.2724 91.3324L52.7793 90.6149L52.2795 91.3324Z" fill="#8B8FBB"/>
<path d="M55.228 91.3324L54.8565 91.0617L55.3901 90.3712L54.5559 90.1173L54.6978 89.6807L55.5185 89.9718L55.4982 89.0951H55.9575L55.9372 89.9718L56.7545 89.6807L56.8964 90.1173L56.0656 90.3712L56.5924 91.0617L56.2209 91.3324L55.7278 90.6149L55.228 91.3324Z" fill="#8B8FBB"/>
<path d="M58.1765 91.3324L57.805 91.0617L58.3387 90.3712L57.5045 90.1173L57.6463 89.6807L58.467 89.9718L58.4467 89.0951H58.906L58.8858 89.9718L59.7031 89.6807L59.8449 90.1173L59.0141 90.3712L59.541 91.0617L59.1695 91.3324L58.6764 90.6149L58.1765 91.3324Z" fill="#8B8FBB"/>
<path d="M61.1251 91.3324L60.7536 91.0617L61.2872 90.3712L60.453 90.1173L60.5948 89.6807L61.4155 89.9718L61.3953 89.0951H61.8546L61.8343 89.9718L62.6516 89.6807L62.7935 90.1173L61.9626 90.3712L62.4895 91.0617L62.118 91.3324L61.6249 90.6149L61.1251 91.3324Z" fill="#8B8FBB"/>
<path d="M64.0736 91.3324L63.7021 91.0617L64.2357 90.3712L63.4015 90.1173L63.5434 89.6807L64.3641 89.9718L64.3438 89.0951H64.8031L64.7828 89.9718L65.6001 89.6807L65.742 90.1173L64.9112 90.3712L65.438 91.0617L65.0665 91.3324L64.5734 90.6149L64.0736 91.3324Z" fill="#8B8FBB"/>
<path d="M67.0221 91.3324L66.6506 91.0617L67.1842 90.3712L66.3501 90.1173L66.4919 89.6807L67.3126 89.9718L67.2923 89.0951H67.7516L67.7314 89.9718L68.5487 89.6807L68.6905 90.1173L67.8597 90.3712L68.3866 91.0617L68.0151 91.3324L67.522 90.6149L67.0221 91.3324Z" fill="#8B8FBB"/>
<path d="M69.9707 91.3324L69.5992 91.0617L70.1328 90.3712L69.2986 90.1173L69.4404 89.6807L70.2611 89.9718L70.2409 89.0951H70.7002L70.6799 89.9718L71.4972 89.6807L71.6391 90.1173L70.8082 90.3712L71.3351 91.0617L70.9636 91.3324L70.4705 90.6149L69.9707 91.3324Z" fill="#8B8FBB"/>
<path d="M72.9192 91.3324L72.5477 91.0617L73.0813 90.3712L72.2471 90.1173L72.389 89.6807L73.2096 89.9718L73.1894 89.0951H73.6487L73.6284 89.9718L74.4457 89.6807L74.5876 90.1173L73.7568 90.3712L74.2836 91.0617L73.9121 91.3324L73.419 90.6149L72.9192 91.3324Z" fill="#8B8FBB"/>
<path d="M75.8677 91.3324L75.4962 91.0617L76.0298 90.3712L75.1956 90.1173L75.3375 89.6807L76.1582 89.9718L76.1379 89.0951H76.5972L76.577 89.9718L77.3943 89.6807L77.5361 90.1173L76.7053 90.3712L77.2322 91.0617L76.8606 91.3324L76.3676 90.6149L75.8677 91.3324Z" fill="#8B8FBB"/>
<path d="M78.8163 91.3324L78.4448 91.0617L78.9784 90.3712L78.1442 90.1173L78.286 89.6807L79.1067 89.9718L79.0864 89.0951H79.5457L79.5255 89.9718L80.3428 89.6807L80.4846 90.1173L79.6538 90.3712L80.1807 91.0617L79.8092 91.3324L79.3161 90.6149L78.8163 91.3324Z" fill="#8B8FBB"/>
<path d="M81.7648 91.3324L81.3933 91.0617L81.9269 90.3712L81.0927 90.1173L81.2346 89.6807L82.0552 89.9718L82.035 89.0951H82.4943L82.474 89.9718L83.2913 89.6807L83.4332 90.1173L82.6024 90.3712L83.1292 91.0617L82.7577 91.3324L82.2646 90.6149L81.7648 91.3324Z" fill="#8B8FBB"/>
<path d="M58.4472 65.9242L61.0265 60.1972L61.2523 60.5889H57.6396L58.0738 60.1624V61.6768H57.2401V59.8316H61.8255V60.4235L59.3678 65.9242H58.4472Z" fill="#565981"/>
<path d="M64.9009 65.9938C64.4261 65.9938 64.0006 65.872 63.6242 65.6283C63.2537 65.3846 62.9584 65.0306 62.7384 64.5664C62.5242 64.1022 62.4171 63.5394 62.4171 62.8779C62.4171 62.2164 62.5242 61.6536 62.7384 61.1894C62.9584 60.7252 63.2537 60.3713 63.6242 60.1276C64.0006 59.8839 64.4261 59.762 64.9009 59.762C65.3698 59.762 65.7925 59.8839 66.1688 60.1276C66.5451 60.3713 66.8404 60.7252 67.0546 61.1894C67.2688 61.6536 67.3759 62.2164 67.3759 62.8779C67.3759 63.5394 67.2688 64.1022 67.0546 64.5664C66.8404 65.0306 66.5451 65.3846 66.1688 65.6283C65.7925 65.872 65.3698 65.9938 64.9009 65.9938ZM64.9009 65.2192C65.2193 65.2192 65.4972 65.1321 65.7346 64.9581C65.9777 64.784 66.1659 64.5229 66.2991 64.1748C66.438 63.8266 66.5075 63.3943 66.5075 62.8779C66.5075 62.3615 66.438 61.9292 66.2991 61.5811C66.1659 61.2329 65.9777 60.9718 65.7346 60.7977C65.4972 60.6237 65.2193 60.5366 64.9009 60.5366C64.5824 60.5366 64.3016 60.6237 64.0585 60.7977C63.8153 60.9718 63.6242 61.2329 63.4853 61.5811C63.3521 61.9292 63.2855 62.3615 63.2855 62.8779C63.2855 63.3943 63.3521 63.8266 63.4853 64.1748C63.6242 64.5229 63.8153 64.784 64.0585 64.9581C64.3016 65.1321 64.5824 65.2192 64.9009 65.2192Z" fill="#565981"/>
<path d="M71.5666 65.9242V60.1798L71.94 60.5889H70.1944V59.8316H72.4263V65.9242H71.5666Z" fill="#565981"/>
<path d="M75.7188 65.9938C75.2903 65.9938 74.8735 65.9271 74.4682 65.7936C74.0687 65.6602 73.7416 65.4803 73.4869 65.254L73.8864 64.5664C74.089 64.7579 74.3524 64.9146 74.6766 65.0364C75.0009 65.1583 75.3453 65.2192 75.7101 65.2192C76.1733 65.2192 76.5293 65.1205 76.7783 64.9233C77.0272 64.726 77.1517 64.462 77.1517 64.1312C77.1517 63.9049 77.0967 63.7077 76.9867 63.5394C76.8767 63.3711 76.6856 63.2435 76.4135 63.1564C76.1472 63.0636 75.7796 63.0172 75.3106 63.0172H73.9298L74.2511 59.8316H77.6815V60.5889H74.5724L75.024 60.1624L74.7722 62.6777L74.3206 62.26H75.493C76.1009 62.26 76.5901 62.3383 76.9606 62.495C77.3312 62.6516 77.6004 62.8692 77.7683 63.1477C77.9362 63.4204 78.0201 63.7367 78.0201 64.0964C78.0201 64.4446 77.9362 64.7637 77.7683 65.0538C77.6004 65.3381 77.3457 65.5673 77.0041 65.7414C76.6683 65.9097 76.2398 65.9938 75.7188 65.9938Z" fill="#565981"/>
<path d="M79.7676 65.9242V60.1798L80.1411 60.5889H78.3955V59.8316H80.6274V65.9242H79.7676Z" fill="#565981"/>
<path d="M86.7731 65.9938C86.2984 65.9938 85.8728 65.872 85.4965 65.6283C85.126 65.3846 84.8307 65.0306 84.6107 64.5664C84.3965 64.1022 84.2894 63.5394 84.2894 62.8779C84.2894 62.2164 84.3965 61.6536 84.6107 61.1894C84.8307 60.7252 85.126 60.3713 85.4965 60.1276C85.8728 59.8839 86.2984 59.762 86.7731 59.762C87.2421 59.762 87.6647 59.8839 88.0411 60.1276C88.4174 60.3713 88.7127 60.7252 88.9269 61.1894C89.1411 61.6536 89.2482 62.2164 89.2482 62.8779C89.2482 63.5394 89.1411 64.1022 88.9269 64.5664C88.7127 65.0306 88.4174 65.3846 88.0411 65.6283C87.6647 65.872 87.2421 65.9938 86.7731 65.9938ZM86.7731 65.2192C87.0916 65.2192 87.3695 65.1321 87.6068 64.9581C87.85 64.784 88.0382 64.5229 88.1713 64.1748C88.3103 63.8266 88.3798 63.3943 88.3798 62.8779C88.3798 62.3615 88.3103 61.9292 88.1713 61.5811C88.0382 61.2329 87.85 60.9718 87.6068 60.7977C87.3695 60.6237 87.0916 60.5366 86.7731 60.5366C86.4547 60.5366 86.1739 60.6237 85.9307 60.7977C85.6876 60.9718 85.4965 61.2329 85.3576 61.5811C85.2244 61.9292 85.1578 62.3615 85.1578 62.8779C85.1578 63.3943 85.2244 63.8266 85.3576 64.1748C85.4965 64.5229 85.6876 64.784 85.9307 64.9581C86.1739 65.1321 86.4547 65.2192 86.7731 65.2192Z" fill="#565981"/>
<path d="M92.5656 65.9938C92.0908 65.9938 91.6653 65.872 91.289 65.6283C90.9184 65.3846 90.6232 65.0306 90.4032 64.5664C90.1889 64.1022 90.0818 63.5394 90.0818 62.8779C90.0818 62.2164 90.1889 61.6536 90.4032 61.1894C90.6232 60.7252 90.9184 60.3713 91.289 60.1276C91.6653 59.8839 92.0908 59.762 92.5656 59.762C93.0345 59.762 93.4572 59.8839 93.8335 60.1276C94.2099 60.3713 94.5051 60.7252 94.7193 61.1894C94.9336 61.6536 95.0407 62.2164 95.0407 62.8779C95.0407 63.5394 94.9336 64.1022 94.7193 64.5664C94.5051 65.0306 94.2099 65.3846 93.8335 65.6283C93.4572 65.872 93.0345 65.9938 92.5656 65.9938ZM92.5656 65.2192C92.884 65.2192 93.1619 65.1321 93.3993 64.9581C93.6425 64.784 93.8306 64.5229 93.9638 64.1748C94.1027 63.8266 94.1722 63.3943 94.1722 62.8779C94.1722 62.3615 94.1027 61.9292 93.9638 61.5811C93.8306 61.2329 93.6425 60.9718 93.3993 60.7977C93.1619 60.6237 92.884 60.5366 92.5656 60.5366C92.2472 60.5366 91.9664 60.6237 91.7232 60.7977C91.48 60.9718 91.289 61.2329 91.15 61.5811C91.0169 61.9292 90.9503 62.3615 90.9503 62.8779C90.9503 63.3943 91.0169 63.8266 91.15 64.1748C91.289 64.5229 91.48 64.784 91.7232 64.9581C91.9664 65.1321 92.2472 65.2192 92.5656 65.2192Z" fill="#565981"/>
<path d="M98.3581 65.9938C97.8833 65.9938 97.4578 65.872 97.0814 65.6283C96.7109 65.3846 96.4156 65.0306 96.1956 64.5664C95.9814 64.1022 95.8743 63.5394 95.8743 62.8779C95.8743 62.2164 95.9814 61.6536 96.1956 61.1894C96.4156 60.7252 96.7109 60.3713 97.0814 60.1276C97.4578 59.8839 97.8833 59.762 98.3581 59.762C98.827 59.762 99.2497 59.8839 99.626 60.1276C100.002 60.3713 100.298 60.7252 100.512 61.1894C100.726 61.6536 100.833 62.2164 100.833 62.8779C100.833 63.5394 100.726 64.1022 100.512 64.5664C100.298 65.0306 100.002 65.3846 99.626 65.6283C99.2497 65.872 98.827 65.9938 98.3581 65.9938ZM98.3581 65.2192C98.6765 65.2192 98.9544 65.1321 99.1918 64.9581C99.4349 64.784 99.6231 64.5229 99.7562 64.1748C99.8952 63.8266 99.9647 63.3943 99.9647 62.8779C99.9647 62.3615 99.8952 61.9292 99.7562 61.5811C99.6231 61.2329 99.4349 60.9718 99.1918 60.7977C98.9544 60.6237 98.6765 60.5366 98.3581 60.5366C98.0396 60.5366 97.7588 60.6237 97.5157 60.7977C97.2725 60.9718 97.0814 61.2329 96.9425 61.5811C96.8093 61.9292 96.7427 62.3615 96.7427 62.8779C96.7427 63.3943 96.8093 63.8266 96.9425 64.1748C97.0814 64.5229 97.2725 64.784 97.5157 64.9581C97.7588 65.1321 98.0396 65.2192 98.3581 65.2192Z" fill="#565981"/>
<path d="M102.138 65.9764C101.976 65.9764 101.837 65.9213 101.721 65.811C101.606 65.695 101.548 65.5499 101.548 65.3758C101.548 65.2018 101.606 65.0596 101.721 64.9494C101.837 64.8391 101.976 64.784 102.138 64.784C102.294 64.784 102.428 64.8391 102.538 64.9494C102.653 65.0596 102.711 65.2018 102.711 65.3758C102.711 65.5499 102.653 65.695 102.538 65.811C102.428 65.9213 102.294 65.9764 102.138 65.9764Z" fill="#565981"/>
<path d="M105.984 65.9938C105.446 65.9938 104.985 65.8749 104.603 65.637C104.221 65.3991 103.929 65.0567 103.726 64.6099C103.529 64.1573 103.431 63.6061 103.431 62.9562C103.431 62.2658 103.552 61.6826 103.796 61.2068C104.039 60.731 104.377 60.3713 104.812 60.1276C105.246 59.8839 105.744 59.762 106.305 59.762C106.595 59.762 106.87 59.791 107.13 59.8491C107.397 59.9071 107.625 59.997 107.816 60.1189L107.486 60.7977C107.33 60.6875 107.151 60.6121 106.948 60.5715C106.751 60.5308 106.543 60.5105 106.323 60.5105C105.703 60.5105 105.211 60.7049 104.846 61.0937C104.482 61.4766 104.299 62.0482 104.299 62.8083C104.299 62.9301 104.305 63.0752 104.317 63.2435C104.328 63.4117 104.357 63.5771 104.403 63.7396L104.108 63.4436C104.195 63.1767 104.331 62.9533 104.516 62.7735C104.707 62.5878 104.933 62.4514 105.194 62.3644C105.46 62.2716 105.747 62.2251 106.053 62.2251C106.459 62.2251 106.818 62.3006 107.13 62.4514C107.443 62.6023 107.689 62.817 107.869 63.0955C108.048 63.3682 108.138 63.6932 108.138 64.0703C108.138 64.4591 108.042 64.7985 107.851 65.0886C107.66 65.3787 107.402 65.6021 107.078 65.7588C106.754 65.9155 106.389 65.9938 105.984 65.9938ZM105.949 65.2888C106.216 65.2888 106.447 65.2395 106.644 65.1409C106.847 65.0422 107.006 64.9058 107.122 64.7318C107.237 64.5519 107.295 64.343 107.295 64.1051C107.295 63.7454 107.171 63.4611 106.922 63.2522C106.673 63.0375 106.334 62.9301 105.906 62.9301C105.628 62.9301 105.385 62.9824 105.176 63.0868C104.968 63.1912 104.803 63.3334 104.681 63.5133C104.566 63.6873 104.508 63.8875 104.508 64.1138C104.508 64.3227 104.563 64.5171 104.673 64.697C104.783 64.871 104.945 65.0132 105.159 65.1234C105.373 65.2337 105.637 65.2888 105.949 65.2888Z" fill="#565981"/>
<path d="M109.782 65.9242L112.361 60.1972L112.587 60.5889H108.975L109.409 60.1624V61.6768H108.575V59.8316H113.16V60.4235L110.703 65.9242H109.782Z" fill="#565981"/>
<path d="M116.983 65.9242V59.8316H119.372C120.153 59.8316 120.77 60.0057 121.221 60.3539C121.673 60.6962 121.899 61.1981 121.899 61.8596C121.899 62.5211 121.673 63.0259 121.221 63.374C120.77 63.7222 120.153 63.8962 119.372 63.8962H117.47L117.861 63.4872V65.9242H116.983ZM117.861 63.5742L117.47 63.1738H119.372C119.904 63.1738 120.312 63.0607 120.596 62.8344C120.88 62.6081 121.022 62.2861 121.022 61.8683C121.022 61.4563 120.88 61.1401 120.596 60.9196C120.312 60.6991 119.904 60.5889 119.372 60.5889H117.47L117.861 60.1537V63.5742ZM116.098 64.9059V64.4097H119.788V64.9059H116.098Z" fill="#565981"/>
<path d="M53.2553 62.5932C53.2553 66.3624 50.2065 69.418 46.4455 69.418C42.6845 69.418 39.6357 66.3624 39.6357 62.5932C39.6357 58.8239 42.6845 55.7683 46.4455 55.7683C50.2065 55.7683 53.2553 58.8239 53.2553 62.5932Z" fill="#5EC05C"/>
<path d="M47.9633 58.9533H44.9278C43.762 58.9533 42.8136 59.9037 42.8136 61.072V64.1144C42.8136 65.2827 43.762 66.2331 44.9278 66.2331H47.9633C49.1291 66.2331 50.0774 65.2823 50.0774 64.1144V61.0724C50.0774 59.9041 49.1291 58.9533 47.9633 58.9533ZM47.9633 65.8293H44.9278C43.9846 65.8293 43.217 65.0604 43.217 64.1148V61.0724C43.217 60.1272 43.9846 59.3579 44.9278 59.3579H47.9633C48.9068 59.3579 49.674 60.1272 49.674 61.0724V61.2741H48.6696C47.9532 61.2741 47.3699 61.8582 47.3699 62.6106C47.3699 63.3289 47.9528 63.9131 48.6696 63.9131H49.674V64.1148C49.674 65.06 48.9068 65.8293 47.9633 65.8293ZM49.6643 61.6784V63.5088H48.6696C48.1754 63.5088 47.7733 63.1058 47.7733 62.5766C47.7733 62.0814 48.1754 61.6784 48.6696 61.6784H49.6643Z" fill="white"/>
<path d="M46.6724 60.5651H44.4037C44.2924 60.5651 44.202 60.6556 44.202 60.7672C44.202 60.8788 44.2924 60.9693 44.4037 60.9693H46.6724C46.7837 60.9693 46.8741 60.8788 46.8741 60.7672C46.8741 60.6556 46.7837 60.5651 46.6724 60.5651Z" fill="white"/>
<path d="M48.3117 62.5932C48.3117 62.7634 48.4493 62.9012 48.6191 62.9012C48.7889 62.9012 48.9265 62.7634 48.9265 62.5932C48.9265 62.423 48.7889 62.2851 48.6191 62.2851C48.4493 62.2851 48.3117 62.423 48.3117 62.5932Z" fill="white"/>
<path d="M24.6541 56.2232C24.6541 51.9514 28.1095 48.4884 32.3719 48.4884V102.632C28.1095 102.632 24.6541 99.1693 24.6541 94.8975V56.2232Z" fill="#5EC05C"/>
<defs>
<linearGradient id="paint0_linear_0_140" x1="175.829" y1="142.58" x2="218.395" y2="142.58" gradientUnits="userSpaceOnUse">
<stop stop-color="#F2B705"/>
<stop offset="0.5" stop-color="#ECB307"/>
<stop offset="1" stop-color="#E9B005"/>
</linearGradient>
<linearGradient id="paint1_linear_0_140" x1="136.066" y1="108.014" x2="202.945" y2="146.562" gradientUnits="userSpaceOnUse">
<stop stop-color="#E4A827"/>
<stop offset="1" stop-color="#F2B705"/>
</linearGradient>
<clipPath id="clip0_0_140">
<rect x="6" width="287.996" height="369.478" rx="10" fill="white"/>
</clipPath>
</defs>
</svg>
