<svg width="654" height="522" viewBox="0 0 654 522" fill="none" xmlns="http://www.w3.org/2000/svg">
<g clip-path="url(#clip0_1_2020)">
<rect x="167.441" y="17.8783" width="385.798" height="494.95" rx="10" fill="#EDEFF9"/>
<path d="M217.441 19.3783L194.441 140.378L270.941 73.8783L295.441 166.878L376.441 73.8783L395.441 166.878L443.941 115.378L458.941 240.878L539.441 115.378L544.941 247.378L576.941 281.378" stroke="#E7EBF9" stroke-width="5"/>
<path d="M151.441 224.182C177.267 224.438 231.682 232.486 242.728 262.63C253.775 292.773 365.468 241.355 419.934 211.878L431.441 491.78C386.948 509.978 299.189 553.604 304.098 582.517C310.235 618.658 287.989 627.116 248.865 627.116C209.742 627.116 215.879 639.42 196.701 647.878" stroke="#E7EBF9" stroke-width="5"/>
<path d="M275.806 164.815C263.882 184.615 276.674 211.535 278.753 215.765C277.523 214.915 274.25 212.91 269.981 213.324C268.674 213.451 267.155 213.598 265.92 214.626C261.995 217.892 264.966 226.693 265.153 227.226C267.816 234.851 274.896 238.437 277.291 239.52C278.34 249.902 280.446 262.388 284.6 276.13C287.944 287.192 291.921 296.771 295.808 304.767C290.771 307.083 285.733 309.399 280.695 311.716C281.542 316.867 283.63 325.097 289.473 333.079C301.979 350.162 325.056 357.027 345.189 353.092C364.599 349.298 381.529 335.3 388.072 316.645C391.912 305.696 391.228 295.838 390.346 290.123C384.931 289.255 379.517 288.388 374.102 287.52C373.262 274.692 373.718 259.978 376.864 244.076C377.45 241.11 378.105 238.235 378.813 235.453C382.432 233.537 384.61 231.236 385.798 229.758C389.299 225.4 392.647 217.676 389.696 214.137C389.197 213.54 388.667 213.239 388.234 212.999C383.4 210.317 377.082 214.377 376.214 214.951C377.79 209.546 384.265 185.325 371.27 166.552C350.745 136.9 292.687 136.786 275.806 164.815Z" fill="#F6BA95"/>
<path d="M287.867 309.794C289.642 306.068 316.654 325.425 344.669 316.814C368.318 309.545 378.127 286.819 381.185 288.919C384.166 290.966 377.95 314.696 359.239 325.866C341.814 336.268 322.432 330.478 316.268 328.637C299.776 323.711 286.598 312.46 287.867 309.794Z" fill="#EAAD8C"/>
<path d="M313.055 212.257C311.464 211.478 309.353 211.695 307.916 212.677C303.56 215.652 304.367 226.352 308.857 228.598C310.237 229.288 312.029 229.212 313.343 228.487C316.21 226.904 316.21 222.558 316.209 220.614C316.209 218.715 316.209 213.801 313.055 212.257Z" fill="white"/>
<path d="M312.717 217.524C311.706 216.808 310.017 217.115 309.041 218.032C307.515 219.466 307.744 222.375 309.295 223.366C310.128 223.898 311.279 223.834 312.084 223.366C313.988 222.257 314.333 218.668 312.717 217.524Z" fill="#643219"/>
<path d="M349.192 210.198C347.601 209.419 345.49 209.636 344.053 210.618C339.698 213.594 340.504 224.293 344.995 226.539C346.374 227.229 348.166 227.154 349.48 226.428C352.347 224.846 352.347 220.499 352.347 218.555C352.347 216.656 352.346 211.742 349.192 210.198Z" fill="white"/>
<path d="M348.855 215.466C347.843 214.749 346.155 215.057 345.179 215.973C343.653 217.407 343.882 220.316 345.432 221.307C346.266 221.84 347.416 221.776 348.221 221.307C350.125 220.198 350.47 216.61 348.855 215.466Z" fill="#643219"/>
<path d="M320.659 230.448C320.861 230.572 319.129 232.492 319.09 235.407C319.049 238.384 320.799 240.579 321.021 240.849C324.429 245 330.657 243.916 331.525 243.751C332.218 243.62 337.69 242.509 339.131 238.672C339.826 236.82 339.35 234.953 339.614 234.923C339.899 234.891 340.875 237.029 340.459 239.035C339.558 243.379 332.57 244.961 332.008 245.081C330.27 245.454 324.454 246.365 320.418 242.542C319.748 241.908 317.222 239.515 317.399 236.132C317.579 232.71 320.42 230.302 320.659 230.448Z" fill="#DD9F85"/>
<path d="M323.597 253.197C330.106 253.528 335.343 252.002 337.212 251.388C343.695 249.257 346.363 246.395 347.114 247.179C348.081 248.189 344.805 254.593 338.99 257.99C331.676 262.263 323.856 259.814 322.636 259.407C316.622 257.405 312.013 252.698 312.611 251.567C313.1 250.64 316.692 252.846 323.597 253.197Z" fill="#DD9F85"/>
<path d="M325.098 255.399C331.079 255.864 335.575 254.403 336.546 254.072C341.406 252.421 344.121 249.844 344.319 250.115C344.528 250.4 341.702 253.517 337.492 255.684C335.604 256.656 331.014 258.941 325.415 258.008C320.781 257.236 317.152 254.541 317.344 254.054C317.506 253.643 320.296 255.026 325.098 255.399Z" fill="white"/>
<path d="M379.471 216.636C379.409 216.48 382.575 213.967 385.935 214.998C386.41 215.144 387.639 215.521 388.402 216.587C390.792 219.923 385.941 226.252 385.847 226.207C385.757 226.163 389.828 220.058 387.697 217.204C387.155 216.478 386.365 216.171 385.847 215.969C382.678 214.735 379.531 216.789 379.471 216.636Z" fill="#EAAD8C"/>
<path d="M276.694 218.134C276.756 217.977 273.59 215.464 270.23 216.495C269.755 216.641 268.526 217.018 267.763 218.084C265.373 221.42 270.224 227.749 270.318 227.704C270.408 227.661 266.337 221.555 268.468 218.702C269.01 217.975 269.8 217.668 270.318 217.466C273.487 216.232 276.634 218.286 276.694 218.134Z" fill="#EAAD8C"/>
<path d="M378.864 221.099C379.153 220.915 380.462 220.079 381.455 220.641C381.584 220.714 381.967 220.957 382.262 221.719C382.828 223.179 382.347 224.687 382.047 225.489C380.706 229.077 378.05 231.752 377.756 231.539C377.379 231.265 380.239 225.742 379.466 224.412C379.431 224.352 379.399 224.305 379.399 224.305C378.754 223.351 377.608 223.659 377.368 223.173C377.118 222.665 378.025 221.634 378.864 221.099Z" fill="#EAAD8C"/>
<path d="M275.81 221.32C275.521 221.136 274.212 220.3 273.218 220.862C273.09 220.935 272.706 221.178 272.412 221.939C271.846 223.4 272.327 224.908 272.627 225.71C273.967 229.298 276.624 231.973 276.918 231.76C277.295 231.486 274.435 225.962 275.208 224.633C275.243 224.573 275.274 224.526 275.274 224.526C275.92 223.572 277.066 223.88 277.305 223.394C277.555 222.886 276.648 221.855 275.81 221.32Z" fill="#EAAD8C"/>
<path d="M337.38 175.934C334.324 181.842 331.398 183.383 329.236 183.651C325.701 184.088 324.411 181.092 316.251 178.8C312.609 177.778 311.765 178.065 309.868 176.816C306.365 174.51 306.422 171.672 303.705 169.981C302.017 168.931 299.106 168.228 293.8 170.202C296.356 170.101 298.627 171.333 299.523 173.289C300.988 176.487 297.915 179.746 297.762 179.903C295.189 182.551 292.553 180.857 289.618 182.769C284.692 185.978 285.216 195.197 285.437 199.084C285.747 204.538 286.952 204.707 288.078 211.871C288.946 217.396 288.872 221.387 288.738 228.627C288.679 231.84 288.567 233.343 287.638 247.588C287.063 256.391 286.793 260.85 287.638 263.682C288.366 266.124 290.543 273.426 297.102 276.029C300.808 277.499 305.307 277.228 308.767 275.588C313.084 273.542 313.275 270.557 316.911 270.076C319.909 269.679 320.56 271.606 325.275 272.06C328.63 272.383 331.251 271.692 333.198 271.178C339.463 269.526 339.578 267.177 343.543 266.769C348.034 266.307 348.796 269.226 354.768 270.076C356.39 270.306 362.682 271.201 367.094 267.871C372.876 263.506 372.394 254.176 372.156 249.572C371.752 241.763 369.321 240.99 368.414 231.934C368.116 228.956 368.314 228.396 369.075 215.619C369.773 203.885 370.118 197.925 369.955 193.352C369.613 183.775 369.442 178.987 367.094 174.611C361.931 164.991 352.064 163.596 352.567 160.06C352.868 157.947 356.796 155.612 371.936 154.328C373.875 158.366 376.58 164.809 378.319 173.068C379.773 179.977 379.493 183.126 379.859 205.257C380.176 224.357 380.502 229.049 381.84 235.462C383.517 243.496 384.528 243.423 385.582 249.792C387.75 262.89 385.196 273.592 383.601 279.997C380.271 293.372 377.369 305.029 366.874 314.391C353.707 326.136 337.405 326.404 330.557 326.517C324.048 326.624 308.035 326.65 293.36 315.273C290.041 312.699 280.118 304.369 275.532 290.359C273.201 283.239 273.244 276.573 273.331 263.241C273.392 253.875 274.065 253.496 274.652 238.107C275.12 225.809 275.336 219.536 274.432 213.414C272.866 202.819 270.599 202.637 268.489 192.249C266.763 183.75 264.136 170.815 269.809 158.076C270.73 156.01 277.515 141.273 289.839 138.013C305.206 133.947 327.026 148.3 337.38 175.934Z" fill="#643219"/>
<path d="M341.972 197.52C340.056 197.377 338.304 198.196 337.514 199.628C337.32 199.979 336.679 201.283 337.285 202.64C337.833 203.864 339.184 204.657 340.722 204.639C346.499 204.458 352.276 204.276 358.052 204.095C359.552 204.062 360.805 203.324 361.236 202.224C361.503 201.544 361.38 200.918 361.305 200.647C360.972 199.438 359.74 198.532 358.181 198.295C352.778 198.036 347.375 197.778 341.972 197.52Z" fill="#643219"/>
<path d="M317.243 205.847C319.195 205.823 320.895 204.841 321.569 203.321C321.734 202.949 322.269 201.573 321.537 200.252C320.876 199.059 319.44 198.375 317.885 198.528C312.057 199.216 306.23 199.905 300.402 200.593C298.888 200.758 297.686 201.615 297.346 202.767C297.135 203.479 297.314 204.101 297.414 204.37C297.856 205.564 299.182 206.375 300.78 206.479C306.268 206.268 311.756 206.057 317.243 205.847Z" fill="#643219"/>
<path d="M280.991 311.271C283.219 315.546 296.411 339.905 323.272 345.472C327.135 346.273 337.658 348.32 349.747 344.209C368.813 337.727 380.314 319.82 383.703 304.051C385.097 297.565 384.988 292.047 384.711 288.56C388.952 289.51 395.144 290.917 402.614 292.685C415.805 295.808 425.616 298.314 426.315 298.494C494.767 316.126 531.426 370.787 531.426 370.787C556.07 407.533 559.126 445.667 559.181 464.934C550.969 467.168 537.725 469.666 521.594 467.868C508.654 466.426 498.33 462.718 491.33 459.556C496.164 481.234 499.459 510.661 493.377 544.088C491.908 552.162 490.032 559.701 487.921 566.679C405.955 562.185 323.989 557.691 242.023 553.197C239.331 544.531 236.64 535.865 233.948 527.199C232.1 521.717 230.322 513.671 231.552 504.258C235.108 477.028 260.596 463.129 263.89 461.399C257.84 467.025 248.23 474.486 234.818 479.684C208.978 489.7 185.759 484.83 176.674 482.393C174.933 469.74 170.238 424.294 198.406 378.135C226.527 332.054 268.944 315.505 280.991 311.271Z" fill="white"/>
<path d="M482.881 438.029C486.07 443.963 489.461 451.741 491.718 461.207C492.825 465.848 493.49 470.185 493.871 474.102C494.338 477.397 494.806 480.691 495.274 483.986C494.423 479.3 493.004 472.382 490.678 464.148C485.761 446.743 479.516 433.102 480.021 432.884C480.153 432.827 480.749 433.696 482.881 438.029Z" fill="#DCDCDC"/>
<path d="M261.385 436.008C260.753 441.127 260.477 447.633 261.448 455.066C261.924 458.711 262.627 462.021 263.415 464.954C263.975 467.459 264.535 469.964 265.095 472.47C264.428 468.858 263.558 463.485 262.967 456.926C261.718 443.059 262.411 431.573 262 431.546C261.892 431.539 261.709 432.322 261.385 436.008Z" fill="#DCDCDC"/>
<path d="M344.702 132.228C349.824 134.357 353.897 136.579 356.823 138.336C362.932 142.004 367.042 144.536 370.122 149.553C370.802 150.66 371.496 152.362 372.885 155.766C375.19 161.418 377.01 165.879 378.239 171.036C379.199 175.065 380.166 181.063 379.726 188.689C377.036 186.925 372.656 184.336 366.861 182.209C358.005 178.958 355.74 180.418 351.344 178.249C338.64 171.983 332.611 147.485 341.475 135.548C342.688 133.914 343.956 132.818 344.702 132.228Z" fill="url(#paint0_linear_1_2020)"/>
<path d="M291.031 137.128C296.995 135.5 302.02 134.52 305.613 133.917C318.645 131.731 329.096 131.776 335.259 131.831C339.334 131.867 342.677 132.024 344.874 132.152C346.091 141.881 348.007 152.562 350.963 163.934C352.402 169.469 353.969 174.716 355.61 179.665C344.839 174.484 332.81 167.877 320.196 159.44C308.956 151.922 299.261 144.296 291.031 137.128Z" fill="url(#paint1_linear_1_2020)"/>
<path d="M272.323 204.298C269.538 197.903 266.662 188.569 267.032 177.286C267.29 169.44 267.677 157.632 276.4 148.387C281.866 142.594 288.352 140.196 292.123 139.15C290.086 136.442 286.203 132.066 279.975 129.079C278.746 128.49 263.012 121.225 251.738 129.519C246.112 133.657 244.209 139.748 243.422 142.393C238.67 158.36 248.855 174.278 255.239 184.254C258.524 189.388 263.923 196.745 272.323 204.298Z" fill="#DBA606"/>
<path d="M368.825 182.65C361.244 184.214 347.416 185.823 332.375 180.146C320.601 175.703 312.332 168.401 308.498 164.576C303.364 159.454 302.749 157.158 291.993 144.833C285.578 137.483 282.31 133.772 279.333 131.991C275.372 129.622 266.703 125.869 251.45 129.583C255.838 127.406 262.987 124.71 271.481 125.57C280.594 126.494 286.682 131.049 293.755 136.325C315.241 152.354 326.103 160.429 331.413 164.095C339.53 169.698 351.773 176.894 368.825 182.65Z" fill="#F2B705"/>
<path d="M275.946 313.62C287.125 371.981 295.973 414.708 298.633 426.464C299.309 429.449 300.782 435.666 305.699 441.435C307.035 443.003 310.349 446.571 317.112 449.873C331.322 456.811 345.856 455.297 352.711 454.501C354.892 454.247 372.368 452.047 385.592 442.251C390.619 438.527 393.07 435.158 394.559 431.908C396.446 427.788 396.744 423.953 396.733 421.564C398.354 394.99 400.415 367.815 402.969 340.073C404.408 324.45 405.967 309.039 407.636 293.842C413.859 295.401 420.082 296.959 426.305 298.517C425.492 304.737 424.375 313.978 423.364 325.203C420.603 355.869 418.288 381.589 421.734 412.309C426.117 451.385 437.334 476.36 440.756 483.627C451.236 505.878 461.021 515.772 469.289 522.007C478.934 529.281 488.454 533.041 495.105 535.073C495.255 550.964 492.921 563.11 490.757 571.276C488.394 580.191 485.831 585.882 483.963 597.136C482.115 608.277 482.281 616.84 482.333 620.273C482.895 657.681 478.391 658.114 481.318 745.658C481.318 745.658 483.38 807.314 477.975 949.948C477.925 951.27 478.206 954.982 476.005 958.338C473.333 962.409 469.015 963.121 456.786 965.797C439.122 969.663 435.41 970.961 431.542 968.326C427.937 965.871 426.766 961.751 426.244 959.818C409.81 898.887 389.59 838.923 375.809 777.335C371.525 758.191 367.518 741.882 362.493 741.949C358.331 742.004 354.893 753.28 349.993 777.063C342.566 813.112 340.541 835.384 336.705 864.004C336.705 864.004 329.208 919.934 307.552 954.3C305.665 957.294 302.905 960.914 298.346 963.137C293.016 965.736 286.973 964.813 274.888 962.968C270.924 962.362 268.337 961.753 266.264 959.643C263.241 956.566 263.138 952.161 263.088 950.837C260.227 873.713 246.192 797.334 242.014 720.27C240.571 693.654 238.578 666.548 238.578 666.548C234.925 616.874 231.915 595.348 232.599 560.116C232.891 545.107 233.66 532.911 234.23 525.274C238.687 519.101 244.497 510.222 249.991 498.87C260.625 476.898 263.912 458.402 266.567 442.796C268.576 430.99 272.959 405.219 269.285 376.922C268.266 369.079 264.724 346.379 264.393 344.258C262.948 334.993 261.708 327.359 260.861 322.209C262.772 321.018 264.75 319.826 266.796 318.639C269.915 316.83 272.971 315.161 275.946 313.62Z" fill="#F2B705"/>
<path d="M294.88 475.388C297.174 472.171 299.218 469.709 300.695 468.02C302.673 465.759 303.233 465.347 304.202 463.793C306.159 460.654 305.585 459.594 307.471 456.986C309.296 454.462 310.282 454.836 311.3 452.729C311.321 452.686 311.413 452.489 311.524 452.217C312.571 449.641 312.146 447.871 312.375 446.776C313.015 443.705 319.494 442.586 320.097 442.484C325.957 441.495 330.915 443.963 333.331 445.164C342.329 449.633 354.294 455.502 356.793 456.655C366.415 461.09 372.386 458.607 390.018 457.811C426.106 456.182 426.404 465.368 452.499 461.281C464.303 459.432 468.117 456.945 488.482 453.895C499.56 452.235 505.739 451.307 512.788 451.329C522.384 451.359 538.933 453.163 559.22 464.953C559.043 471.044 558.338 479.595 555.953 489.53C554.156 497.021 551.698 504.072 549.906 507.963C540.447 528.501 514.319 537.279 505.974 540.234C469.861 553.022 437.729 540.444 428.848 536.811C413.362 530.478 405.426 523.202 395.367 515.86C375.444 501.319 344.043 484.225 294.88 475.388Z" fill="#F6BA95"/>
<path d="M387.226 509.212C407.057 486.838 422.4 479.686 433.053 477.492C437.731 476.528 452.845 474.185 464.205 462.276C465.59 460.824 466.63 459.533 467.294 458.666C443.481 449.391 417.59 454.206 401.951 470.634C387.982 485.308 387.25 503.938 387.226 509.212Z" fill="#EAAD8C"/>
<path d="M295.726 475.044C295.343 477.813 332.433 494.769 360.368 480.428C372.336 474.284 382.638 463.262 380.671 459.044C379.163 455.809 370.374 456.429 356.636 457.399C354.046 457.581 350.312 457.941 345.738 459.193C343.897 459.697 341.66 460.417 337.527 462.184C324.623 467.7 325.541 468.793 319.761 470.558C318.465 470.954 313.341 471.827 303.094 473.573C296.173 474.752 295.765 474.762 295.726 475.044Z" fill="#EAAD8C"/>
<path d="M176.608 482.001C176.712 482.666 176.877 483.648 177.116 484.826C184.2 519.755 220.572 549.148 258.041 557.618C293.235 565.573 322.236 553.533 334.405 548.329C350.495 541.448 369.963 533.121 383.806 514.38C389.306 506.935 398.024 494.137 414.392 480.869C414.392 480.869 418.913 477.479 424.527 474.348C439.097 466.224 464.881 459.07 467.294 458.408C452.43 448.347 438.838 444.959 430.957 443.639C410.29 440.178 393.268 445.047 382.378 448.026C373.586 450.43 366.931 453.037 361.466 455.671C340.074 465.981 332.52 471.01 323.797 474.348C312.087 478.83 293.345 479.624 262.975 461.948C246.396 468.274 226.75 474.239 204.335 478.257C194.627 479.998 185.356 481.202 176.608 482.001Z" fill="#F6BA95"/>
<path d="M312.053 453.247C312.118 452.876 316.03 452.817 320.065 454.091C325.277 455.738 328.994 459.074 328.78 459.442C328.599 459.753 325.664 457.844 319.362 455.64C314.663 453.997 311.999 453.557 312.053 453.247Z" fill="#EAAD8C"/>
<path d="M304.946 464.157C304.982 463.802 307.961 463.47 310.978 464.157C315.9 465.279 319.368 468.759 319.139 469.133C318.948 469.445 316.27 467.473 310.623 465.757C307.124 464.694 304.914 464.467 304.946 464.157Z" fill="#E0AE90"/>
<path d="M262.48 461.461C265.399 463.529 269.877 466.381 275.754 468.875C283.551 472.184 289.635 473.485 289.536 473.937C289.399 474.552 278.172 471.447 263.303 471.262C256.594 471.178 251.713 471.721 246.093 472.365C228.799 474.349 222.063 477.36 208.807 479.719C201.43 481.032 190.477 482.42 176.608 482.057C197.518 479.774 220.768 475.364 245.392 467.451C251.3 465.553 256.996 463.546 262.48 461.461Z" fill="#E0AE90"/>
<path d="M387.004 290.044C387.034 295.781 386.335 306.033 381.051 317.238C378.583 322.47 372.731 334.88 358.904 342.523C340.912 352.469 322.561 347.079 318.419 345.863C298.263 339.943 288.101 324.673 285.556 320.577C288.128 325.03 297.685 340.303 317.229 347.056C321.383 348.491 341.186 355.334 360.332 344.67C374.468 336.798 380.262 323.829 382.48 318.669C387.693 306.539 387.49 295.591 387.004 290.044Z" fill="#DCDCDC"/>
</g>
<g clip-path="url(#clip1_1_2020)">
<rect x="520.924" y="282.291" width="137.382" height="176.902" rx="10" transform="rotate(15 520.924 282.291)" fill="#161C28"/>
<circle cx="481.021" cy="446.046" r="79" transform="rotate(15 481.021 446.046)" fill="#232937"/>
<circle cx="675.188" cy="329.238" r="79" transform="rotate(15 675.188 329.238)" fill="#232937"/>
<circle opacity="0.5" cx="556.363" cy="316.443" r="14" transform="rotate(15 556.363 316.443)" fill="white"/>
<circle opacity="0.5" cx="540.297" cy="312.138" r="14" transform="rotate(15 540.297 312.138)" fill="white"/>
<path d="M518.717 360.38L517.696 360.107C517.715 359.797 517.678 359.511 517.587 359.248C517.498 358.986 517.367 358.751 517.193 358.543C517.023 358.333 516.82 358.154 516.582 358.008C516.345 357.862 516.086 357.752 515.806 357.677C515.296 357.54 514.799 357.545 514.315 357.692C513.835 357.84 513.405 358.132 513.026 358.569C512.65 359.006 512.364 359.59 512.169 360.32C511.973 361.05 511.929 361.698 512.036 362.265C512.145 362.833 512.372 363.301 512.714 363.669C513.059 364.038 513.487 364.291 513.998 364.428C514.277 364.503 514.557 364.536 514.835 364.528C515.114 364.521 515.379 364.47 515.631 364.375C515.886 364.279 516.117 364.14 516.325 363.957C516.536 363.772 516.711 363.543 516.849 363.268L517.87 363.542C517.678 363.952 517.435 364.3 517.14 364.586C516.846 364.872 516.516 365.094 516.15 365.251C515.785 365.407 515.398 365.495 514.989 365.518C514.583 365.542 514.167 365.496 513.742 365.382C513.023 365.19 512.43 364.843 511.965 364.342C511.499 363.84 511.192 363.223 511.045 362.489C510.897 361.756 510.943 360.944 511.181 360.055C511.419 359.166 511.786 358.441 512.28 357.879C512.775 357.318 513.349 356.936 514.003 356.735C514.657 356.534 515.343 356.529 516.062 356.722C516.488 356.836 516.87 357.005 517.21 357.228C517.553 357.452 517.844 357.724 518.081 358.044C518.32 358.361 518.495 358.717 518.607 359.111C518.72 359.503 518.756 359.926 518.717 360.38ZM520.503 367.229C520.102 367.122 519.759 366.949 519.473 366.711C519.187 366.47 518.987 366.179 518.872 365.84C518.758 365.497 518.756 365.12 518.867 364.709C518.964 364.346 519.114 364.072 519.317 363.885C519.52 363.696 519.759 363.568 520.032 363.503C520.305 363.438 520.595 363.413 520.9 363.427C521.208 363.439 521.514 363.465 521.818 363.506C522.216 363.559 522.537 363.605 522.782 363.645C523.031 363.682 523.219 363.684 523.346 363.65C523.475 363.617 523.561 363.522 523.603 363.366L523.612 363.333C523.72 362.927 523.694 362.582 523.532 362.297C523.373 362.013 523.069 361.811 522.622 361.691C522.158 361.567 521.767 361.571 521.45 361.704C521.132 361.836 520.888 362.003 520.72 362.205L519.886 361.629C520.153 361.289 520.453 361.049 520.785 360.908C521.12 360.766 521.462 360.695 521.812 360.698C522.165 360.698 522.5 360.741 522.819 360.826C523.022 360.881 523.248 360.968 523.498 361.088C523.752 361.206 523.983 361.372 524.19 361.587C524.4 361.802 524.547 362.081 524.632 362.424C524.716 362.767 524.691 363.19 524.557 363.692L523.44 367.858L522.469 367.597L522.698 366.741L522.649 366.728C522.546 366.848 522.397 366.965 522.202 367.08C522.006 367.195 521.766 367.274 521.481 367.315C521.197 367.357 520.871 367.328 520.503 367.229ZM520.885 366.397C521.269 366.499 521.613 366.511 521.917 366.43C522.224 366.351 522.476 366.21 522.675 366.007C522.876 365.805 523.012 365.572 523.082 365.309L523.32 364.42C523.266 364.458 523.163 364.479 523.012 364.483C522.865 364.484 522.696 364.476 522.507 364.458C522.322 364.437 522.141 364.415 521.965 364.392C521.792 364.366 521.652 364.346 521.544 364.332C521.283 364.297 521.032 364.288 520.793 364.303C520.557 364.316 520.352 364.377 520.179 364.487C520.009 364.594 519.891 364.771 519.825 365.018C519.734 365.356 519.791 365.645 519.994 365.884C520.201 366.122 520.498 366.293 520.885 366.397ZM525.213 368.333L526.907 362.01L527.846 362.262L527.59 363.217L527.656 363.234C527.855 362.952 528.132 362.755 528.486 362.641C528.84 362.527 529.206 362.52 529.585 362.622C529.656 362.641 529.745 362.666 529.851 362.698C529.957 362.729 530.037 362.755 530.091 362.775L529.826 363.763C529.795 363.746 529.723 363.713 529.61 363.665C529.499 363.615 529.38 363.573 529.251 363.538C528.944 363.456 528.652 363.447 528.376 363.511C528.103 363.573 527.867 363.698 527.667 363.886C527.47 364.071 527.333 364.307 527.257 364.592L526.185 368.593L525.213 368.333ZM531.686 370.208C531.159 370.067 530.729 369.809 530.397 369.435C530.066 369.058 529.852 368.595 529.755 368.045C529.659 367.493 529.701 366.882 529.88 366.213C530.058 365.549 530.326 365.003 530.685 364.575C531.043 364.148 531.461 363.856 531.939 363.698C532.416 363.541 532.921 363.534 533.454 363.676C533.865 363.786 534.172 363.942 534.374 364.143C534.579 364.343 534.722 364.545 534.802 364.752C534.885 364.957 534.948 365.124 534.99 365.253L535.072 365.275L535.906 362.163L536.878 362.423L534.619 370.853L533.68 370.601L533.941 369.63L533.825 369.599C533.723 369.695 533.583 369.814 533.404 369.954C533.226 370.091 532.996 370.196 532.715 370.268C532.435 370.337 532.092 370.317 531.686 370.208ZM532.051 369.371C532.441 369.475 532.797 369.462 533.121 369.331C533.445 369.197 533.725 368.968 533.962 368.643C534.2 368.316 534.383 367.913 534.511 367.436C534.637 366.964 534.679 366.533 534.637 366.142C534.595 365.748 534.467 365.417 534.251 365.147C534.035 364.875 533.73 364.686 533.335 364.58C532.923 364.469 532.552 364.483 532.221 364.621C531.894 364.757 531.613 364.986 531.38 365.309C531.149 365.629 530.975 366.012 530.856 366.456C530.735 366.907 530.694 367.334 530.733 367.738C530.775 368.141 530.903 368.487 531.117 368.776C531.334 369.064 531.645 369.262 532.051 369.371Z" fill="#E6E6E6"/>
<circle cx="507.409" cy="379.091" r="2" transform="rotate(15 507.409 379.091)" fill="#D9D9D9"/>
<circle cx="518.034" cy="381.938" r="2" transform="rotate(15 518.034 381.938)" fill="#D9D9D9"/>
<circle cx="528.66" cy="384.785" r="2" transform="rotate(15 528.66 384.785)" fill="#D9D9D9"/>
<circle cx="539.284" cy="387.632" r="2" transform="rotate(15 539.284 387.632)" fill="#D9D9D9"/>
<path d="M556.902 387.459L554.643 395.889L553.622 395.615L555.594 388.255L555.545 388.242L553.12 389.057L553.398 388.02L555.881 387.185L556.902 387.459ZM557.067 396.538L557.266 395.797L560.864 393.497C561.287 393.228 561.639 392.99 561.92 392.783C562.203 392.573 562.426 392.366 562.59 392.16C562.758 391.951 562.876 391.718 562.945 391.461C563.025 391.164 563.022 390.888 562.938 390.633C562.856 390.379 562.708 390.16 562.496 389.977C562.283 389.793 562.025 389.661 561.72 389.579C561.396 389.493 561.096 389.484 560.818 389.554C560.544 389.622 560.309 389.757 560.114 389.961C559.921 390.165 559.781 390.427 559.695 390.748L558.724 390.488C558.856 389.994 559.086 389.591 559.414 389.279C559.742 388.967 560.13 388.759 560.578 388.656C561.029 388.553 561.5 388.567 561.991 388.699C562.485 388.831 562.895 389.053 563.22 389.364C563.546 389.674 563.77 390.036 563.892 390.448C564.014 390.86 564.016 391.283 563.9 391.716C563.817 392.026 563.68 392.315 563.488 392.581C563.299 392.845 563.019 393.122 562.648 393.41C562.28 393.697 561.785 394.035 561.163 394.424L558.727 395.942L558.709 396.008L562.628 397.058L562.385 397.963L557.067 396.538ZM566.903 399.297C566.359 399.152 565.9 398.929 565.525 398.628C565.152 398.328 564.885 397.979 564.725 397.58C564.567 397.179 564.537 396.755 564.633 396.307L565.671 396.585C565.62 396.862 565.65 397.122 565.762 397.364C565.875 397.603 566.049 397.811 566.287 397.99C566.524 398.168 566.805 398.301 567.129 398.387C567.491 398.484 567.829 398.507 568.143 398.456C568.457 398.405 568.723 398.288 568.943 398.106C569.162 397.923 569.311 397.684 569.391 397.388C569.474 397.077 569.47 396.784 569.38 396.507C569.29 396.227 569.115 395.98 568.855 395.766C568.594 395.552 568.25 395.388 567.822 395.273L567.147 395.092L567.39 394.187L568.065 394.368C568.4 394.457 568.709 394.476 568.994 394.422C569.282 394.37 569.526 394.253 569.728 394.072C569.932 393.891 570.074 393.653 570.153 393.357C570.23 393.071 570.233 392.806 570.164 392.561C570.094 392.316 569.96 392.103 569.761 391.924C569.565 391.745 569.312 391.613 569.002 391.53C568.711 391.452 568.422 391.432 568.135 391.47C567.852 391.506 567.603 391.603 567.387 391.76C567.172 391.914 567.021 392.129 566.932 392.405L565.944 392.14C566.079 391.703 566.316 391.352 566.654 391.087C566.994 390.819 567.39 390.646 567.843 390.567C568.3 390.489 568.771 390.516 569.256 390.646C569.778 390.785 570.197 391.011 570.513 391.322C570.831 391.631 571.043 391.983 571.152 392.38C571.26 392.777 571.261 393.174 571.154 393.572C571.027 394.047 570.794 394.418 570.455 394.686C570.118 394.954 569.72 395.096 569.26 395.111L569.242 395.177C569.751 395.408 570.106 395.745 570.307 396.19C570.509 396.633 570.539 397.122 570.395 397.657C570.272 398.115 570.037 398.493 569.69 398.791C569.346 399.087 568.932 399.282 568.448 399.376C567.964 399.47 567.449 399.444 566.903 399.297ZM571.731 398.615L571.956 397.775L577.231 392.906L577.84 393.069L577.492 394.37L577.08 394.26L573.095 397.939L573.077 398.005L578.066 399.341L577.823 400.247L571.731 398.615ZM575.236 401.407L575.768 399.423L575.872 399.032L577.495 392.977L578.466 393.237L576.207 401.667L575.236 401.407Z" fill="#F0F0EF"/>
<path d="M581.888 463.358C581.267 463.192 580.784 462.882 580.439 462.427C580.093 461.97 579.892 461.388 579.834 460.682C579.777 459.972 579.872 459.159 580.117 458.243C580.361 457.332 580.685 456.585 581.088 456.002C581.495 455.417 581.962 455.012 582.49 454.789C583.021 454.564 583.593 454.533 584.208 454.698C584.823 454.863 585.302 455.175 585.647 455.635C585.995 456.093 586.197 456.676 586.254 457.386C586.315 458.093 586.223 458.902 585.979 459.813C585.733 460.73 585.408 461.481 585.004 462.067C584.601 462.65 584.135 463.053 583.608 463.277C583.081 463.497 582.508 463.525 581.888 463.358ZM582.13 462.453C582.745 462.617 583.302 462.449 583.801 461.948C584.3 461.446 584.697 460.646 584.991 459.549C585.186 458.819 585.275 458.176 585.256 457.621C585.24 457.067 585.122 456.616 584.903 456.269C584.687 455.923 584.376 455.696 583.97 455.587C583.361 455.424 582.804 455.597 582.3 456.106C581.797 456.612 581.398 457.413 581.105 458.508C580.909 459.237 580.82 459.878 580.837 460.43C580.854 460.981 580.971 461.429 581.188 461.772C581.407 462.116 581.721 462.343 582.13 462.453ZM591.387 456.621C591.732 456.717 592.06 456.875 592.371 457.097C592.682 457.319 592.94 457.617 593.146 457.993C593.352 458.366 593.472 458.832 593.508 459.391C593.543 459.951 593.457 460.617 593.25 461.391C593.049 462.14 592.799 462.787 592.501 463.33C592.206 463.872 591.872 464.306 591.499 464.632C591.129 464.96 590.727 465.175 590.293 465.28C589.862 465.385 589.409 465.374 588.934 465.247C588.462 465.12 588.066 464.914 587.746 464.628C587.429 464.34 587.197 463.997 587.051 463.599C586.908 463.199 586.863 462.768 586.917 462.306L587.921 462.575C587.908 462.986 588.002 463.354 588.203 463.679C588.408 464.001 588.733 464.222 589.177 464.341C589.827 464.515 590.417 464.369 590.945 463.901C591.476 463.435 591.88 462.683 592.158 461.646L592.092 461.628C591.877 461.817 591.641 461.967 591.385 462.078C591.129 462.189 590.86 462.255 590.577 462.277C590.295 462.298 590.009 462.27 589.718 462.192C589.235 462.062 588.824 461.824 588.484 461.477C588.148 461.129 587.916 460.712 587.787 460.227C587.661 459.741 587.671 459.226 587.817 458.682C587.955 458.167 588.197 457.725 588.542 457.359C588.891 456.991 589.309 456.735 589.797 456.593C590.288 456.451 590.818 456.46 591.387 456.621ZM591.144 457.527C590.798 457.434 590.464 457.437 590.14 457.536C589.82 457.633 589.54 457.805 589.3 458.052C589.064 458.298 588.899 458.596 588.805 458.947C588.711 459.298 588.702 459.639 588.778 459.968C588.858 460.295 589.01 460.58 589.233 460.822C589.46 461.062 589.746 461.229 590.092 461.321C590.353 461.391 590.609 461.406 590.861 461.364C591.114 461.32 591.348 461.232 591.564 461.098C591.782 460.963 591.97 460.794 592.127 460.592C592.285 460.387 592.397 460.16 592.464 459.91C592.553 459.581 592.556 459.251 592.474 458.92C592.395 458.59 592.24 458.299 592.011 458.046C591.784 457.794 591.495 457.621 591.144 457.527ZM599.008 458.363L593.587 467.728L592.698 467.49L598.119 458.125L599.008 458.363ZM597.778 467.493L597.977 466.752L601.575 464.451C601.997 464.182 602.349 463.944 602.631 463.737C602.914 463.528 603.137 463.32 603.301 463.114C603.469 462.906 603.587 462.673 603.656 462.415C603.736 462.118 603.733 461.843 603.648 461.588C603.567 461.333 603.419 461.115 603.207 460.931C602.994 460.748 602.736 460.615 602.431 460.534C602.107 460.447 601.806 460.438 601.529 460.508C601.255 460.576 601.02 460.711 600.824 460.915C600.631 461.119 600.492 461.382 600.406 461.703L599.434 461.442C599.567 460.949 599.797 460.545 600.125 460.233C600.452 459.921 600.84 459.713 601.289 459.61C601.74 459.507 602.211 459.522 602.702 459.653C603.196 459.786 603.606 460.007 603.931 460.318C604.257 460.629 604.481 460.99 604.603 461.402C604.724 461.814 604.727 462.237 604.611 462.671C604.528 462.981 604.391 463.269 604.199 463.535C604.01 463.799 603.73 464.076 603.359 464.365C602.991 464.651 602.496 464.989 601.874 465.378L599.438 466.896L599.42 466.962L603.339 468.012L603.096 468.918L597.778 467.493ZM607.4 470.194C606.917 470.065 606.507 469.852 606.172 469.556C605.837 469.261 605.597 468.914 605.453 468.517C605.31 468.12 605.285 467.704 605.377 467.27L606.365 467.535C606.301 467.926 606.39 468.288 606.63 468.62C606.874 468.95 607.211 469.173 607.642 469.289C607.988 469.381 608.317 469.383 608.629 469.293C608.944 469.204 609.217 469.038 609.446 468.797C609.679 468.554 609.843 468.252 609.94 467.893C610.038 467.525 610.045 467.175 609.961 466.844C609.879 466.51 609.721 466.222 609.486 465.98C609.251 465.737 608.954 465.567 608.595 465.468C608.338 465.396 608.063 465.365 607.769 465.374C607.476 465.381 607.225 465.424 607.015 465.503L606.091 465.132L607.713 461.12L612.093 462.293L611.85 463.199L608.327 462.255L607.364 464.661L607.414 464.675C607.624 464.584 607.871 464.528 608.156 464.507C608.441 464.487 608.725 464.514 609.007 464.59C609.523 464.728 609.95 464.975 610.287 465.33C610.628 465.683 610.856 466.103 610.973 466.59C611.092 467.078 611.078 467.595 610.932 468.141C610.788 468.679 610.539 469.127 610.184 469.484C609.833 469.84 609.414 470.084 608.929 470.216C608.445 470.345 607.935 470.338 607.4 470.194Z" fill="#F8F8FA"/>
<rect opacity="0.2" x="493.572" y="423.006" width="34" height="22" rx="4" transform="rotate(15 493.572 423.006)" fill="white"/>
</g>
<path d="M572.764 152.078C571.335 146.743 574.5 141.26 579.835 139.83L596.873 135.265C602.208 133.835 607.691 137.001 609.12 142.336L613.686 159.374C615.115 164.708 611.949 170.192 606.615 171.621L589.577 176.186C584.242 177.616 578.759 174.45 577.329 169.115L572.764 152.078Z" fill="#616BE8"/>
<path d="M596.098 160.614C595.639 160.713 595.177 160.83 594.726 160.962C594.299 161.111 593.844 161.232 593.382 161.4C592.243 161.813 588.562 163.296 589.059 165.005C589.508 166.553 592.872 166.327 596.007 165.417C599.142 164.506 602.103 162.895 601.654 161.346C601.159 159.644 597.276 160.354 596.098 160.614ZM594.475 162.312C594.848 162.191 595.259 162.072 595.638 161.974L595.698 162.18C595.742 162.331 595.538 162.581 595.211 162.676C594.884 162.771 594.578 162.669 594.534 162.518L594.475 162.312ZM595.659 164.218C592.417 165.16 590.45 164.897 590.261 164.678C590.284 164.447 591.191 163.576 593.299 162.734L593.337 162.865C593.581 163.707 594.579 164.159 595.559 163.874C596.541 163.589 597.141 162.673 596.896 161.831L596.858 161.701C599.089 161.282 600.32 161.528 600.452 161.672C600.421 161.999 598.901 163.277 595.659 164.218Z" fill="white"/>
<path d="M602.031 155.419C601.201 154.972 600.684 154.259 600.613 153.466C600.576 153.065 600.501 152.666 600.389 152.279C599.542 149.365 596.758 147.48 593.593 147.355L593.404 146.702C592.985 145.262 591.473 144.429 590.032 144.848C588.59 145.267 587.76 146.779 588.178 148.22L588.363 148.856C585.729 150.651 584.366 153.755 585.218 156.686C585.327 157.064 585.475 157.436 585.655 157.79C586.024 158.513 585.971 159.428 585.511 160.298C584.962 161.338 584.846 162.53 585.187 163.654C585.529 164.783 586.564 165.569 587.762 165.61C588.063 165.624 588.31 165.386 588.322 165.089C588.332 164.79 588.098 164.54 587.8 164.53C587.065 164.503 586.43 164.025 586.223 163.34C585.967 162.491 586.053 161.59 586.469 160.804C587.096 159.617 587.151 158.34 586.621 157.299C586.472 157.005 586.349 156.697 586.259 156.385C585.337 153.211 587.523 149.777 591.134 148.728C594.743 147.679 598.43 149.407 599.352 152.582C599.445 152.903 599.508 153.232 599.537 153.564C599.641 154.708 600.383 155.757 601.52 156.372C602.328 156.808 602.909 157.534 603.156 158.416C603.36 159.138 603.043 159.923 602.387 160.321C602.132 160.475 602.05 160.808 602.205 161.063C602.335 161.277 602.589 161.368 602.818 161.302C602.862 161.289 602.906 161.269 602.947 161.244C604.017 160.594 604.529 159.311 604.197 158.124C603.869 156.956 603.1 155.995 602.031 155.419ZM592.475 147.379C591.93 147.429 591.38 147.529 590.831 147.688C590.3 147.843 589.796 148.043 589.323 148.282L589.217 147.918C588.965 147.05 589.466 146.139 590.334 145.886C591.203 145.634 592.114 146.135 592.366 147.004L592.475 147.379Z" fill="white"/>
<path d="M433.115 487.661C434.539 482.326 440.018 479.163 445.351 480.597L462.441 485.192C467.774 486.626 470.943 492.115 469.518 497.451L464.983 514.436C463.559 519.772 458.08 522.935 452.747 521.501L435.657 516.906C430.324 515.471 427.155 509.983 428.58 504.647L433.115 487.661Z" fill="#E5007E"/>
<path d="M455.894 492.938L447.917 490.789C444.853 489.963 441.698 491.775 440.885 494.827L438.767 502.774C437.954 505.826 439.784 508.98 442.848 509.806L450.826 511.955C453.89 512.78 457.044 510.968 457.858 507.917L459.975 499.97C460.789 496.918 458.958 493.763 455.894 492.938ZM458.775 500.212L456.135 499.501C454.252 498.993 452.312 500.106 451.789 502.072C451.288 503.948 452.414 505.887 454.298 506.394L456.938 507.105L456.797 507.632C456.139 510.101 453.587 511.568 451.107 510.9L443.129 508.751C440.651 508.083 439.169 505.531 439.827 503.061L441.945 495.113C442.603 492.644 445.156 491.178 447.635 491.846L455.613 493.995C458.092 494.663 459.573 497.216 458.915 499.685L458.775 500.212ZM458.468 501.261L457.193 506.043L454.579 505.338C453.28 504.988 452.504 503.651 452.872 502.268C453.217 500.975 454.555 500.207 455.854 500.557L458.468 501.261Z" fill="white"/>
<path d="M451.932 496.198L445.979 494.598C445.687 494.52 445.387 494.692 445.309 494.982C445.232 495.272 445.406 495.571 445.698 495.65L451.651 497.249C451.944 497.328 452.244 497.156 452.321 496.866C452.399 496.576 452.224 496.277 451.932 496.198Z" fill="white"/>
<path d="M454.808 502.651C454.69 503.095 454.956 503.552 455.402 503.673C455.849 503.793 456.307 503.531 456.425 503.086C456.543 502.642 456.278 502.185 455.831 502.064C455.384 501.944 454.927 502.207 454.808 502.651Z" fill="white"/>
<path d="M534.25 43.5339C535.679 38.1992 541.163 35.0334 546.497 36.4628L571.327 43.1158C576.662 44.5452 579.827 50.0286 578.398 55.3633L571.745 80.1927C570.315 85.5273 564.832 88.6932 559.497 87.2637L534.668 80.6107C529.333 79.1813 526.168 73.6979 527.597 68.3633L534.25 43.5339Z" fill="#F2B705"/>
<path fill-rule="evenodd" clip-rule="evenodd" d="M547.037 54.7596C547.215 54.0935 547.757 53.6958 548.286 53.4687C548.826 53.2368 549.496 53.1151 550.219 53.0717C551.674 52.9844 553.538 53.2035 555.483 53.7247C557.428 54.2458 559.152 54.9881 560.369 55.7913C560.973 56.1903 561.493 56.631 561.844 57.1017C562.189 57.5629 562.459 58.178 562.28 58.8441L559.439 69.448C559.261 70.112 558.724 70.5111 558.195 70.74C557.656 70.973 556.987 71.0954 556.265 71.1391C554.812 71.2269 552.948 71.0069 550.992 70.483C549.037 69.9591 547.312 69.2174 546.098 68.4148C545.495 68.0161 544.976 67.5756 544.626 67.1043C544.283 66.6416 544.017 66.0275 544.195 65.3636L545.609 60.0874C545.611 60.0788 545.613 60.0702 545.616 60.0616C545.617 60.0555 545.619 60.0494 545.621 60.0434L547.037 54.7596ZM546.691 62.4877L545.806 65.7904C545.806 65.8082 545.812 65.906 545.964 66.1105C546.155 66.3671 546.5 66.6825 547.017 67.0244C548.044 67.7032 549.592 68.3823 551.424 68.8731C553.255 69.364 554.935 69.5498 556.164 69.4754C556.783 69.438 557.24 69.3372 557.533 69.2103C557.767 69.1092 557.821 69.0278 557.83 69.0121L558.715 65.7094C558.391 65.7741 558.045 65.8153 557.686 65.8371C556.233 65.9249 554.368 65.7049 552.413 65.181C550.458 64.6571 548.733 63.9154 547.519 63.1128C547.218 62.9144 546.939 62.7055 546.691 62.4877ZM559.255 63.6964L560.137 60.4035C559.81 60.4688 559.461 60.5102 559.098 60.532C557.643 60.6194 555.779 60.4002 553.834 59.8791C551.889 59.358 550.165 58.6156 548.949 57.8125C548.645 57.6122 548.363 57.4015 548.113 57.1817L547.227 60.4893C547.227 60.5093 547.235 60.6072 547.385 60.8085C547.576 61.0651 547.92 61.3805 548.438 61.7224C549.465 62.4012 551.013 63.0803 552.844 63.5711C554.676 64.062 556.356 64.2478 557.585 64.1734C558.204 64.136 558.66 64.0352 558.954 63.9083C559.188 63.8071 559.242 63.7257 559.251 63.7101C559.252 63.7055 559.253 63.701 559.255 63.6964ZM560.669 58.4123C560.653 58.4364 560.588 58.5118 560.374 58.6037C560.078 58.7306 559.619 58.8311 558.998 58.8683C557.766 58.9423 556.085 58.7569 554.265 58.2692C552.445 57.7815 550.897 57.1019 549.867 56.4216C549.348 56.0789 549.001 55.7624 548.808 55.5046C548.669 55.318 548.65 55.2204 548.648 55.1915C548.665 55.1674 548.729 55.092 548.943 55.0001C549.239 54.8731 549.698 54.7727 550.319 54.7354C551.551 54.6614 553.232 54.8469 555.052 55.3345C556.872 55.8222 558.42 56.5018 559.45 57.1821C559.969 57.5248 560.317 57.8413 560.509 58.0991C560.648 58.2857 560.667 58.3834 560.669 58.4123ZM560.673 58.4042L560.673 58.4059L560.673 58.4042ZM557.831 69.0094L557.83 69.0112L557.831 69.0094ZM545.806 65.7874L545.806 65.7894L545.806 65.7874ZM548.648 55.1839L548.648 55.1822L548.648 55.1839Z" fill="#F8F8FA"/>
<path d="M67.9998 439C67.9998 432.373 73.3723 427 79.9998 427H307C313.627 427 319 432.373 319 439V483C319 489.628 313.627 495 307 495H79.9998C73.3723 495 67.9998 489.628 67.9998 483V439Z" fill="white"/>
<path d="M167.528 454.584H164.168V459H162.44V454.584H152.96V453.336L161.864 442.2H163.784L155.192 453.048H162.488V449.16H164.168V453.048H167.528V454.584Z" fill="#565981"/>
<path d="M173.437 449.088C175.869 449.088 177.637 449.528 178.741 450.408C179.861 451.272 180.421 452.488 180.421 454.056C180.421 455.032 180.189 455.904 179.725 456.672C179.277 457.44 178.597 458.048 177.685 458.496C176.773 458.928 175.653 459.144 174.325 459.144C173.125 459.144 171.981 458.952 170.893 458.568C169.821 458.168 168.957 457.64 168.301 456.984L169.141 455.616C169.701 456.192 170.437 456.664 171.349 457.032C172.261 457.384 173.245 457.56 174.301 457.56C175.693 457.56 176.765 457.248 177.517 456.624C178.285 456 178.669 455.168 178.669 454.128C178.669 452.976 178.237 452.104 177.373 451.512C176.525 450.92 175.085 450.624 173.053 450.624H169.477L170.341 442.2H179.533V443.736H171.853L171.277 449.088H173.437Z" fill="#565981"/>
<path d="M189.575 448.944C190.679 448.944 191.655 449.152 192.503 449.568C193.367 449.984 194.039 450.576 194.519 451.344C194.999 452.096 195.239 452.976 195.239 453.984C195.239 455.008 194.991 455.912 194.495 456.696C193.999 457.48 193.311 458.088 192.431 458.52C191.567 458.936 190.591 459.144 189.503 459.144C187.279 459.144 185.575 458.416 184.391 456.96C183.207 455.488 182.615 453.416 182.615 450.744C182.615 448.872 182.935 447.288 183.575 445.992C184.215 444.696 185.111 443.72 186.263 443.064C187.415 442.392 188.759 442.056 190.295 442.056C191.959 442.056 193.287 442.36 194.279 442.968L193.583 444.36C192.783 443.832 191.695 443.568 190.319 443.568C188.463 443.568 187.007 444.16 185.951 445.344C184.895 446.512 184.367 448.216 184.367 450.456C184.367 450.856 184.391 451.312 184.439 451.824C184.855 450.912 185.519 450.208 186.431 449.712C187.343 449.2 188.391 448.944 189.575 448.944ZM189.431 457.68C190.647 457.68 191.631 457.352 192.383 456.696C193.151 456.024 193.535 455.136 193.535 454.032C193.535 452.928 193.151 452.048 192.383 451.392C191.631 450.736 190.607 450.408 189.311 450.408C188.463 450.408 187.711 450.568 187.055 450.888C186.415 451.208 185.911 451.648 185.543 452.208C185.175 452.768 184.991 453.392 184.991 454.08C184.991 454.72 185.159 455.312 185.495 455.856C185.847 456.4 186.359 456.84 187.031 457.176C187.703 457.512 188.503 457.68 189.431 457.68Z" fill="#565981"/>
<path d="M213.145 450.192C214.201 450.544 215.009 451.072 215.569 451.776C216.145 452.48 216.433 453.328 216.433 454.32C216.433 455.296 216.169 456.152 215.641 456.888C215.113 457.608 214.353 458.168 213.361 458.568C212.385 458.952 211.233 459.144 209.905 459.144C207.889 459.144 206.305 458.712 205.153 457.848C204.001 456.984 203.425 455.808 203.425 454.32C203.425 453.312 203.697 452.464 204.241 451.776C204.801 451.072 205.609 450.544 206.665 450.192C205.801 449.856 205.145 449.376 204.697 448.752C204.249 448.112 204.025 447.36 204.025 446.496C204.025 445.136 204.553 444.056 205.609 443.256C206.681 442.456 208.113 442.056 209.905 442.056C211.089 442.056 212.121 442.24 213.001 442.608C213.897 442.96 214.593 443.472 215.089 444.144C215.585 444.816 215.833 445.6 215.833 446.496C215.833 447.36 215.601 448.112 215.137 448.752C214.673 449.376 214.009 449.856 213.145 450.192ZM205.753 446.544C205.753 447.472 206.121 448.208 206.857 448.752C207.593 449.296 208.609 449.568 209.905 449.568C211.201 449.568 212.217 449.296 212.953 448.752C213.705 448.208 214.081 447.48 214.081 446.568C214.081 445.624 213.697 444.88 212.929 444.336C212.177 443.792 211.169 443.52 209.905 443.52C208.625 443.52 207.609 443.792 206.857 444.336C206.121 444.88 205.753 445.616 205.753 446.544ZM209.905 457.68C211.393 457.68 212.553 457.376 213.385 456.768C214.233 456.16 214.657 455.336 214.657 454.296C214.657 453.256 214.233 452.44 213.385 451.848C212.553 451.24 211.393 450.936 209.905 450.936C208.433 450.936 207.273 451.24 206.425 451.848C205.593 452.44 205.177 453.256 205.177 454.296C205.177 455.352 205.593 456.184 206.425 456.792C207.257 457.384 208.417 457.68 209.905 457.68Z" fill="#565981"/>
<path d="M225.522 459.144C224.226 459.144 223.066 458.8 222.042 458.112C221.034 457.424 220.242 456.44 219.666 455.16C219.106 453.864 218.826 452.344 218.826 450.6C218.826 448.856 219.106 447.344 219.666 446.064C220.242 444.768 221.034 443.776 222.042 443.088C223.066 442.4 224.226 442.056 225.522 442.056C226.818 442.056 227.97 442.4 228.978 443.088C230.002 443.776 230.802 444.768 231.378 446.064C231.954 447.344 232.242 448.856 232.242 450.6C232.242 452.344 231.954 453.864 231.378 455.16C230.802 456.44 230.002 457.424 228.978 458.112C227.97 458.8 226.818 459.144 225.522 459.144ZM225.522 457.56C226.498 457.56 227.354 457.288 228.09 456.744C228.842 456.2 229.426 455.408 229.842 454.368C230.258 453.328 230.466 452.072 230.466 450.6C230.466 449.128 230.258 447.872 229.842 446.832C229.426 445.792 228.842 445 228.09 444.456C227.354 443.912 226.498 443.64 225.522 443.64C224.546 443.64 223.682 443.912 222.93 444.456C222.194 445 221.618 445.792 221.202 446.832C220.786 447.872 220.578 449.128 220.578 450.6C220.578 452.072 220.786 453.328 221.202 454.368C221.618 455.408 222.194 456.2 222.93 456.744C223.682 457.288 224.546 457.56 225.522 457.56Z" fill="#565981"/>
<path d="M241.413 459.144C240.117 459.144 238.957 458.8 237.933 458.112C236.925 457.424 236.133 456.44 235.557 455.16C234.997 453.864 234.717 452.344 234.717 450.6C234.717 448.856 234.997 447.344 235.557 446.064C236.133 444.768 236.925 443.776 237.933 443.088C238.957 442.4 240.117 442.056 241.413 442.056C242.709 442.056 243.861 442.4 244.868 443.088C245.893 443.776 246.693 444.768 247.269 446.064C247.845 447.344 248.133 448.856 248.133 450.6C248.133 452.344 247.845 453.864 247.269 455.16C246.693 456.44 245.893 457.424 244.868 458.112C243.861 458.8 242.709 459.144 241.413 459.144ZM241.413 457.56C242.389 457.56 243.245 457.288 243.98 456.744C244.732 456.2 245.317 455.408 245.733 454.368C246.149 453.328 246.357 452.072 246.357 450.6C246.357 449.128 246.149 447.872 245.733 446.832C245.317 445.792 244.732 445 243.98 444.456C243.245 443.912 242.389 443.64 241.413 443.64C240.437 443.64 239.573 443.912 238.821 444.456C238.085 445 237.508 445.792 237.092 446.832C236.676 447.872 236.469 449.128 236.469 450.6C236.469 452.072 236.676 453.328 237.092 454.368C237.508 455.408 238.085 456.2 238.821 456.744C239.573 457.288 240.437 457.56 241.413 457.56Z" fill="#565981"/>
<path d="M251.645 459.12C251.293 459.12 250.989 458.992 250.733 458.736C250.493 458.48 250.373 458.168 250.373 457.8C250.373 457.432 250.493 457.128 250.733 456.888C250.989 456.632 251.293 456.504 251.645 456.504C251.997 456.504 252.301 456.632 252.557 456.888C252.813 457.128 252.941 457.432 252.941 457.8C252.941 458.168 252.813 458.48 252.557 458.736C252.301 458.992 251.997 459.12 251.645 459.12Z" fill="#565981"/>
<path d="M261.873 459.144C260.577 459.144 259.417 458.8 258.393 458.112C257.385 457.424 256.593 456.44 256.017 455.16C255.457 453.864 255.177 452.344 255.177 450.6C255.177 448.856 255.457 447.344 256.017 446.064C256.593 444.768 257.385 443.776 258.393 443.088C259.417 442.4 260.577 442.056 261.873 442.056C263.169 442.056 264.321 442.4 265.329 443.088C266.353 443.776 267.153 444.768 267.729 446.064C268.305 447.344 268.593 448.856 268.593 450.6C268.593 452.344 268.305 453.864 267.729 455.16C267.153 456.44 266.353 457.424 265.329 458.112C264.321 458.8 263.169 459.144 261.873 459.144ZM261.873 457.56C262.849 457.56 263.705 457.288 264.441 456.744C265.193 456.2 265.777 455.408 266.193 454.368C266.609 453.328 266.817 452.072 266.817 450.6C266.817 449.128 266.609 447.872 266.193 446.832C265.777 445.792 265.193 445 264.441 444.456C263.705 443.912 262.849 443.64 261.873 443.64C260.897 443.64 260.033 443.912 259.281 444.456C258.545 445 257.969 445.792 257.553 446.832C257.137 447.872 256.929 449.128 256.929 450.6C256.929 452.072 257.137 453.328 257.553 454.368C257.969 455.408 258.545 456.2 259.281 456.744C260.033 457.288 260.897 457.56 261.873 457.56Z" fill="#565981"/>
<path d="M277.764 459.144C276.468 459.144 275.308 458.8 274.284 458.112C273.276 457.424 272.484 456.44 271.908 455.16C271.348 453.864 271.068 452.344 271.068 450.6C271.068 448.856 271.348 447.344 271.908 446.064C272.484 444.768 273.276 443.776 274.284 443.088C275.308 442.4 276.468 442.056 277.764 442.056C279.06 442.056 280.212 442.4 281.22 443.088C282.244 443.776 283.044 444.768 283.62 446.064C284.196 447.344 284.484 448.856 284.484 450.6C284.484 452.344 284.196 453.864 283.62 455.16C283.044 456.44 282.244 457.424 281.22 458.112C280.212 458.8 279.06 459.144 277.764 459.144ZM277.764 457.56C278.74 457.56 279.596 457.288 280.332 456.744C281.084 456.2 281.668 455.408 282.084 454.368C282.5 453.328 282.708 452.072 282.708 450.6C282.708 449.128 282.5 447.872 282.084 446.832C281.668 445.792 281.084 445 280.332 444.456C279.596 443.912 278.74 443.64 277.764 443.64C276.788 443.64 275.924 443.912 275.172 444.456C274.436 445 273.86 445.792 273.444 446.832C273.028 447.872 272.82 449.128 272.82 450.6C272.82 452.072 273.028 453.328 273.444 454.368C273.86 455.408 274.436 456.2 275.172 456.744C275.924 457.288 276.788 457.56 277.764 457.56Z" fill="#565981"/>
<path d="M297.008 453.36V454.824H302.408V455.88H297.008V459H295.232V455.88H292.712V454.824H295.232V442.2H301.52C303.68 442.2 305.36 442.688 306.56 443.664C307.776 444.624 308.384 445.992 308.384 447.768C308.384 449.56 307.776 450.944 306.56 451.92C305.36 452.88 303.68 453.36 301.52 453.36H297.008ZM297.008 443.736V451.848H301.544C303.176 451.848 304.424 451.496 305.288 450.792C306.168 450.088 306.608 449.088 306.608 447.792C306.608 446.496 306.168 445.496 305.288 444.792C304.424 444.088 303.176 443.736 301.544 443.736H297.008Z" fill="#565981"/>
<path d="M153.12 482V470.48H157.568C158.213 470.48 158.776 470.613 159.256 470.88C159.736 471.147 160.109 471.507 160.376 471.96C160.642 472.408 160.776 472.904 160.776 473.448C160.776 474.067 160.61 474.619 160.28 475.104C159.949 475.584 159.506 475.917 158.952 476.104L158.936 475.712C159.682 475.925 160.269 476.299 160.696 476.832C161.122 477.365 161.336 478.011 161.336 478.768C161.336 479.435 161.194 480.011 160.912 480.496C160.629 480.976 160.232 481.347 159.72 481.608C159.208 481.869 158.613 482 157.936 482H153.12ZM154.304 480.872H157.648C158.117 480.872 158.538 480.789 158.912 480.624C159.285 480.453 159.578 480.213 159.792 479.904C160.01 479.595 160.12 479.221 160.12 478.784C160.12 478.357 160.021 477.973 159.824 477.632C159.626 477.291 159.357 477.019 159.016 476.816C158.68 476.608 158.296 476.504 157.864 476.504H154.304V480.872ZM154.304 475.392H157.56C157.928 475.392 158.264 475.309 158.568 475.144C158.872 474.973 159.112 474.741 159.288 474.448C159.469 474.155 159.56 473.816 159.56 473.432C159.56 472.888 159.37 472.445 158.992 472.104C158.618 471.763 158.141 471.592 157.56 471.592H154.304V475.392Z" fill="#8B8FBB"/>
<path d="M162.94 482L162.924 473.36H164.108V476.616H165.612C165.863 476.616 166.108 476.621 166.348 476.632C166.588 476.643 166.804 476.664 166.996 476.696C167.423 476.781 167.802 476.925 168.132 477.128C168.463 477.331 168.724 477.611 168.916 477.968C169.108 478.32 169.204 478.765 169.204 479.304C169.204 480.045 169.012 480.629 168.628 481.056C168.244 481.483 167.762 481.76 167.18 481.888C166.962 481.936 166.724 481.968 166.468 481.984C166.212 481.995 165.962 482 165.716 482H162.94ZM164.108 480.992H165.668C165.844 480.992 166.044 480.987 166.268 480.976C166.492 480.965 166.69 480.936 166.86 480.888C167.148 480.808 167.407 480.648 167.636 480.408C167.871 480.163 167.988 479.795 167.988 479.304C167.988 478.819 167.876 478.453 167.652 478.208C167.428 477.957 167.13 477.792 166.756 477.712C166.586 477.675 166.404 477.651 166.212 477.64C166.026 477.629 165.844 477.624 165.668 477.624H164.108V480.992ZM170.236 482V473.36H171.412V482H170.236Z" fill="#8B8FBB"/>
<path d="M173.011 483.92V480.992C173.502 480.992 173.854 480.835 174.067 480.52C174.28 480.2 174.454 479.691 174.587 478.992C174.678 478.539 174.752 478.051 174.811 477.528C174.87 477.005 174.92 476.408 174.963 475.736C175.006 475.059 175.046 474.267 175.083 473.36H180.795V480.992H181.627V483.92H180.491V482H174.139V483.92H173.011ZM175.003 480.992H179.627V474.368H176.171C176.155 474.773 176.131 475.203 176.099 475.656C176.072 476.109 176.038 476.563 175.995 477.016C175.958 477.469 175.912 477.896 175.859 478.296C175.811 478.691 175.752 479.037 175.683 479.336C175.603 479.72 175.515 480.048 175.419 480.32C175.328 480.592 175.19 480.816 175.003 480.992Z" fill="#8B8FBB"/>
<path d="M185.217 482.24C184.566 482.24 184.019 482.123 183.577 481.888C183.139 481.653 182.811 481.341 182.593 480.952C182.374 480.563 182.265 480.139 182.265 479.68C182.265 479.211 182.358 478.811 182.545 478.48C182.737 478.144 182.995 477.869 183.321 477.656C183.651 477.443 184.033 477.28 184.465 477.168C184.902 477.061 185.385 476.968 185.913 476.888C186.446 476.803 186.966 476.731 187.473 476.672C187.985 476.608 188.433 476.547 188.817 476.488L188.401 476.744C188.417 475.891 188.251 475.259 187.905 474.848C187.558 474.437 186.955 474.232 186.097 474.232C185.505 474.232 185.003 474.365 184.593 474.632C184.187 474.899 183.902 475.32 183.737 475.896L182.593 475.56C182.79 474.787 183.187 474.187 183.785 473.76C184.382 473.333 185.158 473.12 186.113 473.12C186.902 473.12 187.571 473.269 188.121 473.568C188.675 473.861 189.067 474.288 189.297 474.848C189.403 475.099 189.473 475.379 189.505 475.688C189.537 475.997 189.553 476.312 189.553 476.632V482H188.505V479.832L188.809 479.96C188.515 480.701 188.059 481.267 187.441 481.656C186.822 482.045 186.081 482.24 185.217 482.24ZM185.353 481.224C185.902 481.224 186.382 481.125 186.793 480.928C187.203 480.731 187.534 480.461 187.785 480.12C188.035 479.773 188.198 479.384 188.273 478.952C188.337 478.675 188.371 478.371 188.377 478.04C188.382 477.704 188.385 477.453 188.385 477.288L188.833 477.52C188.433 477.573 187.998 477.627 187.529 477.68C187.065 477.733 186.606 477.795 186.153 477.864C185.705 477.933 185.299 478.016 184.937 478.112C184.691 478.181 184.454 478.28 184.225 478.408C183.995 478.531 183.806 478.696 183.657 478.904C183.513 479.112 183.441 479.371 183.441 479.68C183.441 479.931 183.502 480.173 183.625 480.408C183.753 480.643 183.955 480.837 184.233 480.992C184.515 481.147 184.889 481.224 185.353 481.224Z" fill="#8B8FBB"/>
<path d="M191.627 482V473.36H192.803V477.112H197.675V473.36H198.851V482H197.675V478.24H192.803V482H191.627Z" fill="#8B8FBB"/>
<path d="M204.697 482.24C203.838 482.24 203.105 482.045 202.497 481.656C201.889 481.267 201.422 480.728 201.097 480.04C200.771 479.352 200.609 478.563 200.609 477.672C200.609 476.765 200.774 475.971 201.105 475.288C201.435 474.605 201.905 474.075 202.513 473.696C203.126 473.312 203.854 473.12 204.697 473.12C205.561 473.12 206.297 473.315 206.905 473.704C207.518 474.088 207.984 474.624 208.305 475.312C208.63 475.995 208.793 476.781 208.793 477.672C208.793 478.579 208.63 479.376 208.305 480.064C207.979 480.747 207.51 481.28 206.897 481.664C206.283 482.048 205.55 482.24 204.697 482.24ZM204.697 481.112C205.657 481.112 206.371 480.795 206.841 480.16C207.31 479.52 207.545 478.691 207.545 477.672C207.545 476.627 207.307 475.795 206.833 475.176C206.363 474.557 205.651 474.248 204.697 474.248C204.051 474.248 203.518 474.395 203.097 474.688C202.681 474.976 202.369 475.379 202.161 475.896C201.958 476.408 201.857 477 201.857 477.672C201.857 478.712 202.097 479.547 202.577 480.176C203.057 480.8 203.763 481.112 204.697 481.112Z" fill="#8B8FBB"/>
<path d="M129.802 461.075C129.802 475.626 118.006 487.422 103.455 487.422C88.9034 487.422 77.1074 475.626 77.1074 461.075C77.1074 446.524 88.9034 434.728 103.455 434.728C118.006 434.728 129.802 446.524 129.802 461.075Z" fill="#F2B705"/>
<path d="M114.37 459.707C113.664 459.707 113.099 460.254 113.099 460.938C113.099 461.623 113.664 462.17 114.37 462.17C115.075 462.17 115.64 461.623 115.64 460.938C115.64 460.254 115.075 459.707 114.37 459.707Z" fill="white"/>
<path d="M93.4802 459.707C92.7745 459.707 92.2099 460.254 92.2099 460.938C92.2099 461.623 92.7745 462.17 93.4802 462.17C94.186 462.17 94.7505 461.623 94.7505 460.938C94.8917 460.254 94.3271 459.707 93.4802 459.707Z" fill="white"/>
<path d="M103.925 446.02C95.3151 446.02 88.399 452.726 88.399 461.075C88.399 469.424 95.3151 476.131 103.925 476.131C112.535 476.131 119.451 469.424 119.451 461.075C119.451 452.726 112.535 446.02 103.925 446.02ZM103.925 474.215C96.4443 474.215 90.2339 468.329 90.2339 460.938C90.2339 453.684 96.3031 447.662 103.925 447.662C111.547 447.662 117.616 453.547 117.616 460.938C117.616 468.329 111.547 474.215 103.925 474.215Z" fill="white"/>
<path d="M110.277 455.327C109.994 454.916 109.712 454.642 109.289 454.369C108.724 453.958 107.877 453.684 106.889 453.547C106.607 453.547 106.466 453.547 106.183 453.547C105.901 453.547 105.76 453.547 105.619 453.547H99.8318C99.4083 453.547 98.9849 453.821 98.9849 454.232V460.254H97.15C97.0089 460.254 96.8677 460.391 96.8677 460.528V462.033C96.8677 462.17 97.0089 462.307 97.15 462.307H98.9849V463.949H97.15C97.0089 463.949 96.8677 464.086 96.8677 464.223V465.729C96.8677 465.866 97.0089 466.002 97.15 466.002H98.9849V468.192C98.9849 468.466 99.1261 468.603 99.4083 468.603H101.384C101.667 468.603 101.808 468.466 101.808 468.192V466.002H103.36C103.502 466.002 103.643 465.866 103.643 465.729V464.223C103.643 464.086 103.502 463.949 103.36 463.949H101.667V462.307H105.619C105.76 462.307 106.042 462.307 106.183 462.307C106.466 462.307 106.607 462.307 106.889 462.307C107.877 462.17 108.583 461.896 109.289 461.486C109.712 461.212 109.994 460.938 110.277 460.528C110.277 460.528 110.418 460.254 110.559 459.98C111.123 458.748 111.123 457.106 110.559 455.874C110.559 455.6 110.418 455.327 110.277 455.327ZM108.159 458.748C108.018 459.022 107.877 459.296 107.595 459.57C107.312 459.843 107.03 459.98 106.466 460.117C106.324 460.117 106.183 460.117 105.901 460.254C105.76 460.254 105.478 460.254 105.336 460.254H101.526C101.526 460.254 101.384 460.254 101.384 460.117V455.737C101.384 455.737 101.384 455.6 101.526 455.6H105.336C105.478 455.6 105.619 455.6 105.901 455.6C106.042 455.6 106.324 455.6 106.466 455.737C106.889 455.874 107.312 456.011 107.595 456.285C107.877 456.559 108.018 456.832 108.159 457.106C108.301 457.38 108.301 457.654 108.301 457.927C108.301 458.201 108.301 458.475 108.159 458.748Z" fill="white"/>
<path d="M139.022 307.162C139.015 308.144 139.592 309.074 140.458 309.474C140.781 309.621 141.122 309.692 141.468 309.692C142.419 309.692 143.379 309.156 143.915 308.236C144.155 307.824 144.014 307.295 143.601 307.058C143.185 306.817 142.657 306.957 142.417 307.371C142.103 307.907 141.538 308.071 141.185 307.91C140.933 307.792 140.751 307.482 140.751 307.171C140.751 306.845 140.965 306.529 141.291 306.366C141.828 306.097 142.172 305.526 142.188 304.873L142.325 297.85L142.452 297.776C142.929 297.5 143.271 297.056 143.416 296.522C143.559 295.986 143.485 295.43 143.211 294.953L142.678 294.031C142.108 293.046 140.831 292.708 139.844 293.274L136.41 295.253C136.341 295.22 136.285 295.167 136.209 295.142C135.697 294.986 135.161 295.034 134.693 295.285L105.111 311.061C104.605 311.365 103.892 311.917 103.369 312.839C102.983 313.518 102.764 314.289 102.739 315.096L102.713 318.48C101.407 318.874 100.449 320.067 100.449 321.494V326.999C99.6185 327.249 99.0001 327.988 99.0001 328.897V329.686C99.0001 330.373 99.3693 330.953 99.9001 331.314L99.8816 332.478C99.8631 332.95 99.9993 333.419 100.262 333.799C100.735 334.487 101.446 334.666 101.811 334.717L103.405 334.712C103.742 336.596 105.385 338.032 107.37 338.032C109.362 338.032 111.012 336.582 111.337 334.687L112.595 334.682C112.918 336.58 114.568 338.032 116.562 338.032C118.565 338.032 120.219 336.566 120.531 334.655L131.425 334.618V334.611H131.467C131.774 336.527 133.431 337.999 135.438 337.999C137.446 337.999 139.101 336.527 139.408 334.611H141.628C142.77 334.611 143.7 333.684 143.7 332.543V324.406C143.7 318.795 139.122 314.229 133.491 314.229H130.791C128.776 314.229 127.135 315.862 127.135 317.873V326.941C127.034 326.925 126.944 326.881 126.838 326.881H121.057V319.122C121.057 316.84 119.192 314.981 116.903 314.981H116.178L124.569 310.53C124.795 310.412 124.994 310.251 125.16 310.049L127.461 307.24C127.883 306.727 128.391 306.313 128.977 306.007L137.504 301.553C138.152 301.213 138.549 300.603 138.69 299.934L140.582 298.846L140.513 304.82C139.599 305.285 139.025 306.182 139.022 307.162ZM137.612 334.616C137.331 335.568 136.484 336.279 135.438 336.279C134.393 336.279 133.544 335.568 133.262 334.616C133.202 334.411 133.133 334.206 133.133 333.983C133.133 333.58 133.265 333.221 133.449 332.89C133.844 332.184 134.573 331.685 135.438 331.685C136.304 331.685 137.033 332.184 137.428 332.89C137.61 333.219 137.744 333.58 137.744 333.983C137.742 334.206 137.674 334.408 137.612 334.616ZM141.849 323.201L135.771 323.169C135.005 323.164 134.374 322.538 134.37 321.772L134.328 316.042C138.201 316.426 141.295 319.391 141.849 323.201ZM128.868 317.875C128.868 316.817 129.731 315.957 130.793 315.957H132.595L132.637 321.784C132.651 323.488 134.049 324.884 135.761 324.894L141.972 324.928V332.547C141.972 332.736 141.819 332.89 141.63 332.89H139.304C138.824 331.204 137.282 329.959 135.441 329.959C133.597 329.959 132.055 331.204 131.575 332.89H128.873V317.875H128.868ZM102.18 321.496C102.18 320.702 102.829 320.058 103.622 320.058H108.912V322.695H102.18L102.18 321.496ZM102.18 324.42H108.912V326.884H102.18V324.42ZM103.477 333.005L101.968 333.012C101.961 333.01 101.79 332.975 101.689 332.826C101.617 332.72 101.608 332.605 101.612 332.527L101.626 331.701H104.079C103.802 332.087 103.602 332.531 103.477 333.005ZM109.535 334.694C109.239 335.621 108.397 336.308 107.37 336.308C106.348 336.308 105.508 335.63 105.208 334.71C105.134 334.484 105.065 334.259 105.065 334.011C105.065 333.642 105.171 333.306 105.328 332.998C105.706 332.246 106.468 331.714 107.37 331.714C108.265 331.714 109.02 332.239 109.401 332.982C109.562 333.295 109.673 333.635 109.673 334.011C109.673 334.252 109.606 334.475 109.535 334.694ZM112.68 332.968L111.252 332.973C111.127 332.51 110.931 332.078 110.661 331.696H113.268C112.998 332.078 112.805 332.508 112.68 332.968ZM118.731 334.664C118.445 335.607 117.598 336.308 116.559 336.308C115.525 336.308 114.681 335.614 114.39 334.678C114.323 334.461 114.254 334.247 114.254 334.011C114.254 333.626 114.372 333.279 114.54 332.961C114.925 332.23 115.673 331.714 116.557 331.714C117.436 331.714 118.175 332.223 118.565 332.945C118.738 333.267 118.862 333.619 118.862 334.011C118.865 334.243 118.795 334.452 118.731 334.664ZM127.138 332.913L120.432 332.939C120.307 332.49 120.115 332.069 119.852 331.699H126.842C126.949 331.699 127.038 331.655 127.14 331.639V332.913H127.138ZM126.84 328.609C126.999 328.609 127.131 328.738 127.131 328.897V329.686C127.131 329.844 126.999 329.973 126.84 329.973H101.019C100.86 329.973 100.731 329.844 100.731 329.686V328.897C100.731 328.756 100.839 328.655 100.971 328.63C109.595 328.623 118.218 328.616 126.84 328.609ZM116.903 316.709C118.239 316.709 119.326 317.792 119.326 319.124V326.884H110.649V318.331L110.665 317.235C110.668 317.173 110.682 317.077 110.739 316.983C110.896 316.729 111.226 316.727 111.252 316.727C113.135 316.72 115.018 316.716 116.903 316.709ZM136.703 300.031L128.176 304.482C127.382 304.896 126.692 305.457 126.122 306.152L123.764 309.005L112.435 314.983H111.222C110.903 314.983 110.598 315.048 110.322 315.165C110.075 315.25 109.844 315.372 109.648 315.542C109.029 316.072 108.944 316.769 108.935 317.056C108.937 317.47 108.939 317.887 108.942 318.301C107.444 318.289 105.944 318.278 104.446 318.264L104.469 315.131C104.485 314.625 104.626 314.125 104.875 313.688C105.212 313.092 105.674 312.736 105.962 312.561L135.508 296.803L135.706 296.865L136.56 298.342L136.975 299.163C137.137 299.481 137.015 299.87 136.703 300.031ZM138.42 298.105L138.074 297.509L137.592 296.564L140.707 294.772C140.873 294.682 141.081 294.735 141.175 294.896L141.708 295.818C141.789 295.959 141.722 296.203 141.581 296.285L138.42 298.105Z" fill="#BCAAE9"/>
<path d="M503.977 14.3945C507.952 14.3945 511.174 11.1721 511.174 7.19723C511.174 3.2223 507.952 0 503.977 0C500.002 0 496.78 3.2223 496.78 7.19723C496.78 11.1721 500.002 14.3945 503.977 14.3945Z" fill="#BCAAE9"/>
<path d="M118.064 398.129C123.623 398.129 128.129 393.623 128.129 388.064C128.129 382.506 123.623 378 118.064 378C112.506 378 108 382.506 108 388.064C108 393.623 112.506 398.129 118.064 398.129Z" fill="#E5007E"/>
<path d="M459.899 58.5945L480.372 49.2331L476.792 41.4028L456.318 50.7642L459.899 58.5945Z" fill="#E5007E"/>
<path d="M86.4169 341.177L61.8614 327L60.0002 330.224L84.5557 344.401L86.4169 341.177Z" fill="#62A0E9"/>
<path d="M0 100.26C0 99.09 0 98.5051 0.0271962 98.0109C0.531458 88.8481 7.84805 81.5315 17.0109 81.0272C17.5051 81 18.09 81 19.26 81H215.982C217.152 81 217.737 81 218.232 81.0272C227.394 81.5315 234.711 88.8481 235.215 98.0109C235.242 98.5051 235.242 99.09 235.242 100.26V173.715C235.242 174.885 235.242 175.47 235.215 175.965C234.711 185.127 227.394 192.444 218.232 192.948C217.737 192.975 217.152 192.975 215.982 192.975H19.26C18.09 192.975 17.5051 192.975 17.0109 192.948C7.84805 192.444 0.531458 185.127 0.0271962 175.965C0 175.47 0 174.885 0 173.715V100.26Z" fill="white"/>
<path d="M36.784 156.299C35.6373 156.299 34.6693 156.046 33.88 155.539C33.0907 155.027 32.4933 154.32 32.088 153.419C31.6827 152.518 31.48 151.478 31.48 150.299C31.48 149.12 31.6827 148.08 32.088 147.179C32.4933 146.278 33.0907 145.574 33.88 145.067C34.6693 144.555 35.6373 144.299 36.784 144.299C38.1227 144.299 39.216 144.643 40.064 145.331C40.912 146.014 41.4933 146.931 41.808 148.083L40.608 148.395C40.3627 147.483 39.9227 146.76 39.288 146.227C38.6533 145.694 37.8187 145.427 36.784 145.427C35.8827 145.427 35.1333 145.632 34.536 146.043C33.9387 146.454 33.488 147.027 33.184 147.763C32.8853 148.494 32.7307 149.339 32.72 150.299C32.7147 151.259 32.8613 152.104 33.16 152.835C33.464 153.566 33.9173 154.139 34.52 154.555C35.128 154.966 35.8827 155.171 36.784 155.171C37.8187 155.171 38.6533 154.904 39.288 154.371C39.9227 153.832 40.3627 153.11 40.608 152.203L41.808 152.515C41.4933 153.667 40.912 154.587 40.064 155.275C39.216 155.958 38.1227 156.299 36.784 156.299Z" fill="#616BE8"/>
<path d="M43.5651 156.059V147.419H50.4371V156.059H49.2611V148.547H44.7411V156.059H43.5651Z" fill="#616BE8"/>
<path d="M56.3385 156.299C55.4958 156.299 54.7652 156.112 54.1465 155.739C53.5332 155.366 53.0558 154.84 52.7145 154.163C52.3732 153.486 52.2025 152.691 52.2025 151.779C52.2025 150.835 52.3705 150.019 52.7065 149.331C53.0425 148.643 53.5145 148.112 54.1225 147.739C54.7358 147.366 55.4585 147.179 56.2905 147.179C57.1438 147.179 57.8718 147.376 58.4745 147.771C59.0772 148.16 59.5332 148.72 59.8425 149.451C60.1518 150.182 60.2932 151.054 60.2665 152.067H59.0665V151.651C59.0452 150.531 58.8025 149.686 58.3385 149.115C57.8798 148.544 57.2078 148.259 56.3225 148.259C55.3945 148.259 54.6825 148.56 54.1865 149.163C53.6958 149.766 53.4505 150.624 53.4505 151.739C53.4505 152.827 53.6958 153.672 54.1865 154.275C54.6825 154.872 55.3838 155.171 56.2905 155.171C56.9092 155.171 57.4478 155.03 57.9065 154.747C58.3705 154.459 58.7358 154.046 59.0025 153.507L60.0985 153.931C59.7572 154.683 59.2532 155.267 58.5865 155.683C57.9252 156.094 57.1758 156.299 56.3385 156.299ZM53.0345 152.067V151.083H59.6345V152.067H53.0345Z" fill="#616BE8"/>
<path d="M69.4659 157.555V156.059H62.0339V147.419H63.2099V154.931H67.7299V147.419H68.9059V154.971H70.6419V157.555H69.4659Z" fill="#616BE8"/>
<path d="M74.2609 156.059V148.507H71.1969V147.419H78.5009V148.507H75.4369V156.059H74.2609Z" fill="#616BE8"/>
<path d="M83.6823 156.299C82.8396 156.299 82.1089 156.112 81.4902 155.739C80.8769 155.366 80.3996 154.84 80.0583 154.163C79.7169 153.486 79.5462 152.691 79.5462 151.779C79.5462 150.835 79.7142 150.019 80.0502 149.331C80.3862 148.643 80.8582 148.112 81.4662 147.739C82.0796 147.366 82.8022 147.179 83.6342 147.179C84.4876 147.179 85.2156 147.376 85.8183 147.771C86.4209 148.16 86.8769 148.72 87.1862 149.451C87.4956 150.182 87.6369 151.054 87.6103 152.067H86.4102V151.651C86.3889 150.531 86.1462 149.686 85.6823 149.115C85.2236 148.544 84.5516 148.259 83.6663 148.259C82.7383 148.259 82.0263 148.56 81.5303 149.163C81.0396 149.766 80.7943 150.624 80.7943 151.739C80.7943 152.827 81.0396 153.672 81.5303 154.275C82.0263 154.872 82.7276 155.171 83.6342 155.171C84.2529 155.171 84.7916 155.03 85.2503 154.747C85.7142 154.459 86.0796 154.046 86.3463 153.507L87.4423 153.931C87.1009 154.683 86.5969 155.267 85.9303 155.683C85.2689 156.094 84.5196 156.299 83.6823 156.299ZM80.3783 152.067V151.083H86.9782V152.067H80.3783Z" fill="#616BE8"/>
<path d="M88.1131 156.059L91.4891 151.691L88.1851 147.419H89.5931L92.1771 150.787L94.7371 147.419H96.1451L92.8411 151.691L96.2251 156.059H94.8091L92.1771 152.595L89.5291 156.059H88.1131Z" fill="#616BE8"/>
<path d="M102.175 156.299C101.028 156.299 100.06 156.046 99.2706 155.539C98.4813 155.027 97.884 154.32 97.4786 153.419C97.0733 152.518 96.8706 151.478 96.8706 150.299C96.8706 149.12 97.0733 148.08 97.4786 147.179C97.884 146.278 98.4813 145.574 99.2706 145.067C100.06 144.555 101.028 144.299 102.175 144.299C103.513 144.299 104.607 144.643 105.455 145.331C106.303 146.014 106.884 146.931 107.199 148.083L105.999 148.395C105.753 147.483 105.313 146.76 104.679 146.227C104.044 145.694 103.209 145.427 102.175 145.427C101.273 145.427 100.524 145.632 99.9266 146.043C99.3293 146.454 98.8786 147.027 98.5746 147.763C98.276 148.494 98.1213 149.339 98.1106 150.299C98.1053 151.259 98.252 152.104 98.5506 152.835C98.8546 153.566 99.308 154.139 99.9106 154.555C100.519 154.966 101.273 155.171 102.175 155.171C103.209 155.171 104.044 154.904 104.679 154.371C105.313 153.832 105.753 153.11 105.999 152.203L107.199 152.515C106.884 153.667 106.303 154.587 105.455 155.275C104.607 155.958 103.513 156.299 102.175 156.299Z" fill="#616BE8"/>
<path d="M111.308 156.059V148.507H108.244V147.419H115.548V148.507H112.484V156.059H111.308Z" fill="#616BE8"/>
<path d="M120.953 156.299C120.158 156.299 119.486 156.099 118.937 155.699C118.388 155.294 117.972 154.747 117.689 154.059C117.406 153.366 117.265 152.59 117.265 151.731C117.265 150.856 117.406 150.078 117.689 149.395C117.977 148.707 118.398 148.166 118.953 147.771C119.508 147.376 120.19 147.179 121.001 147.179C121.79 147.179 122.468 147.379 123.033 147.779C123.598 148.179 124.03 148.723 124.329 149.411C124.633 150.099 124.785 150.872 124.785 151.731C124.785 152.595 124.633 153.371 124.329 154.059C124.025 154.747 123.588 155.294 123.017 155.699C122.446 156.099 121.758 156.299 120.953 156.299ZM117.065 159.899V147.419H118.121V153.923H118.249V159.899H117.065ZM120.833 155.203C121.436 155.203 121.937 155.051 122.337 154.747C122.737 154.443 123.036 154.03 123.233 153.507C123.436 152.979 123.537 152.387 123.537 151.731C123.537 151.08 123.438 150.494 123.241 149.971C123.044 149.448 122.742 149.035 122.337 148.731C121.937 148.427 121.428 148.275 120.809 148.275C120.206 148.275 119.705 148.422 119.305 148.715C118.91 149.008 118.614 149.416 118.417 149.939C118.22 150.456 118.121 151.054 118.121 151.731C118.121 152.398 118.22 152.995 118.417 153.523C118.614 154.046 118.913 154.456 119.313 154.755C119.713 155.054 120.22 155.203 120.833 155.203Z" fill="#616BE8"/>
<path d="M130.15 156.299C129.291 156.299 128.558 156.104 127.95 155.715C127.342 155.326 126.875 154.787 126.55 154.099C126.225 153.411 126.062 152.622 126.062 151.731C126.062 150.824 126.227 150.03 126.558 149.347C126.889 148.664 127.358 148.134 127.966 147.755C128.579 147.371 129.307 147.179 130.15 147.179C131.014 147.179 131.75 147.374 132.358 147.763C132.971 148.147 133.438 148.683 133.758 149.371C134.083 150.054 134.246 150.84 134.246 151.731C134.246 152.638 134.083 153.435 133.758 154.123C133.433 154.806 132.963 155.339 132.35 155.723C131.737 156.107 131.003 156.299 130.15 156.299ZM130.15 155.171C131.11 155.171 131.825 154.854 132.294 154.219C132.763 153.579 132.998 152.75 132.998 151.731C132.998 150.686 132.761 149.854 132.286 149.235C131.817 148.616 131.105 148.307 130.15 148.307C129.505 148.307 128.971 148.454 128.55 148.747C128.134 149.035 127.822 149.438 127.614 149.955C127.411 150.467 127.31 151.059 127.31 151.731C127.31 152.771 127.55 153.606 128.03 154.235C128.51 154.859 129.217 155.171 130.15 155.171Z" fill="#616BE8"/>
<path d="M142.875 147.419V156.059H141.731V149.331L136.995 156.059H136.003V147.419H137.147V154.091L141.891 147.419H142.875Z" fill="#616BE8"/>
<path d="M147.464 156.059V148.507H144.4V147.419H151.704V148.507H148.64V156.059H147.464Z" fill="#616BE8"/>
<path d="M156.885 156.299C156.043 156.299 155.312 156.112 154.693 155.739C154.08 155.366 153.603 154.84 153.261 154.163C152.92 153.486 152.749 152.691 152.749 151.779C152.749 150.835 152.917 150.019 153.253 149.331C153.589 148.643 154.061 148.112 154.669 147.739C155.283 147.366 156.005 147.179 156.837 147.179C157.691 147.179 158.419 147.376 159.021 147.771C159.624 148.16 160.08 148.72 160.389 149.451C160.699 150.182 160.84 151.054 160.813 152.067H159.613V151.651C159.592 150.531 159.349 149.686 158.885 149.115C158.427 148.544 157.755 148.259 156.869 148.259C155.941 148.259 155.229 148.56 154.733 149.163C154.243 149.766 153.997 150.624 153.997 151.739C153.997 152.827 154.243 153.672 154.733 154.275C155.229 154.872 155.931 155.171 156.837 155.171C157.456 155.171 157.995 155.03 158.453 154.747C158.917 154.459 159.283 154.046 159.549 153.507L160.645 153.931C160.304 154.683 159.8 155.267 159.133 155.683C158.472 156.094 157.723 156.299 156.885 156.299ZM153.581 152.067V151.083H160.181V152.067H153.581Z" fill="#616BE8"/>
<path d="M161.789 156.059V155.027C162.109 155.086 162.351 155.072 162.517 154.987C162.687 154.896 162.813 154.747 162.893 154.539C162.973 154.326 163.039 154.062 163.093 153.747C163.178 153.224 163.255 152.648 163.325 152.019C163.394 151.39 163.455 150.696 163.509 149.939C163.567 149.176 163.626 148.336 163.685 147.419H169.557V156.059H168.389V148.547H164.773C164.735 149.112 164.693 149.675 164.645 150.235C164.597 150.795 164.546 151.334 164.493 151.851C164.445 152.363 164.391 152.835 164.333 153.267C164.274 153.699 164.213 154.072 164.149 154.387C164.053 154.862 163.925 155.24 163.765 155.523C163.61 155.806 163.378 155.992 163.069 156.083C162.759 156.174 162.333 156.166 161.789 156.059Z" fill="#616BE8"/>
<path d="M171.8 156.059L171.784 147.419H172.968V150.675H174.992C175.243 150.675 175.488 150.68 175.728 150.691C175.973 150.702 176.189 150.723 176.376 150.755C176.803 150.835 177.181 150.976 177.512 151.179C177.848 151.382 178.109 151.662 178.296 152.019C178.488 152.376 178.584 152.824 178.584 153.363C178.584 154.104 178.392 154.688 178.008 155.115C177.629 155.542 177.149 155.819 176.568 155.947C176.349 155.995 176.112 156.027 175.856 156.043C175.6 156.054 175.347 156.059 175.096 156.059H171.8ZM172.968 155.051H175.048C175.229 155.051 175.432 155.046 175.656 155.035C175.88 155.024 176.077 154.995 176.248 154.947C176.531 154.867 176.787 154.707 177.016 154.467C177.251 154.222 177.368 153.854 177.368 153.363C177.368 152.878 177.256 152.512 177.032 152.267C176.808 152.016 176.509 151.851 176.136 151.771C175.971 151.734 175.792 151.71 175.6 151.699C175.408 151.688 175.224 151.683 175.048 151.683H172.968V155.051Z" fill="#616BE8"/>
<path d="M32.813 169.606L32.043 169.046L33.149 167.618L31.42 167.093L31.714 166.19L33.415 166.792L33.373 164.979H34.325L34.283 166.792L35.977 166.19L36.271 167.093L34.549 167.618L35.641 169.046L34.871 169.606L33.849 168.122L32.813 169.606Z" fill="#8B8FBB"/>
<path d="M38.9243 169.606L38.1543 169.046L39.2603 167.618L37.5313 167.093L37.8253 166.19L39.5263 166.792L39.4843 164.979H40.4363L40.3943 166.792L42.0883 166.19L42.3823 167.093L40.6603 167.618L41.7523 169.046L40.9823 169.606L39.9603 168.122L38.9243 169.606Z" fill="#8B8FBB"/>
<path d="M45.0357 169.606L44.2657 169.046L45.3717 167.618L43.6427 167.093L43.9367 166.19L45.6377 166.792L45.5957 164.979H46.5477L46.5057 166.792L48.1997 166.19L48.4937 167.093L46.7717 167.618L47.8637 169.046L47.0937 169.606L46.0717 168.122L45.0357 169.606Z" fill="#8B8FBB"/>
<path d="M51.147 169.606L50.377 169.046L51.483 167.618L49.754 167.093L50.048 166.19L51.749 166.792L51.707 164.979H52.659L52.617 166.792L54.311 166.19L54.605 167.093L52.883 167.618L53.975 169.046L53.205 169.606L52.183 168.122L51.147 169.606Z" fill="#8B8FBB"/>
<path d="M57.2583 169.606L56.4883 169.046L57.5943 167.618L55.8653 167.093L56.1593 166.19L57.8603 166.792L57.8183 164.979H58.7703L58.7283 166.792L60.4223 166.19L60.7163 167.093L58.9943 167.618L60.0863 169.046L59.3163 169.606L58.2943 168.122L57.2583 169.606Z" fill="#8B8FBB"/>
<path d="M63.3696 169.606L62.5996 169.046L63.7056 167.618L61.9766 167.093L62.2706 166.19L63.9716 166.792L63.9296 164.979H64.8816L64.8396 166.792L66.5336 166.19L66.8276 167.093L65.1056 167.618L66.1976 169.046L65.4276 169.606L64.4056 168.122L63.3696 169.606Z" fill="#8B8FBB"/>
<path d="M69.481 169.606L68.711 169.046L69.817 167.618L68.088 167.093L68.382 166.19L70.083 166.792L70.041 164.979H70.993L70.951 166.792L72.645 166.19L72.939 167.093L71.217 167.618L72.309 169.046L71.539 169.606L70.517 168.122L69.481 169.606Z" fill="#8B8FBB"/>
<path d="M75.5923 169.606L74.8223 169.046L75.9283 167.618L74.1993 167.093L74.4933 166.19L76.1943 166.792L76.1523 164.979H77.1043L77.0623 166.792L78.7563 166.19L79.0503 167.093L77.3283 167.618L78.4203 169.046L77.6503 169.606L76.6283 168.122L75.5923 169.606Z" fill="#8B8FBB"/>
<path d="M81.7036 169.606L80.9336 169.046L82.0396 167.618L80.3106 167.093L80.6046 166.19L82.3056 166.792L82.2636 164.979H83.2156L83.1736 166.792L84.8676 166.19L85.1616 167.093L83.4396 167.618L84.5316 169.046L83.7616 169.606L82.7396 168.122L81.7036 169.606Z" fill="#8B8FBB"/>
<path d="M87.815 169.606L87.045 169.046L88.151 167.618L86.422 167.093L86.716 166.19L88.417 166.792L88.375 164.979H89.327L89.285 166.792L90.979 166.19L91.273 167.093L89.551 167.618L90.643 169.046L89.873 169.606L88.851 168.122L87.815 169.606Z" fill="#8B8FBB"/>
<path d="M93.9263 169.606L93.1563 169.046L94.2623 167.618L92.5333 167.093L92.8273 166.19L94.5283 166.792L94.4863 164.979H95.4383L95.3963 166.792L97.0903 166.19L97.3843 167.093L95.6623 167.618L96.7543 169.046L95.9843 169.606L94.9623 168.122L93.9263 169.606Z" fill="#8B8FBB"/>
<path d="M100.038 169.606L99.2676 169.046L100.374 167.618L98.6446 167.093L98.9386 166.19L100.64 166.792L100.598 164.979H101.55L101.508 166.792L103.202 166.19L103.496 167.093L101.774 167.618L102.866 169.046L102.096 169.606L101.074 168.122L100.038 169.606Z" fill="#8B8FBB"/>
<path d="M106.149 169.606L105.379 169.046L106.485 167.618L104.756 167.093L105.05 166.19L106.751 166.792L106.709 164.979H107.661L107.619 166.792L109.313 166.19L109.607 167.093L107.885 167.618L108.977 169.046L108.207 169.606L107.185 168.122L106.149 169.606Z" fill="#8B8FBB"/>
<path d="M112.26 169.606L111.49 169.046L112.596 167.618L110.867 167.093L111.161 166.19L112.862 166.792L112.82 164.979H113.772L113.73 166.792L115.424 166.19L115.718 167.093L113.996 167.618L115.088 169.046L114.318 169.606L113.296 168.122L112.26 169.606Z" fill="#8B8FBB"/>
<path d="M118.372 169.606L117.602 169.046L118.708 167.618L116.979 167.093L117.273 166.19L118.974 166.792L118.932 164.979H119.884L119.842 166.792L121.536 166.19L121.83 167.093L120.108 167.618L121.2 169.046L120.43 169.606L119.408 168.122L118.372 169.606Z" fill="#8B8FBB"/>
<path d="M70.042 117.059L75.388 105.215L75.856 106.025H68.368L69.268 105.143V108.275H67.54V104.459H77.044V105.683L71.95 117.059H70.042Z" fill="#565981"/>
<path d="M83.4183 117.203C82.4342 117.203 81.5522 116.951 80.7722 116.447C80.0042 115.943 79.3923 115.211 78.9362 114.251C78.4922 113.291 78.2702 112.127 78.2702 110.759C78.2702 109.391 78.4922 108.227 78.9362 107.267C79.3923 106.307 80.0042 105.575 80.7722 105.071C81.5522 104.567 82.4342 104.315 83.4183 104.315C84.3903 104.315 85.2663 104.567 86.0462 105.071C86.8262 105.575 87.4382 106.307 87.8822 107.267C88.3262 108.227 88.5482 109.391 88.5482 110.759C88.5482 112.127 88.3262 113.291 87.8822 114.251C87.4382 115.211 86.8262 115.943 86.0462 116.447C85.2663 116.951 84.3903 117.203 83.4183 117.203ZM83.4183 115.601C84.0783 115.601 84.6543 115.421 85.1462 115.061C85.6502 114.701 86.0403 114.161 86.3163 113.441C86.6043 112.721 86.7483 111.827 86.7483 110.759C86.7483 109.691 86.6043 108.797 86.3163 108.077C86.0403 107.357 85.6502 106.817 85.1462 106.457C84.6543 106.097 84.0783 105.917 83.4183 105.917C82.7582 105.917 82.1762 106.097 81.6722 106.457C81.1683 106.817 80.7723 107.357 80.4843 108.077C80.2083 108.797 80.0703 109.691 80.0703 110.759C80.0703 111.827 80.2083 112.721 80.4843 113.441C80.7723 114.161 81.1683 114.701 81.6722 115.061C82.1762 115.421 82.7582 115.601 83.4183 115.601Z" fill="#565981"/>
<path d="M97.2341 117.059V105.179L98.0081 106.025H94.3901V104.459H99.0161V117.059H97.2341Z" fill="#565981"/>
<path d="M105.84 117.203C104.952 117.203 104.088 117.065 103.248 116.789C102.42 116.513 101.742 116.141 101.214 115.673L102.042 114.251C102.462 114.647 103.008 114.971 103.68 115.223C104.352 115.475 105.066 115.601 105.822 115.601C106.782 115.601 107.52 115.397 108.036 114.989C108.552 114.581 108.81 114.035 108.81 113.351C108.81 112.883 108.696 112.475 108.468 112.127C108.24 111.779 107.844 111.515 107.28 111.335C106.728 111.143 105.966 111.047 104.994 111.047H102.132L102.798 104.459H109.908V106.025H103.464L104.4 105.143L103.878 110.345L102.942 109.481H105.372C106.632 109.481 107.646 109.643 108.414 109.967C109.182 110.291 109.74 110.741 110.088 111.317C110.436 111.881 110.61 112.535 110.61 113.279C110.61 113.999 110.436 114.659 110.088 115.259C109.74 115.847 109.212 116.321 108.504 116.681C107.808 117.029 106.92 117.203 105.84 117.203Z" fill="#565981"/>
<path d="M114.232 117.059V105.179L115.006 106.025H111.388V104.459H116.014V117.059H114.232Z" fill="#565981"/>
<path d="M128.752 117.203C127.768 117.203 126.886 116.951 126.106 116.447C125.338 115.943 124.726 115.211 124.27 114.251C123.826 113.291 123.604 112.127 123.604 110.759C123.604 109.391 123.826 108.227 124.27 107.267C124.726 106.307 125.338 105.575 126.106 105.071C126.886 104.567 127.768 104.315 128.752 104.315C129.724 104.315 130.6 104.567 131.38 105.071C132.16 105.575 132.772 106.307 133.216 107.267C133.66 108.227 133.882 109.391 133.882 110.759C133.882 112.127 133.66 113.291 133.216 114.251C132.772 115.211 132.16 115.943 131.38 116.447C130.6 116.951 129.724 117.203 128.752 117.203ZM128.752 115.601C129.412 115.601 129.988 115.421 130.48 115.061C130.984 114.701 131.374 114.161 131.65 113.441C131.938 112.721 132.082 111.827 132.082 110.759C132.082 109.691 131.938 108.797 131.65 108.077C131.374 107.357 130.984 106.817 130.48 106.457C129.988 106.097 129.412 105.917 128.752 105.917C128.092 105.917 127.51 106.097 127.006 106.457C126.502 106.817 126.106 107.357 125.818 108.077C125.542 108.797 125.404 109.691 125.404 110.759C125.404 111.827 125.542 112.721 125.818 113.441C126.106 114.161 126.502 114.701 127.006 115.061C127.51 115.421 128.092 115.601 128.752 115.601Z" fill="#565981"/>
<path d="M140.758 117.203C139.774 117.203 138.892 116.951 138.112 116.447C137.344 115.943 136.732 115.211 136.276 114.251C135.832 113.291 135.61 112.127 135.61 110.759C135.61 109.391 135.832 108.227 136.276 107.267C136.732 106.307 137.344 105.575 138.112 105.071C138.892 104.567 139.774 104.315 140.758 104.315C141.73 104.315 142.606 104.567 143.386 105.071C144.166 105.575 144.778 106.307 145.222 107.267C145.666 108.227 145.888 109.391 145.888 110.759C145.888 112.127 145.666 113.291 145.222 114.251C144.778 115.211 144.166 115.943 143.386 116.447C142.606 116.951 141.73 117.203 140.758 117.203ZM140.758 115.601C141.418 115.601 141.994 115.421 142.486 115.061C142.99 114.701 143.38 114.161 143.656 113.441C143.944 112.721 144.088 111.827 144.088 110.759C144.088 109.691 143.944 108.797 143.656 108.077C143.38 107.357 142.99 106.817 142.486 106.457C141.994 106.097 141.418 105.917 140.758 105.917C140.098 105.917 139.516 106.097 139.012 106.457C138.508 106.817 138.112 107.357 137.824 108.077C137.548 108.797 137.41 109.691 137.41 110.759C137.41 111.827 137.548 112.721 137.824 113.441C138.112 114.161 138.508 114.701 139.012 115.061C139.516 115.421 140.098 115.601 140.758 115.601Z" fill="#565981"/>
<path d="M152.764 117.203C151.78 117.203 150.898 116.951 150.118 116.447C149.35 115.943 148.738 115.211 148.282 114.251C147.838 113.291 147.616 112.127 147.616 110.759C147.616 109.391 147.838 108.227 148.282 107.267C148.738 106.307 149.35 105.575 150.118 105.071C150.898 104.567 151.78 104.315 152.764 104.315C153.736 104.315 154.612 104.567 155.392 105.071C156.172 105.575 156.784 106.307 157.228 107.267C157.672 108.227 157.894 109.391 157.894 110.759C157.894 112.127 157.672 113.291 157.228 114.251C156.784 115.211 156.172 115.943 155.392 116.447C154.612 116.951 153.736 117.203 152.764 117.203ZM152.764 115.601C153.424 115.601 154 115.421 154.492 115.061C154.996 114.701 155.386 114.161 155.662 113.441C155.95 112.721 156.094 111.827 156.094 110.759C156.094 109.691 155.95 108.797 155.662 108.077C155.386 107.357 154.996 106.817 154.492 106.457C154 106.097 153.424 105.917 152.764 105.917C152.104 105.917 151.522 106.097 151.018 106.457C150.514 106.817 150.118 107.357 149.83 108.077C149.554 108.797 149.416 109.691 149.416 110.759C149.416 111.827 149.554 112.721 149.83 113.441C150.118 114.161 150.514 114.701 151.018 115.061C151.522 115.421 152.104 115.601 152.764 115.601Z" fill="#565981"/>
<path d="M160.599 117.167C160.263 117.167 159.975 117.053 159.735 116.825C159.495 116.585 159.375 116.285 159.375 115.925C159.375 115.565 159.495 115.271 159.735 115.043C159.975 114.815 160.263 114.701 160.599 114.701C160.923 114.701 161.199 114.815 161.427 115.043C161.667 115.271 161.787 115.565 161.787 115.925C161.787 116.285 161.667 116.585 161.427 116.825C161.199 117.053 160.923 117.167 160.599 117.167Z" fill="#565981"/>
<path d="M168.57 117.203C167.454 117.203 166.5 116.957 165.708 116.465C164.916 115.973 164.31 115.265 163.89 114.341C163.482 113.405 163.278 112.265 163.278 110.921C163.278 109.493 163.53 108.287 164.034 107.303C164.538 106.319 165.24 105.575 166.14 105.071C167.04 104.567 168.072 104.315 169.236 104.315C169.836 104.315 170.406 104.375 170.946 104.495C171.498 104.615 171.972 104.801 172.368 105.053L171.684 106.457C171.36 106.229 170.988 106.073 170.568 105.989C170.16 105.905 169.728 105.863 169.272 105.863C167.988 105.863 166.968 106.265 166.212 107.069C165.456 107.861 165.078 109.043 165.078 110.615C165.078 110.867 165.09 111.167 165.114 111.515C165.138 111.863 165.198 112.205 165.294 112.541L164.682 111.929C164.862 111.377 165.144 110.915 165.528 110.543C165.924 110.159 166.392 109.877 166.932 109.697C167.484 109.505 168.078 109.409 168.714 109.409C169.554 109.409 170.298 109.565 170.946 109.877C171.594 110.189 172.104 110.633 172.476 111.209C172.848 111.773 173.034 112.445 173.034 113.225C173.034 114.029 172.836 114.731 172.44 115.331C172.044 115.931 171.51 116.393 170.838 116.717C170.166 117.041 169.41 117.203 168.57 117.203ZM168.498 115.745C169.05 115.745 169.53 115.643 169.938 115.439C170.358 115.235 170.688 114.953 170.928 114.593C171.168 114.221 171.288 113.789 171.288 113.297C171.288 112.553 171.03 111.965 170.514 111.533C169.998 111.089 169.296 110.867 168.408 110.867C167.832 110.867 167.328 110.975 166.896 111.191C166.464 111.407 166.122 111.701 165.87 112.073C165.63 112.433 165.51 112.847 165.51 113.315C165.51 113.747 165.624 114.149 165.852 114.521C166.08 114.881 166.416 115.175 166.86 115.403C167.304 115.631 167.85 115.745 168.498 115.745Z" fill="#565981"/>
<path d="M176.442 117.059L181.788 105.215L182.256 106.025H174.768L175.668 105.143V108.275H173.94V104.459H183.444V105.683L178.35 117.059H176.442Z" fill="#565981"/>
<path d="M191.368 117.059V104.459H196.318C197.938 104.459 199.216 104.819 200.152 105.539C201.088 106.247 201.556 107.285 201.556 108.653C201.556 110.021 201.088 111.065 200.152 111.785C199.216 112.505 197.938 112.865 196.318 112.865H192.376L193.186 112.019V117.059H191.368ZM193.186 112.199L192.376 111.371H196.318C197.422 111.371 198.268 111.137 198.856 110.669C199.444 110.201 199.738 109.535 199.738 108.671C199.738 107.819 199.444 107.165 198.856 106.709C198.268 106.253 197.422 106.025 196.318 106.025H192.376L193.186 105.125V112.199ZM189.532 114.953V113.927H197.182V114.953H189.532Z" fill="#565981"/>
<path d="M59.2809 110.17C59.2809 117.965 52.9616 124.285 45.1664 124.285C37.3712 124.285 31.0519 117.965 31.0519 110.17C31.0519 102.375 37.3712 96.0557 45.1664 96.0557C52.9616 96.0557 59.2809 102.375 59.2809 110.17Z" fill="#5EC05C"/>
<path d="M48.3122 102.642H42.0206C39.6043 102.642 37.6386 104.608 37.6386 107.024V113.316C37.6386 115.732 39.6043 117.698 42.0206 117.698H48.3122C50.7285 117.698 52.6942 115.732 52.6942 113.316V107.025C52.6942 104.609 50.7285 102.642 48.3122 102.642ZM48.3122 116.863H42.0206C40.0658 116.863 38.4747 115.273 38.4747 113.317V107.025C38.4747 105.07 40.0658 103.479 42.0206 103.479H48.3122C50.2678 103.479 51.8581 105.07 51.8581 107.025V107.442H49.7762C48.2913 107.442 47.0823 108.65 47.0823 110.206C47.0823 111.692 48.2905 112.9 49.7762 112.9H51.8581V113.317C51.8581 115.272 50.2678 116.863 48.3122 116.863ZM51.838 108.278V112.064H49.7762C48.752 112.064 47.9184 111.23 47.9184 110.136C47.9184 109.112 48.752 108.278 49.7762 108.278H51.838Z" fill="white"/>
<path d="M45.6366 105.976H40.9344C40.7037 105.976 40.5164 106.163 40.5164 106.394C40.5164 106.625 40.7037 106.812 40.9344 106.812H45.6366C45.8674 106.812 46.0547 106.625 46.0547 106.394C46.0547 106.163 45.8674 105.976 45.6366 105.976Z" fill="white"/>
<path d="M49.0345 110.17C49.0345 110.522 49.3196 110.807 49.6716 110.807C50.0236 110.807 50.3087 110.522 50.3087 110.17C50.3087 109.818 50.0236 109.533 49.6716 109.533C49.3196 109.533 49.0345 109.818 49.0345 110.17Z" fill="white"/>
<path d="M0 96.9965C0 88.1619 7.16187 81 15.9965 81V192.975C7.16187 192.975 0 185.814 0 176.979V96.9965Z" fill="#5EC05C"/>
<defs>
<linearGradient id="paint0_linear_1_2020" x1="337.269" y1="160.458" x2="379.835" y2="160.458" gradientUnits="userSpaceOnUse">
<stop stop-color="#F2B705"/>
<stop offset="0.5" stop-color="#ECB307"/>
<stop offset="1" stop-color="#E9B005"/>
</linearGradient>
<linearGradient id="paint1_linear_1_2020" x1="297.507" y1="125.893" x2="364.386" y2="164.44" gradientUnits="userSpaceOnUse">
<stop stop-color="#E4A827"/>
<stop offset="1" stop-color="#F2B705"/>
</linearGradient>
<clipPath id="clip0_1_2020">
<rect x="167.441" y="17.8783" width="385.798" height="494.95" rx="10" fill="white"/>
</clipPath>
<clipPath id="clip1_1_2020">
<rect x="520.924" y="282.291" width="137.382" height="176.902" rx="10" transform="rotate(15 520.924 282.291)" fill="white"/>
</clipPath>
</defs>
</svg>
