<svg width="40" height="40" viewBox="0 0 40 40" fill="none" xmlns="http://www.w3.org/2000/svg">
<path d="M0 8.00012C0 3.58184 3.58172 0.00012207 8 0.00012207H32C36.4183 0.00012207 40 3.58184 40 8.00012V32.0001C40 36.4184 36.4183 40.0001 32 40.0001H8C3.58172 40.0001 0 36.4184 0 32.0001V8.00012Z" fill="#616BE8"/>
<path fill-rule="evenodd" clip-rule="evenodd" d="M11.4292 16.6017C11.4292 12.419 15.2846 9.00003 20.0012 9.00003C24.7166 9.00003 28.5732 12.42 28.5732 16.6017V18.1959C29.9783 18.6017 31 19.7765 31 21.154V23.3972V23.3972C31.0012 27.58 27.1445 31 22.428 31H17.5732C12.8566 31 9 27.58 9 23.3973V21.154C9 19.7757 10.0229 18.6004 11.4292 18.1952V16.6017ZM27.2675 18.0422V16.6017C27.2675 13.0595 23.9955 10.1579 20.0012 10.1579C16.0057 10.1579 12.7349 13.0584 12.7349 16.6017V18.0422H27.2675ZM12.5067 19.2022C11.298 19.2022 10.3057 20.0822 10.3057 21.154V23.3973C10.3057 26.9405 13.5777 29.8421 17.5732 29.8421H22.428C26.4236 29.8421 29.6954 26.9406 29.6943 23.3975V21.154C29.6943 20.0822 28.702 19.2022 27.4933 19.2022H12.5067ZM17.3114 23.1852C17.3114 21.921 18.5974 21.0206 20 21.0206C21.4029 21.0206 22.6886 21.9223 22.6886 23.1852C22.6886 23.8636 22.3048 24.4429 21.7449 24.8276V26.2505C21.7449 27.1059 20.9087 27.7215 19.9988 27.7215C19.0884 27.7215 18.2528 27.1044 18.2528 26.2505V24.8269C17.6948 24.4423 17.3114 23.8632 17.3114 23.1852ZM20 22.1785C19.154 22.1785 18.6172 22.6972 18.6172 23.1852C18.6172 23.5017 18.8294 23.8158 19.2261 24.0141L19.5585 24.1802V26.2505C19.5585 26.3767 19.706 26.5636 19.9988 26.5636C20.2922 26.5636 20.4392 26.3774 20.4392 26.2505V24.1795L20.7725 24.0136C21.1711 23.8153 21.3828 23.5014 21.3828 23.1852C21.3828 22.698 20.8457 22.1785 20 22.1785Z" fill="white"/>
</svg>
