<svg width="40" height="40" viewBox="0 0 40 40" fill="none" xmlns="http://www.w3.org/2000/svg">
<path d="M0 8C0 3.58172 3.58172 0 8 0H32C36.4183 0 40 3.58172 40 8V32C40 36.4183 36.4183 40 32 40H8C3.58172 40 0 36.4183 0 32V8Z" fill="#616BE8"/>
<path fill-rule="evenodd" clip-rule="evenodd" d="M20 29.1111C24.2401 29.1111 27.6774 25.7284 27.6774 21.5556C27.6774 17.3827 24.2401 14 20 14C15.7599 14 12.3226 17.3827 12.3226 21.5556C12.3226 25.7284 15.7599 29.1111 20 29.1111ZM20 30C24.739 30 28.5806 26.2193 28.5806 21.5556C28.5806 16.8918 24.739 13.1111 20 13.1111C15.261 13.1111 11.4194 16.8918 11.4194 21.5556C11.4194 26.2193 15.261 30 20 30Z" fill="white"/>
<path fill-rule="evenodd" clip-rule="evenodd" d="M20.2901 25.6662C21.0892 25.9377 21.9 25.532 22.1423 24.8414C22.3847 24.1508 22.001 23.3391 21.202 23.0675C20.4029 22.796 19.5921 23.2017 19.3497 23.8923C19.1074 24.5829 19.4911 25.3946 20.2901 25.6662ZM19.9953 26.5064C21.238 26.9287 22.5815 26.3131 22.9961 25.1315C23.4107 23.9499 22.7395 22.6496 21.4968 22.2273C20.2541 21.805 18.9106 22.4206 18.496 23.6022C18.0814 24.7838 18.7526 26.0841 19.9953 26.5064Z" fill="white"/>
<path fill-rule="evenodd" clip-rule="evenodd" d="M32.1936 19.3333H31.2903C30.7915 19.3333 30.3871 19.7313 30.3871 20.2222V22.8889C30.3871 23.3798 30.7915 23.7778 31.2903 23.7778H32.1936C32.6924 23.7778 33.0968 23.3798 33.0968 22.8889V20.2222C33.0968 19.7313 32.6924 19.3333 32.1936 19.3333ZM31.2903 18.4444C30.2926 18.4444 29.4839 19.2404 29.4839 20.2222V22.8889C29.4839 23.8707 30.2926 24.6667 31.2903 24.6667H32.1936C33.1912 24.6667 34 23.8707 34 22.8889V20.2222C34 19.2404 33.1912 18.4444 32.1936 18.4444H31.2903Z" fill="white"/>
<path fill-rule="evenodd" clip-rule="evenodd" d="M8.70968 19.3333H7.80645C7.30761 19.3333 6.90323 19.7313 6.90323 20.2222V22.8889C6.90323 23.3798 7.30761 23.7778 7.80645 23.7778H8.70968C9.20851 23.7778 9.6129 23.3798 9.6129 22.8889V20.2222C9.6129 19.7313 9.20851 19.3333 8.70968 19.3333ZM7.80645 18.4444C6.80878 18.4444 6 19.2404 6 20.2222V22.8889C6 23.8707 6.80878 24.6667 7.80645 24.6667H8.70968C9.70735 24.6667 10.5161 23.8707 10.5161 22.8889V20.2222C10.5161 19.2404 9.70735 18.4444 8.70968 18.4444H7.80645Z" fill="white"/>
<path fill-rule="evenodd" clip-rule="evenodd" d="M9.60305 18.9808C9.60305 18.9808 9.60312 18.9804 9.16119 18.8889C8.71927 18.7973 8.71938 18.7968 8.71938 18.7968L8.71997 18.7941L8.72137 18.7877L8.72629 18.7661C8.73054 18.7477 8.73676 18.7215 8.74511 18.688C8.76181 18.6211 8.78706 18.525 8.82222 18.4039C8.8925 18.1618 9.00255 17.8192 9.16326 17.4094C9.48422 16.591 10.0099 15.4982 10.8299 14.403C12.4783 12.2014 15.3133 10 19.9999 10C24.6865 10 27.5215 12.2014 29.1699 14.403C29.9899 15.4982 30.5156 16.591 30.8365 17.4094C30.9973 17.8192 31.1073 18.1618 31.1776 18.4039C31.2127 18.525 31.238 18.6211 31.2547 18.688C31.263 18.7215 31.2693 18.7477 31.2735 18.7661L31.2784 18.7877L31.2798 18.7941L31.2803 18.7961C31.2803 18.7961 31.2805 18.7973 30.8386 18.8889C30.3967 18.9804 30.3968 18.9808 30.3968 18.9808L30.3961 18.9778L30.3928 18.9633C30.3897 18.9497 30.3846 18.9285 30.3775 18.9001C30.3634 18.8433 30.341 18.7579 30.3091 18.6481C30.2453 18.4284 30.1437 18.1114 29.9939 17.7295C29.6939 16.9645 29.2035 15.9463 28.4428 14.9303C26.9299 12.9097 24.3456 10.8889 19.9999 10.8889C15.6542 10.8889 13.0699 12.9097 11.557 14.9303C10.7964 15.9463 10.3059 16.9645 10.0059 17.7295C9.85613 18.1114 9.75448 18.4284 9.69069 18.6481C9.65881 18.7579 9.63644 18.8433 9.62226 18.9001C9.61518 18.9285 9.61015 18.9497 9.60701 18.9633L9.60371 18.9778L9.60305 18.9808Z" fill="white"/>
<path fill-rule="evenodd" clip-rule="evenodd" d="M30.4752 25.3528C29.8505 25.7584 29.0072 26.2388 28.2404 26.4308C27.0801 26.7213 25.6271 26.4699 24.5233 26.1803C23.9598 26.0324 23.4641 25.8681 23.1094 25.7408C22.9318 25.6771 22.7889 25.6224 22.6897 25.5834C22.6401 25.5639 22.6014 25.5483 22.5747 25.5374L22.5438 25.5247L22.5354 25.5212L22.5319 25.5197C22.5319 25.5197 22.5318 25.5197 22.7097 25.1112C22.8877 24.7027 22.8876 24.7027 22.8876 24.7027L22.889 24.7032L22.895 24.7057L22.9208 24.7164C22.9441 24.7259 22.9792 24.74 23.0249 24.758C23.1165 24.7941 23.2508 24.8454 23.4188 24.9057C23.7553 25.0265 24.2247 25.182 24.756 25.3214C25.8421 25.6064 27.0988 25.7994 28.0178 25.5693C28.6291 25.4163 29.3664 25.0078 29.9778 24.6108C30.2773 24.4164 30.5355 24.232 30.7187 24.0964C30.8102 24.0287 30.8826 23.9733 30.9318 23.9353C30.9563 23.9162 30.9751 23.9016 30.9874 23.8918L31.0011 23.881L31.0042 23.8785L31.2904 24.2223C31.576 24.5666 31.5759 24.5667 31.5759 24.5667L31.574 24.5682L31.5694 24.5719L31.5526 24.5851C31.5382 24.5965 31.5173 24.613 31.4904 24.6338C31.4366 24.6754 31.359 24.7347 31.2617 24.8067C31.0675 24.9505 30.7938 25.1459 30.4752 25.3528Z" fill="white"/>
</svg>
