<svg width="83" height="78" viewBox="0 0 83 78" fill="none" xmlns="http://www.w3.org/2000/svg">
<rect width="83" height="78" fill="#F5F5F5"/>
<g clip-path="url(#clip0_0_1)">
<rect width="1920" height="4991" transform="translate(-1061 -1125)" fill="#F9F9FF"/>
<path d="M-1062.6 -223C-1062.6 -223 103.1 -221.976 859 -221C859 3.5 859 339 859 339L-1061 340.763L-1062.6 -223Z" fill="white"/>
<path d="M-197.64 15.0193C-186.295 -6.55981 -194.535 -33.2166 -216.046 -44.5252C-237.557 -55.8339 -264.187 -47.5092 -275.532 -25.9301C-286.876 -4.35094 -278.636 22.3058 -257.125 33.6145C-235.615 44.9231 -208.984 36.5985 -197.64 15.0193ZM-266.118 -20.9812C-257.517 -37.3424 -237.32 -43.656 -221.01 -35.0818C-204.701 -26.5077 -198.452 -6.29074 -207.053 10.0705C-215.655 26.4317 -235.852 32.7451 -252.161 24.171C-268.47 15.5969 -274.72 -4.62001 -266.118 -20.9812Z" fill="#F9F9FF"/>
<path d="M-293.284 67.6723C-291.036 63.3956 -292.623 58.1362 -296.829 55.925C-301.035 53.7137 -306.267 55.3882 -308.515 59.6649C-310.764 63.9416 -309.177 69.2009 -304.971 71.4121C-300.765 73.6234 -295.532 71.949 -293.284 67.6723Z" fill="#F9F9FF"/>
<path d="M-687.053 -64.713C-709.669 -55.6099 -720.645 -29.9583 -711.571 -7.41386C-702.497 15.1306 -676.81 26.0253 -654.194 16.9222C-631.578 7.81911 -620.602 -17.8324 -629.676 -40.3769C-638.75 -62.9214 -664.436 -73.8162 -687.053 -64.713ZM-658.165 7.05637C-675.313 13.9583 -694.794 5.69556 -701.674 -11.3976C-708.554 -28.4907 -700.229 -47.9452 -683.082 -54.8472C-665.934 -61.7491 -646.453 -53.4863 -639.573 -36.3932C-632.693 -19.3001 -641.018 0.154434 -658.165 7.05637Z" fill="#F9F9FF"/>
<path d="M-580.069 -42.9273C-584.551 -41.1232 -586.746 -36.0872 -584.972 -31.679C-583.198 -27.2709 -578.126 -25.1599 -573.643 -26.964C-569.161 -28.7681 -566.966 -33.8041 -568.74 -38.2123C-570.515 -42.6204 -575.587 -44.7314 -580.069 -42.9273Z" fill="#F9F9FF"/>
<path d="M13.0878 198.169C37.0345 202.741 60.1392 187.1 64.6974 163.229C69.2556 139.358 53.5404 116.303 29.5936 111.73C5.64685 107.158 -17.4575 122.799 -22.0157 146.67C-26.574 170.541 -10.859 193.596 13.0878 198.169ZM27.5989 122.177C45.7552 125.644 57.6738 143.129 54.2178 161.228C50.7617 179.326 33.239 191.189 15.0826 187.722C-3.07373 184.255 -14.9923 166.77 -11.5363 148.672C-8.0802 130.573 9.4425 118.71 27.5989 122.177Z" fill="#F9F9FF"/>
<path d="M-65.1232 121.99C-60.3773 122.896 -55.8075 119.847 -54.9162 115.18C-54.0249 110.512 -57.1497 105.994 -61.8956 105.087C-66.6415 104.181 -71.2114 107.23 -72.1027 111.898C-72.994 116.565 -69.8691 121.084 -65.1232 121.99Z" fill="#F9F9FF"/>
<path d="M255.402 170.165C231.052 168.969 210.349 187.674 209.158 211.947C207.966 236.22 226.737 256.863 251.087 258.059C275.437 259.254 296.14 240.549 297.331 216.276C298.523 192.003 279.752 171.36 255.402 170.165ZM251.608 247.436C233.146 246.53 218.91 230.874 219.814 212.47C220.717 194.067 236.419 179.88 254.881 180.787C273.343 181.693 287.579 197.349 286.675 215.753C285.772 234.157 270.071 248.343 251.608 247.436Z" fill="#F9F9FF"/>
<path d="M343.454 234.717C338.628 234.48 334.527 238.136 334.294 242.882C334.061 247.628 337.784 251.667 342.61 251.904C347.436 252.141 351.537 248.486 351.77 243.74C352.003 238.994 348.28 234.954 343.454 234.717Z" fill="#F9F9FF"/>
<path d="M313.169 -158.047C319.24 -160.04 320.563 -164.725 330.318 -167.636C341.891 -171.095 345.746 -166.218 353.641 -169.006C366.421 -173.52 362.957 -188.65 376.965 -199.828C387.666 -208.363 405.947 -212.507 415.38 -204.623C423.968 -197.445 423.742 -181.513 419.496 -170.376C412.979 -153.266 398.511 -151.423 361.873 -125.17C342.316 -111.156 332.452 -103.95 328.26 -94.3472C319.109 -73.3742 326.23 -45.0175 343.352 -27.9077C357.016 -14.2499 373.645 -11.1608 383.825 -9.41422C437.88 -0.13324 484.314 -37.6476 497.697 -48.456C511.506 -59.6137 528.724 -73.5181 540.914 -97.7719C554.785 -125.368 549.852 -141.875 566.295 -153.937C583.809 -166.78 600.512 -156.204 612.942 -170.376C621.366 -179.979 581.732 -199.642 635.5 -203.952C686 -208 851.5 -201.952 859 -221C730.667 -221 374.833 -221.717 246.5 -221.717C248.935 -215.566 254.462 -202.192 261.034 -192.979C277.847 -169.417 302.845 -154.656 313.169 -158.047Z" fill="#F9F9FF"/>
<path fill-rule="evenodd" clip-rule="evenodd" d="M209.722 -70C210.902 -70 211.949 -69.2467 212.322 -68.1301L230.278 -14.3825L237.956 -37.3648C238.329 -38.4814 239.376 -39.2347 240.556 -39.2347H254.259C255.773 -39.2347 257 -38.0103 257 -36.5C257 -34.9896 255.773 -33.7653 254.259 -33.7653H242.531L232.878 -4.86989C232.505 -3.7532 231.458 -2.99997 230.278 -2.99997C229.098 -2.99997 228.051 -3.7532 227.678 -4.86989L209.722 -58.6174L202.045 -35.6352C201.672 -34.5185 200.624 -33.7653 199.444 -33.7653H185.741C184.227 -33.7653 183 -34.9896 183 -36.5C183 -38.0103 184.227 -39.2347 185.741 -39.2347H197.469L207.122 -68.1301C207.495 -69.2467 208.543 -70 209.722 -70Z" fill="#F9F9FF"/>
<path fill-rule="evenodd" clip-rule="evenodd" d="M-358.278 175C-357.098 175 -356.051 175.753 -355.678 176.87L-337.722 230.618L-330.044 207.635C-329.671 206.519 -328.624 205.765 -327.444 205.765H-313.741C-312.227 205.765 -311 206.99 -311 208.5C-311 210.01 -312.227 211.235 -313.741 211.235H-325.469L-335.122 240.13C-335.495 241.247 -336.542 242 -337.722 242C-338.902 242 -339.949 241.247 -340.322 240.13L-358.278 186.383L-365.955 209.365C-366.328 210.482 -367.376 211.235 -368.555 211.235H-382.259C-383.773 211.235 -385 210.01 -385 208.5C-385 206.99 -383.773 205.765 -382.259 205.765H-370.531L-360.878 176.87C-360.505 175.753 -359.457 175 -358.278 175Z" fill="#F9F9FF"/>
<path d="M351.453 108.449H365.614C366.735 108.449 367.649 107.628 367.649 106.622C367.649 105.614 366.735 104.792 365.614 104.792H351.453C350.333 104.792 349.418 105.612 349.418 106.622C349.418 107.628 350.333 108.449 351.453 108.449Z" fill="#F9F9FF"/>
<path d="M372.494 119.148H351.453C350.333 119.153 349.418 119.968 349.418 120.979C349.418 121.99 350.333 122.805 351.453 122.805H372.494C373.615 122.805 374.529 121.985 374.529 120.979C374.527 119.973 373.612 119.148 372.494 119.148Z" fill="#F9F9FF"/>
<path d="M390.961 102.596C390.904 102.126 390.778 101.4 390.459 100.57C389.712 98.618 388.443 97.4333 387.76 96.8398C383.861 93.4436 379.961 90.0475 376.062 86.6514C375.373 86.0487 374.172 85.2077 372.409 84.6142C371.018 84.1445 369.804 84.0414 369.05 84.0207C363.368 84.0139 357.689 84.007 352.008 84.0001C343.18 84.0001 336 91.1796 336 100.007V122.993C336 131.821 343.18 139 352.008 139H374.992C383.82 139 391 131.816 391 122.993C390.989 116.197 390.975 109.398 390.961 102.596ZM371.204 87.426C371.302 87.4558 371.406 87.4902 371.513 87.5268C372.311 87.8064 373.234 88.3312 373.894 88.8239C374.935 89.5984 379.715 93.5628 386.123 99.1497C386.366 99.4155 386.618 99.7295 386.861 100.096C387.342 100.823 387.601 101.503 387.787 102.108H384.157C377.002 102.108 371.204 96.3081 371.204 89.1561V87.426ZM387.95 123C387.95 130.141 382.14 135.952 374.994 135.952H352.01C344.869 135.952 339.057 130.143 339.057 123V100.014C339.057 92.873 344.869 87.0616 352.01 87.0616C357.389 87.0594 362.77 87.057 368.149 87.0547V89.1538C368.149 97.9947 375.315 105.16 384.157 105.16H387.961C387.957 111.107 387.954 117.054 387.95 123Z" fill="#F9F9FF"/>
<path d="M-433.547 -143.551H-419.386C-418.265 -143.551 -417.351 -144.372 -417.351 -145.378C-417.351 -146.386 -418.265 -147.209 -419.386 -147.209H-433.547C-434.667 -147.209 -435.582 -146.388 -435.582 -145.378C-435.582 -144.372 -434.667 -143.551 -433.547 -143.551Z" fill="#F9F9FF"/>
<path d="M-412.506 -132.852H-433.547C-434.667 -132.848 -435.582 -132.032 -435.582 -131.021C-435.582 -130.011 -434.667 -129.195 -433.547 -129.195H-412.506C-411.385 -129.195 -410.471 -130.015 -410.471 -131.021C-410.473 -132.027 -411.388 -132.852 -412.506 -132.852Z" fill="#F9F9FF"/>
<path d="M-394.039 -149.404C-394.096 -149.874 -394.222 -150.6 -394.541 -151.43C-395.288 -153.382 -396.558 -154.567 -397.24 -155.16C-401.139 -158.556 -405.039 -161.953 -408.938 -165.349C-409.627 -165.951 -410.828 -166.792 -412.591 -167.386C-413.982 -167.856 -415.196 -167.959 -415.95 -167.979C-421.632 -167.986 -427.311 -167.993 -432.992 -168C-441.82 -168 -449 -160.82 -449 -151.993V-129.007C-449 -120.179 -441.82 -113 -432.992 -113H-410.008C-401.18 -113 -394 -120.184 -394 -129.007C-394.011 -135.803 -394.025 -142.603 -394.039 -149.404ZM-413.796 -164.574C-413.698 -164.544 -413.594 -164.51 -413.487 -164.473C-412.689 -164.194 -411.766 -163.669 -411.106 -163.176C-410.065 -162.402 -405.285 -158.437 -398.877 -152.85C-398.634 -152.585 -398.382 -152.271 -398.139 -151.904C-397.658 -151.178 -397.399 -150.497 -397.213 -149.892H-400.843C-407.998 -149.892 -413.796 -155.692 -413.796 -162.844V-164.574ZM-397.05 -129C-397.05 -121.859 -402.86 -116.048 -410.006 -116.048H-432.99C-440.131 -116.048 -445.943 -121.857 -445.943 -129V-151.986C-445.943 -159.127 -440.131 -164.938 -432.99 -164.938C-427.611 -164.941 -422.23 -164.943 -416.851 -164.945V-162.846C-416.851 -154.005 -409.685 -146.84 -400.843 -146.84H-397.039C-397.043 -140.893 -397.046 -134.946 -397.05 -129Z" fill="#F9F9FF"/>
<path fill-rule="evenodd" clip-rule="evenodd" d="M-66.4937 -106.389C-65.8719 -104.964 -66.5229 -103.305 -67.9476 -102.683C-72.7937 -100.568 -77.048 -97.2971 -80.3384 -93.1574C-83.6289 -89.0176 -85.8555 -84.1347 -86.8234 -78.9353C-87.7914 -73.736 -87.4713 -68.3787 -85.8911 -63.3317C-84.3109 -58.2847 -81.5187 -53.7018 -77.7587 -49.9835C-73.9987 -46.2653 -69.3853 -43.5249 -64.3218 -42.0021C-59.2584 -40.4792 -53.8991 -40.2202 -48.7125 -41.2477C-43.5258 -42.2753 -38.6699 -44.558 -34.569 -47.8963C-30.4681 -51.2347 -27.2471 -55.5271 -25.1879 -60.3982C-24.5824 -61.8303 -22.9309 -62.5004 -21.4991 -61.8948C-20.0674 -61.2892 -19.3976 -59.6373 -20.0031 -58.2052C-22.4204 -52.4869 -26.2014 -47.448 -31.0155 -43.5291C-35.8296 -39.6101 -41.5301 -36.9304 -47.6187 -35.7242C-53.7073 -34.518 -59.9988 -34.822 -65.9428 -36.6097C-71.8868 -38.3974 -77.3026 -41.6143 -81.7165 -45.9793C-86.1304 -50.3442 -89.4081 -55.7242 -91.2632 -61.6489C-93.1182 -67.5736 -93.494 -73.8626 -92.3577 -79.9662C-91.2214 -86.0697 -88.6076 -91.8019 -84.7449 -96.6616C-80.8821 -101.521 -75.888 -105.361 -70.1992 -107.844C-68.7744 -108.466 -67.1154 -107.814 -66.4937 -106.389Z" fill="#F9F9FF"/>
<path fill-rule="evenodd" clip-rule="evenodd" d="M-56.9888 -110.175C-56.461 -110.703 -55.7451 -111 -54.9985 -111C-50.0085 -111 -45.0673 -110.017 -40.4571 -108.107C-35.8469 -106.197 -31.658 -103.397 -28.1295 -99.8677C-24.6011 -96.3383 -21.802 -92.1483 -19.8923 -87.537C-17.9827 -82.9256 -16.9999 -77.9832 -16.9999 -72.9919C-16.9999 -71.437 -18.26 -70.1765 -19.8146 -70.1765H-54.9985C-56.553 -70.1765 -57.8132 -71.437 -57.8132 -72.9919V-108.185C-57.8132 -108.931 -57.5167 -109.647 -56.9888 -110.175ZM-52.1838 -105.247V-75.8073H-22.752C-23.0388 -79.0942 -23.8267 -82.3237 -25.0933 -85.3821C-26.72 -89.3103 -29.1042 -92.8796 -32.11 -95.8861C-35.1157 -98.8926 -38.6842 -101.277 -42.6114 -102.905C-45.6691 -104.171 -48.8976 -104.96 -52.1838 -105.247Z" fill="#F9F9FF"/>
<path d="M-165 253.336C-171.668 253.336 -177.096 248.25 -177.096 242.001C-177.096 235.751 -171.668 230.665 -165 230.665C-158.331 230.665 -152.903 235.751 -152.903 242.001C-152.903 248.25 -158.331 253.336 -165 253.336ZM-165 234.322C-169.518 234.322 -173.194 237.766 -173.194 242.001C-173.194 246.235 -169.518 249.68 -165 249.68C-160.481 249.68 -156.805 246.235 -156.805 242.001C-156.805 237.766 -160.481 234.322 -165 234.322Z" fill="#F9F9FF"/>
<path d="M-163.31 278H-166.693C-172.137 278 -176.566 273.85 -176.566 268.752V266.822C-176.566 265.513 -177.287 264.335 -178.493 263.677C-179.707 263.011 -181.155 263.008 -182.368 263.651L-184.163 264.602C-186.454 265.816 -189.119 266.116 -191.659 265.454C-194.207 264.789 -196.322 263.245 -197.614 261.103L-199.276 258.338C-201.957 253.899 -200.279 248.246 -195.542 245.734C-194.278 245.064 -193.54 243.854 -193.567 242.497C-193.595 241.137 -194.379 239.952 -195.671 239.327C-200.501 236.987 -202.398 231.392 -199.897 226.861L-198.344 224.046C-197.134 221.859 -195.085 220.239 -192.564 219.49C-190.04 218.747 -187.367 218.952 -185.037 220.082L-182.235 221.442C-181.026 222.031 -179.601 221.987 -178.431 221.318C-177.26 220.652 -176.562 219.49 -176.562 218.206V215.251C-176.562 210.15 -172.133 206 -166.689 206H-163.306C-157.859 206 -153.434 210.15 -153.434 215.251V217.186C-153.434 218.495 -152.712 219.672 -151.506 220.331C-150.304 220.985 -148.856 221.003 -147.635 220.353L-145.84 219.402C-143.557 218.191 -140.888 217.888 -138.344 218.55C-135.796 219.212 -133.681 220.758 -132.389 222.905L-130.723 225.662C-128.042 230.101 -129.716 235.754 -134.457 238.267C-135.718 238.936 -136.459 240.146 -136.432 241.503C-136.404 242.859 -135.62 244.044 -134.332 244.669C-131.995 245.803 -130.27 247.726 -129.47 250.085C-128.67 252.444 -128.897 254.948 -130.102 257.139L-131.656 259.954C-132.865 262.145 -134.918 263.761 -137.435 264.511C-139.948 265.257 -142.621 265.052 -144.962 263.918L-147.76 262.562C-148.977 261.977 -150.402 262.017 -151.568 262.682C-152.739 263.348 -153.437 264.511 -153.437 265.794V268.752C-153.437 273.853 -157.862 278 -163.31 278ZM-180.448 259.512C-179.098 259.512 -177.748 259.848 -176.523 260.514C-174.103 261.838 -172.659 264.196 -172.659 266.822V268.752C-172.659 271.835 -169.983 274.343 -166.689 274.343H-163.306C-160.013 274.343 -157.336 271.831 -157.336 268.752V265.794C-157.336 263.227 -155.939 260.894 -153.597 259.559C-151.252 258.228 -148.4 258.133 -145.969 259.314L-143.167 260.671C-141.754 261.359 -140.139 261.483 -138.617 261.029C-137.091 260.576 -135.85 259.596 -135.121 258.28L-133.568 255.46C-132.834 254.14 -132.701 252.626 -133.185 251.197C-133.669 249.767 -134.715 248.604 -136.12 247.92C-138.703 246.666 -140.275 244.293 -140.33 241.572C-140.385 238.852 -138.906 236.424 -136.373 235.085C-133.509 233.568 -132.495 230.145 -134.118 227.465L-135.788 224.704C-136.565 223.41 -137.844 222.477 -139.39 222.075C-140.923 221.673 -142.543 221.852 -143.92 222.587L-145.715 223.538C-148.154 224.828 -151.057 224.814 -153.473 223.49C-155.892 222.166 -157.336 219.811 -157.336 217.186V215.251C-157.336 212.165 -160.016 209.657 -163.306 209.657H-166.693C-169.987 209.657 -172.663 212.165 -172.663 215.251V218.206C-172.663 220.777 -174.06 223.106 -176.406 224.444C-178.747 225.779 -181.599 225.87 -184.034 224.689L-186.832 223.329C-188.241 222.649 -189.856 222.521 -191.382 222.974C-192.904 223.431 -194.149 224.408 -194.878 225.728L-196.431 228.544C-197.945 231.282 -196.794 234.665 -193.872 236.084C-191.292 237.334 -189.72 239.707 -189.665 242.432C-189.611 245.152 -191.089 247.577 -193.618 248.919C-196.482 250.436 -197.497 253.859 -195.877 256.539L-194.211 259.3C-193.431 260.594 -192.151 261.527 -190.609 261.929C-189.072 262.328 -187.456 262.148 -186.075 261.413L-184.28 260.463C-183.078 259.83 -181.763 259.512 -180.448 259.512Z" fill="#F9F9FF"/>
<path d="M-772 -153.664C-778.669 -153.664 -784.096 -158.75 -784.096 -165C-784.096 -171.249 -778.669 -176.335 -772 -176.335C-765.331 -176.335 -759.903 -171.249 -759.903 -165C-759.903 -158.75 -765.331 -153.664 -772 -153.664ZM-772 -172.679C-776.518 -172.679 -780.194 -169.234 -780.194 -165C-780.194 -160.765 -776.518 -157.321 -772 -157.321C-767.481 -157.321 -763.805 -160.765 -763.805 -165C-763.805 -169.234 -767.481 -172.679 -772 -172.679Z" fill="#F9F9FF"/>
<path d="M-770.31 -129H-773.693C-779.137 -129 -783.566 -133.15 -783.566 -138.248V-140.178C-783.566 -141.488 -784.288 -142.665 -785.493 -143.323C-786.707 -143.989 -788.155 -143.992 -789.368 -143.349L-791.163 -142.398C-793.454 -141.184 -796.119 -140.884 -798.659 -141.546C-801.207 -142.212 -803.322 -143.755 -804.614 -145.897L-806.276 -148.662C-808.957 -153.101 -807.279 -158.754 -802.542 -161.267C-801.278 -161.936 -800.54 -163.146 -800.567 -164.503C-800.595 -165.863 -801.379 -167.048 -802.671 -167.673C-807.502 -170.013 -809.398 -175.608 -806.897 -180.139L-805.344 -182.954C-804.134 -185.141 -802.085 -186.761 -799.565 -187.511C-797.04 -188.253 -794.367 -188.048 -792.037 -186.918L-789.236 -185.558C-788.026 -184.969 -786.602 -185.013 -785.431 -185.682C-784.26 -186.348 -783.562 -187.511 -783.562 -188.794V-191.749C-783.562 -196.85 -779.133 -201 -773.689 -201H-770.306C-764.859 -201 -760.434 -196.85 -760.434 -191.749V-189.814C-760.434 -188.505 -759.712 -187.328 -758.506 -186.67C-757.304 -186.015 -755.856 -185.997 -754.635 -186.648L-752.84 -187.598C-750.557 -188.809 -747.888 -189.112 -745.344 -188.45C-742.796 -187.788 -740.681 -186.242 -739.389 -184.095L-737.723 -181.338C-735.042 -176.899 -736.716 -171.246 -741.457 -168.734C-742.718 -168.064 -743.459 -166.854 -743.432 -165.497C-743.405 -164.141 -742.62 -162.956 -741.333 -162.331C-738.995 -161.197 -737.27 -159.274 -736.471 -156.915C-735.671 -154.557 -735.897 -152.052 -737.103 -149.861L-738.656 -147.046C-739.865 -144.855 -741.918 -143.239 -744.435 -142.489C-746.948 -141.744 -749.621 -141.948 -751.962 -143.082L-754.76 -144.438C-755.977 -145.024 -757.402 -144.983 -758.568 -144.318C-759.739 -143.652 -760.438 -142.489 -760.438 -141.206V-138.248C-760.438 -133.147 -764.863 -129 -770.31 -129ZM-787.448 -147.488C-786.098 -147.488 -784.748 -147.152 -783.523 -146.486C-781.103 -145.163 -779.66 -142.804 -779.66 -140.178V-138.248C-779.66 -135.165 -776.983 -132.657 -773.689 -132.657H-770.306C-767.013 -132.657 -764.336 -135.169 -764.336 -138.248V-141.206C-764.336 -143.773 -762.939 -146.106 -760.598 -147.441C-758.252 -148.772 -755.4 -148.867 -752.969 -147.686L-750.167 -146.329C-748.755 -145.642 -747.139 -145.517 -745.617 -145.971C-744.091 -146.424 -742.851 -147.404 -742.121 -148.72L-740.568 -151.54C-739.834 -152.86 -739.702 -154.374 -740.185 -155.803C-740.669 -157.233 -741.715 -158.396 -743.12 -159.08C-745.703 -160.334 -747.276 -162.707 -747.33 -165.428C-747.385 -168.148 -745.906 -170.576 -743.373 -171.915C-740.509 -173.432 -739.495 -176.855 -741.118 -179.535L-742.788 -182.296C-743.565 -183.591 -744.845 -184.523 -746.39 -184.925C-747.923 -185.328 -749.543 -185.148 -750.92 -184.413L-752.715 -183.463C-755.154 -182.172 -758.057 -182.186 -760.473 -183.51C-762.892 -184.834 -764.336 -187.189 -764.336 -189.814V-191.749C-764.336 -194.835 -767.017 -197.343 -770.306 -197.343H-773.693C-776.987 -197.343 -779.664 -194.835 -779.664 -191.749V-188.794C-779.664 -186.223 -781.061 -183.894 -783.406 -182.556C-785.747 -181.221 -788.6 -181.13 -791.034 -182.311L-793.832 -183.671C-795.241 -184.351 -796.857 -184.479 -798.382 -184.026C-799.904 -183.569 -801.149 -182.592 -801.879 -181.272L-803.432 -178.457C-804.946 -175.718 -803.795 -172.335 -800.872 -170.917C-798.292 -169.666 -796.72 -167.293 -796.665 -164.569C-796.611 -161.848 -798.09 -159.424 -800.618 -158.082C-803.482 -156.564 -804.497 -153.141 -802.878 -150.461L-801.211 -147.7C-800.431 -146.406 -799.151 -145.473 -797.61 -145.071C-796.072 -144.673 -794.457 -144.852 -793.075 -145.587L-791.28 -146.537C-790.078 -147.17 -788.763 -147.488 -787.448 -147.488Z" fill="#F9F9FF"/>
<path d="M-457.14 271.922C-464.046 274.191 -465.552 279.526 -476.65 282.841C-489.815 286.78 -494.201 281.227 -503.184 284.401C-517.723 289.541 -513.782 306.771 -529.718 319.5C-541.893 329.219 -562.691 333.938 -573.421 324.96C-583.192 316.786 -582.935 298.644 -578.104 285.961C-570.69 266.477 -554.231 264.379 -512.549 234.482C-490.299 218.524 -479.077 210.318 -474.309 199.383C-463.898 175.5 -471.998 143.209 -491.478 123.725C-507.023 108.172 -525.941 104.654 -537.522 102.665C-599.019 92.0964 -651.845 134.816 -667.071 147.124C-682.781 159.83 -702.369 175.664 -716.237 203.283C-732.017 234.709 -726.406 253.506 -745.113 267.242C-765.037 281.866 -815.359 243.362 -829.5 259.5C-872 271.5 -854 309 -882.5 315C-885.973 319.555 -1058.6 339 -1061 340.763C-915 340.763 -529 339 -383 339C-385.77 331.996 -390.352 322.191 -397.828 311.701C-416.956 284.869 -445.394 268.061 -457.14 271.922Z" fill="#F9F9FF"/>
<path d="M-743.069 148.073C-747.551 149.877 -749.746 154.913 -747.972 159.321C-746.198 163.729 -741.126 165.84 -736.643 164.036C-732.161 162.232 -729.966 157.196 -731.74 152.788C-733.515 148.38 -738.587 146.269 -743.069 148.073Z" fill="#F9F9FF"/>
<g filter="url(#filter0_d_0_1)">
<rect x="9" y="5" width="65" height="60" fill="#F2B705"/>
</g>
<path fill-rule="evenodd" clip-rule="evenodd" d="M38.417 23.6376C38.6379 24.1438 38.4067 24.7332 37.9005 24.9541C36.1788 25.7054 34.6673 26.8671 33.4983 28.3375C32.3293 29.8079 31.5382 31.5422 31.1944 33.389C30.8505 35.2357 30.9642 37.1385 31.5256 38.9312C32.087 40.7238 33.079 42.3516 34.4148 43.6723C35.7507 44.993 37.3897 45.9663 39.1886 46.5072C40.9876 47.0481 42.8916 47.1401 44.7343 46.7751C46.577 46.4102 48.3022 45.5994 49.7591 44.4136C51.2161 43.2279 52.3604 41.7033 53.092 39.9731C53.3071 39.4645 53.8938 39.2265 54.4025 39.4416C54.9111 39.6567 55.1491 40.2434 54.934 40.7521C54.0752 42.7831 52.7319 44.5729 51.0216 45.9648C49.3113 47.3568 47.286 48.3086 45.1228 48.737C42.9597 49.1654 40.7245 49.0575 38.6127 48.4225C36.501 47.7875 34.5769 46.6449 33.0087 45.0945C31.4406 43.5442 30.276 41.6333 29.617 39.5289C28.958 37.4245 28.8245 35.1907 29.2282 33.0228C29.6319 30.8549 30.5605 28.8189 31.9328 27.0928C33.3051 25.3667 35.0794 24.003 37.1005 23.1211C37.6067 22.9002 38.1961 23.1315 38.417 23.6376Z" fill="white"/>
<path fill-rule="evenodd" clip-rule="evenodd" d="M41.7939 22.2929C41.9814 22.1054 42.2358 22 42.501 22C44.2738 22 46.0293 22.3492 47.6672 23.0276C49.3051 23.7061 50.7933 24.7005 52.0469 25.9541C53.3005 27.2076 54.2949 28.6959 54.9734 30.3338C55.6518 31.9717 56.001 33.7272 56.001 35.5C56.001 36.0523 55.5533 36.5 55.001 36.5H42.501C41.9487 36.5 41.501 36.0523 41.501 35.5V23C41.501 22.7348 41.6063 22.4804 41.7939 22.2929ZM43.501 24.0436V34.5H53.9574C53.8555 33.3325 53.5756 32.1855 53.1256 31.0991C52.5477 29.7039 51.7006 28.4361 50.6327 27.3683C49.5648 26.3004 48.2971 25.4533 46.9018 24.8754C45.8155 24.4254 44.6685 24.1455 43.501 24.0436Z" fill="white"/>
</g>
<defs>
<filter id="filter0_d_0_1" x="0" y="0" width="83" height="78" filterUnits="userSpaceOnUse" color-interpolation-filters="sRGB">
<feFlood flood-opacity="0" result="BackgroundImageFix"/>
<feColorMatrix in="SourceAlpha" type="matrix" values="0 0 0 0 0 0 0 0 0 0 0 0 0 0 0 0 0 0 127 0" result="hardAlpha"/>
<feOffset dy="4"/>
<feGaussianBlur stdDeviation="4.5"/>
<feComposite in2="hardAlpha" operator="out"/>
<feColorMatrix type="matrix" values="0 0 0 0 0 0 0 0 0 0 0 0 0 0 0 0 0 0 0.05 0"/>
<feBlend mode="normal" in2="BackgroundImageFix" result="effect1_dropShadow_0_1"/>
<feBlend mode="normal" in="SourceGraphic" in2="effect1_dropShadow_0_1" result="shape"/>
</filter>
<clipPath id="clip0_0_1">
<rect width="1920" height="4991" fill="white" transform="translate(-1061 -1125)"/>
</clipPath>
</defs>
</svg>
