<svg width="83" height="78" viewBox="0 0 83 78" fill="none" xmlns="http://www.w3.org/2000/svg">
<g filter="url(#filter0_d_0_2262)">
<rect x="9" y="5" width="65" height="60" rx="8" fill="#F2B705"/>
</g>
<path d="M36.0242 34.1131H42.461C42.9704 34.1131 43.386 33.7402 43.386 33.2829C43.386 32.8246 42.9704 32.4506 42.461 32.4506H36.0242C35.5148 32.4506 35.0992 32.8235 35.0992 33.2829C35.0992 33.7402 35.5148 34.1131 36.0242 34.1131Z" fill="white"/>
<path d="M45.5882 38.9763H36.0242C35.5148 38.9784 35.0992 39.3492 35.0992 39.8086C35.0992 40.2679 35.5148 40.6387 36.0242 40.6387H45.5882C46.0976 40.6387 46.5132 40.2658 46.5132 39.8086C46.5122 39.3513 46.0965 38.9763 45.5882 38.9763Z" fill="white"/>
<path d="M53.9823 31.4528C53.9562 31.2392 53.899 30.909 53.7542 30.532C53.4146 29.6445 52.8375 29.106 52.527 28.8362C50.7551 27.2925 48.9821 25.7488 47.2101 24.2052C46.8966 23.9312 46.3507 23.5489 45.5496 23.2792C44.9173 23.0656 44.3652 23.0187 44.0225 23.0094C41.4401 23.0062 38.8587 23.0031 36.2763 23C32.2637 23 29 26.2634 29 30.2757V40.7243C29 44.7366 32.2637 48 36.2763 48H46.7237C50.7363 48 54 44.7345 54 40.7243C53.9948 37.6348 53.9885 34.5443 53.9823 31.4528ZM45.0017 24.5572C45.0465 24.5708 45.0934 24.5864 45.1423 24.6031C45.5049 24.7301 45.9247 24.9687 46.2247 25.1926C46.6976 25.5447 48.8706 27.3467 51.7832 29.8862C51.8937 30.007 52.0082 30.1497 52.1187 30.3164C52.3374 30.6466 52.4551 30.9559 52.5395 31.2309H50.8895C47.6372 31.2309 45.0017 28.5946 45.0017 25.3437V24.5572ZM52.6135 40.7274C52.6135 43.9731 49.9727 46.6146 46.7247 46.6146H36.2774C33.0314 46.6146 30.3896 43.9741 30.3896 40.7274V30.2789C30.3896 27.0332 33.0314 24.3916 36.2774 24.3916C38.7223 24.3906 41.1682 24.3895 43.6131 24.3885V25.3426C43.6131 29.3612 46.8705 32.6183 50.8895 32.6183H52.6187C52.6166 35.3214 52.6156 38.0244 52.6135 40.7274Z" fill="white"/>
<defs>
<filter id="filter0_d_0_2262" x="0" y="0" width="83" height="78" filterUnits="userSpaceOnUse" color-interpolation-filters="sRGB">
<feFlood flood-opacity="0" result="BackgroundImageFix"/>
<feColorMatrix in="SourceAlpha" type="matrix" values="0 0 0 0 0 0 0 0 0 0 0 0 0 0 0 0 0 0 127 0" result="hardAlpha"/>
<feOffset dy="4"/>
<feGaussianBlur stdDeviation="4.5"/>
<feComposite in2="hardAlpha" operator="out"/>
<feColorMatrix type="matrix" values="0 0 0 0 0 0 0 0 0 0 0 0 0 0 0 0 0 0 0.05 0"/>
<feBlend mode="normal" in2="BackgroundImageFix" result="effect1_dropShadow_0_2262"/>
<feBlend mode="normal" in="SourceGraphic" in2="effect1_dropShadow_0_2262" result="shape"/>
</filter>
</defs>
</svg>
