<svg width="83" height="78" viewBox="0 0 83 78" fill="none" xmlns="http://www.w3.org/2000/svg">
<g filter="url(#filter0_d_0_2274)">
<rect x="9" y="5" width="65" height="60" rx="8" fill="#F2B705"/>
</g>
<path fill-rule="evenodd" clip-rule="evenodd" d="M38.25 22.75C38.6804 22.75 39.0626 23.0254 39.1987 23.4338L45.75 43.0877L48.5513 34.6838C48.6874 34.2754 49.0696 34 49.5 34H54.5C55.0523 34 55.5 34.4477 55.5 35C55.5 35.5523 55.0523 36 54.5 36H50.2208L46.6987 46.5662C46.5626 46.9746 46.1804 47.25 45.75 47.25C45.3196 47.25 44.9374 46.9746 44.8013 46.5662L38.25 26.9123L35.4487 35.3162C35.3126 35.7246 34.9304 36 34.5 36H29.5C28.9477 36 28.5 35.5523 28.5 35C28.5 34.4477 28.9477 34 29.5 34H33.7792L37.3013 23.4338C37.4374 23.0254 37.8196 22.75 38.25 22.75Z" fill="white"/>
<defs>
<filter id="filter0_d_0_2274" x="0" y="0" width="83" height="78" filterUnits="userSpaceOnUse" color-interpolation-filters="sRGB">
<feFlood flood-opacity="0" result="BackgroundImageFix"/>
<feColorMatrix in="SourceAlpha" type="matrix" values="0 0 0 0 0 0 0 0 0 0 0 0 0 0 0 0 0 0 127 0" result="hardAlpha"/>
<feOffset dy="4"/>
<feGaussianBlur stdDeviation="4.5"/>
<feComposite in2="hardAlpha" operator="out"/>
<feColorMatrix type="matrix" values="0 0 0 0 0 0 0 0 0 0 0 0 0 0 0 0 0 0 0.05 0"/>
<feBlend mode="normal" in2="BackgroundImageFix" result="effect1_dropShadow_0_2274"/>
<feBlend mode="normal" in="SourceGraphic" in2="effect1_dropShadow_0_2274" result="shape"/>
</filter>
</defs>
</svg>
