<svg width="1920" height="564" viewBox="0 0 1920 564" fill="none" xmlns="http://www.w3.org/2000/svg">
<path d="M-1.604 0C-1.604 0 1164.1 1.02369 1920 2C1920 226.5 1920 562 1920 562L9.72748e-05 563.763L-1.604 0Z" fill="white"/>
<path d="M863.36 238.019C874.705 216.44 866.465 189.783 844.954 178.475C823.443 167.166 796.813 175.491 785.468 197.07C774.124 218.649 782.364 245.306 803.875 256.614C825.385 267.923 852.016 259.598 863.36 238.019ZM794.882 202.019C803.483 185.658 823.68 179.344 839.99 187.918C856.299 196.492 862.548 216.709 853.947 233.07C845.345 249.432 825.148 255.745 808.839 247.171C792.53 238.597 786.28 218.38 794.882 202.019Z" fill="#F9F9FF"/>
<path d="M767.716 290.672C769.964 286.396 768.377 281.136 764.171 278.925C759.965 276.714 754.733 278.388 752.485 282.665C750.236 286.942 751.823 292.201 756.029 294.412C760.235 296.623 765.468 294.949 767.716 290.672Z" fill="#F9F9FF"/>
<path d="M373.947 158.287C351.331 167.39 340.355 193.042 349.429 215.586C358.503 238.131 384.19 249.025 406.806 239.922C429.422 230.819 440.398 205.168 431.324 182.623C422.25 160.079 396.564 149.184 373.947 158.287ZM402.835 230.056C385.687 236.958 366.206 228.696 359.326 211.602C352.446 194.509 360.771 175.055 377.918 168.153C395.066 161.251 414.547 169.514 421.427 186.607C428.307 203.7 419.982 223.154 402.835 230.056Z" fill="#F9F9FF"/>
<path d="M480.931 180.073C476.449 181.877 474.254 186.913 476.028 191.321C477.802 195.729 482.874 197.84 487.357 196.036C491.839 194.232 494.034 189.196 492.26 184.788C490.485 180.38 485.413 178.269 480.931 180.073Z" fill="#F9F9FF"/>
<path d="M1074.09 421.169C1098.03 425.741 1121.14 410.1 1125.7 386.229C1130.26 362.358 1114.54 339.303 1090.59 334.73C1066.65 330.158 1043.54 345.799 1038.98 369.67C1034.43 393.541 1050.14 416.596 1074.09 421.169ZM1088.6 345.177C1106.76 348.644 1118.67 366.129 1115.22 384.228C1111.76 402.326 1094.24 414.189 1076.08 410.722C1057.93 407.255 1046.01 389.77 1049.46 371.672C1052.92 353.573 1070.44 341.71 1088.6 345.177Z" fill="#F9F9FF"/>
<path d="M995.877 344.99C1000.62 345.896 1005.19 342.847 1006.08 338.18C1006.98 333.512 1003.85 328.994 999.104 328.087C994.358 327.181 989.789 330.23 988.897 334.898C988.006 339.565 991.131 344.084 995.877 344.99Z" fill="#F9F9FF"/>
<path d="M1316.4 393.165C1292.05 391.969 1271.35 410.674 1270.16 434.947C1268.97 459.22 1287.74 479.863 1312.09 481.059C1336.44 482.254 1357.14 463.549 1358.33 439.276C1359.52 415.003 1340.75 394.36 1316.4 393.165ZM1312.61 470.436C1294.15 469.53 1279.91 453.874 1280.81 435.47C1281.72 417.067 1297.42 402.88 1315.88 403.787C1334.34 404.693 1348.58 420.349 1347.68 438.753C1346.77 457.157 1331.07 471.343 1312.61 470.436Z" fill="#F9F9FF"/>
<path d="M1404.45 457.717C1399.63 457.48 1395.53 461.136 1395.29 465.882C1395.06 470.628 1398.78 474.667 1403.61 474.904C1408.44 475.141 1412.54 471.486 1412.77 466.74C1413 461.994 1409.28 457.954 1404.45 457.717Z" fill="#F9F9FF"/>
<path d="M1374.17 64.9531C1380.24 62.9599 1381.56 58.2748 1391.32 55.3638C1402.89 51.9049 1406.75 56.7817 1414.64 53.9939C1427.42 49.4802 1423.96 34.3498 1437.96 23.1715C1448.67 14.6371 1466.95 10.4932 1476.38 18.3769C1484.97 25.5551 1484.74 41.4869 1480.5 52.6241C1473.98 69.734 1459.51 71.5765 1422.87 97.8304C1403.32 111.844 1393.45 119.05 1389.26 128.653C1380.11 149.626 1387.23 177.982 1404.35 195.092C1418.02 208.75 1434.64 211.839 1444.82 213.586C1498.88 222.867 1545.31 185.352 1558.7 174.544C1572.51 163.386 1589.72 149.482 1601.91 125.228C1615.78 97.6317 1610.85 81.1246 1627.3 69.0628C1644.81 56.2201 1661.51 66.7955 1673.94 52.6241C1682.37 43.0212 1642.73 23.358 1696.5 19.048C1747 15 1912.5 21.048 1920 2C1791.67 2 1435.83 1.28281 1307.5 1.28281C1309.94 7.43361 1315.46 20.8085 1322.03 30.021C1338.85 53.583 1363.84 68.3435 1374.17 64.9531Z" fill="#F9F9FF"/>
<path fill-rule="evenodd" clip-rule="evenodd" d="M1270.72 153C1271.9 153 1272.95 153.753 1273.32 154.87L1291.28 208.617L1298.96 185.635C1299.33 184.519 1300.38 183.765 1301.56 183.765H1315.26C1316.77 183.765 1318 184.99 1318 186.5C1318 188.01 1316.77 189.235 1315.26 189.235H1303.53L1293.88 218.13C1293.5 219.247 1292.46 220 1291.28 220C1290.1 220 1289.05 219.247 1288.68 218.13L1270.72 164.383L1263.04 187.365C1262.67 188.482 1261.62 189.235 1260.44 189.235H1246.74C1245.23 189.235 1244 188.01 1244 186.5C1244 184.99 1245.23 183.765 1246.74 183.765H1258.47L1268.12 154.87C1268.5 153.753 1269.54 153 1270.72 153Z" fill="#F9F9FF"/>
<path fill-rule="evenodd" clip-rule="evenodd" d="M702.722 398C703.902 398 704.949 398.753 705.322 399.87L723.278 453.618L730.956 430.635C731.329 429.519 732.376 428.765 733.556 428.765H747.259C748.773 428.765 750 429.99 750 431.5C750 433.01 748.773 434.235 747.259 434.235H735.531L725.878 463.13C725.505 464.247 724.458 465 723.278 465C722.098 465 721.051 464.247 720.678 463.13L702.722 409.383L695.045 432.365C694.672 433.482 693.624 434.235 692.445 434.235H678.741C677.227 434.235 676 433.01 676 431.5C676 429.99 677.227 428.765 678.741 428.765H690.469L700.122 399.87C700.495 398.753 701.543 398 702.722 398Z" fill="#F9F9FF"/>
<path d="M1412.45 331.449H1426.61C1427.73 331.449 1428.65 330.628 1428.65 329.622C1428.65 328.614 1427.73 327.792 1426.61 327.792H1412.45C1411.33 327.792 1410.42 328.612 1410.42 329.622C1410.42 330.628 1411.33 331.449 1412.45 331.449Z" fill="#F9F9FF"/>
<path d="M1433.49 342.148H1412.45C1411.33 342.153 1410.42 342.968 1410.42 343.979C1410.42 344.99 1411.33 345.805 1412.45 345.805H1433.49C1434.61 345.805 1435.53 344.985 1435.53 343.979C1435.53 342.973 1434.61 342.148 1433.49 342.148Z" fill="#F9F9FF"/>
<path d="M1451.96 325.596C1451.9 325.126 1451.78 324.4 1451.46 323.57C1450.71 321.618 1449.44 320.433 1448.76 319.84C1444.86 316.444 1440.96 313.048 1437.06 309.651C1436.37 309.049 1435.17 308.208 1433.41 307.614C1432.02 307.144 1430.8 307.041 1430.05 307.021C1424.37 307.014 1418.69 307.007 1413.01 307C1404.18 307 1397 314.18 1397 323.007V345.993C1397 354.821 1404.18 362 1413.01 362H1435.99C1444.82 362 1452 354.816 1452 345.993C1451.99 339.197 1451.97 332.398 1451.96 325.596ZM1432.2 310.426C1432.3 310.456 1432.41 310.49 1432.51 310.527C1433.31 310.806 1434.23 311.331 1434.89 311.824C1435.93 312.598 1440.72 316.563 1447.12 322.15C1447.37 322.415 1447.62 322.729 1447.86 323.096C1448.34 323.823 1448.6 324.503 1448.79 325.108H1445.16C1438 325.108 1432.2 319.308 1432.2 312.156V310.426ZM1448.95 346C1448.95 353.141 1443.14 358.952 1435.99 358.952H1413.01C1405.87 358.952 1400.06 353.143 1400.06 346V323.014C1400.06 315.873 1405.87 310.062 1413.01 310.062C1418.39 310.059 1423.77 310.057 1429.15 310.055V312.154C1429.15 320.995 1436.32 328.16 1445.16 328.16H1448.96C1448.96 334.107 1448.95 340.054 1448.95 346Z" fill="#F9F9FF"/>
<path d="M627.453 79.4488H641.614C642.735 79.4488 643.649 78.6284 643.649 77.6224C643.649 76.6141 642.735 75.7914 641.614 75.7914H627.453C626.333 75.7914 625.418 76.6118 625.418 77.6224C625.418 78.6284 626.333 79.4488 627.453 79.4488Z" fill="#F9F9FF"/>
<path d="M648.494 90.1479H627.453C626.333 90.1525 625.418 90.9683 625.418 91.9789C625.418 92.9894 626.333 93.8052 627.453 93.8052H648.494C649.615 93.8052 650.529 92.9848 650.529 91.9789C650.527 90.9729 649.612 90.1479 648.494 90.1479Z" fill="#F9F9FF"/>
<path d="M666.961 73.5961C666.904 73.1263 666.778 72.3999 666.459 71.5704C665.712 69.618 664.442 68.4332 663.76 67.8397C659.861 64.4436 655.961 61.0474 652.062 57.6513C651.373 57.0486 650.172 56.2076 648.409 55.6141C647.018 55.1443 645.804 55.0412 645.05 55.0206C639.368 55.0137 633.689 55.0068 628.008 55C619.18 55 612 62.1795 612 71.0066V93.9934C612 102.821 619.18 110 628.008 110H650.992C659.82 110 667 102.816 667 93.9934C666.989 87.1966 666.975 80.3975 666.961 73.5961ZM647.204 58.4259C647.302 58.4557 647.406 58.49 647.513 58.5267C648.311 58.8063 649.234 59.331 649.894 59.8237C650.935 60.5983 655.715 64.5627 662.123 70.1496C662.366 70.4154 662.618 70.7294 662.861 71.096C663.342 71.8224 663.601 72.503 663.787 73.108H660.157C653.002 73.108 647.204 67.308 647.204 60.156V58.4259ZM663.95 94.0003C663.95 101.141 658.14 106.952 650.994 106.952H628.01C620.869 106.952 615.057 101.143 615.057 94.0003V71.0135C615.057 63.873 620.869 58.0615 628.01 58.0615C633.389 58.0592 638.77 58.0569 644.149 58.0546V60.1537C644.149 68.9946 651.315 76.1604 660.157 76.1604H663.961C663.957 82.107 663.954 88.0536 663.95 94.0003Z" fill="#F9F9FF"/>
<path fill-rule="evenodd" clip-rule="evenodd" d="M994.506 116.611C995.128 118.036 994.477 119.695 993.052 120.317C988.206 122.432 983.952 125.703 980.662 129.843C977.371 133.982 975.145 138.865 974.177 144.065C973.209 149.264 973.529 154.621 975.109 159.668C976.689 164.715 979.481 169.298 983.241 173.016C987.001 176.735 991.615 179.475 996.678 180.998C1001.74 182.521 1007.1 182.78 1012.29 181.752C1017.47 180.725 1022.33 178.442 1026.43 175.104C1030.53 171.765 1033.75 167.473 1035.81 162.602C1036.42 161.17 1038.07 160.5 1039.5 161.105C1040.93 161.711 1041.6 163.363 1041 164.795C1038.58 170.513 1034.8 175.552 1029.98 179.471C1025.17 183.39 1019.47 186.07 1013.38 187.276C1007.29 188.482 1001 188.178 995.057 186.39C989.113 184.603 983.697 181.386 979.284 177.021C974.87 172.656 971.592 167.276 969.737 161.351C967.882 155.426 967.506 149.137 968.642 143.034C969.779 136.93 972.392 131.198 976.255 126.338C980.118 121.479 985.112 117.639 990.801 115.156C992.226 114.534 993.885 115.186 994.506 116.611Z" fill="#F9F9FF"/>
<path fill-rule="evenodd" clip-rule="evenodd" d="M1004.01 112.825C1004.54 112.297 1005.25 112 1006 112C1010.99 112 1015.93 112.983 1020.54 114.893C1025.15 116.803 1029.34 119.603 1032.87 123.132C1036.4 126.662 1039.2 130.852 1041.11 135.463C1043.02 140.074 1044 145.017 1044 150.008C1044 151.563 1042.74 152.824 1041.19 152.824H1006C1004.45 152.824 1003.19 151.563 1003.19 150.008V114.815C1003.19 114.069 1003.48 113.353 1004.01 112.825ZM1008.82 117.753V147.193H1038.25C1037.96 143.906 1037.17 140.676 1035.91 137.618C1034.28 133.69 1031.9 130.12 1028.89 127.114C1025.88 124.107 1022.32 121.723 1018.39 120.095C1015.33 118.829 1012.1 118.04 1008.82 117.753Z" fill="#F9F9FF"/>
<path d="M896 476.336C889.332 476.336 883.904 471.25 883.904 465.001C883.904 458.751 889.332 453.665 896 453.665C902.669 453.665 908.097 458.751 908.097 465.001C908.097 471.25 902.669 476.336 896 476.336ZM896 457.322C891.482 457.322 887.806 460.766 887.806 465.001C887.806 469.235 891.482 472.68 896 472.68C900.519 472.68 904.195 469.235 904.195 465.001C904.195 460.766 900.519 457.322 896 457.322Z" fill="#F9F9FF"/>
<path d="M897.69 501H894.307C888.863 501 884.434 496.85 884.434 491.752V489.822C884.434 488.513 883.713 487.335 882.507 486.677C881.293 486.011 879.845 486.008 878.632 486.651L876.837 487.602C874.546 488.816 871.881 489.116 869.341 488.454C866.793 487.789 864.678 486.245 863.386 484.103L861.724 481.338C859.043 476.899 860.721 471.246 865.458 468.734C866.722 468.064 867.46 466.854 867.433 465.497C867.405 464.137 866.621 462.952 865.329 462.327C860.499 459.987 858.602 454.392 861.103 449.861L862.656 447.046C863.866 444.859 865.915 443.239 868.436 442.49C870.96 441.747 873.633 441.952 875.963 443.082L878.765 444.442C879.974 445.031 881.399 444.987 882.569 444.318C883.74 443.652 884.438 442.49 884.438 441.206V438.251C884.438 433.15 888.867 429 894.311 429H897.694C903.141 429 907.566 433.15 907.566 438.251V440.186C907.566 441.495 908.288 442.672 909.494 443.331C910.696 443.985 912.144 444.003 913.365 443.353L915.16 442.402C917.443 441.191 920.112 440.888 922.656 441.55C925.204 442.212 927.319 443.758 928.611 445.905L930.277 448.662C932.958 453.101 931.284 458.754 926.543 461.267C925.282 461.936 924.541 463.146 924.568 464.503C924.596 465.859 925.38 467.044 926.668 467.669C929.005 468.803 930.73 470.726 931.53 473.085C932.33 475.444 932.103 477.948 930.898 480.139L929.344 482.954C928.135 485.145 926.082 486.761 923.565 487.511C921.052 488.257 918.379 488.052 916.038 486.918L913.24 485.562C912.023 484.977 910.598 485.017 909.432 485.682C908.261 486.348 907.563 487.511 907.563 488.794V491.752C907.563 496.853 903.138 501 897.69 501ZM880.552 482.512C881.902 482.512 883.252 482.848 884.477 483.514C886.897 484.838 888.341 487.196 888.341 489.822V491.752C888.341 494.835 891.017 497.343 894.311 497.343H897.694C900.987 497.343 903.664 494.831 903.664 491.752V488.794C903.664 486.227 905.061 483.894 907.403 482.559C909.748 481.228 912.6 481.133 915.031 482.314L917.833 483.671C919.246 484.359 920.861 484.483 922.383 484.029C923.909 483.576 925.15 482.596 925.879 481.28L927.432 478.46C928.166 477.14 928.299 475.626 927.815 474.197C927.331 472.767 926.285 471.604 924.88 470.92C922.297 469.666 920.725 467.293 920.67 464.572C920.615 461.852 922.094 459.424 924.627 458.085C927.491 456.568 928.505 453.145 926.882 450.465L925.212 447.704C924.435 446.41 923.156 445.477 921.61 445.075C920.077 444.673 918.457 444.852 917.08 445.587L915.285 446.538C912.846 447.828 909.943 447.814 907.527 446.49C905.108 445.166 903.664 442.811 903.664 440.186V438.251C903.664 435.165 900.984 432.657 897.694 432.657H894.307C891.013 432.657 888.337 435.165 888.337 438.251V441.206C888.337 443.777 886.94 446.106 884.594 447.444C882.253 448.779 879.401 448.87 876.966 447.689L874.168 446.329C872.759 445.649 871.144 445.521 869.618 445.974C868.096 446.431 866.851 447.408 866.122 448.728L864.569 451.544C863.055 454.282 864.206 457.665 867.128 459.084C869.708 460.334 871.28 462.707 871.335 465.432C871.389 468.152 869.911 470.577 867.382 471.919C864.518 473.436 863.503 476.859 865.123 479.539L866.789 482.3C867.569 483.594 868.849 484.527 870.391 484.929C871.928 485.328 873.544 485.148 874.925 484.413L876.72 483.463C877.922 482.83 879.237 482.512 880.552 482.512Z" fill="#F9F9FF"/>
<path d="M289 69.3362C282.331 69.3362 276.904 64.2497 276.904 58.0004C276.904 51.7511 282.331 46.6647 289 46.6647C295.669 46.6647 301.097 51.7511 301.097 58.0004C301.097 64.2497 295.669 69.3362 289 69.3362ZM289 50.3214C284.482 50.3214 280.806 53.766 280.806 58.0004C280.806 62.2348 284.482 65.6795 289 65.6795C293.519 65.6795 297.195 62.2348 297.195 58.0004C297.195 53.766 293.519 50.3214 289 50.3214Z" fill="#F9F9FF"/>
<path d="M290.69 94H287.307C281.863 94 277.434 89.8497 277.434 84.7523V82.8216C277.434 81.5125 276.712 80.335 275.507 79.6768C274.293 79.0113 272.845 79.0076 271.632 79.6512L269.837 80.6019C267.546 81.816 264.881 82.1158 262.341 81.454C259.793 80.7884 257.678 79.2453 256.386 77.1025L254.724 74.3381C252.043 69.8988 253.721 64.2456 258.458 61.7334C259.722 61.0643 260.46 59.8539 260.433 58.4973C260.405 57.137 259.621 55.9522 258.329 55.3269C253.498 52.9867 251.602 47.3919 254.103 42.8613L255.656 40.0457C256.866 37.859 258.915 36.2391 261.435 35.4895C263.96 34.7471 266.633 34.9519 268.963 36.0818L271.764 37.4421C272.974 38.0308 274.398 37.987 275.569 37.3178C276.74 36.6523 277.438 35.4895 277.438 34.206V31.2514C277.438 26.1503 281.867 22 287.311 22H290.694C296.141 22 300.566 26.1503 300.566 31.2514V33.1857C300.566 34.4948 301.288 35.6723 302.494 36.3305C303.696 36.985 305.144 37.0033 306.365 36.3524L308.16 35.4017C310.443 34.1913 313.112 33.8878 315.656 34.5497C318.204 35.2115 320.319 36.7583 321.611 38.9048L323.277 41.6619C325.958 46.1011 324.284 51.7544 319.543 54.2665C318.282 54.9357 317.541 56.146 317.568 57.5027C317.595 58.8593 318.38 60.044 319.667 60.6693C322.005 61.8029 323.73 63.7264 324.529 66.0849C325.329 68.4435 325.103 70.9483 323.897 73.1387L322.344 75.9543C321.135 78.1447 319.082 79.7609 316.565 80.5105C314.052 81.2565 311.379 81.0517 309.038 79.9181L306.24 78.5615C305.023 77.9764 303.598 78.0167 302.432 78.6822C301.261 79.3477 300.562 80.5105 300.562 81.794V84.7523C300.562 89.8533 296.137 94 290.69 94ZM273.552 75.5118C274.902 75.5118 276.252 75.8483 277.477 76.5138C279.897 77.8375 281.34 80.1961 281.34 82.8216V84.7523C281.34 87.8349 284.017 90.3433 287.311 90.3433H290.694C293.987 90.3433 296.664 87.8312 296.664 84.7523V81.794C296.664 79.227 298.061 76.8941 300.402 75.5594C302.748 74.2283 305.6 74.1333 308.031 75.3144L310.833 76.671C312.245 77.3585 313.861 77.4828 315.383 77.0294C316.909 76.5759 318.149 75.596 318.879 74.2795L320.432 71.4603C321.166 70.1402 321.298 68.6263 320.815 67.1966C320.331 65.7668 319.285 64.604 317.88 63.9202C315.297 62.6659 313.724 60.2927 313.67 57.5721C313.615 54.8516 315.094 52.4235 317.627 51.0852C320.491 49.5677 321.505 46.145 319.882 43.4647L318.212 40.7039C317.435 39.4094 316.155 38.477 314.61 38.0747C313.077 37.6725 311.457 37.8517 310.08 38.5867L308.285 39.5374C305.846 40.8282 302.943 40.8136 300.527 39.4899C298.108 38.1661 296.664 35.8112 296.664 33.1857V31.2514C296.664 28.1651 293.983 25.6567 290.694 25.6567H287.307C284.013 25.6567 281.336 28.1651 281.336 31.2514V34.206C281.336 36.7766 279.939 39.1059 277.594 40.4443C275.253 41.7789 272.4 41.8704 269.966 40.6893L267.168 39.329C265.759 38.6488 264.143 38.5208 262.618 38.9743C261.096 39.4314 259.851 40.4077 259.121 41.7277L257.568 44.5434C256.054 47.2822 257.205 50.6647 260.128 52.0835C262.708 53.334 264.28 55.7072 264.335 58.4315C264.389 61.152 262.91 63.5764 260.382 64.9184C257.518 66.436 256.503 69.8586 258.122 72.539L259.789 75.2998C260.569 76.5942 261.849 77.5267 263.39 77.9289C264.928 78.3275 266.543 78.1483 267.925 77.4133L269.72 76.4626C270.922 75.83 272.237 75.5118 273.552 75.5118Z" fill="#F9F9FF"/>
<path d="M603.86 494.922C596.954 497.191 595.448 502.526 584.35 505.841C571.185 509.78 566.799 504.227 557.816 507.401C543.277 512.541 547.218 529.771 531.282 542.5C519.107 552.219 498.309 556.938 487.579 547.96C477.808 539.786 478.065 521.644 482.896 508.961C490.31 489.477 506.769 487.379 548.451 457.482C570.701 441.524 581.923 433.318 586.691 422.383C597.102 398.5 589.002 366.209 569.522 346.725C553.977 331.172 535.059 327.654 523.478 325.665C461.981 315.096 409.155 357.816 393.929 370.124C378.219 382.83 358.631 398.664 344.763 426.283C328.983 457.709 334.594 476.506 315.887 490.242C295.963 504.866 245.641 466.362 231.5 482.5C189 494.5 207 532 178.5 538C175.027 542.555 2.396 562 9.72748e-05 563.763C146 563.763 532 562 678 562C675.23 554.996 670.648 545.191 663.172 534.701C644.044 507.869 615.606 491.061 603.86 494.922Z" fill="#F9F9FF"/>
<path d="M317.931 371.073C313.449 372.877 311.254 377.913 313.028 382.321C314.802 386.729 319.874 388.84 324.357 387.036C328.839 385.232 331.034 380.196 329.26 375.788C327.485 371.38 322.413 369.269 317.931 371.073Z" fill="#F9F9FF"/>
</svg>
