<svg width="65" height="60" viewBox="0 0 65 60" fill="none" xmlns="http://www.w3.org/2000/svg">
<path d="M0 8C0 3.58172 3.58172 0 8 0H57C61.4183 0 65 3.58172 65 8V52C65 56.4183 61.4183 60 57 60H8C3.58172 60 0 56.4183 0 52V8Z" fill="#616BE8"/>
<path d="M41.5818 29.2727C40.9682 29.2727 40.4773 29.7636 40.4773 30.3773C40.4773 30.9909 40.9682 31.4818 41.5818 31.4818C42.1955 31.4818 42.6864 30.9909 42.6864 30.3773C42.6864 29.7636 42.1955 29.2727 41.5818 29.2727Z" fill="white"/>
<path d="M23.4182 29.2727C22.8045 29.2727 22.3136 29.7636 22.3136 30.3773C22.3136 30.9909 22.8045 31.4818 23.4182 31.4818C24.0318 31.4818 24.5227 30.9909 24.5227 30.3773C24.6455 29.7636 24.1545 29.2727 23.4182 29.2727Z" fill="white"/>
<path d="M32.5 17C25.0136 17 19 23.0136 19 30.5C19 37.9864 25.0136 44 32.5 44C39.9864 44 46 37.9864 46 30.5C46 23.0136 39.9864 17 32.5 17ZM32.5 42.2818C25.9955 42.2818 20.5955 37.0045 20.5955 30.3773C20.5955 23.8727 25.8727 18.4727 32.5 18.4727C39.1273 18.4727 44.4045 23.75 44.4045 30.3773C44.4045 37.0045 39.1273 42.2818 32.5 42.2818Z" fill="white"/>
<path d="M38.0227 25.3455C37.7773 24.9773 37.5318 24.7318 37.1636 24.4864C36.6727 24.1182 35.9364 23.8727 35.0773 23.75C34.8318 23.75 34.7091 23.75 34.4636 23.75C34.2182 23.75 34.0955 23.75 33.9727 23.75H28.9409C28.5727 23.75 28.2045 23.9955 28.2045 24.3636V29.7636H26.6091C26.4864 29.7636 26.3636 29.8864 26.3636 30.0091V31.3591C26.3636 31.4818 26.4864 31.6045 26.6091 31.6045H28.2045V33.0773H26.6091C26.4864 33.0773 26.3636 33.2 26.3636 33.3227V34.6727C26.3636 34.7955 26.4864 34.9182 26.6091 34.9182H28.2045V36.8818C28.2045 37.1273 28.3273 37.25 28.5727 37.25H30.2909C30.5364 37.25 30.6591 37.1273 30.6591 36.8818V34.9182H32.0091C32.1318 34.9182 32.2545 34.7955 32.2545 34.6727V33.3227C32.2545 33.2 32.1318 33.0773 32.0091 33.0773H30.5364V31.6045H33.9727C34.0955 31.6045 34.3409 31.6045 34.4636 31.6045C34.7091 31.6045 34.8318 31.6045 35.0773 31.6045C35.9364 31.4818 36.55 31.2364 37.1636 30.8682C37.5318 30.6227 37.7773 30.3773 38.0227 30.0091C38.0227 30.0091 38.1455 29.7636 38.2682 29.5182C38.7591 28.4136 38.7591 26.9409 38.2682 25.8364C38.2682 25.5909 38.1455 25.3455 38.0227 25.3455ZM36.1818 28.4136C36.0591 28.6591 35.9364 28.9045 35.6909 29.15C35.4455 29.3955 35.2 29.5182 34.7091 29.6409C34.5864 29.6409 34.4636 29.6409 34.2182 29.7636C34.0955 29.7636 33.85 29.7636 33.7273 29.7636H30.4136C30.4136 29.7636 30.2909 29.7636 30.2909 29.6409V25.7136C30.2909 25.7136 30.2909 25.5909 30.4136 25.5909H33.7273C33.85 25.5909 33.9727 25.5909 34.2182 25.5909C34.3409 25.5909 34.5864 25.5909 34.7091 25.7136C35.0773 25.8364 35.4455 25.9591 35.6909 26.2045C35.9364 26.45 36.0591 26.6955 36.1818 26.9409C36.3045 27.1864 36.3045 27.4318 36.3045 27.6773C36.3045 27.9227 36.3045 28.1682 36.1818 28.4136Z" fill="white"/>
</svg>
