<svg width="65" height="60" viewBox="0 0 65 60" fill="none" xmlns="http://www.w3.org/2000/svg">
<path d="M0 8C0 3.58172 3.58172 0 8 0H57C61.4183 0 65 3.58172 65 8V52C65 56.4183 61.4183 60 57 60H8C3.58172 60 0 56.4183 0 52V8Z" fill="#616BE8"/>
<path d="M32.5031 43C31.997 43 30.9594 42.8868 30.1357 42.0652C29.4624 41.3942 29.2894 40.6058 29.2455 40.1971L29.2299 35.3078C29.2001 34.8991 29.1094 34.4517 28.9634 34.0237C28.6827 33.2021 28.2631 32.4634 25.109 29.7834L24.3562 29.1455C23.3313 28.2784 23.1257 28.1044 22.1575 27.1779C20.8505 25.9269 20.4777 25.3222 20.2452 24.6456C19.5818 22.7111 20.4635 20.9921 20.567 20.8029C20.601 20.7394 21.4104 19.2869 23.3483 18.4667C24.1237 18.1381 24.8992 18.0428 24.9318 18.04C25.1671 18.0124 25.401 18 25.6391 18H39.258C39.499 18 39.7371 18.0138 39.971 18.04C39.971 18.04 40.3183 18.0801 40.66 18.1602C43.5391 18.8257 44.5272 20.7781 44.5669 20.8609C44.9524 21.63 45.2799 22.9127 44.6307 24.6304C44.4152 25.202 44.126 25.7778 42.7226 27.1517C41.6409 28.2135 41.5148 28.3225 40.3084 29.3664L39.7825 29.822C39.7414 29.8566 37.3258 31.8269 36.4781 33.5211C36.3406 33.7959 36.2229 34.0624 36.2215 34.0679C36.0471 34.5111 35.9422 34.9737 35.945 35.3133C35.9536 36.5601 35.9564 37.5446 35.9578 38.5222L35.9606 40.1377C35.8997 40.6417 35.7012 41.4315 35.0066 42.0942C34.1291 42.9296 33.039 42.9945 32.6775 42.9931C32.6293 42.9972 32.5712 43 32.5031 43ZM25.6377 19.3808C25.4563 19.3808 25.2748 19.3918 25.099 19.4111C25.099 19.4111 24.4937 19.4885 23.9139 19.7329C22.4495 20.3528 21.823 21.4422 21.8173 21.4533C21.7904 21.503 21.1057 22.794 21.5905 24.2079C21.7223 24.5931 21.9406 25.0336 23.1527 26.1934C24.0911 27.0923 24.2896 27.2607 25.2862 28.1044L26.0403 28.7437C28.5991 30.9184 29.5389 31.9498 30.0238 32.9053C30.1967 33.2463 30.3087 33.5915 30.3087 33.5915C30.5639 34.3261 30.6347 34.975 30.6518 35.4293C30.6546 36.9951 30.6574 38.5609 30.6603 40.1266C30.6815 40.2868 30.7779 40.7314 31.1507 41.1015C31.7008 41.6496 32.4634 41.6261 32.6109 41.6165L32.6775 41.6151C32.8547 41.6137 33.504 41.5944 34.0143 41.1097C34.4041 40.7369 34.5161 40.2868 34.5473 40.0521L34.5388 38.5263C34.5374 37.5515 34.5345 36.5698 34.526 35.3271C34.5218 34.8135 34.6579 34.1825 34.9074 33.5501C34.9173 33.5252 35.0491 33.2284 35.2036 32.9191C36.1832 30.957 38.7491 28.8666 38.8582 28.7782L39.3657 28.3377C40.5423 27.3201 40.6656 27.2138 41.7161 26.1824C43.0132 24.9079 43.1691 24.4965 43.2953 24.1651C43.7744 22.8962 43.5561 21.9973 43.2882 21.4643C43.2584 21.4049 42.5213 20.0131 40.3311 19.5064C40.0717 19.447 39.8122 19.4167 39.8009 19.4153C39.6237 19.3946 39.4408 19.3849 39.2551 19.3849H25.6377V19.3808Z" fill="white"/>
</svg>
