<svg width="65" height="60" viewBox="0 0 65 60" fill="none" xmlns="http://www.w3.org/2000/svg">
<path d="M-0.000244141 8.00024C-0.000244141 3.58197 3.58148 0.000244141 7.99976 0.000244141H56.9998C61.418 0.000244141 64.9998 3.58197 64.9998 8.00024V52.0002C64.9998 56.4185 61.418 60.0002 56.9998 60.0002H7.99976C3.58148 60.0002 -0.000244141 56.4185 -0.000244141 52.0002V8.00024Z" fill="#F2B705"/>
<path fill-rule="evenodd" clip-rule="evenodd" d="M29.4168 18.6379C29.6377 19.1441 29.4064 19.7335 28.9002 19.9544C27.1785 20.7057 25.6671 21.8673 24.4981 23.3377C23.329 24.8081 22.538 26.5425 22.1941 28.3892C21.8502 30.2359 21.9639 32.1388 22.5254 33.9314C23.0868 35.724 24.0787 37.3519 25.4146 38.6725C26.7504 39.9932 28.3895 40.9665 30.1884 41.5074C31.9873 42.0483 33.8913 42.1403 35.734 41.7754C37.5767 41.4104 39.3019 40.5996 40.7589 39.4139C42.2158 38.2281 43.3601 36.7035 44.0917 34.9734C44.3068 34.4647 44.8936 34.2267 45.4022 34.4418C45.9109 34.6569 46.1489 35.2436 45.9338 35.7523C45.075 37.7834 43.7317 39.5731 42.0213 40.9651C40.311 42.357 38.2857 43.3088 36.1226 43.7373C33.9594 44.1657 31.7243 44.0577 29.6125 43.4227C27.5007 42.7878 25.5766 41.6452 24.0085 40.0948C22.4403 38.5444 21.2758 36.6335 20.6168 34.5291C19.9577 32.4248 19.8242 30.191 20.2279 28.0231C20.6316 25.8552 21.5602 23.8192 22.9326 22.093C24.3049 20.3669 26.0792 19.0033 28.1003 18.1213C28.6065 17.9004 29.1959 18.1317 29.4168 18.6379Z" fill="white"/>
<path fill-rule="evenodd" clip-rule="evenodd" d="M32.7936 17.2931C32.9812 17.1056 33.2355 17.0002 33.5007 17.0002C35.2736 17.0002 37.0291 17.3494 38.667 18.0279C40.3049 18.7063 41.7931 19.7007 43.0467 20.9543C44.3003 22.2079 45.2947 23.6961 45.9731 25.334C46.6515 26.9719 47.0007 28.7274 47.0007 30.5002C47.0007 31.0525 46.553 31.5002 46.0007 31.5002H33.5007C32.9484 31.5002 32.5007 31.0525 32.5007 30.5002V18.0002C32.5007 17.735 32.6061 17.4807 32.7936 17.2931ZM34.5007 19.0438V29.5002H44.9572C44.8553 28.3328 44.5753 27.1857 44.1254 26.0994C43.5474 24.7041 42.7003 23.4364 41.6325 22.3685C40.5646 21.3006 39.2968 20.4536 37.9016 19.8756C36.8153 19.4257 35.6682 19.1457 34.5007 19.0438Z" fill="white"/>
</svg>
