<svg width="65" height="60" viewBox="0 0 65 60" fill="none" xmlns="http://www.w3.org/2000/svg">
<path d="M0 8.00024C0 3.58197 3.58172 0.000244141 8 0.000244141H57C61.4183 0.000244141 65 3.58197 65 8.00024V52.0002C65 56.4185 61.4183 60.0002 57 60.0002H8C3.58172 60.0002 0 56.4185 0 52.0002V8.00024Z" fill="#F2B705"/>
<path d="M27.0242 29.1133H33.461C33.9704 29.1133 34.386 28.7404 34.386 28.2831C34.386 27.8248 33.9704 27.4509 33.461 27.4509H27.0242C26.5148 27.4509 26.0992 27.8238 26.0992 28.2831C26.0992 28.7404 26.5148 29.1133 27.0242 29.1133Z" fill="white"/>
<path d="M36.5882 33.9765H27.0242C26.5148 33.9786 26.0992 34.3494 26.0992 34.8088C26.0992 35.2682 26.5148 35.639 27.0242 35.639H36.5882C37.0976 35.639 37.5132 35.2661 37.5132 34.8088C37.5122 34.3515 37.0965 33.9765 36.5882 33.9765Z" fill="white"/>
<path d="M44.9823 26.453C44.9562 26.2395 44.899 25.9093 44.7542 25.5322C44.4146 24.6448 43.8375 24.1062 43.527 23.8365C41.7551 22.2928 39.9821 20.7491 38.2101 19.2054C37.8966 18.9315 37.3507 18.5492 36.5496 18.2794C35.9173 18.0659 35.3652 18.019 35.0225 18.0096C32.4401 18.0065 29.8587 18.0034 27.2763 18.0002C23.2637 18.0002 20 21.2636 20 25.276V35.7245C20 39.7368 23.2637 43.0002 27.2763 43.0002H37.7237C41.7363 43.0002 45 39.7348 45 35.7245C44.9948 32.6351 44.9885 29.5446 44.9823 26.453ZM36.0017 19.5575C36.0465 19.571 36.0934 19.5866 36.1423 19.6033C36.5049 19.7304 36.9247 19.9689 37.2247 20.1929C37.6976 20.5449 39.8706 22.3469 42.7832 24.8864C42.8937 25.0072 43.0083 25.1499 43.1187 25.3166C43.3374 25.6468 43.4551 25.9562 43.5395 26.2312H41.8895C38.6372 26.2312 36.0017 23.5948 36.0017 20.3439V19.5575ZM43.6135 35.7276C43.6135 38.9733 40.9727 41.6149 37.7247 41.6149H27.2774C24.0314 41.6149 21.3896 38.9744 21.3896 35.7276V25.2791C21.3896 22.0334 24.0314 19.3919 27.2774 19.3919C29.7223 19.3908 32.1682 19.3898 34.6131 19.3887V20.3429C34.6131 24.3614 37.8705 27.6186 41.8895 27.6186H43.6187C43.6166 30.3216 43.6156 33.0246 43.6135 35.7276Z" fill="white"/>
</svg>
