<svg width="65" height="60" viewBox="0 0 65 60" fill="none" xmlns="http://www.w3.org/2000/svg">
<path d="M-0.000244141 8C-0.000244141 3.58172 3.58148 0 7.99976 0H56.9998C61.418 0 64.9998 3.58172 64.9998 8V52C64.9998 56.4183 61.418 60 56.9998 60H7.99976C3.58148 60 -0.000244141 56.4183 -0.000244141 52V8Z" fill="#F2B705"/>
<path fill-rule="evenodd" clip-rule="evenodd" d="M29.2499 17.7499C29.6803 17.7499 30.0624 18.0254 30.1985 18.4337L36.7499 38.0876L39.5512 29.6837C39.6873 29.2754 40.0694 28.9999 40.4999 28.9999H45.4999C46.0521 28.9999 46.4999 29.4476 46.4999 29.9999C46.4999 30.5522 46.0521 30.9999 45.4999 30.9999H41.2206L37.6985 41.5662C37.5624 41.9745 37.1803 42.2499 36.7499 42.2499C36.3194 42.2499 35.9373 41.9745 35.8012 41.5662L29.2499 21.9122L26.4485 30.3162C26.3124 30.7245 25.9303 30.9999 25.4999 30.9999H20.4999C19.9476 30.9999 19.4999 30.5522 19.4999 29.9999C19.4999 29.4476 19.9476 28.9999 20.4999 28.9999H24.7791L28.3012 18.4337C28.4373 18.0254 28.8194 17.7499 29.2499 17.7499Z" fill="white"/>
</svg>
