<svg width="1920" height="436" viewBox="0 0 1920 436" fill="none" xmlns="http://www.w3.org/2000/svg">
<path d="M0 0H1920V436H0V0Z" fill="white"/>
<path d="M1897.66 104.772C1881.55 119.259 1880.33 120.462 1873.02 127.125C1860.65 138.416 1833.47 164.14 1825.37 158.396C1822.33 156.241 1823.05 150.429 1823.33 148.199C1825.74 128.695 1847.77 122.896 1874.39 98.5726C1879.32 94.0654 1912.75 63.5215 1905.7 49.6262C1901.98 42.2842 1888.25 42.1755 1885.28 42.1483C1861.51 41.9512 1848.73 63.0729 1840.35 58.4638C1832.29 54.0314 1841.77 33.2359 1832.86 26.5126C1823.87 19.7349 1801.95 31.6248 1787.93 42.8281C1755.89 68.4297 1753.39 99.7827 1732.1 101.292C1726.69 101.673 1719.78 100.15 1718.48 96.5331C1715.28 87.5664 1749.58 74.0858 1747.76 57.1041C1747.11 51.0946 1741.84 43.7594 1735.5 42.8281C1718.92 40.3944 1709.41 83.9498 1664.7 131.203C1656.85 139.504 1632.92 164.8 1624.54 159.756C1619.13 156.499 1620.35 140.707 1625.9 129.164C1633.57 113.209 1648.34 107.852 1646.32 101.292C1644.64 95.8126 1633.71 97.4645 1631.34 91.7745C1628.13 84.0246 1644.04 70.4216 1649.14 66.2815C1649.65 65.8669 1649.97 65.6085 1650.41 65.2618C1662.38 55.7853 1680.62 41.3597 1696.7 23.7934C1701.66 18.3685 1708.45 10.4351 1715.76 0C1686.94 0 1658.12 0 1629.3 0C1621.7 6.42421 1610.94 16.1727 1599.35 29.2319C1580.11 50.8907 1557.31 76.9546 1548.29 114.888C1544.05 132.679 1535.93 166.798 1555.78 195.106C1574.62 221.985 1607.36 227.471 1617.05 229.096C1628.25 230.973 1640.94 233.1 1653.81 227.057C1670.8 219.083 1675.03 203.005 1685.81 183.549C1692.14 172.101 1708.87 154.616 1742.31 119.647C1798.93 60.442 1809.54 60.2041 1814.48 62.5426C1820.48 65.3842 1821.91 73.8547 1822.65 78.1783C1826.15 98.8241 1812.45 116.955 1792.01 141.401C1743.98 198.845 1730.15 205.704 1728.02 227.737C1726.23 246.214 1733.28 269.164 1747.76 274.644C1765.27 281.265 1787.44 259.994 1792.01 255.609C1819.61 229.13 1816.05 198.797 1829.45 197.145C1841.85 195.616 1861.73 219.559 1859.41 241.333C1856.56 268.036 1822.66 269.756 1811.75 301.836C1802.34 329.511 1817.47 357.621 1823.33 368.457C1851.26 420.089 1911.3 429.756 1920 431C1920 315.432 1920 199.864 1920 84.2966C1914.72 88.9397 1907.37 96.0233 1897.66 104.772Z" fill="#F9F9FF"/>
<path d="M474.673 385.242C444.26 358.641 386.424 363.909 358.869 387.323C357.894 388.151 343.035 400.833 320.962 413.121C308.769 419.911 302.862 421.85 298.884 419.362C293.052 415.709 291.553 402.652 296.801 394.396C307.395 377.74 340.973 387.676 345.122 376.088C348.288 367.25 329.706 358.841 331.792 346.962C334.454 331.808 366.567 334.799 373.865 318.251C382.292 299.14 356.161 257.298 323.045 253.341C291.711 249.596 267.076 281.319 256.812 294.534C245.569 309.01 237.929 327.484 222.654 364.438C209.332 396.664 206.166 409.629 192.245 416.033C180.681 421.351 163.315 421.397 152.672 411.456C147.26 406.401 141.491 396.805 143.091 386.907C147.061 362.336 192.028 368.27 213.906 335.311C234.288 304.603 218.059 265.241 217.238 263.327C214.139 256.116 205.346 235.653 189.329 233.368C172.142 230.918 156.233 250.769 148.506 260.414C127.99 286.017 130.556 305.677 115.181 310.346C105.13 313.4 92.8161 308.407 87.2716 300.359C77.2659 285.834 91.4872 264.471 92.2704 263.327C96.5068 257.14 101.281 253.74 103.517 252.093C123.741 237.192 153.484 205.644 147.673 190.927C144.032 181.702 129.832 187.727 118.514 175.531C103.755 159.628 117.447 138.12 105.6 126.016C90.7291 110.821 60.6701 136.685 41.45 123.104C12.5949 102.715 41.4 26.6201 19.7889 17C13.0114 13.9833 5.73604 18.423 0 22.4092C0.41591 100.011 0 177.891 0 255.421C0 284.144 0 314.286 0 343.009C4.11562 361.887 8.95414 373.725 13.5405 381.914C16.3731 386.969 31.3859 413.778 44.7825 411.456C54.8507 409.713 54.3967 393.173 73.9417 378.169C79.5111 373.895 92.4995 363.918 104.351 368.182C112.573 371.141 116.814 379.721 118.514 383.162C120.776 387.743 124.795 395.628 121.43 400.638C117.385 406.663 108.97 402.219 99.7684 408.96C93.9324 413.237 88.6171 421.397 91.0207 426.436C93.4242 431.47 103.451 433.234 110.599 430.18C121.625 425.47 121.15 411.627 129.344 410.624C134.839 409.954 139.817 415.63 143.091 419.362C147.715 424.638 150.77 431.395 151.807 436.006C219.432 436.006 287.216 436.006 354.845 436.006C361.822 421.675 382.142 404.557 404.274 398.973C409.073 397.763 439.348 390.127 458.427 408.96C459.51 410.029 472.906 423.564 471.09 436.006C480.059 436.006 489.031 436.006 498 436.006C494.672 404.457 480.009 389.911 474.673 385.242ZM151.838 287.044C153.505 282.463 156.45 274.674 164.335 268.32C166.535 266.548 176.782 258.292 185.58 260.414C201.68 264.301 215.572 303.605 198.077 323.66C187.896 335.332 166.851 340.745 155.171 331.566C139.992 319.637 150.468 290.814 151.838 287.044Z" fill="#F9F9FF"/>
</svg>
