<svg width="40" height="40" viewBox="0 0 40 40" fill="none" xmlns="http://www.w3.org/2000/svg">
<path d="M0 8C0 3.58172 3.58172 0 8 0H32C36.4183 0 40 3.58172 40 8V32C40 36.4183 36.4183 40 32 40H8C3.58172 40 0 36.4183 0 32V8Z" fill="#616BE8"/>
<path d="M28.771 12.3156C26.567 9.61558 23.4632 8.04284 20.2543 8C17.2616 8.01713 14.4093 9.22882 12.2078 11.5714C10.0551 13.8614 8.83289 16.8845 9.01849 19.4609C9.16745 21.5366 10.4532 23.1743 13.6095 27.0076L13.9197 27.3846C16.0149 29.9352 17.529 31.7772 19.9772 31.9804C20.142 31.9939 20.2922 32 20.4204 32C20.6414 32 20.7989 31.9865 20.86 31.9804C23.4131 31.7466 24.9663 29.5987 26.7636 27.1116C29.6989 23.0506 30.9212 21.26 31.1788 19.888C31.6159 17.5699 30.6928 14.6692 28.771 12.3156ZM29.8149 19.6273C29.611 20.7117 28.3228 22.5794 25.639 26.2928C23.7916 28.8472 22.5669 30.4236 20.7366 30.59C20.667 30.5974 20.4192 30.6157 20.0919 30.59C18.2274 30.4346 16.9405 28.8692 14.9917 26.496L14.6804 26.1178C11.6034 22.3812 10.5167 20.9332 10.4031 19.3581C10.2493 17.1917 11.3543 14.5113 13.22 12.5261C15.1236 10.5017 17.5705 9.39161 20.1237 9.39161C20.1615 9.39161 20.1994 9.39283 20.2372 9.39283C23.0334 9.42955 25.7526 10.8163 27.6952 13.1968C29.3644 15.242 30.1751 17.7045 29.8149 19.6273Z" fill="white"/>
<path d="M20.0773 13.0511C17.3996 13.0511 15.2213 15.2346 15.2213 17.9187C15.2213 20.6028 17.3996 22.7863 20.0773 22.7863C22.755 22.7863 24.9333 20.6028 24.9333 17.9187C24.9333 15.2346 22.755 13.0511 20.0773 13.0511ZM20.0773 21.3934C18.1652 21.3934 16.6108 19.8342 16.6108 17.9187C16.6108 16.0033 18.1652 14.444 20.0773 14.444C21.9894 14.444 23.5438 16.0033 23.5438 17.9187C23.5438 19.8342 21.9882 21.3934 20.0773 21.3934Z" fill="white"/>
</svg>
