<svg width="40" height="40" viewBox="0 0 40 40" fill="none" xmlns="http://www.w3.org/2000/svg">
<path d="M0 8C0 3.58172 3.58172 0 8 0H32C36.4183 0 40 3.58172 40 8V32C40 36.4183 36.4183 40 32 40H8C3.58172 40 0 36.4183 0 32V8Z" fill="#616BE8"/>
<path d="M21.2704 19.9333C21.1868 20.0167 20.8184 20.3637 20.2423 20.3783C19.6523 20.3929 19.2624 20.0485 19.1788 19.9703C16.9315 18.2379 14.6842 16.5068 12.4381 14.7756C12.109 14.626 11.7469 14.667 11.5164 14.8869C11.462 14.9385 11.2341 15.1717 11.2784 15.5015C11.3126 15.7518 11.481 15.9001 11.5266 15.9372L18.4483 21.3438C18.9598 21.7438 19.5637 21.9412 20.1676 21.9412C20.8083 21.9412 21.4489 21.7174 21.9743 21.271L28.4289 15.8074C28.7023 15.5478 28.7327 15.1068 28.5061 14.8127C28.2858 14.5266 27.8832 14.4591 27.5844 14.6644C25.4789 16.4207 23.3746 18.177 21.2704 19.9333Z" fill="white"/>
<path d="M23.4172 8H16.5828C11.8502 8 8 12.0278 8 16.9788V23.0212C8 27.9722 11.8502 32 16.5828 32H23.4172C28.1498 32 32 27.9722 32 23.0212V16.9801C32 12.0278 28.1498 8 23.4172 8ZM30.8 23.0212C30.8 27.2 27.6 30.8 23.4172 30.8H16.5828C12.4 30.8598 9.2 27.2 9.2 23.0212V16.9801C9.2 12.8 12.2996 9.2 16.5828 9.2H23.4172C27.5023 9.08381 30.8 12.8 30.8 16.9801V23.0212Z" fill="white"/>
</svg>
