<svg width="40" height="40" viewBox="0 0 40 40" fill="none" xmlns="http://www.w3.org/2000/svg">
<path d="M0 8C0 3.58172 3.58172 0 8 0H32C36.4183 0 40 3.58172 40 8V32C40 36.4183 36.4183 40 32 40H8C3.58172 40 0 36.4183 0 32V8Z" fill="#616BE8"/>
<path d="M28.0414 21.4501C27.6085 21.0061 27.0871 20.7813 26.413 20.7759C25.7978 20.7855 25.2268 21.0431 24.8073 21.5008C23.853 22.5355 22.2567 22.5863 21.2448 21.6132L18.4073 18.8846C17.9168 18.4132 17.6353 17.7745 17.6152 17.0866C17.5951 16.3986 17.8377 15.7435 18.2988 15.2419L18.5802 14.9349C19.4193 14.0222 19.3992 12.6134 18.532 11.728L16.1328 9.2749C14.4668 7.57004 11.7567 7.57141 10.0679 9.30094C9.34955 10.1164 8.12853 11.8623 8.00924 14.3854C7.86717 17.4045 9.40048 19.5 10.0411 20.2318C11.4954 22.0956 13.0877 23.8704 14.7751 25.5026C16.4558 27.1307 18.2612 28.6506 20.0693 29.9607C20.7086 30.5788 22.4631 32 25.0646 32C25.1008 32 25.1383 31.9986 25.1745 31.9986C27.772 31.9603 29.5024 30.5199 30.1323 29.895L30.6483 29.3673C32.0637 27.9187 32.0637 25.5643 30.6483 24.1171L28.0414 21.4501ZM29.7021 28.3984L29.1941 28.9178C28.6848 29.4221 27.2748 30.598 25.1558 30.6282C23.0126 30.6515 21.5209 29.4756 20.9191 28.9041C19.0909 27.5706 17.3337 26.0905 15.6972 24.5063C14.054 22.9179 12.5046 21.1911 11.0651 19.3465C10.6309 18.8517 9.22624 17.0331 9.34821 14.4512C9.44739 12.3516 10.466 10.8962 11.0397 10.2424C11.6106 9.65863 12.3612 9.36535 13.1118 9.36535C13.8624 9.36535 14.6129 9.65726 15.1839 10.2424L17.583 12.6956C17.9342 13.0546 17.9422 13.6261 17.6018 13.9948L17.3203 14.3018C16.614 15.0706 16.2414 16.0724 16.2736 17.1277C16.3057 18.1816 16.736 19.1601 17.4879 19.8823L20.324 22.6109C21.8747 24.1034 24.3221 24.0252 25.7817 22.4396C25.9519 22.2546 26.1838 22.1504 26.4317 22.1463C26.7454 22.1354 26.9156 22.2395 27.0912 22.4191L29.6994 25.086C30.5947 25.9987 30.5947 27.4843 29.7021 28.3984Z" fill="white"/>
<path d="M25.263 14.5786C26.3553 15.6352 26.5202 16.955 26.539 17.473C26.5537 17.8431 26.8499 18.1309 27.2091 18.1309C27.2172 18.1309 27.2265 18.1309 27.2359 18.1309C27.6058 18.1158 27.894 17.7978 27.8793 17.4196C27.8511 16.7344 27.634 14.987 26.1838 13.5823C24.81 12.2529 23.1922 12.0761 22.5596 12.0624C22.2031 12.0542 21.8827 12.3543 21.8747 12.7326C21.8667 13.1108 22.1602 13.4247 22.5301 13.4329C23.0073 13.4439 24.2269 13.5768 25.263 14.5786Z" fill="white"/>
<path d="M29.2558 10.6933C26.6475 8.07848 23.4375 7.9894 22.4966 8.02092C22.128 8.03463 21.8385 8.35257 21.8519 8.73082C21.8653 9.10085 22.1615 9.39139 22.5221 9.39139C22.5301 9.39139 22.5381 9.39139 22.5475 9.39139C23.3316 9.36398 26.0926 9.43935 28.3175 11.6732C30.6081 13.9701 30.6872 16.87 30.655 17.7033C30.6416 18.0815 30.9298 18.3995 31.2997 18.4132C31.3078 18.4132 31.3171 18.4132 31.3252 18.4132C31.6844 18.4132 31.9806 18.1226 31.9953 17.754C32.0302 16.7768 31.9377 13.3822 29.2558 10.6933Z" fill="white"/>
</svg>
